<svg id="visual" viewBox="0 0 700 900" width="700" height="900" xmlns="http://www.w3.org/2000/svg" xmlns:xlink="http://www.w3.org/1999/xlink" version="1.1"><g stroke-width="1" stroke-linejoin="bevel"><path d="M350 450L388.9 412.5L350 412.5Z" fill="#0d123b" stroke="#0d123b"></path><path d="M350 450L388.9 450L388.9 412.5Z" fill="#0c1138" stroke="#0c1138"></path><path d="M350 450L388.9 487.5L388.9 450Z" fill="#0a0c2e" stroke="#0a0c2e"></path><path d="M388.9 412.5L388.9 375L350 412.5Z" fill="#101442" stroke="#101442"></path><path d="M388.9 375L350 375L350 412.5Z" fill="#090a2b" stroke="#090a2b"></path><path d="M350 450L350 487.5L388.9 487.5Z" fill="#101442" stroke="#101442"></path><path d="M388.9 487.5L427.8 450L388.9 450Z" fill="#16174c" stroke="#16174c"></path><path d="M388.9 450L427.8 450L388.9 412.5Z" fill="#16174c" stroke="#16174c"></path><path d="M388.9 412.5L427.8 412.5L388.9 375Z" fill="#0c1138" stroke="#0c1138"></path><path d="M427.8 450L427.8 412.5L388.9 412.5Z" fill="#0a0e31" stroke="#0a0e31"></path><path d="M350 375L311.1 412.5L350 412.5Z" fill="#0a0c2e" stroke="#0a0c2e"></path><path d="M350 412.5L311.1 412.5L350 450Z" fill="#090a2b" stroke="#090a2b"></path><path d="M350 450L311.1 450L350 487.5Z" fill="#0c1138" stroke="#0c1138"></path><path d="M311.1 412.5L311.1 450L350 450Z" fill="#090a2b" stroke="#090a2b"></path><path d="M427.8 412.5L427.8 375L388.9 375Z" fill="#16174c" stroke="#16174c"></path><path d="M388.9 487.5L427.8 487.5L427.8 450Z" fill="#090a2b" stroke="#090a2b"></path><path d="M311.1 450L311.1 487.5L350 487.5Z" fill="#0b1035" stroke="#0b1035"></path><path d="M350 375L311.1 375L311.1 412.5Z" fill="#0d123b" stroke="#0d123b"></path><path d="M350 487.5L388.9 525L388.9 487.5Z" fill="#0a0e31" stroke="#0a0e31"></path><path d="M388.9 487.5L388.9 525L427.8 487.5Z" fill="#0b1035" stroke="#0b1035"></path><path d="M350 525L388.9 525L350 487.5Z" fill="#0b1035" stroke="#0b1035"></path><path d="M427.8 375L388.9 337.5L388.9 375Z" fill="#0d123b" stroke="#0d123b"></path><path d="M388.9 375L388.9 337.5L350 375Z" fill="#0a0c2e" stroke="#0a0c2e"></path><path d="M350 375L350 337.5L311.1 375Z" fill="#0d123b" stroke="#0d123b"></path><path d="M311.1 487.5L350 525L350 487.5Z" fill="#090a2b" stroke="#090a2b"></path><path d="M388.9 337.5L350 337.5L350 375Z" fill="#090a2b" stroke="#090a2b"></path><path d="M466.7 450L466.7 412.5L427.8 450Z" fill="#0c1138" stroke="#0c1138"></path><path d="M427.8 450L466.7 412.5L427.8 412.5Z" fill="#121545" stroke="#121545"></path><path d="M427.8 412.5L466.7 412.5L427.8 375Z" fill="#0b1035" stroke="#0b1035"></path><path d="M427.8 375L427.8 337.5L388.9 337.5Z" fill="#121545" stroke="#121545"></path><path d="M466.7 487.5L466.7 450L427.8 487.5Z" fill="#101442" stroke="#101442"></path><path d="M427.8 487.5L466.7 450L427.8 450Z" fill="#101442" stroke="#101442"></path><path d="M311.1 375L272.2 412.5L311.1 412.5Z" fill="#090a2b" stroke="#090a2b"></path><path d="M311.1 412.5L272.2 412.5L311.1 450Z" fill="#090a2b" stroke="#090a2b"></path><path d="M311.1 450L272.2 450L311.1 487.5Z" fill="#0d123b" stroke="#0d123b"></path><path d="M272.2 412.5L272.2 450L311.1 450Z" fill="#0c1138" stroke="#0c1138"></path><path d="M388.9 525L427.8 525L427.8 487.5Z" fill="#121545" stroke="#121545"></path><path d="M466.7 375L427.8 337.5L427.8 375Z" fill="#101442" stroke="#101442"></path><path d="M272.2 487.5L311.1 525L311.1 487.5Z" fill="#121545" stroke="#121545"></path><path d="M311.1 487.5L311.1 525L350 525Z" fill="#121545" stroke="#121545"></path><path d="M350 337.5L311.1 337.5L311.1 375Z" fill="#0a0e31" stroke="#0a0e31"></path><path d="M311.1 375L272.2 375L272.2 412.5Z" fill="#121545" stroke="#121545"></path><path d="M427.8 525L466.7 487.5L427.8 487.5Z" fill="#0b1035" stroke="#0b1035"></path><path d="M466.7 412.5L466.7 375L427.8 375Z" fill="#101442" stroke="#101442"></path><path d="M272.2 450L272.2 487.5L311.1 487.5Z" fill="#0b1035" stroke="#0b1035"></path><path d="M311.1 337.5L272.2 375L311.1 375Z" fill="#0d123b" stroke="#0d123b"></path><path d="M388.9 337.5L350 300L350 337.5Z" fill="#16174c" stroke="#16174c"></path><path d="M350 337.5L350 300L311.1 337.5Z" fill="#0a0e31" stroke="#0a0e31"></path><path d="M388.9 300L350 300L388.9 337.5Z" fill="#0a0c2e" stroke="#0a0c2e"></path><path d="M311.1 525L350 562.5L350 525Z" fill="#101442" stroke="#101442"></path><path d="M350 525L350 562.5L388.9 525Z" fill="#141649" stroke="#141649"></path><path d="M388.9 525L388.9 562.5L427.8 525Z" fill="#101442" stroke="#101442"></path><path d="M350 562.5L388.9 562.5L388.9 525Z" fill="#101442" stroke="#101442"></path><path d="M427.8 525L466.7 525L466.7 487.5Z" fill="#16174c" stroke="#16174c"></path><path d="M427.8 300L388.9 300L427.8 337.5Z" fill="#16174c" stroke="#16174c"></path><path d="M427.8 337.5L388.9 300L388.9 337.5Z" fill="#101442" stroke="#101442"></path><path d="M427.8 562.5L466.7 525L427.8 525Z" fill="#0a0e31" stroke="#0a0e31"></path><path d="M466.7 375L466.7 337.5L427.8 337.5Z" fill="#0a0c2e" stroke="#0a0c2e"></path><path d="M272.2 487.5L272.2 525L311.1 525Z" fill="#121545" stroke="#121545"></path><path d="M311.1 525L311.1 562.5L350 562.5Z" fill="#141649" stroke="#141649"></path><path d="M311.1 337.5L272.2 337.5L272.2 375Z" fill="#0d123b" stroke="#0d123b"></path><path d="M311.1 300L272.2 337.5L311.1 337.5Z" fill="#16174c" stroke="#16174c"></path><path d="M466.7 450L505.6 412.5L466.7 412.5Z" fill="#121545" stroke="#121545"></path><path d="M466.7 412.5L505.6 412.5L466.7 375Z" fill="#0c1138" stroke="#0c1138"></path><path d="M466.7 375L505.6 375L466.7 337.5Z" fill="#0d123b" stroke="#0d123b"></path><path d="M505.6 450L505.6 412.5L466.7 450Z" fill="#101442" stroke="#101442"></path><path d="M505.6 450L466.7 450L466.7 487.5Z" fill="#101442" stroke="#101442"></path><path d="M505.6 487.5L505.6 450L466.7 487.5Z" fill="#141649" stroke="#141649"></path><path d="M272.2 375L233.3 412.5L272.2 412.5Z" fill="#0d123b" stroke="#0d123b"></path><path d="M272.2 412.5L233.3 412.5L272.2 450Z" fill="#101442" stroke="#101442"></path><path d="M272.2 450L233.3 450L272.2 487.5Z" fill="#121545" stroke="#121545"></path><path d="M272.2 487.5L233.3 487.5L272.2 525Z" fill="#0b1035" stroke="#0b1035"></path><path d="M233.3 375L233.3 412.5L272.2 375Z" fill="#101442" stroke="#101442"></path><path d="M233.3 412.5L233.3 450L272.2 450Z" fill="#101442" stroke="#101442"></path><path d="M466.7 337.5L427.8 300L427.8 337.5Z" fill="#0a0e31" stroke="#0a0e31"></path><path d="M388.9 562.5L427.8 562.5L427.8 525Z" fill="#141649" stroke="#141649"></path><path d="M350 300L311.1 300L311.1 337.5Z" fill="#121545" stroke="#121545"></path><path d="M272.2 525L311.1 562.5L311.1 525Z" fill="#121545" stroke="#121545"></path><path d="M466.7 525L505.6 487.5L466.7 487.5Z" fill="#0a0e31" stroke="#0a0e31"></path><path d="M505.6 412.5L505.6 375L466.7 375Z" fill="#121545" stroke="#121545"></path><path d="M233.3 450L233.3 487.5L272.2 487.5Z" fill="#0a0c2e" stroke="#0a0c2e"></path><path d="M272.2 337.5L233.3 375L272.2 375Z" fill="#16174c" stroke="#16174c"></path><path d="M466.7 337.5L466.7 300L427.8 300Z" fill="#16174c" stroke="#16174c"></path><path d="M505.6 337.5L466.7 300L466.7 337.5Z" fill="#141649" stroke="#141649"></path><path d="M427.8 562.5L466.7 562.5L466.7 525Z" fill="#090a2b" stroke="#090a2b"></path><path d="M466.7 525L505.6 525L505.6 487.5Z" fill="#0b1035" stroke="#0b1035"></path><path d="M272.2 525L272.2 562.5L311.1 562.5Z" fill="#141649" stroke="#141649"></path><path d="M233.3 525L272.2 562.5L272.2 525Z" fill="#0f133e" stroke="#0f133e"></path><path d="M311.1 300L272.2 300L272.2 337.5Z" fill="#0a0e31" stroke="#0a0e31"></path><path d="M272.2 337.5L233.3 337.5L233.3 375Z" fill="#101442" stroke="#101442"></path><path d="M466.7 562.5L505.6 525L466.7 525Z" fill="#0d123b" stroke="#0d123b"></path><path d="M505.6 375L505.6 337.5L466.7 337.5Z" fill="#121545" stroke="#121545"></path><path d="M233.3 487.5L233.3 525L272.2 525Z" fill="#0c1138" stroke="#0c1138"></path><path d="M272.2 300L233.3 337.5L272.2 337.5Z" fill="#101442" stroke="#101442"></path><path d="M350 562.5L388.9 600L388.9 562.5Z" fill="#101442" stroke="#101442"></path><path d="M388.9 562.5L388.9 600L427.8 562.5Z" fill="#0a0e31" stroke="#0a0e31"></path><path d="M427.8 562.5L427.8 600L466.7 562.5Z" fill="#0a0e31" stroke="#0a0e31"></path><path d="M350 600L388.9 600L350 562.5Z" fill="#0d123b" stroke="#0d123b"></path><path d="M350 600L350 562.5L311.1 562.5Z" fill="#16174c" stroke="#16174c"></path><path d="M427.8 300L388.9 262.5L388.9 300Z" fill="#101442" stroke="#101442"></path><path d="M388.9 300L388.9 262.5L350 300Z" fill="#101442" stroke="#101442"></path><path d="M350 300L350 262.5L311.1 300Z" fill="#121545" stroke="#121545"></path><path d="M311.1 300L311.1 262.5L272.2 300Z" fill="#0b1035" stroke="#0b1035"></path><path d="M427.8 262.5L388.9 262.5L427.8 300Z" fill="#0a0e31" stroke="#0a0e31"></path><path d="M311.1 600L350 600L311.1 562.5Z" fill="#121545" stroke="#121545"></path><path d="M388.9 262.5L350 262.5L350 300Z" fill="#090a2b" stroke="#090a2b"></path><path d="M505.6 450L544.4 412.5L505.6 412.5Z" fill="#0a0e31" stroke="#0a0e31"></path><path d="M505.6 412.5L544.4 412.5L505.6 375Z" fill="#0a0c2e" stroke="#0a0c2e"></path><path d="M505.6 375L544.4 375L505.6 337.5Z" fill="#0f133e" stroke="#0f133e"></path><path d="M544.4 450L544.4 412.5L505.6 450Z" fill="#0b1035" stroke="#0b1035"></path><path d="M544.4 450L505.6 450L505.6 487.5Z" fill="#101442" stroke="#101442"></path><path d="M544.4 487.5L544.4 450L505.6 487.5Z" fill="#141649" stroke="#141649"></path><path d="M233.3 412.5L194.4 450L233.3 450Z" fill="#0a0c2e" stroke="#0a0c2e"></path><path d="M233.3 450L194.4 450L233.3 487.5Z" fill="#141649" stroke="#141649"></path><path d="M233.3 487.5L194.4 487.5L233.3 525Z" fill="#0d123b" stroke="#0d123b"></path><path d="M194.4 412.5L194.4 450L233.3 412.5Z" fill="#141649" stroke="#141649"></path><path d="M194.4 412.5L233.3 412.5L233.3 375Z" fill="#0d123b" stroke="#0d123b"></path><path d="M194.4 375L194.4 412.5L233.3 375Z" fill="#121545" stroke="#121545"></path><path d="M388.9 600L427.8 600L427.8 562.5Z" fill="#0a0c2e" stroke="#0a0c2e"></path><path d="M466.7 300L427.8 262.5L427.8 300Z" fill="#090a2b" stroke="#090a2b"></path><path d="M350 262.5L311.1 262.5L311.1 300Z" fill="#141649" stroke="#141649"></path><path d="M272.2 562.5L311.1 600L311.1 562.5Z" fill="#101442" stroke="#101442"></path><path d="M544.4 412.5L544.4 375L505.6 375Z" fill="#141649" stroke="#141649"></path><path d="M505.6 525L544.4 487.5L505.6 487.5Z" fill="#16174c" stroke="#16174c"></path><path d="M194.4 337.5L194.4 375L233.3 337.5Z" fill="#0c1138" stroke="#0c1138"></path><path d="M233.3 337.5L194.4 375L233.3 375Z" fill="#0a0e31" stroke="#0a0e31"></path><path d="M194.4 450L194.4 487.5L233.3 487.5Z" fill="#0f133e" stroke="#0f133e"></path><path d="M233.3 525L233.3 562.5L272.2 562.5Z" fill="#0f133e" stroke="#0f133e"></path><path d="M544.4 337.5L505.6 300L505.6 337.5Z" fill="#0c1138" stroke="#0c1138"></path><path d="M505.6 337.5L505.6 300L466.7 300Z" fill="#121545" stroke="#121545"></path><path d="M466.7 300L466.7 262.5L427.8 262.5Z" fill="#141649" stroke="#141649"></path><path d="M466.7 562.5L505.6 562.5L505.6 525Z" fill="#0f133e" stroke="#0f133e"></path><path d="M505.6 525L544.4 525L544.4 487.5Z" fill="#0a0c2e" stroke="#0a0c2e"></path><path d="M466.7 600L505.6 562.5L466.7 562.5Z" fill="#0a0c2e" stroke="#0a0c2e"></path><path d="M272.2 262.5L233.3 300L272.2 300Z" fill="#0a0e31" stroke="#0a0e31"></path><path d="M272.2 300L233.3 300L233.3 337.5Z" fill="#16174c" stroke="#16174c"></path><path d="M194.4 525L233.3 562.5L233.3 525Z" fill="#141649" stroke="#141649"></path><path d="M272.2 562.5L272.2 600L311.1 600Z" fill="#0a0c2e" stroke="#0a0c2e"></path><path d="M427.8 600L466.7 600L466.7 562.5Z" fill="#0b1035" stroke="#0b1035"></path><path d="M505.6 300L466.7 262.5L466.7 300Z" fill="#16174c" stroke="#16174c"></path><path d="M311.1 262.5L272.2 262.5L272.2 300Z" fill="#121545" stroke="#121545"></path><path d="M233.3 562.5L272.2 600L272.2 562.5Z" fill="#0f133e" stroke="#0f133e"></path><path d="M505.6 562.5L544.4 525L505.6 525Z" fill="#0d123b" stroke="#0d123b"></path><path d="M544.4 375L544.4 337.5L505.6 337.5Z" fill="#0a0e31" stroke="#0a0e31"></path><path d="M194.4 487.5L194.4 525L233.3 525Z" fill="#16174c" stroke="#16174c"></path><path d="M233.3 562.5L233.3 600L272.2 600Z" fill="#121545" stroke="#121545"></path><path d="M233.3 300L194.4 337.5L233.3 337.5Z" fill="#0b1035" stroke="#0b1035"></path><path d="M194.4 300L194.4 337.5L233.3 300Z" fill="#141649" stroke="#141649"></path><path d="M427.8 225L388.9 225L427.8 262.5Z" fill="#16174c" stroke="#16174c"></path><path d="M427.8 262.5L388.9 225L388.9 262.5Z" fill="#0c1138" stroke="#0c1138"></path><path d="M388.9 262.5L388.9 225L350 262.5Z" fill="#0c1138" stroke="#0c1138"></path><path d="M350 262.5L350 225L311.1 262.5Z" fill="#0f133e" stroke="#0f133e"></path><path d="M311.1 262.5L311.1 225L272.2 262.5Z" fill="#0b1035" stroke="#0b1035"></path><path d="M350 637.5L350 600L311.1 600Z" fill="#101442" stroke="#101442"></path><path d="M350 637.5L388.9 637.5L350 600Z" fill="#101442" stroke="#101442"></path><path d="M350 600L388.9 637.5L388.9 600Z" fill="#090a2b" stroke="#090a2b"></path><path d="M388.9 600L388.9 637.5L427.8 600Z" fill="#090a2b" stroke="#090a2b"></path><path d="M427.8 600L427.8 637.5L466.7 600Z" fill="#0f133e" stroke="#0f133e"></path><path d="M311.1 637.5L350 637.5L311.1 600Z" fill="#0a0c2e" stroke="#0a0c2e"></path><path d="M388.9 225L350 225L350 262.5Z" fill="#0f133e" stroke="#0f133e"></path><path d="M388.9 637.5L427.8 637.5L427.8 600Z" fill="#090a2b" stroke="#090a2b"></path><path d="M466.7 262.5L427.8 225L427.8 262.5Z" fill="#0f133e" stroke="#0f133e"></path><path d="M272.2 600L311.1 637.5L311.1 600Z" fill="#0b1035" stroke="#0b1035"></path><path d="M350 225L311.1 225L311.1 262.5Z" fill="#0c1138" stroke="#0c1138"></path><path d="M544.4 450L583.3 412.5L544.4 412.5Z" fill="#0a0c2e" stroke="#0a0c2e"></path><path d="M544.4 412.5L583.3 412.5L544.4 375Z" fill="#16174c" stroke="#16174c"></path><path d="M544.4 375L583.3 375L544.4 337.5Z" fill="#141649" stroke="#141649"></path><path d="M583.3 450L583.3 412.5L544.4 450Z" fill="#0c1138" stroke="#0c1138"></path><path d="M583.3 450L544.4 450L544.4 487.5Z" fill="#0f133e" stroke="#0f133e"></path><path d="M583.3 487.5L583.3 450L544.4 487.5Z" fill="#0a0c2e" stroke="#0a0c2e"></path><path d="M194.4 375L155.6 412.5L194.4 412.5Z" fill="#121545" stroke="#121545"></path><path d="M194.4 412.5L155.6 412.5L194.4 450Z" fill="#141649" stroke="#141649"></path><path d="M194.4 450L155.6 450L194.4 487.5Z" fill="#0a0c2e" stroke="#0a0c2e"></path><path d="M194.4 487.5L155.6 487.5L194.4 525Z" fill="#16174c" stroke="#16174c"></path><path d="M155.6 375L155.6 412.5L194.4 375Z" fill="#16174c" stroke="#16174c"></path><path d="M155.6 412.5L155.6 450L194.4 450Z" fill="#141649" stroke="#141649"></path><path d="M466.7 637.5L505.6 600L466.7 600Z" fill="#16174c" stroke="#16174c"></path><path d="M466.7 600L505.6 600L505.6 562.5Z" fill="#0a0c2e" stroke="#0a0c2e"></path><path d="M505.6 562.5L544.4 562.5L544.4 525Z" fill="#101442" stroke="#101442"></path><path d="M544.4 525L583.3 487.5L544.4 487.5Z" fill="#0a0e31" stroke="#0a0e31"></path><path d="M505.6 300L505.6 262.5L466.7 262.5Z" fill="#0c1138" stroke="#0c1138"></path><path d="M466.7 262.5L466.7 225L427.8 225Z" fill="#141649" stroke="#141649"></path><path d="M544.4 300L505.6 262.5L505.6 300Z" fill="#0c1138" stroke="#0c1138"></path><path d="M544.4 300L505.6 300L544.4 337.5Z" fill="#0a0e31" stroke="#0a0e31"></path><path d="M272.2 225L233.3 262.5L272.2 262.5Z" fill="#090a2b" stroke="#090a2b"></path><path d="M272.2 262.5L233.3 262.5L233.3 300Z" fill="#090a2b" stroke="#090a2b"></path><path d="M194.4 562.5L233.3 600L233.3 562.5Z" fill="#16174c" stroke="#16174c"></path><path d="M272.2 600L272.2 637.5L311.1 637.5Z" fill="#101442" stroke="#101442"></path><path d="M583.3 337.5L544.4 300L544.4 337.5Z" fill="#101442" stroke="#101442"></path><path d="M505.6 600L544.4 562.5L505.6 562.5Z" fill="#0d123b" stroke="#0d123b"></path><path d="M233.3 262.5L194.4 300L233.3 300Z" fill="#0c1138" stroke="#0c1138"></path><path d="M194.4 337.5L155.6 375L194.4 375Z" fill="#090a2b" stroke="#090a2b"></path><path d="M155.6 525L194.4 562.5L194.4 525Z" fill="#090a2b" stroke="#090a2b"></path><path d="M194.4 525L194.4 562.5L233.3 562.5Z" fill="#101442" stroke="#101442"></path><path d="M583.3 525L583.3 487.5L544.4 525Z" fill="#0a0e31" stroke="#0a0e31"></path><path d="M583.3 412.5L583.3 375L544.4 375Z" fill="#0a0e31" stroke="#0a0e31"></path><path d="M155.6 337.5L155.6 375L194.4 337.5Z" fill="#090a2b" stroke="#090a2b"></path><path d="M155.6 450L155.6 487.5L194.4 487.5Z" fill="#0c1138" stroke="#0c1138"></path><path d="M505.6 262.5L466.7 225L466.7 262.5Z" fill="#090a2b" stroke="#090a2b"></path><path d="M427.8 637.5L466.7 637.5L466.7 600Z" fill="#121545" stroke="#121545"></path><path d="M311.1 225L272.2 225L272.2 262.5Z" fill="#0f133e" stroke="#0f133e"></path><path d="M233.3 262.5L194.4 262.5L194.4 300Z" fill="#141649" stroke="#141649"></path><path d="M233.3 637.5L272.2 637.5L233.3 600Z" fill="#090a2b" stroke="#090a2b"></path><path d="M233.3 600L272.2 637.5L272.2 600Z" fill="#0f133e" stroke="#0f133e"></path><path d="M544.4 562.5L583.3 525L544.4 525Z" fill="#101442" stroke="#101442"></path><path d="M583.3 562.5L583.3 525L544.4 562.5Z" fill="#0a0c2e" stroke="#0a0c2e"></path><path d="M583.3 375L583.3 337.5L544.4 337.5Z" fill="#0a0e31" stroke="#0a0e31"></path><path d="M544.4 300L544.4 262.5L505.6 262.5Z" fill="#0d123b" stroke="#0d123b"></path><path d="M155.6 487.5L155.6 525L194.4 525Z" fill="#0d123b" stroke="#0d123b"></path><path d="M194.4 300L155.6 337.5L194.4 337.5Z" fill="#0a0c2e" stroke="#0a0c2e"></path><path d="M505.6 637.5L544.4 600L505.6 600Z" fill="#101442" stroke="#101442"></path><path d="M505.6 600L544.4 600L544.4 562.5Z" fill="#090a2b" stroke="#090a2b"></path><path d="M583.3 300L544.4 262.5L544.4 300Z" fill="#0d123b" stroke="#0d123b"></path><path d="M505.6 262.5L505.6 225L466.7 225Z" fill="#0a0e31" stroke="#0a0e31"></path><path d="M233.3 225L194.4 262.5L233.3 262.5Z" fill="#0a0e31" stroke="#0a0e31"></path><path d="M194.4 300L155.6 300L155.6 337.5Z" fill="#0a0c2e" stroke="#0a0c2e"></path><path d="M155.6 562.5L194.4 600L194.4 562.5Z" fill="#101442" stroke="#101442"></path><path d="M194.4 562.5L194.4 600L233.3 600Z" fill="#0d123b" stroke="#0d123b"></path><path d="M350 637.5L388.9 675L388.9 637.5Z" fill="#090a2b" stroke="#090a2b"></path><path d="M388.9 637.5L388.9 675L427.8 637.5Z" fill="#101442" stroke="#101442"></path><path d="M427.8 637.5L427.8 675L466.7 637.5Z" fill="#0c1138" stroke="#0c1138"></path><path d="M350 675L388.9 675L350 637.5Z" fill="#0b1035" stroke="#0b1035"></path><path d="M350 675L350 637.5L311.1 637.5Z" fill="#0f133e" stroke="#0f133e"></path><path d="M388.9 225L388.9 187.5L350 225Z" fill="#0a0e31" stroke="#0a0e31"></path><path d="M350 225L350 187.5L311.1 225Z" fill="#0d123b" stroke="#0d123b"></path><path d="M311.1 225L311.1 187.5L272.2 225Z" fill="#16174c" stroke="#16174c"></path><path d="M427.8 225L388.9 187.5L388.9 225Z" fill="#141649" stroke="#141649"></path><path d="M427.8 187.5L388.9 187.5L427.8 225Z" fill="#101442" stroke="#101442"></path><path d="M311.1 675L350 675L311.1 637.5Z" fill="#121545" stroke="#121545"></path><path d="M388.9 187.5L350 187.5L350 225Z" fill="#16174c" stroke="#16174c"></path><path d="M544.4 262.5L505.6 225L505.6 262.5Z" fill="#0f133e" stroke="#0f133e"></path><path d="M466.7 225L427.8 187.5L427.8 225Z" fill="#0c1138" stroke="#0c1138"></path><path d="M466.7 675L505.6 637.5L466.7 637.5Z" fill="#0d123b" stroke="#0d123b"></path><path d="M466.7 637.5L505.6 637.5L505.6 600Z" fill="#121545" stroke="#121545"></path><path d="M272.2 187.5L233.3 225L272.2 225Z" fill="#0f133e" stroke="#0f133e"></path><path d="M272.2 225L233.3 225L233.3 262.5Z" fill="#16174c" stroke="#16174c"></path><path d="M194.4 600L233.3 637.5L233.3 600Z" fill="#141649" stroke="#141649"></path><path d="M272.2 637.5L311.1 675L311.1 637.5Z" fill="#141649" stroke="#141649"></path><path d="M388.9 675L427.8 675L427.8 637.5Z" fill="#16174c" stroke="#16174c"></path><path d="M466.7 187.5L427.8 187.5L466.7 225Z" fill="#121545" stroke="#121545"></path><path d="M272.2 675L311.1 675L272.2 637.5Z" fill="#141649" stroke="#141649"></path><path d="M350 187.5L311.1 187.5L311.1 225Z" fill="#101442" stroke="#101442"></path><path d="M583.3 600L583.3 562.5L544.4 600Z" fill="#121545" stroke="#121545"></path><path d="M544.4 600L583.3 562.5L544.4 562.5Z" fill="#0b1035" stroke="#0b1035"></path><path d="M583.3 337.5L583.3 300L544.4 300Z" fill="#0b1035" stroke="#0b1035"></path><path d="M544.4 262.5L544.4 225L505.6 225Z" fill="#0f133e" stroke="#0f133e"></path><path d="M155.6 525L155.6 562.5L194.4 562.5Z" fill="#0c1138" stroke="#0c1138"></path><path d="M194.4 262.5L155.6 300L194.4 300Z" fill="#101442" stroke="#101442"></path><path d="M583.3 450L622.2 412.5L583.3 412.5Z" fill="#0b1035" stroke="#0b1035"></path><path d="M583.3 412.5L622.2 412.5L583.3 375Z" fill="#090a2b" stroke="#090a2b"></path><path d="M583.3 375L622.2 375L583.3 337.5Z" fill="#0a0e31" stroke="#0a0e31"></path><path d="M583.3 337.5L622.2 337.5L583.3 300Z" fill="#16174c" stroke="#16174c"></path><path d="M622.2 450L622.2 412.5L583.3 450Z" fill="#0a0e31" stroke="#0a0e31"></path><path d="M622.2 450L583.3 450L583.3 487.5Z" fill="#0d123b" stroke="#0d123b"></path><path d="M622.2 450L583.3 487.5L622.2 487.5Z" fill="#0a0c2e" stroke="#0a0c2e"></path><path d="M622.2 487.5L583.3 487.5L583.3 525Z" fill="#0b1035" stroke="#0b1035"></path><path d="M155.6 412.5L116.7 450L155.6 450Z" fill="#090a2b" stroke="#090a2b"></path><path d="M155.6 450L116.7 450L155.6 487.5Z" fill="#121545" stroke="#121545"></path><path d="M155.6 487.5L116.7 487.5L155.6 525Z" fill="#16174c" stroke="#16174c"></path><path d="M155.6 525L116.7 525L155.6 562.5Z" fill="#16174c" stroke="#16174c"></path><path d="M116.7 412.5L116.7 450L155.6 412.5Z" fill="#16174c" stroke="#16174c"></path><path d="M116.7 412.5L155.6 412.5L155.6 375Z" fill="#121545" stroke="#121545"></path><path d="M116.7 412.5L155.6 375L116.7 375Z" fill="#0f133e" stroke="#0f133e"></path><path d="M116.7 375L155.6 375L155.6 337.5Z" fill="#16174c" stroke="#16174c"></path><path d="M622.2 525L622.2 487.5L583.3 525Z" fill="#16174c" stroke="#16174c"></path><path d="M622.2 412.5L622.2 375L583.3 375Z" fill="#0d123b" stroke="#0d123b"></path><path d="M116.7 450L116.7 487.5L155.6 487.5Z" fill="#0d123b" stroke="#0d123b"></path><path d="M116.7 337.5L116.7 375L155.6 337.5Z" fill="#0a0c2e" stroke="#0a0c2e"></path><path d="M427.8 675L466.7 675L466.7 637.5Z" fill="#16174c" stroke="#16174c"></path><path d="M505.6 225L466.7 187.5L466.7 225Z" fill="#0a0c2e" stroke="#0a0c2e"></path><path d="M233.3 675L272.2 675L233.3 637.5Z" fill="#101442" stroke="#101442"></path><path d="M233.3 637.5L272.2 675L272.2 637.5Z" fill="#121545" stroke="#121545"></path><path d="M311.1 187.5L272.2 187.5L272.2 225Z" fill="#0d123b" stroke="#0d123b"></path><path d="M233.3 225L194.4 225L194.4 262.5Z" fill="#0b1035" stroke="#0b1035"></path><path d="M583.3 562.5L622.2 525L583.3 525Z" fill="#0a0e31" stroke="#0a0e31"></path><path d="M622.2 562.5L622.2 525L583.3 562.5Z" fill="#0c1138" stroke="#0c1138"></path><path d="M622.2 375L622.2 337.5L583.3 337.5Z" fill="#16174c" stroke="#16174c"></path><path d="M583.3 262.5L544.4 225L544.4 262.5Z" fill="#0a0e31" stroke="#0a0e31"></path><path d="M116.7 487.5L116.7 525L155.6 525Z" fill="#0a0e31" stroke="#0a0e31"></path><path d="M155.6 300L116.7 337.5L155.6 337.5Z" fill="#0a0c2e" stroke="#0a0c2e"></path><path d="M583.3 262.5L544.4 262.5L583.3 300Z" fill="#0c1138" stroke="#0c1138"></path><path d="M505.6 225L505.6 187.5L466.7 187.5Z" fill="#090a2b" stroke="#090a2b"></path><path d="M505.6 675L544.4 637.5L505.6 637.5Z" fill="#0d123b" stroke="#0d123b"></path><path d="M505.6 637.5L544.4 637.5L544.4 600Z" fill="#0f133e" stroke="#0f133e"></path><path d="M155.6 600L194.4 637.5L194.4 600Z" fill="#101442" stroke="#101442"></path><path d="M194.4 600L194.4 637.5L233.3 637.5Z" fill="#090a2b" stroke="#090a2b"></path><path d="M155.6 600L194.4 600L155.6 562.5Z" fill="#141649" stroke="#141649"></path><path d="M194.4 262.5L155.6 262.5L155.6 300Z" fill="#0b1035" stroke="#0b1035"></path><path d="M155.6 300L116.7 300L116.7 337.5Z" fill="#0a0c2e" stroke="#0a0c2e"></path><path d="M233.3 187.5L194.4 225L233.3 225Z" fill="#0a0c2e" stroke="#0a0c2e"></path><path d="M622.2 300L583.3 262.5L583.3 300Z" fill="#0b1035" stroke="#0b1035"></path><path d="M544.4 637.5L583.3 600L544.4 600Z" fill="#0d123b" stroke="#0d123b"></path><path d="M194.4 225L155.6 262.5L194.4 262.5Z" fill="#090a2b" stroke="#090a2b"></path><path d="M116.7 562.5L155.6 600L155.6 562.5Z" fill="#141649" stroke="#141649"></path><path d="M194.4 637.5L233.3 675L233.3 637.5Z" fill="#0a0c2e" stroke="#0a0c2e"></path><path d="M466.7 675L505.6 675L505.6 637.5Z" fill="#090a2b" stroke="#090a2b"></path><path d="M544.4 637.5L583.3 637.5L583.3 600Z" fill="#121545" stroke="#121545"></path><path d="M544.4 187.5L505.6 187.5L544.4 225Z" fill="#121545" stroke="#121545"></path><path d="M544.4 225L505.6 187.5L505.6 225Z" fill="#0c1138" stroke="#0c1138"></path><path d="M272.2 187.5L233.3 187.5L233.3 225Z" fill="#0c1138" stroke="#0c1138"></path><path d="M350 675L388.9 712.5L388.9 675Z" fill="#141649" stroke="#141649"></path><path d="M388.9 675L388.9 712.5L427.8 675Z" fill="#0c1138" stroke="#0c1138"></path><path d="M427.8 675L427.8 712.5L466.7 675Z" fill="#090a2b" stroke="#090a2b"></path><path d="M466.7 675L466.7 712.5L505.6 675Z" fill="#101442" stroke="#101442"></path><path d="M350 712.5L388.9 712.5L350 675Z" fill="#141649" stroke="#141649"></path><path d="M350 712.5L350 675L311.1 675Z" fill="#0a0e31" stroke="#0a0e31"></path><path d="M350 712.5L311.1 675L311.1 712.5Z" fill="#121545" stroke="#121545"></path><path d="M311.1 712.5L311.1 675L272.2 675Z" fill="#090a2b" stroke="#090a2b"></path><path d="M388.9 187.5L388.9 150L350 187.5Z" fill="#090a2b" stroke="#090a2b"></path><path d="M350 187.5L350 150L311.1 187.5Z" fill="#0c1138" stroke="#0c1138"></path><path d="M311.1 187.5L311.1 150L272.2 187.5Z" fill="#0a0c2e" stroke="#0a0c2e"></path><path d="M272.2 187.5L272.2 150L233.3 187.5Z" fill="#16174c" stroke="#16174c"></path><path d="M427.8 187.5L388.9 150L388.9 187.5Z" fill="#0c1138" stroke="#0c1138"></path><path d="M427.8 150L388.9 150L427.8 187.5Z" fill="#0a0c2e" stroke="#0a0c2e"></path><path d="M427.8 150L427.8 187.5L466.7 187.5Z" fill="#16174c" stroke="#16174c"></path><path d="M388.9 150L350 150L350 187.5Z" fill="#090a2b" stroke="#090a2b"></path><path d="M583.3 600L622.2 562.5L583.3 562.5Z" fill="#141649" stroke="#141649"></path><path d="M622.2 600L622.2 562.5L583.3 600Z" fill="#16174c" stroke="#16174c"></path><path d="M622.2 337.5L622.2 300L583.3 300Z" fill="#121545" stroke="#121545"></path><path d="M583.3 262.5L583.3 225L544.4 225Z" fill="#141649" stroke="#141649"></path><path d="M155.6 262.5L116.7 300L155.6 300Z" fill="#0d123b" stroke="#0d123b"></path><path d="M116.7 525L116.7 562.5L155.6 562.5Z" fill="#0d123b" stroke="#0d123b"></path><path d="M388.9 712.5L427.8 712.5L427.8 675Z" fill="#0a0e31" stroke="#0a0e31"></path><path d="M466.7 150L427.8 150L466.7 187.5Z" fill="#0c1138" stroke="#0c1138"></path><path d="M272.2 712.5L311.1 712.5L272.2 675Z" fill="#141649" stroke="#141649"></path><path d="M350 150L311.1 150L311.1 187.5Z" fill="#16174c" stroke="#16174c"></path><path d="M622.2 487.5L661.1 450L622.2 450Z" fill="#16174c" stroke="#16174c"></path><path d="M622.2 450L661.1 450L622.2 412.5Z" fill="#0b1035" stroke="#0b1035"></path><path d="M622.2 412.5L661.1 412.5L622.2 375Z" fill="#0a0c2e" stroke="#0a0c2e"></path><path d="M622.2 375L661.1 375L622.2 337.5Z" fill="#16174c" stroke="#16174c"></path><path d="M622.2 337.5L661.1 337.5L622.2 300Z" fill="#16174c" stroke="#16174c"></path><path d="M661.1 487.5L661.1 450L622.2 487.5Z" fill="#121545" stroke="#121545"></path><path d="M661.1 487.5L622.2 487.5L622.2 525Z" fill="#141649" stroke="#141649"></path><path d="M661.1 450L661.1 412.5L622.2 412.5Z" fill="#0f133e" stroke="#0f133e"></path><path d="M116.7 412.5L77.8 450L116.7 450Z" fill="#0c1138" stroke="#0c1138"></path><path d="M116.7 450L77.8 450L116.7 487.5Z" fill="#0b1035" stroke="#0b1035"></path><path d="M116.7 487.5L77.8 487.5L116.7 525Z" fill="#0c1138" stroke="#0c1138"></path><path d="M116.7 525L77.8 525L116.7 562.5Z" fill="#0d123b" stroke="#0d123b"></path><path d="M77.8 412.5L77.8 450L116.7 412.5Z" fill="#121545" stroke="#121545"></path><path d="M77.8 412.5L116.7 412.5L116.7 375Z" fill="#0a0c2e" stroke="#0a0c2e"></path><path d="M77.8 412.5L116.7 375L77.8 375Z" fill="#121545" stroke="#121545"></path><path d="M77.8 375L116.7 375L116.7 337.5Z" fill="#090a2b" stroke="#090a2b"></path><path d="M661.1 525L661.1 487.5L622.2 525Z" fill="#0f133e" stroke="#0f133e"></path><path d="M661.1 412.5L661.1 375L622.2 375Z" fill="#0b1035" stroke="#0b1035"></path><path d="M77.8 450L77.8 487.5L116.7 487.5Z" fill="#0c1138" stroke="#0c1138"></path><path d="M77.8 337.5L77.8 375L116.7 337.5Z" fill="#0a0e31" stroke="#0a0e31"></path><path d="M544.4 675L583.3 637.5L544.4 637.5Z" fill="#16174c" stroke="#16174c"></path><path d="M622.2 262.5L583.3 225L583.3 262.5Z" fill="#0b1035" stroke="#0b1035"></path><path d="M194.4 225L155.6 225L155.6 262.5Z" fill="#16174c" stroke="#16174c"></path><path d="M155.6 262.5L116.7 262.5L116.7 300Z" fill="#090a2b" stroke="#090a2b"></path><path d="M194.4 187.5L155.6 225L194.4 225Z" fill="#141649" stroke="#141649"></path><path d="M155.6 600L155.6 637.5L194.4 637.5Z" fill="#090a2b" stroke="#090a2b"></path><path d="M194.4 637.5L194.4 675L233.3 675Z" fill="#141649" stroke="#141649"></path><path d="M116.7 600L155.6 637.5L155.6 600Z" fill="#090a2b" stroke="#090a2b"></path><path d="M427.8 712.5L466.7 712.5L466.7 675Z" fill="#16174c" stroke="#16174c"></path><path d="M505.6 675L544.4 675L544.4 637.5Z" fill="#121545" stroke="#121545"></path><path d="M505.6 187.5L466.7 150L466.7 187.5Z" fill="#0a0e31" stroke="#0a0e31"></path><path d="M505.6 150L466.7 150L505.6 187.5Z" fill="#0b1035" stroke="#0b1035"></path><path d="M311.1 150L272.2 150L272.2 187.5Z" fill="#090a2b" stroke="#090a2b"></path><path d="M233.3 187.5L194.4 187.5L194.4 225Z" fill="#090a2b" stroke="#090a2b"></path><path d="M233.3 675L272.2 712.5L272.2 675Z" fill="#101442" stroke="#101442"></path><path d="M233.3 712.5L272.2 712.5L233.3 675Z" fill="#0f133e" stroke="#0f133e"></path><path d="M505.6 712.5L544.4 675L505.6 675Z" fill="#0a0e31" stroke="#0a0e31"></path><path d="M583.3 225L544.4 187.5L544.4 225Z" fill="#0b1035" stroke="#0b1035"></path><path d="M155.6 637.5L194.4 675L194.4 637.5Z" fill="#0b1035" stroke="#0b1035"></path><path d="M233.3 150L194.4 187.5L233.3 187.5Z" fill="#0b1035" stroke="#0b1035"></path><path d="M583.3 637.5L622.2 600L583.3 600Z" fill="#141649" stroke="#141649"></path><path d="M622.2 562.5L661.1 525L622.2 525Z" fill="#121545" stroke="#121545"></path><path d="M622.2 300L622.2 262.5L583.3 262.5Z" fill="#0f133e" stroke="#0f133e"></path><path d="M661.1 300L622.2 262.5L622.2 300Z" fill="#0c1138" stroke="#0c1138"></path><path d="M116.7 562.5L116.7 600L155.6 600Z" fill="#090a2b" stroke="#090a2b"></path><path d="M77.8 562.5L116.7 600L116.7 562.5Z" fill="#16174c" stroke="#16174c"></path><path d="M155.6 225L116.7 262.5L155.6 262.5Z" fill="#101442" stroke="#101442"></path><path d="M116.7 300L77.8 337.5L116.7 337.5Z" fill="#121545" stroke="#121545"></path><path d="M661.1 375L661.1 337.5L622.2 337.5Z" fill="#0c1138" stroke="#0c1138"></path><path d="M661.1 562.5L661.1 525L622.2 562.5Z" fill="#0b1035" stroke="#0b1035"></path><path d="M77.8 300L77.8 337.5L116.7 300Z" fill="#0a0e31" stroke="#0a0e31"></path><path d="M77.8 487.5L77.8 525L116.7 525Z" fill="#0f133e" stroke="#0f133e"></path><path d="M194.4 675L233.3 712.5L233.3 675Z" fill="#0b1035" stroke="#0b1035"></path><path d="M466.7 712.5L505.6 712.5L505.6 675Z" fill="#090a2b" stroke="#090a2b"></path><path d="M544.4 675L583.3 675L583.3 637.5Z" fill="#0c1138" stroke="#0c1138"></path><path d="M583.3 637.5L622.2 637.5L622.2 600Z" fill="#141649" stroke="#141649"></path><path d="M544.4 150L505.6 150L544.4 187.5Z" fill="#141649" stroke="#141649"></path><path d="M544.4 187.5L505.6 150L505.6 187.5Z" fill="#0a0e31" stroke="#0a0e31"></path><path d="M583.3 187.5L544.4 187.5L583.3 225Z" fill="#141649" stroke="#141649"></path><path d="M272.2 150L233.3 150L233.3 187.5Z" fill="#0c1138" stroke="#0c1138"></path><path d="M350 712.5L388.9 750L388.9 712.5Z" fill="#141649" stroke="#141649"></path><path d="M388.9 712.5L388.9 750L427.8 712.5Z" fill="#141649" stroke="#141649"></path><path d="M427.8 712.5L427.8 750L466.7 712.5Z" fill="#0d123b" stroke="#0d123b"></path><path d="M466.7 712.5L466.7 750L505.6 712.5Z" fill="#0b1035" stroke="#0b1035"></path><path d="M350 750L388.9 750L350 712.5Z" fill="#16174c" stroke="#16174c"></path><path d="M350 750L350 712.5L311.1 712.5Z" fill="#0a0e31" stroke="#0a0e31"></path><path d="M350 750L311.1 712.5L311.1 750Z" fill="#0c1138" stroke="#0c1138"></path><path d="M311.1 750L311.1 712.5L272.2 712.5Z" fill="#0c1138" stroke="#0c1138"></path><path d="M388.9 150L350 112.5L350 150Z" fill="#141649" stroke="#141649"></path><path d="M350 150L350 112.5L311.1 150Z" fill="#0f133e" stroke="#0f133e"></path><path d="M311.1 150L311.1 112.5L272.2 150Z" fill="#121545" stroke="#121545"></path><path d="M272.2 150L272.2 112.5L233.3 150Z" fill="#0c1138" stroke="#0c1138"></path><path d="M388.9 112.5L350 112.5L388.9 150Z" fill="#0a0e31" stroke="#0a0e31"></path><path d="M388.9 112.5L388.9 150L427.8 150Z" fill="#0c1138" stroke="#0c1138"></path><path d="M388.9 112.5L427.8 150L427.8 112.5Z" fill="#16174c" stroke="#16174c"></path><path d="M427.8 112.5L427.8 150L466.7 150Z" fill="#16174c" stroke="#16174c"></path><path d="M661.1 337.5L661.1 300L622.2 300Z" fill="#0d123b" stroke="#0d123b"></path><path d="M622.2 225L583.3 187.5L583.3 225Z" fill="#0a0e31" stroke="#0a0e31"></path><path d="M622.2 600L661.1 562.5L622.2 562.5Z" fill="#0f133e" stroke="#0f133e"></path><path d="M661.1 600L661.1 562.5L622.2 600Z" fill="#0c1138" stroke="#0c1138"></path><path d="M77.8 525L77.8 562.5L116.7 562.5Z" fill="#0c1138" stroke="#0c1138"></path><path d="M116.7 262.5L77.8 300L116.7 300Z" fill="#090a2b" stroke="#090a2b"></path><path d="M388.9 750L427.8 750L427.8 712.5Z" fill="#0a0e31" stroke="#0a0e31"></path><path d="M466.7 112.5L427.8 112.5L466.7 150Z" fill="#16174c" stroke="#16174c"></path><path d="M272.2 750L311.1 750L272.2 712.5Z" fill="#090a2b" stroke="#090a2b"></path><path d="M350 112.5L311.1 112.5L311.1 150Z" fill="#141649" stroke="#141649"></path><path d="M544.4 712.5L583.3 675L544.4 675Z" fill="#0a0e31" stroke="#0a0e31"></path><path d="M622.2 225L583.3 225L622.2 262.5Z" fill="#121545" stroke="#121545"></path><path d="M116.7 637.5L155.6 637.5L116.7 600Z" fill="#0b1035" stroke="#0b1035"></path><path d="M116.7 637.5L155.6 675L155.6 637.5Z" fill="#0d123b" stroke="#0d123b"></path><path d="M155.6 637.5L155.6 675L194.4 675Z" fill="#101442" stroke="#101442"></path><path d="M194.4 675L194.4 712.5L233.3 712.5Z" fill="#0c1138" stroke="#0c1138"></path><path d="M155.6 225L116.7 225L116.7 262.5Z" fill="#0a0e31" stroke="#0a0e31"></path><path d="M116.7 262.5L77.8 262.5L77.8 300Z" fill="#090a2b" stroke="#090a2b"></path><path d="M194.4 187.5L155.6 187.5L155.6 225Z" fill="#0c1138" stroke="#0c1138"></path><path d="M194.4 150L155.6 187.5L194.4 187.5Z" fill="#0b1035" stroke="#0b1035"></path><path d="M583.3 675L622.2 637.5L583.3 637.5Z" fill="#0b1035" stroke="#0b1035"></path><path d="M661.1 262.5L622.2 225L622.2 262.5Z" fill="#121545" stroke="#121545"></path><path d="M77.8 600L116.7 637.5L116.7 600Z" fill="#0b1035" stroke="#0b1035"></path><path d="M155.6 187.5L116.7 225L155.6 225Z" fill="#090a2b" stroke="#090a2b"></path><path d="M700 487.5L700 450L661.1 487.5Z" fill="#101442" stroke="#101442"></path><path d="M661.1 487.5L700 450L661.1 450Z" fill="#0f133e" stroke="#0f133e"></path><path d="M661.1 450L700 450L661.1 412.5Z" fill="#0a0e31" stroke="#0a0e31"></path><path d="M661.1 412.5L700 412.5L661.1 375Z" fill="#090a2b" stroke="#090a2b"></path><path d="M661.1 375L700 375L661.1 337.5Z" fill="#0c1138" stroke="#0c1138"></path><path d="M661.1 337.5L700 337.5L661.1 300Z" fill="#16174c" stroke="#16174c"></path><path d="M700 487.5L661.1 487.5L661.1 525Z" fill="#0f133e" stroke="#0f133e"></path><path d="M38.9 375L38.9 412.5L77.8 375Z" fill="#090a2b" stroke="#090a2b"></path><path d="M77.8 375L38.9 412.5L77.8 412.5Z" fill="#0f133e" stroke="#0f133e"></path><path d="M77.8 412.5L38.9 412.5L77.8 450Z" fill="#0b1035" stroke="#0b1035"></path><path d="M77.8 450L38.9 450L77.8 487.5Z" fill="#0c1138" stroke="#0c1138"></path><path d="M77.8 487.5L38.9 487.5L77.8 525Z" fill="#0a0e31" stroke="#0a0e31"></path><path d="M77.8 525L38.9 525L77.8 562.5Z" fill="#090a2b" stroke="#090a2b"></path><path d="M38.9 375L77.8 375L77.8 337.5Z" fill="#0b1035" stroke="#0b1035"></path><path d="M38.9 412.5L38.9 450L77.8 450Z" fill="#121545" stroke="#121545"></path><path d="M700 450L700 412.5L661.1 412.5Z" fill="#0f133e" stroke="#0f133e"></path><path d="M505.6 750L544.4 712.5L505.6 712.5Z" fill="#101442" stroke="#101442"></path><path d="M505.6 712.5L544.4 712.5L544.4 675Z" fill="#0b1035" stroke="#0b1035"></path><path d="M583.3 187.5L544.4 150L544.4 187.5Z" fill="#101442" stroke="#101442"></path><path d="M505.6 150L466.7 112.5L466.7 150Z" fill="#121545" stroke="#121545"></path><path d="M155.6 675L194.4 712.5L194.4 675Z" fill="#121545" stroke="#121545"></path><path d="M233.3 712.5L272.2 750L272.2 712.5Z" fill="#0b1035" stroke="#0b1035"></path><path d="M233.3 112.5L194.4 150L233.3 150Z" fill="#141649" stroke="#141649"></path><path d="M233.3 150L194.4 150L194.4 187.5Z" fill="#101442" stroke="#101442"></path><path d="M427.8 750L466.7 750L466.7 712.5Z" fill="#0a0c2e" stroke="#0a0c2e"></path><path d="M505.6 112.5L466.7 112.5L505.6 150Z" fill="#121545" stroke="#121545"></path><path d="M233.3 750L272.2 750L233.3 712.5Z" fill="#0f133e" stroke="#0f133e"></path><path d="M311.1 112.5L272.2 112.5L272.2 150Z" fill="#0b1035" stroke="#0b1035"></path><path d="M38.9 337.5L38.9 375L77.8 337.5Z" fill="#0a0c2e" stroke="#0a0c2e"></path><path d="M700 412.5L700 375L661.1 375Z" fill="#0a0c2e" stroke="#0a0c2e"></path><path d="M700 525L700 487.5L661.1 525Z" fill="#0c1138" stroke="#0c1138"></path><path d="M38.9 450L38.9 487.5L77.8 487.5Z" fill="#0a0c2e" stroke="#0a0c2e"></path><path d="M622.2 637.5L661.1 600L622.2 600Z" fill="#0a0e31" stroke="#0a0e31"></path><path d="M661.1 562.5L700 525L661.1 525Z" fill="#090a2b" stroke="#090a2b"></path><path d="M700 300L661.1 262.5L661.1 300Z" fill="#090a2b" stroke="#090a2b"></path><path d="M661.1 300L661.1 262.5L622.2 262.5Z" fill="#0a0e31" stroke="#0a0e31"></path><path d="M116.7 225L77.8 262.5L116.7 262.5Z" fill="#0b1035" stroke="#0b1035"></path><path d="M77.8 300L38.9 337.5L77.8 337.5Z" fill="#0c1138" stroke="#0c1138"></path><path d="M38.9 562.5L77.8 600L77.8 562.5Z" fill="#141649" stroke="#141649"></path><path d="M77.8 562.5L77.8 600L116.7 600Z" fill="#0f133e" stroke="#0f133e"></path><path d="M38.9 300L38.9 337.5L77.8 300Z" fill="#101442" stroke="#101442"></path><path d="M700 562.5L700 525L661.1 562.5Z" fill="#101442" stroke="#101442"></path><path d="M700 375L700 337.5L661.1 337.5Z" fill="#121545" stroke="#121545"></path><path d="M38.9 487.5L38.9 525L77.8 525Z" fill="#0c1138" stroke="#0c1138"></path><path d="M272.2 112.5L233.3 112.5L233.3 150Z" fill="#0b1035" stroke="#0b1035"></path><path d="M544.4 112.5L505.6 112.5L544.4 150Z" fill="#121545" stroke="#121545"></path><path d="M544.4 150L505.6 112.5L505.6 150Z" fill="#121545" stroke="#121545"></path><path d="M583.3 150L544.4 150L583.3 187.5Z" fill="#141649" stroke="#141649"></path><path d="M622.2 187.5L583.3 187.5L622.2 225Z" fill="#16174c" stroke="#16174c"></path><path d="M194.4 712.5L233.3 750L233.3 712.5Z" fill="#101442" stroke="#101442"></path><path d="M466.7 750L505.6 750L505.6 712.5Z" fill="#0b1035" stroke="#0b1035"></path><path d="M583.3 712.5L622.2 675L583.3 675Z" fill="#121545" stroke="#121545"></path><path d="M583.3 675L622.2 675L622.2 637.5Z" fill="#141649" stroke="#141649"></path><path d="M622.2 637.5L661.1 637.5L661.1 600Z" fill="#121545" stroke="#121545"></path><path d="M661.1 225L622.2 187.5L622.2 225Z" fill="#0f133e" stroke="#0f133e"></path><path d="M583.3 712.5L583.3 675L544.4 712.5Z" fill="#0a0e31" stroke="#0a0e31"></path><path d="M77.8 637.5L116.7 675L116.7 637.5Z" fill="#16174c" stroke="#16174c"></path><path d="M116.7 637.5L116.7 675L155.6 675Z" fill="#090a2b" stroke="#090a2b"></path><path d="M155.6 675L155.6 712.5L194.4 712.5Z" fill="#0a0e31" stroke="#0a0e31"></path><path d="M194.4 712.5L194.4 750L233.3 750Z" fill="#141649" stroke="#141649"></path><path d="M116.7 225L77.8 225L77.8 262.5Z" fill="#0a0e31" stroke="#0a0e31"></path><path d="M155.6 187.5L116.7 187.5L116.7 225Z" fill="#090a2b" stroke="#090a2b"></path><path d="M155.6 150L116.7 187.5L155.6 187.5Z" fill="#121545" stroke="#121545"></path><path d="M155.6 150L155.6 187.5L194.4 150Z" fill="#090a2b" stroke="#090a2b"></path><path d="M622.2 187.5L583.3 150L583.3 187.5Z" fill="#101442" stroke="#101442"></path><path d="M544.4 750L583.3 712.5L544.4 712.5Z" fill="#101442" stroke="#101442"></path><path d="M116.7 675L155.6 712.5L155.6 675Z" fill="#0a0c2e" stroke="#0a0c2e"></path><path d="M194.4 112.5L155.6 150L194.4 150Z" fill="#0b1035" stroke="#0b1035"></path><path d="M38.9 525L38.9 562.5L77.8 562.5Z" fill="#121545" stroke="#121545"></path><path d="M77.8 600L77.8 637.5L116.7 637.5Z" fill="#0f133e" stroke="#0f133e"></path><path d="M77.8 262.5L38.9 300L77.8 300Z" fill="#101442" stroke="#101442"></path><path d="M38.9 262.5L38.9 300L77.8 262.5Z" fill="#0a0e31" stroke="#0a0e31"></path><path d="M661.1 600L700 562.5L661.1 562.5Z" fill="#101442" stroke="#101442"></path><path d="M700 600L700 562.5L661.1 600Z" fill="#0b1035" stroke="#0b1035"></path><path d="M700 337.5L700 300L661.1 300Z" fill="#101442" stroke="#101442"></path><path d="M661.1 262.5L661.1 225L622.2 225Z" fill="#141649" stroke="#141649"></path><path d="M350 750L350 787.5L388.9 750Z" fill="#121545" stroke="#121545"></path><path d="M388.9 750L388.9 787.5L427.8 750Z" fill="#0d123b" stroke="#0d123b"></path><path d="M427.8 750L427.8 787.5L466.7 750Z" fill="#0c1138" stroke="#0c1138"></path><path d="M466.7 750L466.7 787.5L505.6 750Z" fill="#16174c" stroke="#16174c"></path><path d="M311.1 750L350 787.5L350 750Z" fill="#0a0e31" stroke="#0a0e31"></path><path d="M311.1 787.5L350 787.5L311.1 750Z" fill="#121545" stroke="#121545"></path><path d="M311.1 787.5L311.1 750L272.2 750Z" fill="#16174c" stroke="#16174c"></path><path d="M350 787.5L388.9 787.5L388.9 750Z" fill="#121545" stroke="#121545"></path><path d="M388.9 112.5L350 75L350 112.5Z" fill="#0a0e31" stroke="#0a0e31"></path><path d="M350 112.5L350 75L311.1 112.5Z" fill="#0f133e" stroke="#0f133e"></path><path d="M311.1 112.5L311.1 75L272.2 112.5Z" fill="#0a0e31" stroke="#0a0e31"></path><path d="M272.2 112.5L272.2 75L233.3 112.5Z" fill="#0b1035" stroke="#0b1035"></path><path d="M388.9 75L350 75L388.9 112.5Z" fill="#090a2b" stroke="#090a2b"></path><path d="M388.9 75L388.9 112.5L427.8 112.5Z" fill="#141649" stroke="#141649"></path><path d="M388.9 75L427.8 112.5L427.8 75Z" fill="#0b1035" stroke="#0b1035"></path><path d="M427.8 75L427.8 112.5L466.7 112.5Z" fill="#0a0e31" stroke="#0a0e31"></path><path d="M700 262.5L661.1 225L661.1 262.5Z" fill="#0d123b" stroke="#0d123b"></path><path d="M622.2 675L661.1 637.5L622.2 637.5Z" fill="#0c1138" stroke="#0c1138"></path><path d="M38.9 600L77.8 637.5L77.8 600Z" fill="#090a2b" stroke="#090a2b"></path><path d="M116.7 187.5L77.8 225L116.7 225Z" fill="#0c1138" stroke="#0c1138"></path><path d="M388.9 787.5L427.8 787.5L427.8 750Z" fill="#090a2b" stroke="#090a2b"></path><path d="M466.7 75L427.8 75L466.7 112.5Z" fill="#0d123b" stroke="#0d123b"></path><path d="M272.2 787.5L311.1 787.5L272.2 750Z" fill="#0b1035" stroke="#0b1035"></path><path d="M350 75L311.1 75L311.1 112.5Z" fill="#0b1035" stroke="#0b1035"></path><path d="M505.6 787.5L544.4 750L505.6 750Z" fill="#090a2b" stroke="#090a2b"></path><path d="M505.6 750L544.4 750L544.4 712.5Z" fill="#141649" stroke="#141649"></path><path d="M583.3 150L544.4 112.5L544.4 150Z" fill="#141649" stroke="#141649"></path><path d="M505.6 112.5L466.7 75L466.7 112.5Z" fill="#101442" stroke="#101442"></path><path d="M155.6 712.5L194.4 750L194.4 712.5Z" fill="#0b1035" stroke="#0b1035"></path><path d="M233.3 750L272.2 787.5L272.2 750Z" fill="#141649" stroke="#141649"></path><path d="M233.3 75L194.4 112.5L233.3 112.5Z" fill="#0d123b" stroke="#0d123b"></path><path d="M233.3 112.5L194.4 112.5L194.4 150Z" fill="#0b1035" stroke="#0b1035"></path><path d="M427.8 787.5L466.7 787.5L466.7 750Z" fill="#16174c" stroke="#16174c"></path><path d="M311.1 75L272.2 75L272.2 112.5Z" fill="#16174c" stroke="#16174c"></path><path d="M233.3 787.5L272.2 787.5L233.3 750Z" fill="#090a2b" stroke="#090a2b"></path><path d="M505.6 75L466.7 75L505.6 112.5Z" fill="#0a0c2e" stroke="#0a0c2e"></path><path d="M0 375L0 412.5L38.9 375Z" fill="#0b1035" stroke="#0b1035"></path><path d="M38.9 375L0 412.5L38.9 412.5Z" fill="#121545" stroke="#121545"></path><path d="M38.9 412.5L0 412.5L38.9 450Z" fill="#141649" stroke="#141649"></path><path d="M38.9 450L0 450L38.9 487.5Z" fill="#0b1035" stroke="#0b1035"></path><path d="M38.9 487.5L0 487.5L38.9 525Z" fill="#121545" stroke="#121545"></path><path d="M38.9 525L0 525L38.9 562.5Z" fill="#0d123b" stroke="#0d123b"></path><path d="M0 375L38.9 375L38.9 337.5Z" fill="#090a2b" stroke="#090a2b"></path><path d="M0 412.5L0 450L38.9 450Z" fill="#0c1138" stroke="#0c1138"></path><path d="M661.1 637.5L700 600L661.1 600Z" fill="#090a2b" stroke="#090a2b"></path><path d="M77.8 225L38.9 262.5L77.8 262.5Z" fill="#121545" stroke="#121545"></path><path d="M0 337.5L0 375L38.9 337.5Z" fill="#0d123b" stroke="#0d123b"></path><path d="M700 300L700 262.5L661.1 262.5Z" fill="#0a0c2e" stroke="#0a0c2e"></path><path d="M0 562.5L38.9 600L38.9 562.5Z" fill="#0c1138" stroke="#0c1138"></path><path d="M38.9 562.5L38.9 600L77.8 600Z" fill="#0d123b" stroke="#0d123b"></path><path d="M0 337.5L38.9 337.5L38.9 300Z" fill="#090a2b" stroke="#090a2b"></path><path d="M0 450L0 487.5L38.9 487.5Z" fill="#0c1138" stroke="#0c1138"></path><path d="M622.2 675L661.1 675L661.1 637.5Z" fill="#0a0c2e" stroke="#0a0c2e"></path><path d="M661.1 637.5L700 637.5L700 600Z" fill="#101442" stroke="#101442"></path><path d="M583.3 712.5L622.2 712.5L622.2 675Z" fill="#0b1035" stroke="#0b1035"></path><path d="M583.3 750L622.2 712.5L583.3 712.5Z" fill="#121545" stroke="#121545"></path><path d="M583.3 750L583.3 712.5L544.4 750Z" fill="#0c1138" stroke="#0c1138"></path><path d="M661.1 187.5L622.2 187.5L661.1 225Z" fill="#090a2b" stroke="#090a2b"></path><path d="M661.1 187.5L622.2 150L622.2 187.5Z" fill="#16174c" stroke="#16174c"></path><path d="M622.2 187.5L622.2 150L583.3 150Z" fill="#121545" stroke="#121545"></path><path d="M583.3 150L583.3 112.5L544.4 112.5Z" fill="#0a0e31" stroke="#0a0e31"></path><path d="M544.4 112.5L505.6 75L505.6 112.5Z" fill="#0a0e31" stroke="#0a0e31"></path><path d="M116.7 187.5L77.8 187.5L77.8 225Z" fill="#0f133e" stroke="#0f133e"></path><path d="M77.8 225L38.9 225L38.9 262.5Z" fill="#141649" stroke="#141649"></path><path d="M155.6 150L116.7 150L116.7 187.5Z" fill="#0f133e" stroke="#0f133e"></path><path d="M155.6 112.5L116.7 150L155.6 150Z" fill="#141649" stroke="#141649"></path><path d="M77.8 675L116.7 675L77.8 637.5Z" fill="#0a0c2e" stroke="#0a0c2e"></path><path d="M77.8 675L116.7 712.5L116.7 675Z" fill="#0d123b" stroke="#0d123b"></path><path d="M116.7 675L116.7 712.5L155.6 712.5Z" fill="#0a0c2e" stroke="#0a0c2e"></path><path d="M155.6 712.5L155.6 750L194.4 750Z" fill="#0c1138" stroke="#0c1138"></path><path d="M700 225L661.1 187.5L661.1 225Z" fill="#121545" stroke="#121545"></path><path d="M38.9 637.5L77.8 675L77.8 637.5Z" fill="#0a0c2e" stroke="#0a0c2e"></path><path d="M622.2 712.5L661.1 675L622.2 675Z" fill="#0d123b" stroke="#0d123b"></path><path d="M116.7 150L77.8 187.5L116.7 187.5Z" fill="#0f133e" stroke="#0f133e"></path><path d="M0 300L0 337.5L38.9 300Z" fill="#0a0e31" stroke="#0a0e31"></path><path d="M0 487.5L0 525L38.9 525Z" fill="#0c1138" stroke="#0c1138"></path><path d="M544.4 75L505.6 75L544.4 112.5Z" fill="#0a0c2e" stroke="#0a0c2e"></path><path d="M272.2 75L233.3 75L233.3 112.5Z" fill="#101442" stroke="#101442"></path><path d="M194.4 112.5L155.6 112.5L155.6 150Z" fill="#121545" stroke="#121545"></path><path d="M194.4 787.5L233.3 787.5L194.4 750Z" fill="#0b1035" stroke="#0b1035"></path><path d="M194.4 750L233.3 787.5L233.3 750Z" fill="#101442" stroke="#101442"></path><path d="M466.7 787.5L505.6 787.5L505.6 750Z" fill="#0b1035" stroke="#0b1035"></path><path d="M544.4 787.5L583.3 750L544.4 750Z" fill="#141649" stroke="#141649"></path><path d="M622.2 150L583.3 112.5L583.3 150Z" fill="#0b1035" stroke="#0b1035"></path><path d="M116.7 712.5L155.6 750L155.6 712.5Z" fill="#0b1035" stroke="#0b1035"></path><path d="M194.4 75L155.6 112.5L194.4 112.5Z" fill="#0f133e" stroke="#0f133e"></path><path d="M700 262.5L700 225L661.1 225Z" fill="#0f133e" stroke="#0f133e"></path><path d="M661.1 675L700 637.5L661.1 637.5Z" fill="#0d123b" stroke="#0d123b"></path><path d="M77.8 187.5L38.9 225L77.8 225Z" fill="#0d123b" stroke="#0d123b"></path><path d="M38.9 262.5L0 300L38.9 300Z" fill="#0a0c2e" stroke="#0a0c2e"></path><path d="M0 600L38.9 637.5L38.9 600Z" fill="#0d123b" stroke="#0d123b"></path><path d="M38.9 600L38.9 637.5L77.8 637.5Z" fill="#141649" stroke="#141649"></path><path d="M0 525L0 562.5L38.9 562.5Z" fill="#0a0c2e" stroke="#0a0c2e"></path><path d="M0 262.5L0 300L38.9 262.5Z" fill="#16174c" stroke="#16174c"></path><path d="M388.9 75L350 37.5L350 75Z" fill="#0c1138" stroke="#0c1138"></path><path d="M350 75L350 37.5L311.1 75Z" fill="#16174c" stroke="#16174c"></path><path d="M311.1 75L311.1 37.5L272.2 75Z" fill="#0c1138" stroke="#0c1138"></path><path d="M272.2 75L272.2 37.5L233.3 75Z" fill="#101442" stroke="#101442"></path><path d="M388.9 37.5L350 37.5L388.9 75Z" fill="#101442" stroke="#101442"></path><path d="M388.9 37.5L388.9 75L427.8 75Z" fill="#0f133e" stroke="#0f133e"></path><path d="M388.9 37.5L427.8 75L427.8 37.5Z" fill="#090a2b" stroke="#090a2b"></path><path d="M427.8 37.5L427.8 75L466.7 75Z" fill="#090a2b" stroke="#090a2b"></path><path d="M350 787.5L350 825L388.9 787.5Z" fill="#16174c" stroke="#16174c"></path><path d="M388.9 787.5L388.9 825L427.8 787.5Z" fill="#0a0c2e" stroke="#0a0c2e"></path><path d="M427.8 787.5L427.8 825L466.7 787.5Z" fill="#16174c" stroke="#16174c"></path><path d="M466.7 787.5L466.7 825L505.6 787.5Z" fill="#090a2b" stroke="#090a2b"></path><path d="M311.1 787.5L350 825L350 787.5Z" fill="#0a0e31" stroke="#0a0e31"></path><path d="M311.1 825L350 825L311.1 787.5Z" fill="#0a0e31" stroke="#0a0e31"></path><path d="M311.1 825L311.1 787.5L272.2 787.5Z" fill="#090a2b" stroke="#090a2b"></path><path d="M350 825L388.9 825L388.9 787.5Z" fill="#0b1035" stroke="#0b1035"></path><path d="M583.3 112.5L544.4 75L544.4 112.5Z" fill="#121545" stroke="#121545"></path><path d="M466.7 37.5L427.8 37.5L466.7 75Z" fill="#0a0c2e" stroke="#0a0c2e"></path><path d="M505.6 825L544.4 787.5L505.6 787.5Z" fill="#0d123b" stroke="#0d123b"></path><path d="M505.6 787.5L544.4 787.5L544.4 750Z" fill="#101442" stroke="#101442"></path><path d="M155.6 750L194.4 787.5L194.4 750Z" fill="#0d123b" stroke="#0d123b"></path><path d="M272.2 825L311.1 825L272.2 787.5Z" fill="#0f133e" stroke="#0f133e"></path><path d="M233.3 37.5L194.4 75L233.3 75Z" fill="#0d123b" stroke="#0d123b"></path><path d="M233.3 75L194.4 75L194.4 112.5Z" fill="#0a0e31" stroke="#0a0e31"></path><path d="M350 37.5L311.1 37.5L311.1 75Z" fill="#16174c" stroke="#16174c"></path><path d="M466.7 37.5L466.7 75L505.6 75Z" fill="#101442" stroke="#101442"></path><path d="M272.2 825L272.2 787.5L233.3 787.5Z" fill="#0f133e" stroke="#0f133e"></path><path d="M388.9 825L427.8 825L427.8 787.5Z" fill="#0f133e" stroke="#0f133e"></path><path d="M38.9 675L77.8 712.5L77.8 675Z" fill="#0d123b" stroke="#0d123b"></path><path d="M77.8 675L77.8 712.5L116.7 712.5Z" fill="#121545" stroke="#121545"></path><path d="M116.7 712.5L116.7 750L155.6 750Z" fill="#16174c" stroke="#16174c"></path><path d="M155.6 750L155.6 787.5L194.4 787.5Z" fill="#0f133e" stroke="#0f133e"></path><path d="M622.2 712.5L661.1 712.5L661.1 675Z" fill="#0a0c2e" stroke="#0a0c2e"></path><path d="M661.1 675L700 675L700 637.5Z" fill="#0a0c2e" stroke="#0a0c2e"></path><path d="M622.2 750L661.1 712.5L622.2 712.5Z" fill="#0a0c2e" stroke="#0a0c2e"></path><path d="M622.2 750L622.2 712.5L583.3 750Z" fill="#0f133e" stroke="#0f133e"></path><path d="M700 187.5L661.1 150L661.1 187.5Z" fill="#141649" stroke="#141649"></path><path d="M661.1 187.5L661.1 150L622.2 150Z" fill="#16174c" stroke="#16174c"></path><path d="M622.2 150L622.2 112.5L583.3 112.5Z" fill="#090a2b" stroke="#090a2b"></path><path d="M583.3 112.5L583.3 75L544.4 75Z" fill="#090a2b" stroke="#090a2b"></path><path d="M77.8 187.5L38.9 187.5L38.9 225Z" fill="#090a2b" stroke="#090a2b"></path><path d="M116.7 150L77.8 150L77.8 187.5Z" fill="#0f133e" stroke="#0f133e"></path><path d="M116.7 112.5L77.8 150L116.7 150Z" fill="#0d123b" stroke="#0d123b"></path><path d="M116.7 112.5L116.7 150L155.6 112.5Z" fill="#0a0c2e" stroke="#0a0c2e"></path><path d="M505.6 37.5L466.7 37.5L505.6 75Z" fill="#090a2b" stroke="#090a2b"></path><path d="M311.1 37.5L272.2 37.5L272.2 75Z" fill="#0a0e31" stroke="#0a0e31"></path><path d="M233.3 825L272.2 825L233.3 787.5Z" fill="#0a0c2e" stroke="#0a0c2e"></path><path d="M427.8 825L466.7 825L466.7 787.5Z" fill="#090a2b" stroke="#090a2b"></path><path d="M38.9 225L0 262.5L38.9 262.5Z" fill="#0a0c2e" stroke="#0a0c2e"></path><path d="M0 225L0 262.5L38.9 225Z" fill="#0a0e31" stroke="#0a0e31"></path><path d="M0 562.5L0 600L38.9 600Z" fill="#101442" stroke="#101442"></path><path d="M38.9 637.5L38.9 675L77.8 675Z" fill="#141649" stroke="#141649"></path><path d="M583.3 787.5L583.3 750L544.4 787.5Z" fill="#0a0c2e" stroke="#0a0c2e"></path><path d="M583.3 787.5L622.2 750L583.3 750Z" fill="#0a0e31" stroke="#0a0e31"></path><path d="M661.1 150L622.2 112.5L622.2 150Z" fill="#0c1138" stroke="#0c1138"></path><path d="M544.4 75L505.6 37.5L505.6 75Z" fill="#16174c" stroke="#16174c"></path><path d="M155.6 75L116.7 112.5L155.6 112.5Z" fill="#141649" stroke="#141649"></path><path d="M77.8 712.5L116.7 750L116.7 712.5Z" fill="#0a0e31" stroke="#0a0e31"></path><path d="M0 637.5L38.9 675L38.9 637.5Z" fill="#141649" stroke="#141649"></path><path d="M700 225L700 187.5L661.1 187.5Z" fill="#121545" stroke="#121545"></path><path d="M661.1 712.5L700 675L661.1 675Z" fill="#0a0c2e" stroke="#0a0c2e"></path><path d="M77.8 150L38.9 187.5L77.8 187.5Z" fill="#0a0e31" stroke="#0a0e31"></path><path d="M544.4 825L583.3 787.5L544.4 787.5Z" fill="#0c1138" stroke="#0c1138"></path><path d="M622.2 112.5L583.3 75L583.3 112.5Z" fill="#16174c" stroke="#16174c"></path><path d="M116.7 750L155.6 787.5L155.6 750Z" fill="#101442" stroke="#101442"></path><path d="M194.4 787.5L233.3 825L233.3 787.5Z" fill="#16174c" stroke="#16174c"></path><path d="M194.4 37.5L155.6 75L194.4 75Z" fill="#0c1138" stroke="#0c1138"></path><path d="M194.4 75L155.6 75L155.6 112.5Z" fill="#0d123b" stroke="#0d123b"></path><path d="M466.7 825L505.6 825L505.6 787.5Z" fill="#0b1035" stroke="#0b1035"></path><path d="M194.4 825L233.3 825L194.4 787.5Z" fill="#0c1138" stroke="#0c1138"></path><path d="M272.2 37.5L233.3 37.5L233.3 75Z" fill="#141649" stroke="#141649"></path><path d="M544.4 37.5L505.6 37.5L544.4 75Z" fill="#101442" stroke="#101442"></path><path d="M38.9 187.5L0 225L38.9 225Z" fill="#0c1138" stroke="#0c1138"></path><path d="M0 600L0 637.5L38.9 637.5Z" fill="#0a0e31" stroke="#0a0e31"></path><path d="M505.6 825L544.4 825L544.4 787.5Z" fill="#090a2b" stroke="#090a2b"></path><path d="M583.3 75L544.4 37.5L544.4 75Z" fill="#0c1138" stroke="#0c1138"></path><path d="M155.6 787.5L194.4 825L194.4 787.5Z" fill="#090a2b" stroke="#090a2b"></path><path d="M233.3 37.5L194.4 37.5L194.4 75Z" fill="#0a0c2e" stroke="#0a0c2e"></path><path d="M350 825L388.9 862.5L388.9 825Z" fill="#0d123b" stroke="#0d123b"></path><path d="M388.9 825L388.9 862.5L427.8 825Z" fill="#0c1138" stroke="#0c1138"></path><path d="M427.8 825L427.8 862.5L466.7 825Z" fill="#141649" stroke="#141649"></path><path d="M466.7 825L466.7 862.5L505.6 825Z" fill="#0a0c2e" stroke="#0a0c2e"></path><path d="M505.6 825L505.6 862.5L544.4 825Z" fill="#0a0c2e" stroke="#0a0c2e"></path><path d="M350 862.5L388.9 862.5L350 825Z" fill="#141649" stroke="#141649"></path><path d="M350 862.5L350 825L311.1 825Z" fill="#101442" stroke="#101442"></path><path d="M350 862.5L311.1 825L311.1 862.5Z" fill="#0a0e31" stroke="#0a0e31"></path><path d="M311.1 825L272.2 825L311.1 862.5Z" fill="#0b1035" stroke="#0b1035"></path><path d="M388.9 37.5L350 0L350 37.5Z" fill="#141649" stroke="#141649"></path><path d="M350 37.5L350 0L311.1 37.5Z" fill="#0c1138" stroke="#0c1138"></path><path d="M311.1 37.5L311.1 0L272.2 37.5Z" fill="#0d123b" stroke="#0d123b"></path><path d="M272.2 37.5L272.2 0L233.3 37.5Z" fill="#16174c" stroke="#16174c"></path><path d="M233.3 37.5L233.3 0L194.4 37.5Z" fill="#090a2b" stroke="#090a2b"></path><path d="M388.9 0L350 0L388.9 37.5Z" fill="#0c1138" stroke="#0c1138"></path><path d="M388.9 0L388.9 37.5L427.8 37.5Z" fill="#0a0c2e" stroke="#0a0c2e"></path><path d="M388.9 0L427.8 37.5L427.8 0Z" fill="#101442" stroke="#101442"></path><path d="M427.8 37.5L466.7 37.5L427.8 0Z" fill="#0c1138" stroke="#0c1138"></path><path d="M311.1 862.5L272.2 825L272.2 862.5Z" fill="#0a0c2e" stroke="#0a0c2e"></path><path d="M427.8 0L466.7 37.5L466.7 0Z" fill="#141649" stroke="#141649"></path><path d="M77.8 150L38.9 150L38.9 187.5Z" fill="#101442" stroke="#101442"></path><path d="M38.9 187.5L0 187.5L0 225Z" fill="#16174c" stroke="#16174c"></path><path d="M116.7 112.5L77.8 112.5L77.8 150Z" fill="#0a0c2e" stroke="#0a0c2e"></path><path d="M116.7 75L77.8 112.5L116.7 112.5Z" fill="#16174c" stroke="#16174c"></path><path d="M116.7 75L116.7 112.5L155.6 75Z" fill="#0a0e31" stroke="#0a0e31"></path><path d="M700 150L661.1 112.5L661.1 150Z" fill="#0a0e31" stroke="#0a0e31"></path><path d="M661.1 150L661.1 112.5L622.2 112.5Z" fill="#0c1138" stroke="#0c1138"></path><path d="M622.2 112.5L622.2 75L583.3 75Z" fill="#0f133e" stroke="#0f133e"></path><path d="M583.3 75L583.3 37.5L544.4 37.5Z" fill="#141649" stroke="#141649"></path><path d="M38.9 712.5L77.8 712.5L38.9 675Z" fill="#0c1138" stroke="#0c1138"></path><path d="M38.9 712.5L77.8 750L77.8 712.5Z" fill="#0b1035" stroke="#0b1035"></path><path d="M77.8 712.5L77.8 750L116.7 750Z" fill="#0d123b" stroke="#0d123b"></path><path d="M116.7 750L116.7 787.5L155.6 787.5Z" fill="#0a0c2e" stroke="#0a0c2e"></path><path d="M155.6 787.5L155.6 825L194.4 825Z" fill="#101442" stroke="#101442"></path><path d="M622.2 750L661.1 750L661.1 712.5Z" fill="#0f133e" stroke="#0f133e"></path><path d="M661.1 712.5L700 712.5L700 675Z" fill="#141649" stroke="#141649"></path><path d="M622.2 787.5L661.1 750L622.2 750Z" fill="#101442" stroke="#101442"></path><path d="M622.2 787.5L622.2 750L583.3 787.5Z" fill="#0a0e31" stroke="#0a0e31"></path><path d="M661.1 750L700 712.5L661.1 712.5Z" fill="#0a0e31" stroke="#0a0e31"></path><path d="M700 187.5L700 150L661.1 150Z" fill="#16174c" stroke="#16174c"></path><path d="M77.8 112.5L38.9 150L77.8 150Z" fill="#0f133e" stroke="#0f133e"></path><path d="M0 675L38.9 712.5L38.9 675Z" fill="#141649" stroke="#141649"></path><path d="M388.9 862.5L427.8 862.5L427.8 825Z" fill="#0f133e" stroke="#0f133e"></path><path d="M466.7 0L466.7 37.5L505.6 37.5Z" fill="#16174c" stroke="#16174c"></path><path d="M272.2 862.5L272.2 825L233.3 825Z" fill="#0d123b" stroke="#0d123b"></path><path d="M350 0L311.1 0L311.1 37.5Z" fill="#121545" stroke="#121545"></path><path d="M661.1 112.5L622.2 75L622.2 112.5Z" fill="#0d123b" stroke="#0d123b"></path><path d="M583.3 825L622.2 787.5L583.3 787.5Z" fill="#0d123b" stroke="#0d123b"></path><path d="M77.8 750L116.7 787.5L116.7 750Z" fill="#0a0e31" stroke="#0a0e31"></path><path d="M155.6 37.5L116.7 75L155.6 75Z" fill="#0f133e" stroke="#0f133e"></path><path d="M427.8 862.5L466.7 862.5L466.7 825Z" fill="#0a0c2e" stroke="#0a0c2e"></path><path d="M544.4 825L583.3 825L583.3 787.5Z" fill="#0b1035" stroke="#0b1035"></path><path d="M233.3 862.5L272.2 862.5L233.3 825Z" fill="#0b1035" stroke="#0b1035"></path><path d="M505.6 0L466.7 0L505.6 37.5Z" fill="#0a0e31" stroke="#0a0e31"></path><path d="M505.6 0L505.6 37.5L544.4 37.5Z" fill="#0b1035" stroke="#0b1035"></path><path d="M311.1 0L272.2 0L272.2 37.5Z" fill="#101442" stroke="#101442"></path><path d="M38.9 150L0 187.5L38.9 187.5Z" fill="#0b1035" stroke="#0b1035"></path><path d="M0 637.5L0 675L38.9 675Z" fill="#0c1138" stroke="#0c1138"></path><path d="M544.4 862.5L583.3 825L544.4 825Z" fill="#101442" stroke="#101442"></path><path d="M622.2 75L583.3 37.5L583.3 75Z" fill="#16174c" stroke="#16174c"></path><path d="M116.7 787.5L155.6 825L155.6 787.5Z" fill="#0a0c2e" stroke="#0a0c2e"></path><path d="M194.4 825L233.3 862.5L233.3 825Z" fill="#0a0c2e" stroke="#0a0c2e"></path><path d="M194.4 0L155.6 37.5L194.4 37.5Z" fill="#090a2b" stroke="#090a2b"></path><path d="M194.4 37.5L155.6 37.5L155.6 75Z" fill="#101442" stroke="#101442"></path><path d="M194.4 862.5L233.3 862.5L194.4 825Z" fill="#101442" stroke="#101442"></path><path d="M466.7 862.5L505.6 862.5L505.6 825Z" fill="#141649" stroke="#141649"></path><path d="M544.4 0L505.6 0L544.4 37.5Z" fill="#0c1138" stroke="#0c1138"></path><path d="M272.2 0L233.3 0L233.3 37.5Z" fill="#0c1138" stroke="#0c1138"></path><path d="M661.1 787.5L700 750L661.1 750Z" fill="#0a0c2e" stroke="#0a0c2e"></path><path d="M661.1 750L700 750L700 712.5Z" fill="#141649" stroke="#141649"></path><path d="M661.1 787.5L661.1 750L622.2 787.5Z" fill="#090a2b" stroke="#090a2b"></path><path d="M0 712.5L38.9 750L38.9 712.5Z" fill="#0f133e" stroke="#0f133e"></path><path d="M38.9 712.5L38.9 750L77.8 750Z" fill="#16174c" stroke="#16174c"></path><path d="M77.8 750L77.8 787.5L116.7 787.5Z" fill="#0b1035" stroke="#0b1035"></path><path d="M116.7 787.5L116.7 825L155.6 825Z" fill="#101442" stroke="#101442"></path><path d="M700 150L700 112.5L661.1 112.5Z" fill="#141649" stroke="#141649"></path><path d="M661.1 112.5L661.1 75L622.2 75Z" fill="#0c1138" stroke="#0c1138"></path><path d="M622.2 75L622.2 37.5L583.3 37.5Z" fill="#0a0c2e" stroke="#0a0c2e"></path><path d="M77.8 112.5L38.9 112.5L38.9 150Z" fill="#121545" stroke="#121545"></path><path d="M38.9 150L0 150L0 187.5Z" fill="#121545" stroke="#121545"></path><path d="M77.8 75L38.9 112.5L77.8 112.5Z" fill="#0a0c2e" stroke="#0a0c2e"></path><path d="M77.8 75L77.8 112.5L116.7 75Z" fill="#141649" stroke="#141649"></path><path d="M38.9 750L77.8 787.5L77.8 750Z" fill="#0a0c2e" stroke="#0a0c2e"></path><path d="M622.2 825L622.2 787.5L583.3 825Z" fill="#141649" stroke="#141649"></path><path d="M622.2 825L661.1 787.5L622.2 787.5Z" fill="#0b1035" stroke="#0b1035"></path><path d="M116.7 37.5L77.8 75L116.7 75Z" fill="#101442" stroke="#101442"></path><path d="M700 112.5L661.1 75L661.1 112.5Z" fill="#0f133e" stroke="#0f133e"></path><path d="M583.3 37.5L544.4 0L544.4 37.5Z" fill="#0f133e" stroke="#0f133e"></path><path d="M38.9 112.5L0 150L38.9 150Z" fill="#0a0e31" stroke="#0a0e31"></path><path d="M0 675L0 712.5L38.9 712.5Z" fill="#090a2b" stroke="#090a2b"></path><path d="M505.6 862.5L544.4 862.5L544.4 825Z" fill="#0a0c2e" stroke="#0a0c2e"></path><path d="M583.3 0L544.4 0L583.3 37.5Z" fill="#101442" stroke="#101442"></path><path d="M155.6 862.5L194.4 862.5L155.6 825Z" fill="#0b1035" stroke="#0b1035"></path><path d="M155.6 825L194.4 862.5L194.4 825Z" fill="#0b1035" stroke="#0b1035"></path><path d="M233.3 0L194.4 0L194.4 37.5Z" fill="#101442" stroke="#101442"></path><path d="M155.6 37.5L116.7 37.5L116.7 75Z" fill="#0a0e31" stroke="#0a0e31"></path><path d="M583.3 862.5L622.2 825L583.3 825Z" fill="#141649" stroke="#141649"></path><path d="M661.1 75L622.2 37.5L622.2 75Z" fill="#0a0e31" stroke="#0a0e31"></path><path d="M155.6 0L116.7 37.5L155.6 37.5Z" fill="#0d123b" stroke="#0d123b"></path><path d="M77.8 787.5L116.7 825L116.7 787.5Z" fill="#090a2b" stroke="#090a2b"></path><path d="M350 862.5L350 900L388.9 862.5Z" fill="#16174c" stroke="#16174c"></path><path d="M388.9 862.5L388.9 900L427.8 862.5Z" fill="#0a0e31" stroke="#0a0e31"></path><path d="M427.8 862.5L427.8 900L466.7 862.5Z" fill="#0d123b" stroke="#0d123b"></path><path d="M466.7 862.5L466.7 900L505.6 862.5Z" fill="#0a0c2e" stroke="#0a0c2e"></path><path d="M505.6 862.5L505.6 900L544.4 862.5Z" fill="#101442" stroke="#101442"></path><path d="M311.1 862.5L350 900L350 862.5Z" fill="#121545" stroke="#121545"></path><path d="M311.1 900L350 900L311.1 862.5Z" fill="#0b1035" stroke="#0b1035"></path><path d="M311.1 900L311.1 862.5L272.2 862.5Z" fill="#0a0c2e" stroke="#0a0c2e"></path><path d="M311.1 900L272.2 862.5L272.2 900Z" fill="#0d123b" stroke="#0d123b"></path><path d="M350 900L388.9 900L388.9 862.5Z" fill="#0a0e31" stroke="#0a0e31"></path><path d="M388.9 900L427.8 900L427.8 862.5Z" fill="#0b1035" stroke="#0b1035"></path><path d="M272.2 900L272.2 862.5L233.3 862.5Z" fill="#0a0e31" stroke="#0a0e31"></path><path d="M233.3 900L272.2 900L233.3 862.5Z" fill="#121545" stroke="#121545"></path><path d="M427.8 900L466.7 900L466.7 862.5Z" fill="#0a0e31" stroke="#0a0e31"></path><path d="M544.4 862.5L583.3 862.5L583.3 825Z" fill="#0f133e" stroke="#0f133e"></path><path d="M622.2 37.5L583.3 0L583.3 37.5Z" fill="#0a0c2e" stroke="#0a0c2e"></path><path d="M544.4 900L583.3 862.5L544.4 862.5Z" fill="#0f133e" stroke="#0f133e"></path><path d="M194.4 0L155.6 0L155.6 37.5Z" fill="#141649" stroke="#141649"></path><path d="M116.7 825L155.6 862.5L155.6 825Z" fill="#101442" stroke="#101442"></path><path d="M194.4 862.5L233.3 900L233.3 862.5Z" fill="#101442" stroke="#101442"></path><path d="M77.8 75L38.9 75L38.9 112.5Z" fill="#0c1138" stroke="#0c1138"></path><path d="M38.9 112.5L0 112.5L0 150Z" fill="#090a2b" stroke="#090a2b"></path><path d="M77.8 37.5L38.9 75L77.8 75Z" fill="#121545" stroke="#121545"></path><path d="M77.8 37.5L77.8 75L116.7 37.5Z" fill="#101442" stroke="#101442"></path><path d="M661.1 787.5L700 787.5L700 750Z" fill="#0b1035" stroke="#0b1035"></path><path d="M661.1 825L700 787.5L661.1 787.5Z" fill="#0d123b" stroke="#0d123b"></path><path d="M661.1 825L661.1 787.5L622.2 825Z" fill="#0f133e" stroke="#0f133e"></path><path d="M0 750L38.9 787.5L38.9 750Z" fill="#16174c" stroke="#16174c"></path><path d="M38.9 750L38.9 787.5L77.8 787.5Z" fill="#0f133e" stroke="#0f133e"></path><path d="M77.8 787.5L77.8 825L116.7 825Z" fill="#101442" stroke="#101442"></path><path d="M116.7 825L116.7 862.5L155.6 862.5Z" fill="#090a2b" stroke="#090a2b"></path><path d="M700 112.5L700 75L661.1 75Z" fill="#121545" stroke="#121545"></path><path d="M661.1 75L661.1 37.5L622.2 37.5Z" fill="#0c1138" stroke="#0c1138"></path><path d="M622.2 37.5L622.2 0L583.3 0Z" fill="#121545" stroke="#121545"></path><path d="M38.9 75L0 112.5L38.9 112.5Z" fill="#0a0c2e" stroke="#0a0c2e"></path><path d="M0 712.5L0 750L38.9 750Z" fill="#0a0c2e" stroke="#0a0c2e"></path><path d="M194.4 900L233.3 900L194.4 862.5Z" fill="#101442" stroke="#101442"></path><path d="M466.7 900L505.6 900L505.6 862.5Z" fill="#121545" stroke="#121545"></path><path d="M622.2 862.5L622.2 825L583.3 862.5Z" fill="#090a2b" stroke="#090a2b"></path><path d="M622.2 862.5L661.1 825L622.2 825Z" fill="#0d123b" stroke="#0d123b"></path><path d="M700 75L661.1 37.5L661.1 75Z" fill="#0d123b" stroke="#0d123b"></path><path d="M38.9 787.5L77.8 825L77.8 787.5Z" fill="#0b1035" stroke="#0b1035"></path><path d="M116.7 0L77.8 37.5L116.7 37.5Z" fill="#0c1138" stroke="#0c1138"></path><path d="M661.1 37.5L622.2 0L622.2 37.5Z" fill="#0a0c2e" stroke="#0a0c2e"></path><path d="M583.3 900L622.2 862.5L583.3 862.5Z" fill="#090a2b" stroke="#090a2b"></path><path d="M155.6 0L116.7 0L116.7 37.5Z" fill="#0a0c2e" stroke="#0a0c2e"></path><path d="M77.8 825L116.7 862.5L116.7 825Z" fill="#101442" stroke="#101442"></path><path d="M155.6 862.5L194.4 900L194.4 862.5Z" fill="#090a2b" stroke="#090a2b"></path><path d="M505.6 900L544.4 900L544.4 862.5Z" fill="#0a0e31" stroke="#0a0e31"></path><path d="M155.6 900L194.4 900L155.6 862.5Z" fill="#0c1138" stroke="#0c1138"></path><path d="M0 750L0 787.5L38.9 787.5Z" fill="#0f133e" stroke="#0f133e"></path><path d="M38.9 787.5L38.9 825L77.8 825Z" fill="#0c1138" stroke="#0c1138"></path><path d="M77.8 825L77.8 862.5L116.7 862.5Z" fill="#16174c" stroke="#16174c"></path><path d="M38.9 37.5L0 75L38.9 75Z" fill="#090a2b" stroke="#090a2b"></path><path d="M38.9 75L0 75L0 112.5Z" fill="#0b1035" stroke="#0b1035"></path><path d="M38.9 37.5L38.9 75L77.8 37.5Z" fill="#101442" stroke="#101442"></path><path d="M700 75L700 37.5L661.1 37.5Z" fill="#16174c" stroke="#16174c"></path><path d="M661.1 37.5L661.1 0L622.2 0Z" fill="#0b1035" stroke="#0b1035"></path><path d="M661.1 825L700 825L700 787.5Z" fill="#0f133e" stroke="#0f133e"></path><path d="M661.1 862.5L700 825L661.1 825Z" fill="#0a0e31" stroke="#0a0e31"></path><path d="M77.8 0L38.9 37.5L77.8 37.5Z" fill="#121545" stroke="#121545"></path><path d="M0 787.5L38.9 825L38.9 787.5Z" fill="#0c1138" stroke="#0c1138"></path><path d="M544.4 900L583.3 900L583.3 862.5Z" fill="#0f133e" stroke="#0f133e"></path><path d="M622.2 862.5L661.1 862.5L661.1 825Z" fill="#0d123b" stroke="#0d123b"></path><path d="M116.7 900L155.6 900L116.7 862.5Z" fill="#141649" stroke="#141649"></path><path d="M116.7 862.5L155.6 900L155.6 862.5Z" fill="#121545" stroke="#121545"></path><path d="M116.7 0L77.8 0L77.8 37.5Z" fill="#0c1138" stroke="#0c1138"></path><path d="M700 37.5L661.1 0L661.1 37.5Z" fill="#16174c" stroke="#16174c"></path><path d="M38.9 825L77.8 862.5L77.8 825Z" fill="#0b1035" stroke="#0b1035"></path><path d="M622.2 900L661.1 862.5L622.2 862.5Z" fill="#0d123b" stroke="#0d123b"></path><path d="M583.3 900L622.2 900L622.2 862.5Z" fill="#101442" stroke="#101442"></path><path d="M77.8 862.5L116.7 900L116.7 862.5Z" fill="#0a0e31" stroke="#0a0e31"></path><path d="M0 787.5L0 825L38.9 825Z" fill="#0f133e" stroke="#0f133e"></path><path d="M38.9 825L38.9 862.5L77.8 862.5Z" fill="#121545" stroke="#121545"></path><path d="M77.8 862.5L77.8 900L116.7 900Z" fill="#0a0e31" stroke="#0a0e31"></path><path d="M38.9 0L0 37.5L38.9 37.5Z" fill="#141649" stroke="#141649"></path><path d="M38.9 37.5L0 37.5L0 75Z" fill="#0c1138" stroke="#0c1138"></path><path d="M661.1 900L700 862.5L661.1 862.5Z" fill="#16174c" stroke="#16174c"></path><path d="M661.1 862.5L700 862.5L700 825Z" fill="#090a2b" stroke="#090a2b"></path><path d="M700 37.5L700 0L661.1 0Z" fill="#0a0c2e" stroke="#0a0c2e"></path><path d="M77.8 0L38.9 0L38.9 37.5Z" fill="#0a0c2e" stroke="#0a0c2e"></path><path d="M0 825L38.9 862.5L38.9 825Z" fill="#121545" stroke="#121545"></path><path d="M622.2 900L661.1 900L661.1 862.5Z" fill="#121545" stroke="#121545"></path><path d="M38.9 862.5L77.8 900L77.8 862.5Z" fill="#0f133e" stroke="#0f133e"></path><path d="M38.9 0L0 0L0 37.5Z" fill="#0f133e" stroke="#0f133e"></path><path d="M0 825L0 862.5L38.9 862.5Z" fill="#090a2b" stroke="#090a2b"></path><path d="M38.9 862.5L38.9 900L77.8 900Z" fill="#090a2b" stroke="#090a2b"></path><path d="M0 862.5L38.9 900L38.9 862.5Z" fill="#121545" stroke="#121545"></path><path d="M661.1 900L700 900L700 862.5Z" fill="#0a0c2e" stroke="#0a0c2e"></path><path d="M0 862.5L0 900L38.9 900Z" fill="#16174c" stroke="#16174c"></path></g></svg>