<svg id="visual" viewBox="0 0 800 900" width="800" height="900" xmlns="http://www.w3.org/2000/svg" xmlns:xlink="http://www.w3.org/1999/xlink" version="1.1"><g stroke-width="1" stroke-linejoin="bevel"><path d="M400 428.6L355.6 428.6L400 471.4Z" fill="#121545" stroke="#121545"></path><path d="M355.6 428.6L355.6 471.4L400 471.4Z" fill="#0d123b" stroke="#0d123b"></path><path d="M355.6 471.4L400 514.3L400 471.4Z" fill="#090a2b" stroke="#090a2b"></path><path d="M355.6 471.4L355.6 514.3L400 514.3Z" fill="#090a2b" stroke="#090a2b"></path><path d="M400 385.7L355.6 385.7L355.6 428.6Z" fill="#101442" stroke="#101442"></path><path d="M400 428.6L400 385.7L355.6 428.6Z" fill="#16174c" stroke="#16174c"></path><path d="M311.1 428.6L311.1 471.4L355.6 428.6Z" fill="#141649" stroke="#141649"></path><path d="M355.6 428.6L311.1 471.4L355.6 471.4Z" fill="#0a0e31" stroke="#0a0e31"></path><path d="M355.6 471.4L311.1 471.4L355.6 514.3Z" fill="#0a0e31" stroke="#0a0e31"></path><path d="M400 514.3L444.4 471.4L400 471.4Z" fill="#0a0e31" stroke="#0a0e31"></path><path d="M400 471.4L444.4 471.4L400 428.6Z" fill="#090a2b" stroke="#090a2b"></path><path d="M400 428.6L444.4 385.7L400 385.7Z" fill="#121545" stroke="#121545"></path><path d="M444.4 471.4L444.4 428.6L400 428.6Z" fill="#0b1035" stroke="#0b1035"></path><path d="M311.1 385.7L311.1 428.6L355.6 428.6Z" fill="#0d123b" stroke="#0d123b"></path><path d="M311.1 471.4L311.1 514.3L355.6 514.3Z" fill="#121545" stroke="#121545"></path><path d="M400 514.3L444.4 514.3L444.4 471.4Z" fill="#0f133e" stroke="#0f133e"></path><path d="M444.4 428.6L444.4 385.7L400 428.6Z" fill="#101442" stroke="#101442"></path><path d="M355.6 385.7L311.1 385.7L355.6 428.6Z" fill="#16174c" stroke="#16174c"></path><path d="M355.6 557.1L400 557.1L400 514.3Z" fill="#0a0c2e" stroke="#0a0c2e"></path><path d="M400 514.3L444.4 557.1L444.4 514.3Z" fill="#0a0e31" stroke="#0a0e31"></path><path d="M355.6 557.1L400 514.3L355.6 514.3Z" fill="#0f133e" stroke="#0f133e"></path><path d="M311.1 557.1L355.6 557.1L355.6 514.3Z" fill="#0d123b" stroke="#0d123b"></path><path d="M400 342.9L355.6 342.9L400 385.7Z" fill="#121545" stroke="#121545"></path><path d="M400 385.7L355.6 342.9L355.6 385.7Z" fill="#0c1138" stroke="#0c1138"></path><path d="M355.6 385.7L355.6 342.9L311.1 385.7Z" fill="#0a0c2e" stroke="#0a0c2e"></path><path d="M444.4 385.7L400 342.9L400 385.7Z" fill="#090a2b" stroke="#090a2b"></path><path d="M444.4 514.3L488.9 471.4L444.4 471.4Z" fill="#0f133e" stroke="#0f133e"></path><path d="M444.4 471.4L488.9 471.4L444.4 428.6Z" fill="#0b1035" stroke="#0b1035"></path><path d="M444.4 428.6L488.9 428.6L444.4 385.7Z" fill="#0c1138" stroke="#0c1138"></path><path d="M488.9 471.4L488.9 428.6L444.4 428.6Z" fill="#101442" stroke="#101442"></path><path d="M266.7 428.6L266.7 471.4L311.1 428.6Z" fill="#090a2b" stroke="#090a2b"></path><path d="M311.1 428.6L266.7 471.4L311.1 471.4Z" fill="#0b1035" stroke="#0b1035"></path><path d="M311.1 471.4L266.7 471.4L311.1 514.3Z" fill="#090a2b" stroke="#090a2b"></path><path d="M311.1 514.3L311.1 557.1L355.6 514.3Z" fill="#0f133e" stroke="#0f133e"></path><path d="M266.7 385.7L266.7 428.6L311.1 428.6Z" fill="#141649" stroke="#141649"></path><path d="M266.7 557.1L311.1 557.1L311.1 514.3Z" fill="#0a0e31" stroke="#0a0e31"></path><path d="M400 557.1L444.4 557.1L400 514.3Z" fill="#121545" stroke="#121545"></path><path d="M444.4 514.3L488.9 514.3L488.9 471.4Z" fill="#16174c" stroke="#16174c"></path><path d="M355.6 342.9L311.1 342.9L311.1 385.7Z" fill="#0d123b" stroke="#0d123b"></path><path d="M311.1 385.7L266.7 385.7L311.1 428.6Z" fill="#141649" stroke="#141649"></path><path d="M488.9 385.7L444.4 342.9L444.4 385.7Z" fill="#090a2b" stroke="#090a2b"></path><path d="M444.4 385.7L444.4 342.9L400 342.9Z" fill="#101442" stroke="#101442"></path><path d="M444.4 557.1L488.9 514.3L444.4 514.3Z" fill="#141649" stroke="#141649"></path><path d="M266.7 471.4L266.7 514.3L311.1 514.3Z" fill="#141649" stroke="#141649"></path><path d="M488.9 428.6L488.9 385.7L444.4 385.7Z" fill="#141649" stroke="#141649"></path><path d="M311.1 342.9L266.7 385.7L311.1 385.7Z" fill="#090a2b" stroke="#090a2b"></path><path d="M444.4 342.9L400 300L400 342.9Z" fill="#16174c" stroke="#16174c"></path><path d="M400 342.9L400 300L355.6 342.9Z" fill="#0a0c2e" stroke="#0a0c2e"></path><path d="M355.6 342.9L355.6 300L311.1 342.9Z" fill="#101442" stroke="#101442"></path><path d="M311.1 600L355.6 600L355.6 557.1Z" fill="#0d123b" stroke="#0d123b"></path><path d="M355.6 557.1L400 600L400 557.1Z" fill="#16174c" stroke="#16174c"></path><path d="M400 557.1L444.4 600L444.4 557.1Z" fill="#121545" stroke="#121545"></path><path d="M355.6 600L400 600L355.6 557.1Z" fill="#0b1035" stroke="#0b1035"></path><path d="M400 300L355.6 300L355.6 342.9Z" fill="#0d123b" stroke="#0d123b"></path><path d="M444.4 600L488.9 557.1L444.4 557.1Z" fill="#0f133e" stroke="#0f133e"></path><path d="M444.4 557.1L488.9 557.1L488.9 514.3Z" fill="#141649" stroke="#141649"></path><path d="M488.9 385.7L488.9 342.9L444.4 342.9Z" fill="#0c1138" stroke="#0c1138"></path><path d="M444.4 342.9L444.4 300L400 300Z" fill="#101442" stroke="#101442"></path><path d="M266.7 514.3L266.7 557.1L311.1 514.3Z" fill="#0b1035" stroke="#0b1035"></path><path d="M311.1 557.1L311.1 600L355.6 557.1Z" fill="#0c1138" stroke="#0c1138"></path><path d="M311.1 300L266.7 342.9L311.1 342.9Z" fill="#0c1138" stroke="#0c1138"></path><path d="M311.1 342.9L266.7 342.9L266.7 385.7Z" fill="#141649" stroke="#141649"></path><path d="M488.9 514.3L533.3 471.4L488.9 471.4Z" fill="#0a0e31" stroke="#0a0e31"></path><path d="M488.9 471.4L533.3 471.4L488.9 428.6Z" fill="#0d123b" stroke="#0d123b"></path><path d="M488.9 428.6L533.3 428.6L488.9 385.7Z" fill="#0a0c2e" stroke="#0a0c2e"></path><path d="M488.9 385.7L533.3 385.7L488.9 342.9Z" fill="#16174c" stroke="#16174c"></path><path d="M533.3 514.3L533.3 471.4L488.9 514.3Z" fill="#101442" stroke="#101442"></path><path d="M533.3 471.4L533.3 428.6L488.9 428.6Z" fill="#0a0c2e" stroke="#0a0c2e"></path><path d="M266.7 428.6L222.2 471.4L266.7 471.4Z" fill="#141649" stroke="#141649"></path><path d="M266.7 471.4L222.2 471.4L266.7 514.3Z" fill="#0b1035" stroke="#0b1035"></path><path d="M266.7 514.3L222.2 514.3L266.7 557.1Z" fill="#0a0e31" stroke="#0a0e31"></path><path d="M222.2 428.6L222.2 471.4L266.7 428.6Z" fill="#16174c" stroke="#16174c"></path><path d="M222.2 428.6L266.7 428.6L266.7 385.7Z" fill="#0c1138" stroke="#0c1138"></path><path d="M222.2 385.7L222.2 428.6L266.7 385.7Z" fill="#16174c" stroke="#16174c"></path><path d="M488.9 342.9L444.4 300L444.4 342.9Z" fill="#0a0c2e" stroke="#0a0c2e"></path><path d="M355.6 300L311.1 300L311.1 342.9Z" fill="#0d123b" stroke="#0d123b"></path><path d="M266.7 600L311.1 600L311.1 557.1Z" fill="#0f133e" stroke="#0f133e"></path><path d="M400 600L444.4 600L400 557.1Z" fill="#0f133e" stroke="#0f133e"></path><path d="M488.9 557.1L533.3 514.3L488.9 514.3Z" fill="#101442" stroke="#101442"></path><path d="M533.3 428.6L533.3 385.7L488.9 385.7Z" fill="#0b1035" stroke="#0b1035"></path><path d="M222.2 471.4L222.2 514.3L266.7 514.3Z" fill="#101442" stroke="#101442"></path><path d="M266.7 342.9L222.2 385.7L266.7 385.7Z" fill="#0f133e" stroke="#0f133e"></path><path d="M533.3 342.9L488.9 300L488.9 342.9Z" fill="#101442" stroke="#101442"></path><path d="M488.9 342.9L488.9 300L444.4 300Z" fill="#121545" stroke="#121545"></path><path d="M444.4 600L488.9 600L488.9 557.1Z" fill="#0b1035" stroke="#0b1035"></path><path d="M488.9 557.1L533.3 557.1L533.3 514.3Z" fill="#101442" stroke="#101442"></path><path d="M311.1 300L266.7 300L266.7 342.9Z" fill="#0c1138" stroke="#0c1138"></path><path d="M266.7 342.9L222.2 342.9L222.2 385.7Z" fill="#121545" stroke="#121545"></path><path d="M266.7 557.1L266.7 600L311.1 557.1Z" fill="#121545" stroke="#121545"></path><path d="M222.2 557.1L266.7 600L266.7 557.1Z" fill="#0f133e" stroke="#0f133e"></path><path d="M488.9 600L533.3 557.1L488.9 557.1Z" fill="#0d123b" stroke="#0d123b"></path><path d="M533.3 385.7L533.3 342.9L488.9 342.9Z" fill="#0c1138" stroke="#0c1138"></path><path d="M222.2 514.3L222.2 557.1L266.7 557.1Z" fill="#0f133e" stroke="#0f133e"></path><path d="M266.7 300L222.2 342.9L266.7 342.9Z" fill="#121545" stroke="#121545"></path><path d="M355.6 642.9L400 642.9L400 600Z" fill="#101442" stroke="#101442"></path><path d="M400 600L444.4 642.9L444.4 600Z" fill="#0c1138" stroke="#0c1138"></path><path d="M444.4 600L444.4 642.9L488.9 600Z" fill="#0a0c2e" stroke="#0a0c2e"></path><path d="M355.6 642.9L400 600L355.6 600Z" fill="#0d123b" stroke="#0d123b"></path><path d="M355.6 642.9L355.6 600L311.1 642.9Z" fill="#0a0e31" stroke="#0a0e31"></path><path d="M311.1 642.9L355.6 600L311.1 600Z" fill="#121545" stroke="#121545"></path><path d="M444.4 257.1L400 257.1L400 300Z" fill="#101442" stroke="#101442"></path><path d="M400 300L355.6 257.1L355.6 300Z" fill="#0f133e" stroke="#0f133e"></path><path d="M355.6 300L311.1 257.1L311.1 300Z" fill="#121545" stroke="#121545"></path><path d="M311.1 300L266.7 257.1L266.7 300Z" fill="#141649" stroke="#141649"></path><path d="M444.4 257.1L400 300L444.4 300Z" fill="#0b1035" stroke="#0b1035"></path><path d="M400 257.1L355.6 257.1L400 300Z" fill="#0a0c2e" stroke="#0a0c2e"></path><path d="M533.3 471.4L577.8 428.6L533.3 428.6Z" fill="#0d123b" stroke="#0d123b"></path><path d="M533.3 428.6L577.8 385.7L533.3 385.7Z" fill="#0c1138" stroke="#0c1138"></path><path d="M533.3 385.7L577.8 385.7L533.3 342.9Z" fill="#121545" stroke="#121545"></path><path d="M577.8 471.4L577.8 428.6L533.3 471.4Z" fill="#090a2b" stroke="#090a2b"></path><path d="M577.8 471.4L533.3 471.4L533.3 514.3Z" fill="#101442" stroke="#101442"></path><path d="M577.8 514.3L577.8 471.4L533.3 514.3Z" fill="#141649" stroke="#141649"></path><path d="M177.8 385.7L177.8 428.6L222.2 428.6Z" fill="#0f133e" stroke="#0f133e"></path><path d="M222.2 428.6L177.8 428.6L222.2 471.4Z" fill="#090a2b" stroke="#090a2b"></path><path d="M222.2 471.4L177.8 471.4L222.2 514.3Z" fill="#141649" stroke="#141649"></path><path d="M222.2 514.3L177.8 557.1L222.2 557.1Z" fill="#0b1035" stroke="#0b1035"></path><path d="M177.8 385.7L222.2 428.6L222.2 385.7Z" fill="#16174c" stroke="#16174c"></path><path d="M177.8 428.6L177.8 471.4L222.2 471.4Z" fill="#090a2b" stroke="#090a2b"></path><path d="M266.7 642.9L311.1 642.9L311.1 600Z" fill="#121545" stroke="#121545"></path><path d="M400 642.9L444.4 642.9L400 600Z" fill="#141649" stroke="#141649"></path><path d="M355.6 257.1L311.1 257.1L355.6 300Z" fill="#0d123b" stroke="#0d123b"></path><path d="M488.9 257.1L444.4 257.1L488.9 300Z" fill="#0d123b" stroke="#0d123b"></path><path d="M488.9 300L444.4 257.1L444.4 300Z" fill="#090a2b" stroke="#090a2b"></path><path d="M577.8 557.1L577.8 514.3L533.3 514.3Z" fill="#0d123b" stroke="#0d123b"></path><path d="M577.8 557.1L533.3 514.3L533.3 557.1Z" fill="#0c1138" stroke="#0c1138"></path><path d="M577.8 428.6L577.8 385.7L533.3 428.6Z" fill="#0c1138" stroke="#0c1138"></path><path d="M533.3 342.9L533.3 300L488.9 300Z" fill="#121545" stroke="#121545"></path><path d="M177.8 471.4L177.8 514.3L222.2 514.3Z" fill="#0f133e" stroke="#0f133e"></path><path d="M222.2 557.1L222.2 600L266.7 600Z" fill="#0a0e31" stroke="#0a0e31"></path><path d="M177.8 342.9L177.8 385.7L222.2 342.9Z" fill="#0a0e31" stroke="#0a0e31"></path><path d="M222.2 342.9L177.8 385.7L222.2 385.7Z" fill="#0b1035" stroke="#0b1035"></path><path d="M222.2 300L222.2 342.9L266.7 300Z" fill="#0f133e" stroke="#0f133e"></path><path d="M488.9 642.9L533.3 600L488.9 600Z" fill="#121545" stroke="#121545"></path><path d="M488.9 600L533.3 600L533.3 557.1Z" fill="#101442" stroke="#101442"></path><path d="M577.8 342.9L533.3 300L533.3 342.9Z" fill="#0b1035" stroke="#0b1035"></path><path d="M177.8 600L222.2 600L222.2 557.1Z" fill="#090a2b" stroke="#090a2b"></path><path d="M266.7 600L266.7 642.9L311.1 600Z" fill="#0b1035" stroke="#0b1035"></path><path d="M266.7 257.1L222.2 300L266.7 300Z" fill="#0b1035" stroke="#0b1035"></path><path d="M444.4 642.9L488.9 642.9L488.9 600Z" fill="#16174c" stroke="#16174c"></path><path d="M222.2 600L266.7 642.9L266.7 600Z" fill="#0f133e" stroke="#0f133e"></path><path d="M533.3 300L488.9 257.1L488.9 300Z" fill="#0a0c2e" stroke="#0a0c2e"></path><path d="M311.1 257.1L266.7 257.1L311.1 300Z" fill="#0a0e31" stroke="#0a0e31"></path><path d="M577.8 600L577.8 557.1L533.3 557.1Z" fill="#090a2b" stroke="#090a2b"></path><path d="M577.8 385.7L577.8 342.9L533.3 342.9Z" fill="#121545" stroke="#121545"></path><path d="M533.3 300L533.3 257.1L488.9 257.1Z" fill="#090a2b" stroke="#090a2b"></path><path d="M177.8 514.3L177.8 557.1L222.2 514.3Z" fill="#0b1035" stroke="#0b1035"></path><path d="M222.2 300L177.8 342.9L222.2 342.9Z" fill="#0d123b" stroke="#0d123b"></path><path d="M177.8 300L177.8 342.9L222.2 300Z" fill="#0a0e31" stroke="#0a0e31"></path><path d="M355.6 685.7L400 685.7L400 642.9Z" fill="#101442" stroke="#101442"></path><path d="M400 642.9L444.4 685.7L444.4 642.9Z" fill="#0d123b" stroke="#0d123b"></path><path d="M444.4 642.9L444.4 685.7L488.9 642.9Z" fill="#16174c" stroke="#16174c"></path><path d="M355.6 685.7L400 642.9L355.6 642.9Z" fill="#090a2b" stroke="#090a2b"></path><path d="M355.6 685.7L355.6 642.9L311.1 685.7Z" fill="#101442" stroke="#101442"></path><path d="M311.1 685.7L355.6 642.9L311.1 642.9Z" fill="#090a2b" stroke="#090a2b"></path><path d="M444.4 257.1L400 214.3L400 257.1Z" fill="#090a2b" stroke="#090a2b"></path><path d="M400 257.1L400 214.3L355.6 257.1Z" fill="#0f133e" stroke="#0f133e"></path><path d="M355.6 257.1L355.6 214.3L311.1 257.1Z" fill="#121545" stroke="#121545"></path><path d="M311.1 257.1L311.1 214.3L266.7 257.1Z" fill="#0b1035" stroke="#0b1035"></path><path d="M444.4 214.3L400 214.3L444.4 257.1Z" fill="#141649" stroke="#141649"></path><path d="M400 214.3L355.6 214.3L355.6 257.1Z" fill="#121545" stroke="#121545"></path><path d="M400 685.7L444.4 685.7L400 642.9Z" fill="#0c1138" stroke="#0c1138"></path><path d="M488.9 642.9L533.3 642.9L533.3 600Z" fill="#101442" stroke="#101442"></path><path d="M266.7 685.7L311.1 685.7L311.1 642.9Z" fill="#0f133e" stroke="#0f133e"></path><path d="M266.7 685.7L311.1 642.9L266.7 642.9Z" fill="#0a0c2e" stroke="#0a0c2e"></path><path d="M355.6 214.3L311.1 214.3L311.1 257.1Z" fill="#0f133e" stroke="#0f133e"></path><path d="M488.9 257.1L444.4 214.3L444.4 257.1Z" fill="#090a2b" stroke="#090a2b"></path><path d="M622.2 471.4L577.8 471.4L577.8 514.3Z" fill="#16174c" stroke="#16174c"></path><path d="M622.2 471.4L622.2 428.6L577.8 471.4Z" fill="#0f133e" stroke="#0f133e"></path><path d="M577.8 471.4L622.2 428.6L577.8 428.6Z" fill="#0a0e31" stroke="#0a0e31"></path><path d="M577.8 428.6L622.2 385.7L577.8 385.7Z" fill="#0a0c2e" stroke="#0a0c2e"></path><path d="M577.8 385.7L622.2 385.7L577.8 342.9Z" fill="#16174c" stroke="#16174c"></path><path d="M622.2 514.3L622.2 471.4L577.8 514.3Z" fill="#0b1035" stroke="#0b1035"></path><path d="M133.3 385.7L133.3 428.6L177.8 428.6Z" fill="#0f133e" stroke="#0f133e"></path><path d="M177.8 428.6L133.3 428.6L177.8 471.4Z" fill="#121545" stroke="#121545"></path><path d="M177.8 471.4L133.3 471.4L177.8 514.3Z" fill="#090a2b" stroke="#090a2b"></path><path d="M177.8 514.3L133.3 557.1L177.8 557.1Z" fill="#0a0c2e" stroke="#0a0c2e"></path><path d="M133.3 385.7L177.8 428.6L177.8 385.7Z" fill="#0b1035" stroke="#0b1035"></path><path d="M133.3 428.6L133.3 471.4L177.8 471.4Z" fill="#0b1035" stroke="#0b1035"></path><path d="M488.9 685.7L533.3 642.9L488.9 642.9Z" fill="#0b1035" stroke="#0b1035"></path><path d="M533.3 600L577.8 600L533.3 557.1Z" fill="#0d123b" stroke="#0d123b"></path><path d="M177.8 642.9L222.2 642.9L222.2 600Z" fill="#0b1035" stroke="#0b1035"></path><path d="M222.2 600L222.2 642.9L266.7 642.9Z" fill="#141649" stroke="#141649"></path><path d="M577.8 257.1L533.3 257.1L533.3 300Z" fill="#0f133e" stroke="#0f133e"></path><path d="M488.9 257.1L488.9 214.3L444.4 214.3Z" fill="#0a0c2e" stroke="#0a0c2e"></path><path d="M266.7 214.3L222.2 257.1L266.7 257.1Z" fill="#121545" stroke="#121545"></path><path d="M266.7 257.1L222.2 257.1L222.2 300Z" fill="#0f133e" stroke="#0f133e"></path><path d="M577.8 642.9L577.8 600L533.3 600Z" fill="#0b1035" stroke="#0b1035"></path><path d="M622.2 557.1L622.2 514.3L577.8 514.3Z" fill="#0f133e" stroke="#0f133e"></path><path d="M622.2 342.9L577.8 300L577.8 342.9Z" fill="#0d123b" stroke="#0d123b"></path><path d="M577.8 342.9L577.8 300L533.3 300Z" fill="#0f133e" stroke="#0f133e"></path><path d="M177.8 257.1L177.8 300L222.2 300Z" fill="#16174c" stroke="#16174c"></path><path d="M177.8 342.9L133.3 385.7L177.8 385.7Z" fill="#101442" stroke="#101442"></path><path d="M177.8 557.1L177.8 600L222.2 557.1Z" fill="#0a0c2e" stroke="#0a0c2e"></path><path d="M133.3 600L177.8 600L177.8 557.1Z" fill="#0b1035" stroke="#0b1035"></path><path d="M622.2 557.1L577.8 514.3L577.8 557.1Z" fill="#0c1138" stroke="#0c1138"></path><path d="M622.2 428.6L622.2 385.7L577.8 428.6Z" fill="#0a0e31" stroke="#0a0e31"></path><path d="M133.3 471.4L133.3 514.3L177.8 514.3Z" fill="#0b1035" stroke="#0b1035"></path><path d="M133.3 342.9L133.3 385.7L177.8 342.9Z" fill="#141649" stroke="#141649"></path><path d="M444.4 685.7L488.9 685.7L488.9 642.9Z" fill="#101442" stroke="#101442"></path><path d="M533.3 642.9L577.8 642.9L533.3 600Z" fill="#121545" stroke="#121545"></path><path d="M222.2 685.7L266.7 685.7L222.2 642.9Z" fill="#141649" stroke="#141649"></path><path d="M222.2 642.9L266.7 685.7L266.7 642.9Z" fill="#0a0e31" stroke="#0a0e31"></path><path d="M533.3 257.1L488.9 214.3L488.9 257.1Z" fill="#16174c" stroke="#16174c"></path><path d="M311.1 214.3L266.7 214.3L266.7 257.1Z" fill="#121545" stroke="#121545"></path><path d="M622.2 600L622.2 557.1L577.8 557.1Z" fill="#0a0c2e" stroke="#0a0c2e"></path><path d="M622.2 385.7L622.2 342.9L577.8 342.9Z" fill="#090a2b" stroke="#090a2b"></path><path d="M577.8 300L577.8 257.1L533.3 300Z" fill="#141649" stroke="#141649"></path><path d="M133.3 514.3L133.3 557.1L177.8 514.3Z" fill="#0a0c2e" stroke="#0a0c2e"></path><path d="M177.8 300L133.3 342.9L177.8 342.9Z" fill="#090a2b" stroke="#090a2b"></path><path d="M133.3 300L133.3 342.9L177.8 300Z" fill="#121545" stroke="#121545"></path><path d="M577.8 685.7L577.8 642.9L533.3 642.9Z" fill="#0a0c2e" stroke="#0a0c2e"></path><path d="M577.8 600L622.2 600L577.8 557.1Z" fill="#101442" stroke="#101442"></path><path d="M133.3 642.9L177.8 642.9L177.8 600Z" fill="#090a2b" stroke="#090a2b"></path><path d="M177.8 600L177.8 642.9L222.2 600Z" fill="#16174c" stroke="#16174c"></path><path d="M622.2 257.1L577.8 257.1L577.8 300Z" fill="#0c1138" stroke="#0c1138"></path><path d="M533.3 257.1L533.3 214.3L488.9 214.3Z" fill="#16174c" stroke="#16174c"></path><path d="M222.2 214.3L177.8 257.1L222.2 257.1Z" fill="#101442" stroke="#101442"></path><path d="M222.2 257.1L177.8 257.1L222.2 300Z" fill="#16174c" stroke="#16174c"></path><path d="M444.4 171.4L400 171.4L400 214.3Z" fill="#16174c" stroke="#16174c"></path><path d="M400 214.3L355.6 171.4L355.6 214.3Z" fill="#0a0c2e" stroke="#0a0c2e"></path><path d="M355.6 214.3L311.1 171.4L311.1 214.3Z" fill="#0a0e31" stroke="#0a0e31"></path><path d="M311.1 214.3L266.7 171.4L266.7 214.3Z" fill="#0c1138" stroke="#0c1138"></path><path d="M444.4 171.4L400 214.3L444.4 214.3Z" fill="#141649" stroke="#141649"></path><path d="M444.4 171.4L444.4 214.3L488.9 214.3Z" fill="#0c1138" stroke="#0c1138"></path><path d="M400 171.4L355.6 171.4L400 214.3Z" fill="#0a0c2e" stroke="#0a0c2e"></path><path d="M311.1 728.6L355.6 685.7L311.1 685.7Z" fill="#0b1035" stroke="#0b1035"></path><path d="M311.1 728.6L355.6 728.6L355.6 685.7Z" fill="#0d123b" stroke="#0d123b"></path><path d="M355.6 685.7L400 728.6L400 685.7Z" fill="#0c1138" stroke="#0c1138"></path><path d="M400 685.7L444.4 728.6L444.4 685.7Z" fill="#121545" stroke="#121545"></path><path d="M444.4 685.7L444.4 728.6L488.9 685.7Z" fill="#090a2b" stroke="#090a2b"></path><path d="M355.6 728.6L400 728.6L355.6 685.7Z" fill="#0c1138" stroke="#0c1138"></path><path d="M488.9 685.7L533.3 685.7L533.3 642.9Z" fill="#16174c" stroke="#16174c"></path><path d="M488.9 728.6L533.3 685.7L488.9 685.7Z" fill="#090a2b" stroke="#090a2b"></path><path d="M177.8 685.7L222.2 685.7L222.2 642.9Z" fill="#16174c" stroke="#16174c"></path><path d="M266.7 728.6L311.1 728.6L311.1 685.7Z" fill="#0d123b" stroke="#0d123b"></path><path d="M577.8 257.1L533.3 214.3L533.3 257.1Z" fill="#16174c" stroke="#16174c"></path><path d="M266.7 171.4L222.2 214.3L266.7 214.3Z" fill="#141649" stroke="#141649"></path><path d="M266.7 214.3L222.2 214.3L222.2 257.1Z" fill="#0a0e31" stroke="#0a0e31"></path><path d="M400 728.6L444.4 728.6L400 685.7Z" fill="#101442" stroke="#101442"></path><path d="M266.7 728.6L311.1 685.7L266.7 685.7Z" fill="#0a0e31" stroke="#0a0e31"></path><path d="M488.9 171.4L444.4 171.4L488.9 214.3Z" fill="#0c1138" stroke="#0c1138"></path><path d="M355.6 171.4L311.1 171.4L355.6 214.3Z" fill="#0a0c2e" stroke="#0a0c2e"></path><path d="M622.2 342.9L622.2 300L577.8 300Z" fill="#121545" stroke="#121545"></path><path d="M622.2 642.9L577.8 600L577.8 642.9Z" fill="#0c1138" stroke="#0c1138"></path><path d="M622.2 642.9L622.2 600L577.8 600Z" fill="#0c1138" stroke="#0c1138"></path><path d="M133.3 557.1L133.3 600L177.8 557.1Z" fill="#0a0e31" stroke="#0a0e31"></path><path d="M177.8 642.9L177.8 685.7L222.2 642.9Z" fill="#141649" stroke="#141649"></path><path d="M133.3 257.1L133.3 300L177.8 300Z" fill="#0a0e31" stroke="#0a0e31"></path><path d="M622.2 471.4L666.7 471.4L622.2 428.6Z" fill="#0d123b" stroke="#0d123b"></path><path d="M622.2 428.6L666.7 385.7L622.2 385.7Z" fill="#16174c" stroke="#16174c"></path><path d="M622.2 385.7L666.7 385.7L622.2 342.9Z" fill="#0a0e31" stroke="#0a0e31"></path><path d="M622.2 342.9L666.7 342.9L622.2 300Z" fill="#0f133e" stroke="#0f133e"></path><path d="M622.2 514.3L666.7 471.4L622.2 471.4Z" fill="#121545" stroke="#121545"></path><path d="M666.7 514.3L666.7 471.4L622.2 514.3Z" fill="#0d123b" stroke="#0d123b"></path><path d="M666.7 514.3L622.2 514.3L666.7 557.1Z" fill="#101442" stroke="#101442"></path><path d="M666.7 471.4L666.7 428.6L622.2 428.6Z" fill="#0a0c2e" stroke="#0a0c2e"></path><path d="M133.3 428.6L88.9 471.4L133.3 471.4Z" fill="#101442" stroke="#101442"></path><path d="M133.3 471.4L88.9 471.4L133.3 514.3Z" fill="#0d123b" stroke="#0d123b"></path><path d="M133.3 514.3L88.9 514.3L133.3 557.1Z" fill="#16174c" stroke="#16174c"></path><path d="M133.3 557.1L88.9 557.1L133.3 600Z" fill="#101442" stroke="#101442"></path><path d="M88.9 428.6L88.9 471.4L133.3 428.6Z" fill="#0c1138" stroke="#0c1138"></path><path d="M88.9 428.6L133.3 428.6L133.3 385.7Z" fill="#0a0c2e" stroke="#0a0c2e"></path><path d="M88.9 428.6L133.3 385.7L88.9 385.7Z" fill="#101442" stroke="#101442"></path><path d="M88.9 385.7L133.3 385.7L133.3 342.9Z" fill="#0c1138" stroke="#0c1138"></path><path d="M666.7 557.1L622.2 514.3L622.2 557.1Z" fill="#141649" stroke="#141649"></path><path d="M666.7 428.6L666.7 385.7L622.2 428.6Z" fill="#0b1035" stroke="#0b1035"></path><path d="M88.9 471.4L88.9 514.3L133.3 514.3Z" fill="#121545" stroke="#121545"></path><path d="M88.9 342.9L88.9 385.7L133.3 342.9Z" fill="#0b1035" stroke="#0b1035"></path><path d="M444.4 728.6L488.9 728.6L488.9 685.7Z" fill="#090a2b" stroke="#090a2b"></path><path d="M533.3 685.7L577.8 685.7L533.3 642.9Z" fill="#101442" stroke="#101442"></path><path d="M533.3 214.3L488.9 171.4L488.9 214.3Z" fill="#090a2b" stroke="#090a2b"></path><path d="M533.3 171.4L488.9 171.4L533.3 214.3Z" fill="#0a0e31" stroke="#0a0e31"></path><path d="M222.2 728.6L266.7 728.6L222.2 685.7Z" fill="#0b1035" stroke="#0b1035"></path><path d="M222.2 685.7L266.7 728.6L266.7 685.7Z" fill="#0a0c2e" stroke="#0a0c2e"></path><path d="M311.1 171.4L266.7 171.4L311.1 214.3Z" fill="#121545" stroke="#121545"></path><path d="M222.2 214.3L177.8 214.3L177.8 257.1Z" fill="#101442" stroke="#101442"></path><path d="M666.7 600L666.7 557.1L622.2 557.1Z" fill="#0c1138" stroke="#0c1138"></path><path d="M666.7 385.7L666.7 342.9L622.2 342.9Z" fill="#101442" stroke="#101442"></path><path d="M622.2 257.1L577.8 214.3L577.8 257.1Z" fill="#16174c" stroke="#16174c"></path><path d="M88.9 514.3L88.9 557.1L133.3 557.1Z" fill="#0b1035" stroke="#0b1035"></path><path d="M88.9 300L88.9 342.9L133.3 300Z" fill="#090a2b" stroke="#090a2b"></path><path d="M133.3 300L88.9 342.9L133.3 342.9Z" fill="#0a0c2e" stroke="#0a0c2e"></path><path d="M577.8 728.6L577.8 685.7L533.3 685.7Z" fill="#0b1035" stroke="#0b1035"></path><path d="M622.2 600L666.7 600L622.2 557.1Z" fill="#0b1035" stroke="#0b1035"></path><path d="M133.3 642.9L177.8 600L133.3 600Z" fill="#16174c" stroke="#16174c"></path><path d="M133.3 685.7L177.8 685.7L177.8 642.9Z" fill="#0a0e31" stroke="#0a0e31"></path><path d="M622.2 257.1L577.8 300L622.2 300Z" fill="#0f133e" stroke="#0f133e"></path><path d="M577.8 257.1L577.8 214.3L533.3 214.3Z" fill="#090a2b" stroke="#090a2b"></path><path d="M177.8 171.4L177.8 214.3L222.2 214.3Z" fill="#0b1035" stroke="#0b1035"></path><path d="M177.8 257.1L133.3 257.1L177.8 300Z" fill="#121545" stroke="#121545"></path><path d="M622.2 685.7L622.2 642.9L577.8 642.9Z" fill="#0c1138" stroke="#0c1138"></path><path d="M88.9 600L133.3 642.9L133.3 600Z" fill="#141649" stroke="#141649"></path><path d="M666.7 257.1L622.2 257.1L622.2 300Z" fill="#0f133e" stroke="#0f133e"></path><path d="M177.8 214.3L133.3 257.1L177.8 257.1Z" fill="#141649" stroke="#141649"></path><path d="M577.8 171.4L533.3 214.3L577.8 214.3Z" fill="#101442" stroke="#101442"></path><path d="M577.8 171.4L533.3 171.4L533.3 214.3Z" fill="#0b1035" stroke="#0b1035"></path><path d="M488.9 728.6L533.3 728.6L533.3 685.7Z" fill="#121545" stroke="#121545"></path><path d="M177.8 728.6L222.2 728.6L222.2 685.7Z" fill="#090a2b" stroke="#090a2b"></path><path d="M266.7 171.4L222.2 171.4L222.2 214.3Z" fill="#0a0c2e" stroke="#0a0c2e"></path><path d="M177.8 214.3L133.3 214.3L133.3 257.1Z" fill="#0f133e" stroke="#0f133e"></path><path d="M311.1 771.4L355.6 728.6L311.1 728.6Z" fill="#0a0c2e" stroke="#0a0c2e"></path><path d="M311.1 771.4L355.6 771.4L355.6 728.6Z" fill="#0a0e31" stroke="#0a0e31"></path><path d="M355.6 728.6L400 771.4L400 728.6Z" fill="#121545" stroke="#121545"></path><path d="M400 728.6L444.4 771.4L444.4 728.6Z" fill="#0c1138" stroke="#0c1138"></path><path d="M444.4 728.6L444.4 771.4L488.9 728.6Z" fill="#090a2b" stroke="#090a2b"></path><path d="M488.9 728.6L488.9 771.4L533.3 728.6Z" fill="#090a2b" stroke="#090a2b"></path><path d="M311.1 771.4L311.1 728.6L266.7 771.4Z" fill="#0d123b" stroke="#0d123b"></path><path d="M355.6 771.4L400 771.4L355.6 728.6Z" fill="#0d123b" stroke="#0d123b"></path><path d="M355.6 171.4L311.1 128.6L311.1 171.4Z" fill="#121545" stroke="#121545"></path><path d="M311.1 171.4L266.7 128.6L266.7 171.4Z" fill="#0a0e31" stroke="#0a0e31"></path><path d="M266.7 171.4L266.7 128.6L222.2 171.4Z" fill="#0c1138" stroke="#0c1138"></path><path d="M400 128.6L355.6 128.6L355.6 171.4Z" fill="#0c1138" stroke="#0c1138"></path><path d="M400 128.6L355.6 171.4L400 171.4Z" fill="#0d123b" stroke="#0d123b"></path><path d="M400 128.6L400 171.4L444.4 128.6Z" fill="#0d123b" stroke="#0d123b"></path><path d="M400 171.4L444.4 171.4L444.4 128.6Z" fill="#0d123b" stroke="#0d123b"></path><path d="M444.4 128.6L444.4 171.4L488.9 171.4Z" fill="#121545" stroke="#121545"></path><path d="M666.7 342.9L666.7 300L622.2 300Z" fill="#0b1035" stroke="#0b1035"></path><path d="M666.7 642.9L622.2 600L622.2 642.9Z" fill="#121545" stroke="#121545"></path><path d="M666.7 642.9L666.7 600L622.2 600Z" fill="#0c1138" stroke="#0c1138"></path><path d="M622.2 685.7L577.8 642.9L577.8 685.7Z" fill="#0a0c2e" stroke="#0a0c2e"></path><path d="M88.9 557.1L88.9 600L133.3 600Z" fill="#090a2b" stroke="#090a2b"></path><path d="M133.3 642.9L133.3 685.7L177.8 642.9Z" fill="#0a0e31" stroke="#0a0e31"></path><path d="M177.8 685.7L177.8 728.6L222.2 685.7Z" fill="#0a0e31" stroke="#0a0e31"></path><path d="M133.3 257.1L88.9 300L133.3 300Z" fill="#0a0e31" stroke="#0a0e31"></path><path d="M266.7 771.4L311.1 728.6L266.7 728.6Z" fill="#0d123b" stroke="#0d123b"></path><path d="M400 771.4L444.4 771.4L400 728.6Z" fill="#141649" stroke="#141649"></path><path d="M355.6 128.6L311.1 128.6L355.6 171.4Z" fill="#0b1035" stroke="#0b1035"></path><path d="M488.9 128.6L444.4 128.6L488.9 171.4Z" fill="#090a2b" stroke="#090a2b"></path><path d="M666.7 471.4L711.1 471.4L666.7 428.6Z" fill="#0d123b" stroke="#0d123b"></path><path d="M666.7 428.6L711.1 385.7L666.7 385.7Z" fill="#0d123b" stroke="#0d123b"></path><path d="M666.7 385.7L711.1 385.7L666.7 342.9Z" fill="#121545" stroke="#121545"></path><path d="M666.7 342.9L711.1 342.9L666.7 300Z" fill="#16174c" stroke="#16174c"></path><path d="M666.7 514.3L711.1 471.4L666.7 471.4Z" fill="#090a2b" stroke="#090a2b"></path><path d="M711.1 514.3L711.1 471.4L666.7 514.3Z" fill="#121545" stroke="#121545"></path><path d="M711.1 514.3L666.7 514.3L711.1 557.1Z" fill="#0f133e" stroke="#0f133e"></path><path d="M88.9 471.4L44.4 471.4L88.9 514.3Z" fill="#141649" stroke="#141649"></path><path d="M88.9 514.3L44.4 514.3L88.9 557.1Z" fill="#121545" stroke="#121545"></path><path d="M88.9 557.1L44.4 557.1L88.9 600Z" fill="#0a0e31" stroke="#0a0e31"></path><path d="M88.9 428.6L44.4 471.4L88.9 471.4Z" fill="#0a0c2e" stroke="#0a0c2e"></path><path d="M44.4 428.6L44.4 471.4L88.9 428.6Z" fill="#0f133e" stroke="#0f133e"></path><path d="M44.4 428.6L88.9 428.6L88.9 385.7Z" fill="#0a0c2e" stroke="#0a0c2e"></path><path d="M44.4 428.6L88.9 385.7L44.4 385.7Z" fill="#0f133e" stroke="#0f133e"></path><path d="M44.4 385.7L88.9 385.7L88.9 342.9Z" fill="#0c1138" stroke="#0c1138"></path><path d="M711.1 471.4L711.1 428.6L666.7 428.6Z" fill="#0b1035" stroke="#0b1035"></path><path d="M711.1 557.1L666.7 514.3L666.7 557.1Z" fill="#16174c" stroke="#16174c"></path><path d="M44.4 471.4L44.4 514.3L88.9 514.3Z" fill="#0a0e31" stroke="#0a0e31"></path><path d="M711.1 428.6L711.1 385.7L666.7 428.6Z" fill="#0d123b" stroke="#0d123b"></path><path d="M44.4 342.9L44.4 385.7L88.9 342.9Z" fill="#0f133e" stroke="#0f133e"></path><path d="M622.2 728.6L622.2 685.7L577.8 685.7Z" fill="#0d123b" stroke="#0d123b"></path><path d="M88.9 642.9L133.3 685.7L133.3 642.9Z" fill="#0d123b" stroke="#0d123b"></path><path d="M622.2 257.1L622.2 214.3L577.8 214.3Z" fill="#0b1035" stroke="#0b1035"></path><path d="M533.3 171.4L488.9 128.6L488.9 171.4Z" fill="#0f133e" stroke="#0f133e"></path><path d="M666.7 257.1L622.2 214.3L622.2 257.1Z" fill="#0c1138" stroke="#0c1138"></path><path d="M666.7 257.1L622.2 300L666.7 300Z" fill="#0d123b" stroke="#0d123b"></path><path d="M133.3 171.4L133.3 214.3L177.8 214.3Z" fill="#0d123b" stroke="#0d123b"></path><path d="M133.3 257.1L88.9 257.1L88.9 300Z" fill="#0c1138" stroke="#0c1138"></path><path d="M88.9 300L44.4 342.9L88.9 342.9Z" fill="#16174c" stroke="#16174c"></path><path d="M444.4 771.4L488.9 771.4L488.9 728.6Z" fill="#0a0e31" stroke="#0a0e31"></path><path d="M533.3 728.6L577.8 728.6L533.3 685.7Z" fill="#16174c" stroke="#16174c"></path><path d="M222.2 771.4L266.7 771.4L222.2 728.6Z" fill="#0a0e31" stroke="#0a0e31"></path><path d="M222.2 728.6L266.7 771.4L266.7 728.6Z" fill="#0a0e31" stroke="#0a0e31"></path><path d="M533.3 128.6L488.9 128.6L533.3 171.4Z" fill="#0b1035" stroke="#0b1035"></path><path d="M311.1 128.6L266.7 128.6L311.1 171.4Z" fill="#0f133e" stroke="#0f133e"></path><path d="M222.2 171.4L177.8 171.4L222.2 214.3Z" fill="#121545" stroke="#121545"></path><path d="M577.8 771.4L577.8 728.6L533.3 728.6Z" fill="#0c1138" stroke="#0c1138"></path><path d="M622.2 171.4L577.8 171.4L577.8 214.3Z" fill="#0d123b" stroke="#0d123b"></path><path d="M133.3 728.6L177.8 728.6L177.8 685.7Z" fill="#101442" stroke="#101442"></path><path d="M177.8 128.6L177.8 171.4L222.2 171.4Z" fill="#0b1035" stroke="#0b1035"></path><path d="M666.7 685.7L666.7 642.9L622.2 642.9Z" fill="#0c1138" stroke="#0c1138"></path><path d="M711.1 600L711.1 557.1L666.7 557.1Z" fill="#0f133e" stroke="#0f133e"></path><path d="M711.1 257.1L666.7 257.1L666.7 300Z" fill="#101442" stroke="#101442"></path><path d="M622.2 214.3L622.2 171.4L577.8 214.3Z" fill="#0f133e" stroke="#0f133e"></path><path d="M88.9 600L88.9 642.9L133.3 642.9Z" fill="#101442" stroke="#101442"></path><path d="M44.4 600L88.9 642.9L88.9 600Z" fill="#0d123b" stroke="#0d123b"></path><path d="M133.3 214.3L88.9 257.1L133.3 257.1Z" fill="#0c1138" stroke="#0c1138"></path><path d="M711.1 600L666.7 557.1L666.7 600Z" fill="#0b1035" stroke="#0b1035"></path><path d="M44.4 514.3L44.4 557.1L88.9 557.1Z" fill="#090a2b" stroke="#090a2b"></path><path d="M44.4 300L44.4 342.9L88.9 300Z" fill="#141649" stroke="#141649"></path><path d="M711.1 385.7L711.1 342.9L666.7 342.9Z" fill="#0a0e31" stroke="#0a0e31"></path><path d="M488.9 771.4L533.3 771.4L533.3 728.6Z" fill="#0f133e" stroke="#0f133e"></path><path d="M177.8 771.4L222.2 771.4L222.2 728.6Z" fill="#0f133e" stroke="#0f133e"></path><path d="M577.8 128.6L533.3 128.6L533.3 171.4Z" fill="#16174c" stroke="#16174c"></path><path d="M266.7 128.6L222.2 128.6L222.2 171.4Z" fill="#0a0c2e" stroke="#0a0c2e"></path><path d="M311.1 814.3L355.6 771.4L311.1 771.4Z" fill="#090a2b" stroke="#090a2b"></path><path d="M311.1 814.3L355.6 814.3L355.6 771.4Z" fill="#0c1138" stroke="#0c1138"></path><path d="M355.6 771.4L400 814.3L400 771.4Z" fill="#16174c" stroke="#16174c"></path><path d="M400 771.4L444.4 814.3L444.4 771.4Z" fill="#141649" stroke="#141649"></path><path d="M444.4 771.4L444.4 814.3L488.9 771.4Z" fill="#141649" stroke="#141649"></path><path d="M488.9 771.4L488.9 814.3L533.3 771.4Z" fill="#0f133e" stroke="#0f133e"></path><path d="M311.1 814.3L311.1 771.4L266.7 814.3Z" fill="#0d123b" stroke="#0d123b"></path><path d="M355.6 814.3L400 814.3L355.6 771.4Z" fill="#0d123b" stroke="#0d123b"></path><path d="M355.6 128.6L355.6 85.7L311.1 128.6Z" fill="#0a0c2e" stroke="#0a0c2e"></path><path d="M311.1 128.6L311.1 85.7L266.7 128.6Z" fill="#141649" stroke="#141649"></path><path d="M266.7 128.6L266.7 85.7L222.2 128.6Z" fill="#0a0e31" stroke="#0a0e31"></path><path d="M400 128.6L355.6 85.7L355.6 128.6Z" fill="#090a2b" stroke="#090a2b"></path><path d="M400 85.7L355.6 85.7L400 128.6Z" fill="#0a0c2e" stroke="#0a0c2e"></path><path d="M400 85.7L400 128.6L444.4 128.6Z" fill="#141649" stroke="#141649"></path><path d="M400 85.7L444.4 128.6L444.4 85.7Z" fill="#101442" stroke="#101442"></path><path d="M444.4 85.7L444.4 128.6L488.9 128.6Z" fill="#0c1138" stroke="#0c1138"></path><path d="M711.1 642.9L666.7 600L666.7 642.9Z" fill="#0b1035" stroke="#0b1035"></path><path d="M711.1 642.9L711.1 600L666.7 600Z" fill="#16174c" stroke="#16174c"></path><path d="M666.7 685.7L622.2 642.9L622.2 685.7Z" fill="#0a0c2e" stroke="#0a0c2e"></path><path d="M711.1 342.9L711.1 300L666.7 300Z" fill="#141649" stroke="#141649"></path><path d="M88.9 257.1L44.4 300L88.9 300Z" fill="#121545" stroke="#121545"></path><path d="M44.4 557.1L44.4 600L88.9 600Z" fill="#0f133e" stroke="#0f133e"></path><path d="M88.9 685.7L133.3 728.6L133.3 685.7Z" fill="#0a0c2e" stroke="#0a0c2e"></path><path d="M133.3 685.7L133.3 728.6L177.8 685.7Z" fill="#0a0e31" stroke="#0a0e31"></path><path d="M266.7 814.3L311.1 771.4L266.7 771.4Z" fill="#0d123b" stroke="#0d123b"></path><path d="M400 814.3L444.4 814.3L400 771.4Z" fill="#0a0c2e" stroke="#0a0c2e"></path><path d="M355.6 85.7L311.1 85.7L311.1 128.6Z" fill="#141649" stroke="#141649"></path><path d="M488.9 85.7L444.4 85.7L488.9 128.6Z" fill="#101442" stroke="#101442"></path><path d="M133.3 214.3L88.9 214.3L88.9 257.1Z" fill="#0b1035" stroke="#0b1035"></path><path d="M88.9 257.1L44.4 257.1L44.4 300Z" fill="#0a0c2e" stroke="#0a0c2e"></path><path d="M177.8 171.4L133.3 171.4L177.8 214.3Z" fill="#0f133e" stroke="#0f133e"></path><path d="M133.3 128.6L133.3 171.4L177.8 171.4Z" fill="#0c1138" stroke="#0c1138"></path><path d="M88.9 685.7L133.3 685.7L88.9 642.9Z" fill="#090a2b" stroke="#090a2b"></path><path d="M177.8 728.6L177.8 771.4L222.2 728.6Z" fill="#16174c" stroke="#16174c"></path><path d="M222.2 771.4L266.7 814.3L266.7 771.4Z" fill="#0c1138" stroke="#0c1138"></path><path d="M622.2 771.4L622.2 728.6L577.8 728.6Z" fill="#090a2b" stroke="#090a2b"></path><path d="M577.8 728.6L622.2 728.6L577.8 685.7Z" fill="#141649" stroke="#141649"></path><path d="M577.8 771.4L533.3 728.6L533.3 771.4Z" fill="#16174c" stroke="#16174c"></path><path d="M666.7 171.4L622.2 171.4L622.2 214.3Z" fill="#0c1138" stroke="#0c1138"></path><path d="M577.8 171.4L577.8 128.6L533.3 171.4Z" fill="#141649" stroke="#141649"></path><path d="M533.3 128.6L488.9 85.7L488.9 128.6Z" fill="#0f133e" stroke="#0f133e"></path><path d="M666.7 214.3L622.2 214.3L666.7 257.1Z" fill="#101442" stroke="#101442"></path><path d="M666.7 728.6L666.7 685.7L622.2 685.7Z" fill="#121545" stroke="#121545"></path><path d="M711.1 257.1L666.7 214.3L666.7 257.1Z" fill="#0d123b" stroke="#0d123b"></path><path d="M44.4 642.9L88.9 685.7L88.9 642.9Z" fill="#16174c" stroke="#16174c"></path><path d="M133.3 171.4L88.9 214.3L133.3 214.3Z" fill="#16174c" stroke="#16174c"></path><path d="M44.4 471.4L0 471.4L44.4 514.3Z" fill="#121545" stroke="#121545"></path><path d="M44.4 514.3L0 514.3L44.4 557.1Z" fill="#0b1035" stroke="#0b1035"></path><path d="M44.4 557.1L0 557.1L44.4 600Z" fill="#0f133e" stroke="#0f133e"></path><path d="M44.4 428.6L0 471.4L44.4 471.4Z" fill="#0a0c2e" stroke="#0a0c2e"></path><path d="M0 428.6L0 471.4L44.4 428.6Z" fill="#0a0c2e" stroke="#0a0c2e"></path><path d="M0 428.6L44.4 428.6L44.4 385.7Z" fill="#16174c" stroke="#16174c"></path><path d="M0 428.6L44.4 385.7L0 385.7Z" fill="#0a0e31" stroke="#0a0e31"></path><path d="M711.1 471.4L755.6 428.6L711.1 428.6Z" fill="#16174c" stroke="#16174c"></path><path d="M711.1 428.6L755.6 385.7L711.1 385.7Z" fill="#0b1035" stroke="#0b1035"></path><path d="M711.1 385.7L755.6 385.7L711.1 342.9Z" fill="#0b1035" stroke="#0b1035"></path><path d="M711.1 342.9L755.6 342.9L711.1 300Z" fill="#0c1138" stroke="#0c1138"></path><path d="M755.6 471.4L755.6 428.6L711.1 471.4Z" fill="#0a0c2e" stroke="#0a0c2e"></path><path d="M755.6 471.4L711.1 471.4L711.1 514.3Z" fill="#0c1138" stroke="#0c1138"></path><path d="M755.6 471.4L711.1 514.3L755.6 514.3Z" fill="#16174c" stroke="#16174c"></path><path d="M755.6 514.3L711.1 514.3L755.6 557.1Z" fill="#0b1035" stroke="#0b1035"></path><path d="M0 385.7L44.4 385.7L44.4 342.9Z" fill="#0d123b" stroke="#0d123b"></path><path d="M577.8 814.3L577.8 771.4L533.3 771.4Z" fill="#101442" stroke="#101442"></path><path d="M133.3 771.4L177.8 771.4L177.8 728.6Z" fill="#090a2b" stroke="#090a2b"></path><path d="M622.2 128.6L577.8 128.6L577.8 171.4Z" fill="#0b1035" stroke="#0b1035"></path><path d="M222.2 85.7L177.8 128.6L222.2 128.6Z" fill="#090a2b" stroke="#090a2b"></path><path d="M222.2 128.6L177.8 128.6L222.2 171.4Z" fill="#101442" stroke="#101442"></path><path d="M222.2 814.3L266.7 814.3L222.2 771.4Z" fill="#0f133e" stroke="#0f133e"></path><path d="M444.4 814.3L488.9 814.3L488.9 771.4Z" fill="#090a2b" stroke="#090a2b"></path><path d="M311.1 85.7L266.7 85.7L266.7 128.6Z" fill="#141649" stroke="#141649"></path><path d="M533.3 85.7L488.9 85.7L533.3 128.6Z" fill="#090a2b" stroke="#090a2b"></path><path d="M755.6 557.1L711.1 514.3L711.1 557.1Z" fill="#121545" stroke="#121545"></path><path d="M0 471.4L0 514.3L44.4 514.3Z" fill="#16174c" stroke="#16174c"></path><path d="M755.6 428.6L755.6 385.7L711.1 428.6Z" fill="#090a2b" stroke="#090a2b"></path><path d="M711.1 300L711.1 257.1L666.7 300Z" fill="#0a0c2e" stroke="#0a0c2e"></path><path d="M0 342.9L0 385.7L44.4 342.9Z" fill="#0b1035" stroke="#0b1035"></path><path d="M711.1 685.7L711.1 642.9L666.7 642.9Z" fill="#121545" stroke="#121545"></path><path d="M755.6 600L755.6 557.1L711.1 557.1Z" fill="#101442" stroke="#101442"></path><path d="M0 600L44.4 642.9L44.4 600Z" fill="#121545" stroke="#121545"></path><path d="M44.4 600L44.4 642.9L88.9 642.9Z" fill="#0b1035" stroke="#0b1035"></path><path d="M755.6 257.1L711.1 257.1L711.1 300Z" fill="#0d123b" stroke="#0d123b"></path><path d="M666.7 214.3L666.7 171.4L622.2 214.3Z" fill="#0f133e" stroke="#0f133e"></path><path d="M88.9 214.3L44.4 257.1L88.9 257.1Z" fill="#0a0c2e" stroke="#0a0c2e"></path><path d="M44.4 300L0 342.9L44.4 342.9Z" fill="#0a0e31" stroke="#0a0e31"></path><path d="M44.4 214.3L44.4 257.1L88.9 214.3Z" fill="#0b1035" stroke="#0b1035"></path><path d="M755.6 600L711.1 557.1L711.1 600Z" fill="#090a2b" stroke="#090a2b"></path><path d="M0 514.3L0 557.1L44.4 557.1Z" fill="#16174c" stroke="#16174c"></path><path d="M755.6 385.7L755.6 342.9L711.1 342.9Z" fill="#0c1138" stroke="#0c1138"></path><path d="M0 300L0 342.9L44.4 300Z" fill="#0a0c2e" stroke="#0a0c2e"></path><path d="M488.9 814.3L533.3 814.3L533.3 771.4Z" fill="#0f133e" stroke="#0f133e"></path><path d="M666.7 771.4L666.7 728.6L622.2 728.6Z" fill="#090a2b" stroke="#090a2b"></path><path d="M577.8 128.6L533.3 85.7L533.3 128.6Z" fill="#121545" stroke="#121545"></path><path d="M177.8 814.3L222.2 771.4L177.8 771.4Z" fill="#0a0c2e" stroke="#0a0c2e"></path><path d="M177.8 814.3L222.2 814.3L222.2 771.4Z" fill="#0a0e31" stroke="#0a0e31"></path><path d="M266.7 85.7L222.2 85.7L222.2 128.6Z" fill="#0a0e31" stroke="#0a0e31"></path><path d="M88.9 685.7L88.9 728.6L133.3 728.6Z" fill="#0c1138" stroke="#0c1138"></path><path d="M133.3 728.6L133.3 771.4L177.8 728.6Z" fill="#0c1138" stroke="#0c1138"></path><path d="M44.4 685.7L88.9 728.6L88.9 685.7Z" fill="#0a0e31" stroke="#0a0e31"></path><path d="M44.4 685.7L88.9 685.7L44.4 642.9Z" fill="#16174c" stroke="#16174c"></path><path d="M133.3 128.6L88.9 171.4L133.3 171.4Z" fill="#0a0c2e" stroke="#0a0c2e"></path><path d="M133.3 171.4L88.9 171.4L88.9 214.3Z" fill="#0f133e" stroke="#0f133e"></path><path d="M133.3 128.6L177.8 171.4L177.8 128.6Z" fill="#121545" stroke="#121545"></path><path d="M622.2 771.4L577.8 728.6L577.8 771.4Z" fill="#0d123b" stroke="#0d123b"></path><path d="M622.2 728.6L666.7 728.6L622.2 685.7Z" fill="#0b1035" stroke="#0b1035"></path><path d="M666.7 685.7L711.1 685.7L666.7 642.9Z" fill="#0c1138" stroke="#0c1138"></path><path d="M755.6 642.9L755.6 600L711.1 600Z" fill="#16174c" stroke="#16174c"></path><path d="M622.2 171.4L622.2 128.6L577.8 171.4Z" fill="#141649" stroke="#141649"></path><path d="M577.8 128.6L577.8 85.7L533.3 85.7Z" fill="#0a0c2e" stroke="#0a0c2e"></path><path d="M711.1 171.4L666.7 171.4L666.7 214.3Z" fill="#0a0e31" stroke="#0a0e31"></path><path d="M622.2 814.3L622.2 771.4L577.8 771.4Z" fill="#0b1035" stroke="#0b1035"></path><path d="M88.9 728.6L133.3 771.4L133.3 728.6Z" fill="#0f133e" stroke="#0f133e"></path><path d="M666.7 128.6L622.2 128.6L622.2 171.4Z" fill="#0c1138" stroke="#0c1138"></path><path d="M177.8 85.7L133.3 128.6L177.8 128.6Z" fill="#101442" stroke="#101442"></path><path d="M0 557.1L0 600L44.4 600Z" fill="#0a0e31" stroke="#0a0e31"></path><path d="M755.6 342.9L755.6 300L711.1 300Z" fill="#0a0c2e" stroke="#0a0c2e"></path><path d="M711.1 257.1L711.1 214.3L666.7 214.3Z" fill="#0d123b" stroke="#0d123b"></path><path d="M755.6 642.9L711.1 600L711.1 642.9Z" fill="#090a2b" stroke="#090a2b"></path><path d="M0 257.1L0 300L44.4 257.1Z" fill="#0b1035" stroke="#0b1035"></path><path d="M44.4 257.1L0 300L44.4 300Z" fill="#0d123b" stroke="#0d123b"></path><path d="M311.1 857.1L311.1 814.3L266.7 857.1Z" fill="#090a2b" stroke="#090a2b"></path><path d="M311.1 857.1L355.6 814.3L311.1 814.3Z" fill="#121545" stroke="#121545"></path><path d="M311.1 857.1L355.6 857.1L355.6 814.3Z" fill="#090a2b" stroke="#090a2b"></path><path d="M355.6 814.3L400 857.1L400 814.3Z" fill="#0d123b" stroke="#0d123b"></path><path d="M400 814.3L444.4 857.1L444.4 814.3Z" fill="#0a0e31" stroke="#0a0e31"></path><path d="M444.4 814.3L444.4 857.1L488.9 814.3Z" fill="#0c1138" stroke="#0c1138"></path><path d="M488.9 814.3L488.9 857.1L533.3 814.3Z" fill="#090a2b" stroke="#090a2b"></path><path d="M355.6 857.1L400 857.1L355.6 814.3Z" fill="#16174c" stroke="#16174c"></path><path d="M444.4 85.7L400 42.9L400 85.7Z" fill="#0c1138" stroke="#0c1138"></path><path d="M400 85.7L400 42.9L355.6 85.7Z" fill="#121545" stroke="#121545"></path><path d="M355.6 85.7L355.6 42.9L311.1 85.7Z" fill="#121545" stroke="#121545"></path><path d="M311.1 85.7L311.1 42.9L266.7 85.7Z" fill="#0a0e31" stroke="#0a0e31"></path><path d="M266.7 85.7L266.7 42.9L222.2 85.7Z" fill="#090a2b" stroke="#090a2b"></path><path d="M444.4 42.9L400 42.9L444.4 85.7Z" fill="#0b1035" stroke="#0b1035"></path><path d="M444.4 42.9L444.4 85.7L488.9 85.7Z" fill="#141649" stroke="#141649"></path><path d="M400 42.9L355.6 42.9L355.6 85.7Z" fill="#101442" stroke="#101442"></path><path d="M711.1 728.6L711.1 685.7L666.7 685.7Z" fill="#0b1035" stroke="#0b1035"></path><path d="M0 642.9L44.4 685.7L44.4 642.9Z" fill="#0d123b" stroke="#0d123b"></path><path d="M755.6 257.1L711.1 214.3L711.1 257.1Z" fill="#0a0e31" stroke="#0a0e31"></path><path d="M88.9 171.4L44.4 214.3L88.9 214.3Z" fill="#101442" stroke="#101442"></path><path d="M266.7 857.1L311.1 814.3L266.7 814.3Z" fill="#0c1138" stroke="#0c1138"></path><path d="M400 857.1L444.4 857.1L400 814.3Z" fill="#090a2b" stroke="#090a2b"></path><path d="M533.3 814.3L577.8 814.3L533.3 771.4Z" fill="#0b1035" stroke="#0b1035"></path><path d="M488.9 42.9L444.4 42.9L488.9 85.7Z" fill="#0a0c2e" stroke="#0a0c2e"></path><path d="M488.9 42.9L488.9 85.7L533.3 85.7Z" fill="#0a0c2e" stroke="#0a0c2e"></path><path d="M355.6 42.9L311.1 42.9L311.1 85.7Z" fill="#0b1035" stroke="#0b1035"></path><path d="M222.2 85.7L177.8 85.7L177.8 128.6Z" fill="#141649" stroke="#141649"></path><path d="M622.2 771.4L666.7 771.4L622.2 728.6Z" fill="#0b1035" stroke="#0b1035"></path><path d="M577.8 857.1L577.8 814.3L533.3 814.3Z" fill="#0b1035" stroke="#0b1035"></path><path d="M133.3 814.3L177.8 814.3L177.8 771.4Z" fill="#090a2b" stroke="#090a2b"></path><path d="M222.2 814.3L266.7 857.1L266.7 814.3Z" fill="#0a0c2e" stroke="#0a0c2e"></path><path d="M133.3 814.3L177.8 771.4L133.3 771.4Z" fill="#0a0e31" stroke="#0a0e31"></path><path d="M622.2 128.6L577.8 85.7L577.8 128.6Z" fill="#0f133e" stroke="#0f133e"></path><path d="M222.2 42.9L177.8 85.7L222.2 85.7Z" fill="#0b1035" stroke="#0b1035"></path><path d="M444.4 857.1L488.9 857.1L488.9 814.3Z" fill="#090a2b" stroke="#090a2b"></path><path d="M222.2 857.1L266.7 857.1L222.2 814.3Z" fill="#0c1138" stroke="#0c1138"></path><path d="M311.1 42.9L266.7 42.9L266.7 85.7Z" fill="#0a0c2e" stroke="#0a0c2e"></path><path d="M533.3 42.9L488.9 42.9L533.3 85.7Z" fill="#16174c" stroke="#16174c"></path><path d="M755.6 471.4L800 428.6L755.6 428.6Z" fill="#0f133e" stroke="#0f133e"></path><path d="M755.6 428.6L800 385.7L755.6 385.7Z" fill="#090a2b" stroke="#090a2b"></path><path d="M755.6 385.7L800 385.7L755.6 342.9Z" fill="#0a0c2e" stroke="#0a0c2e"></path><path d="M755.6 342.9L800 342.9L755.6 300Z" fill="#0b1035" stroke="#0b1035"></path><path d="M800 471.4L800 428.6L755.6 471.4Z" fill="#0d123b" stroke="#0d123b"></path><path d="M800 471.4L755.6 471.4L755.6 514.3Z" fill="#090a2b" stroke="#090a2b"></path><path d="M800 471.4L755.6 514.3L800 514.3Z" fill="#0c1138" stroke="#0c1138"></path><path d="M800 514.3L755.6 514.3L800 557.1Z" fill="#0b1035" stroke="#0b1035"></path><path d="M0 600L0 642.9L44.4 642.9Z" fill="#16174c" stroke="#16174c"></path><path d="M755.6 685.7L755.6 642.9L711.1 642.9Z" fill="#090a2b" stroke="#090a2b"></path><path d="M800 557.1L755.6 514.3L755.6 557.1Z" fill="#0a0e31" stroke="#0a0e31"></path><path d="M755.6 300L755.6 257.1L711.1 300Z" fill="#0b1035" stroke="#0b1035"></path><path d="M711.1 128.6L666.7 128.6L666.7 171.4Z" fill="#101442" stroke="#101442"></path><path d="M800 257.1L755.6 257.1L755.6 300Z" fill="#0a0e31" stroke="#0a0e31"></path><path d="M44.4 214.3L0 257.1L44.4 257.1Z" fill="#0f133e" stroke="#0f133e"></path><path d="M800 557.1L755.6 557.1L800 600Z" fill="#16174c" stroke="#16174c"></path><path d="M800 428.6L800 385.7L755.6 428.6Z" fill="#121545" stroke="#121545"></path><path d="M666.7 814.3L666.7 771.4L622.2 771.4Z" fill="#101442" stroke="#101442"></path><path d="M666.7 728.6L711.1 728.6L666.7 685.7Z" fill="#0c1138" stroke="#0c1138"></path><path d="M711.1 685.7L755.6 685.7L711.1 642.9Z" fill="#0a0e31" stroke="#0a0e31"></path><path d="M44.4 728.6L88.9 771.4L88.9 728.6Z" fill="#141649" stroke="#141649"></path><path d="M88.9 728.6L88.9 771.4L133.3 771.4Z" fill="#0a0c2e" stroke="#0a0c2e"></path><path d="M44.4 728.6L88.9 728.6L44.4 685.7Z" fill="#0a0c2e" stroke="#0a0c2e"></path><path d="M622.2 128.6L622.2 85.7L577.8 85.7Z" fill="#0f133e" stroke="#0f133e"></path><path d="M577.8 85.7L533.3 42.9L533.3 85.7Z" fill="#141649" stroke="#141649"></path><path d="M666.7 171.4L666.7 128.6L622.2 171.4Z" fill="#0c1138" stroke="#0c1138"></path><path d="M711.1 171.4L666.7 214.3L711.1 214.3Z" fill="#121545" stroke="#121545"></path><path d="M88.9 171.4L44.4 171.4L44.4 214.3Z" fill="#0f133e" stroke="#0f133e"></path><path d="M44.4 214.3L0 214.3L0 257.1Z" fill="#0b1035" stroke="#0b1035"></path><path d="M133.3 128.6L88.9 128.6L88.9 171.4Z" fill="#0a0e31" stroke="#0a0e31"></path><path d="M88.9 85.7L88.9 128.6L133.3 128.6Z" fill="#090a2b" stroke="#090a2b"></path><path d="M755.6 171.4L711.1 171.4L711.1 214.3Z" fill="#101442" stroke="#101442"></path><path d="M711.1 771.4L711.1 728.6L666.7 728.6Z" fill="#0a0e31" stroke="#0a0e31"></path><path d="M0 685.7L44.4 728.6L44.4 685.7Z" fill="#0c1138" stroke="#0c1138"></path><path d="M88.9 128.6L44.4 171.4L88.9 171.4Z" fill="#121545" stroke="#121545"></path><path d="M800 600L755.6 557.1L755.6 600Z" fill="#0d123b" stroke="#0d123b"></path><path d="M800 600L755.6 600L800 642.9Z" fill="#0a0c2e" stroke="#0a0c2e"></path><path d="M800 385.7L800 342.9L755.6 342.9Z" fill="#0a0e31" stroke="#0a0e31"></path><path d="M488.9 857.1L533.3 857.1L533.3 814.3Z" fill="#101442" stroke="#101442"></path><path d="M577.8 814.3L622.2 814.3L577.8 771.4Z" fill="#101442" stroke="#101442"></path><path d="M177.8 857.1L222.2 814.3L177.8 814.3Z" fill="#121545" stroke="#121545"></path><path d="M177.8 857.1L222.2 857.1L222.2 814.3Z" fill="#0a0e31" stroke="#0a0e31"></path><path d="M577.8 42.9L533.3 42.9L577.8 85.7Z" fill="#101442" stroke="#101442"></path><path d="M266.7 42.9L222.2 42.9L222.2 85.7Z" fill="#16174c" stroke="#16174c"></path><path d="M177.8 85.7L133.3 85.7L133.3 128.6Z" fill="#0d123b" stroke="#0d123b"></path><path d="M622.2 857.1L622.2 814.3L577.8 814.3Z" fill="#0b1035" stroke="#0b1035"></path><path d="M666.7 771.4L711.1 771.4L666.7 728.6Z" fill="#0c1138" stroke="#0c1138"></path><path d="M88.9 771.4L133.3 814.3L133.3 771.4Z" fill="#090a2b" stroke="#090a2b"></path><path d="M88.9 814.3L133.3 814.3L88.9 771.4Z" fill="#141649" stroke="#141649"></path><path d="M666.7 128.6L622.2 85.7L622.2 128.6Z" fill="#0d123b" stroke="#0d123b"></path><path d="M177.8 42.9L133.3 85.7L177.8 85.7Z" fill="#0a0e31" stroke="#0a0e31"></path><path d="M755.6 728.6L755.6 685.7L711.1 685.7Z" fill="#0c1138" stroke="#0c1138"></path><path d="M0 642.9L0 685.7L44.4 685.7Z" fill="#16174c" stroke="#16174c"></path><path d="M44.4 171.4L0 214.3L44.4 214.3Z" fill="#090a2b" stroke="#090a2b"></path><path d="M800 257.1L755.6 214.3L755.6 257.1Z" fill="#0a0c2e" stroke="#0a0c2e"></path><path d="M755.6 257.1L755.6 214.3L711.1 214.3Z" fill="#101442" stroke="#101442"></path><path d="M800 342.9L800 300L755.6 300Z" fill="#121545" stroke="#121545"></path><path d="M800 642.9L755.6 600L755.6 642.9Z" fill="#141649" stroke="#141649"></path><path d="M400 857.1L444.4 900L444.4 857.1Z" fill="#0c1138" stroke="#0c1138"></path><path d="M444.4 857.1L444.4 900L488.9 857.1Z" fill="#0a0e31" stroke="#0a0e31"></path><path d="M488.9 857.1L488.9 900L533.3 857.1Z" fill="#0f133e" stroke="#0f133e"></path><path d="M355.6 900L400 900L400 857.1Z" fill="#0b1035" stroke="#0b1035"></path><path d="M355.6 900L400 857.1L355.6 857.1Z" fill="#0f133e" stroke="#0f133e"></path><path d="M355.6 900L355.6 857.1L311.1 900Z" fill="#121545" stroke="#121545"></path><path d="M355.6 857.1L311.1 857.1L311.1 900Z" fill="#0c1138" stroke="#0c1138"></path><path d="M311.1 900L311.1 857.1L266.7 900Z" fill="#0a0c2e" stroke="#0a0c2e"></path><path d="M400 0L400 42.9L444.4 42.9Z" fill="#090a2b" stroke="#090a2b"></path><path d="M400 0L355.6 0L400 42.9Z" fill="#090a2b" stroke="#090a2b"></path><path d="M400 42.9L355.6 0L355.6 42.9Z" fill="#0b1035" stroke="#0b1035"></path><path d="M355.6 42.9L355.6 0L311.1 42.9Z" fill="#0c1138" stroke="#0c1138"></path><path d="M311.1 42.9L311.1 0L266.7 42.9Z" fill="#121545" stroke="#121545"></path><path d="M266.7 42.9L266.7 0L222.2 42.9Z" fill="#121545" stroke="#121545"></path><path d="M400 0L444.4 42.9L444.4 0Z" fill="#16174c" stroke="#16174c"></path><path d="M444.4 0L444.4 42.9L488.9 42.9Z" fill="#0a0e31" stroke="#0a0e31"></path><path d="M577.8 900L577.8 857.1L533.3 857.1Z" fill="#0d123b" stroke="#0d123b"></path><path d="M533.3 857.1L577.8 857.1L533.3 814.3Z" fill="#16174c" stroke="#16174c"></path><path d="M711.1 814.3L711.1 771.4L666.7 771.4Z" fill="#101442" stroke="#101442"></path><path d="M133.3 857.1L177.8 857.1L177.8 814.3Z" fill="#0f133e" stroke="#0f133e"></path><path d="M266.7 900L311.1 857.1L266.7 857.1Z" fill="#0d123b" stroke="#0d123b"></path><path d="M133.3 857.1L177.8 814.3L133.3 814.3Z" fill="#090a2b" stroke="#090a2b"></path><path d="M622.2 85.7L577.8 42.9L577.8 85.7Z" fill="#090a2b" stroke="#090a2b"></path><path d="M488.9 0L444.4 0L488.9 42.9Z" fill="#0a0e31" stroke="#0a0e31"></path><path d="M222.2 0L177.8 42.9L222.2 42.9Z" fill="#0a0e31" stroke="#0a0e31"></path><path d="M222.2 42.9L177.8 42.9L177.8 85.7Z" fill="#090a2b" stroke="#090a2b"></path><path d="M266.7 900L266.7 857.1L222.2 857.1Z" fill="#16174c" stroke="#16174c"></path><path d="M400 900L444.4 900L400 857.1Z" fill="#0b1035" stroke="#0b1035"></path><path d="M488.9 0L488.9 42.9L533.3 42.9Z" fill="#0b1035" stroke="#0b1035"></path><path d="M355.6 0L311.1 0L311.1 42.9Z" fill="#0d123b" stroke="#0d123b"></path><path d="M666.7 814.3L622.2 771.4L622.2 814.3Z" fill="#0d123b" stroke="#0d123b"></path><path d="M711.1 728.6L755.6 728.6L711.1 685.7Z" fill="#0b1035" stroke="#0b1035"></path><path d="M0 728.6L44.4 771.4L44.4 728.6Z" fill="#101442" stroke="#101442"></path><path d="M44.4 728.6L44.4 771.4L88.9 771.4Z" fill="#090a2b" stroke="#090a2b"></path><path d="M88.9 128.6L44.4 128.6L44.4 171.4Z" fill="#141649" stroke="#141649"></path><path d="M44.4 171.4L0 171.4L0 214.3Z" fill="#0c1138" stroke="#0c1138"></path><path d="M88.9 85.7L44.4 128.6L88.9 128.6Z" fill="#0a0c2e" stroke="#0a0c2e"></path><path d="M88.9 85.7L133.3 128.6L133.3 85.7Z" fill="#090a2b" stroke="#090a2b"></path><path d="M666.7 128.6L666.7 85.7L622.2 85.7Z" fill="#0a0e31" stroke="#0a0e31"></path><path d="M622.2 85.7L622.2 42.9L577.8 42.9Z" fill="#141649" stroke="#141649"></path><path d="M711.1 171.4L711.1 128.6L666.7 171.4Z" fill="#0d123b" stroke="#0d123b"></path><path d="M755.6 128.6L711.1 128.6L711.1 171.4Z" fill="#0f133e" stroke="#0f133e"></path><path d="M444.4 900L488.9 900L488.9 857.1Z" fill="#121545" stroke="#121545"></path><path d="M222.2 900L266.7 900L222.2 857.1Z" fill="#141649" stroke="#141649"></path><path d="M533.3 0L488.9 0L533.3 42.9Z" fill="#141649" stroke="#141649"></path><path d="M311.1 0L266.7 0L266.7 42.9Z" fill="#0a0e31" stroke="#0a0e31"></path><path d="M800 685.7L755.6 642.9L755.6 685.7Z" fill="#141649" stroke="#141649"></path><path d="M800 685.7L800 642.9L755.6 642.9Z" fill="#090a2b" stroke="#090a2b"></path><path d="M800 300L800 257.1L755.6 300Z" fill="#141649" stroke="#141649"></path><path d="M755.6 214.3L755.6 171.4L711.1 214.3Z" fill="#141649" stroke="#141649"></path><path d="M666.7 857.1L666.7 814.3L622.2 814.3Z" fill="#0d123b" stroke="#0d123b"></path><path d="M44.4 771.4L88.9 814.3L88.9 771.4Z" fill="#0c1138" stroke="#0c1138"></path><path d="M711.1 128.6L666.7 85.7L666.7 128.6Z" fill="#0d123b" stroke="#0d123b"></path><path d="M577.8 42.9L533.3 0L533.3 42.9Z" fill="#0b1035" stroke="#0b1035"></path><path d="M133.3 42.9L88.9 85.7L133.3 85.7Z" fill="#0d123b" stroke="#0d123b"></path><path d="M0 685.7L0 728.6L44.4 728.6Z" fill="#0c1138" stroke="#0c1138"></path><path d="M44.4 771.4L44.4 814.3L88.9 814.3Z" fill="#0f133e" stroke="#0f133e"></path><path d="M755.6 771.4L755.6 728.6L711.1 728.6Z" fill="#121545" stroke="#121545"></path><path d="M755.6 771.4L711.1 728.6L711.1 771.4Z" fill="#090a2b" stroke="#090a2b"></path><path d="M44.4 128.6L0 171.4L44.4 171.4Z" fill="#101442" stroke="#101442"></path><path d="M800 171.4L755.6 171.4L755.6 214.3Z" fill="#0a0c2e" stroke="#0a0c2e"></path><path d="M577.8 857.1L622.2 857.1L577.8 814.3Z" fill="#16174c" stroke="#16174c"></path><path d="M666.7 814.3L711.1 814.3L666.7 771.4Z" fill="#121545" stroke="#121545"></path><path d="M622.2 900L622.2 857.1L577.8 857.1Z" fill="#0b1035" stroke="#0b1035"></path><path d="M88.9 814.3L133.3 857.1L133.3 814.3Z" fill="#0b1035" stroke="#0b1035"></path><path d="M177.8 900L222.2 900L222.2 857.1Z" fill="#0a0e31" stroke="#0a0e31"></path><path d="M88.9 857.1L133.3 857.1L88.9 814.3Z" fill="#090a2b" stroke="#090a2b"></path><path d="M666.7 85.7L622.2 42.9L622.2 85.7Z" fill="#0d123b" stroke="#0d123b"></path><path d="M177.8 0L133.3 42.9L177.8 42.9Z" fill="#0d123b" stroke="#0d123b"></path><path d="M177.8 42.9L133.3 42.9L133.3 85.7Z" fill="#0c1138" stroke="#0c1138"></path><path d="M488.9 900L533.3 900L533.3 857.1Z" fill="#0a0e31" stroke="#0a0e31"></path><path d="M177.8 900L222.2 857.1L177.8 857.1Z" fill="#101442" stroke="#101442"></path><path d="M577.8 0L533.3 0L577.8 42.9Z" fill="#101442" stroke="#101442"></path><path d="M266.7 0L222.2 0L222.2 42.9Z" fill="#101442" stroke="#101442"></path><path d="M800 728.6L800 685.7L755.6 685.7Z" fill="#0f133e" stroke="#0f133e"></path><path d="M800 257.1L800 214.3L755.6 214.3Z" fill="#0a0e31" stroke="#0a0e31"></path><path d="M533.3 900L577.8 900L533.3 857.1Z" fill="#0c1138" stroke="#0c1138"></path><path d="M133.3 900L177.8 900L177.8 857.1Z" fill="#101442" stroke="#101442"></path><path d="M622.2 42.9L577.8 0L577.8 42.9Z" fill="#121545" stroke="#121545"></path><path d="M222.2 0L177.8 0L177.8 42.9Z" fill="#0c1138" stroke="#0c1138"></path><path d="M666.7 857.1L622.2 814.3L622.2 857.1Z" fill="#121545" stroke="#121545"></path><path d="M711.1 857.1L711.1 814.3L666.7 814.3Z" fill="#0a0e31" stroke="#0a0e31"></path><path d="M755.6 728.6L800 728.6L755.6 685.7Z" fill="#121545" stroke="#121545"></path><path d="M0 771.4L44.4 814.3L44.4 771.4Z" fill="#121545" stroke="#121545"></path><path d="M133.3 857.1L133.3 900L177.8 857.1Z" fill="#090a2b" stroke="#090a2b"></path><path d="M88.9 85.7L44.4 85.7L44.4 128.6Z" fill="#0d123b" stroke="#0d123b"></path><path d="M44.4 128.6L0 128.6L0 171.4Z" fill="#0f133e" stroke="#0f133e"></path><path d="M88.9 42.9L44.4 85.7L88.9 85.7Z" fill="#121545" stroke="#121545"></path><path d="M88.9 42.9L88.9 85.7L133.3 42.9Z" fill="#0d123b" stroke="#0d123b"></path><path d="M666.7 85.7L666.7 42.9L622.2 42.9Z" fill="#121545" stroke="#121545"></path><path d="M622.2 42.9L622.2 0L577.8 0Z" fill="#0a0c2e" stroke="#0a0c2e"></path><path d="M711.1 128.6L711.1 85.7L666.7 85.7Z" fill="#121545" stroke="#121545"></path><path d="M755.6 128.6L711.1 85.7L711.1 128.6Z" fill="#101442" stroke="#101442"></path><path d="M755.6 128.6L711.1 171.4L755.6 171.4Z" fill="#0a0e31" stroke="#0a0e31"></path><path d="M0 728.6L0 771.4L44.4 771.4Z" fill="#0d123b" stroke="#0d123b"></path><path d="M755.6 814.3L755.6 771.4L711.1 771.4Z" fill="#141649" stroke="#141649"></path><path d="M44.4 85.7L0 128.6L44.4 128.6Z" fill="#16174c" stroke="#16174c"></path><path d="M800 128.6L755.6 128.6L755.6 171.4Z" fill="#121545" stroke="#121545"></path><path d="M666.7 900L666.7 857.1L622.2 857.1Z" fill="#141649" stroke="#141649"></path><path d="M711.1 85.7L666.7 42.9L666.7 85.7Z" fill="#101442" stroke="#101442"></path><path d="M44.4 814.3L88.9 857.1L88.9 814.3Z" fill="#0d123b" stroke="#0d123b"></path><path d="M133.3 0L88.9 42.9L133.3 42.9Z" fill="#101442" stroke="#101442"></path><path d="M800 214.3L800 171.4L755.6 214.3Z" fill="#121545" stroke="#121545"></path><path d="M800 771.4L755.6 728.6L755.6 771.4Z" fill="#0c1138" stroke="#0c1138"></path><path d="M800 771.4L800 728.6L755.6 728.6Z" fill="#121545" stroke="#121545"></path><path d="M755.6 814.3L711.1 771.4L711.1 814.3Z" fill="#0c1138" stroke="#0c1138"></path><path d="M577.8 900L622.2 900L577.8 857.1Z" fill="#0f133e" stroke="#0f133e"></path><path d="M88.9 857.1L133.3 900L133.3 857.1Z" fill="#0c1138" stroke="#0c1138"></path><path d="M666.7 42.9L622.2 0L622.2 42.9Z" fill="#0f133e" stroke="#0f133e"></path><path d="M177.8 0L133.3 0L133.3 42.9Z" fill="#0a0c2e" stroke="#0a0c2e"></path><path d="M711.1 857.1L666.7 814.3L666.7 857.1Z" fill="#121545" stroke="#121545"></path><path d="M755.6 857.1L755.6 814.3L711.1 814.3Z" fill="#090a2b" stroke="#090a2b"></path><path d="M711.1 85.7L711.1 42.9L666.7 42.9Z" fill="#090a2b" stroke="#090a2b"></path><path d="M666.7 42.9L666.7 0L622.2 0Z" fill="#16174c" stroke="#16174c"></path><path d="M755.6 128.6L755.6 85.7L711.1 85.7Z" fill="#141649" stroke="#141649"></path><path d="M800 128.6L755.6 85.7L755.6 128.6Z" fill="#090a2b" stroke="#090a2b"></path><path d="M44.4 42.9L0 85.7L44.4 85.7Z" fill="#0b1035" stroke="#0b1035"></path><path d="M44.4 85.7L0 85.7L0 128.6Z" fill="#101442" stroke="#101442"></path><path d="M44.4 42.9L44.4 85.7L88.9 42.9Z" fill="#0a0e31" stroke="#0a0e31"></path><path d="M0 771.4L0 814.3L44.4 814.3Z" fill="#0a0e31" stroke="#0a0e31"></path><path d="M44.4 814.3L44.4 857.1L88.9 857.1Z" fill="#0b1035" stroke="#0b1035"></path><path d="M88.9 857.1L88.9 900L133.3 900Z" fill="#0f133e" stroke="#0f133e"></path><path d="M0 814.3L44.4 857.1L44.4 814.3Z" fill="#0a0c2e" stroke="#0a0c2e"></path><path d="M711.1 900L711.1 857.1L666.7 857.1Z" fill="#090a2b" stroke="#090a2b"></path><path d="M88.9 0L44.4 42.9L88.9 42.9Z" fill="#0a0c2e" stroke="#0a0c2e"></path><path d="M755.6 85.7L711.1 42.9L711.1 85.7Z" fill="#0a0c2e" stroke="#0a0c2e"></path><path d="M800 814.3L800 771.4L755.6 771.4Z" fill="#0f133e" stroke="#0f133e"></path><path d="M800 171.4L800 128.6L755.6 171.4Z" fill="#0c1138" stroke="#0c1138"></path><path d="M622.2 900L666.7 900L622.2 857.1Z" fill="#090a2b" stroke="#090a2b"></path><path d="M44.4 857.1L88.9 900L88.9 857.1Z" fill="#0b1035" stroke="#0b1035"></path><path d="M711.1 42.9L666.7 0L666.7 42.9Z" fill="#090a2b" stroke="#090a2b"></path><path d="M133.3 0L88.9 0L88.9 42.9Z" fill="#16174c" stroke="#16174c"></path><path d="M0 814.3L0 857.1L44.4 857.1Z" fill="#16174c" stroke="#16174c"></path><path d="M44.4 857.1L44.4 900L88.9 900Z" fill="#0a0e31" stroke="#0a0e31"></path><path d="M755.6 900L755.6 857.1L711.1 857.1Z" fill="#121545" stroke="#121545"></path><path d="M711.1 857.1L755.6 857.1L711.1 814.3Z" fill="#090a2b" stroke="#090a2b"></path><path d="M755.6 814.3L800 814.3L755.6 771.4Z" fill="#090a2b" stroke="#090a2b"></path><path d="M44.4 0L0 42.9L44.4 42.9Z" fill="#0c1138" stroke="#0c1138"></path><path d="M44.4 42.9L0 42.9L0 85.7Z" fill="#090a2b" stroke="#090a2b"></path><path d="M755.6 85.7L755.6 42.9L711.1 42.9Z" fill="#0a0c2e" stroke="#0a0c2e"></path><path d="M711.1 42.9L711.1 0L666.7 0Z" fill="#0a0e31" stroke="#0a0e31"></path><path d="M800 85.7L755.6 42.9L755.6 85.7Z" fill="#101442" stroke="#101442"></path><path d="M800 857.1L800 814.3L755.6 814.3Z" fill="#101442" stroke="#101442"></path><path d="M800 128.6L800 85.7L755.6 85.7Z" fill="#121545" stroke="#121545"></path><path d="M0 857.1L44.4 900L44.4 857.1Z" fill="#0d123b" stroke="#0d123b"></path><path d="M666.7 900L711.1 900L666.7 857.1Z" fill="#16174c" stroke="#16174c"></path><path d="M755.6 42.9L711.1 0L711.1 42.9Z" fill="#0f133e" stroke="#0f133e"></path><path d="M88.9 0L44.4 0L44.4 42.9Z" fill="#0d123b" stroke="#0d123b"></path><path d="M800 85.7L800 42.9L755.6 42.9Z" fill="#141649" stroke="#141649"></path><path d="M755.6 42.9L755.6 0L711.1 0Z" fill="#0d123b" stroke="#0d123b"></path><path d="M800 900L800 857.1L755.6 857.1Z" fill="#101442" stroke="#101442"></path><path d="M755.6 857.1L800 857.1L755.6 814.3Z" fill="#101442" stroke="#101442"></path><path d="M711.1 900L755.6 900L711.1 857.1Z" fill="#0f133e" stroke="#0f133e"></path><path d="M0 857.1L0 900L44.4 900Z" fill="#0b1035" stroke="#0b1035"></path><path d="M44.4 0L0 0L0 42.9Z" fill="#0b1035" stroke="#0b1035"></path><path d="M800 42.9L755.6 0L755.6 42.9Z" fill="#141649" stroke="#141649"></path><path d="M755.6 900L800 900L755.6 857.1Z" fill="#121545" stroke="#121545"></path><path d="M800 42.9L800 0L755.6 0Z" fill="#0f133e" stroke="#0f133e"></path></g></svg>