<svg id="visual" viewBox="0 0 1024 1500" width="1024" height="1500" xmlns="http://www.w3.org/2000/svg" xmlns:xlink="http://www.w3.org/1999/xlink" version="1.1"><g stroke-width="1" stroke-linejoin="bevel"><path d="M512 722.2L512 666.7L455.1 722.2Z" fill="#16174c" stroke="#16174c"></path><path d="M512 666.7L455.1 666.7L455.1 722.2Z" fill="#0c1138" stroke="#0c1138"></path><path d="M455.1 722.2L512 777.8L512 722.2Z" fill="#0b1035" stroke="#0b1035"></path><path d="M455.1 722.2L455.1 777.8L512 777.8Z" fill="#0f133e" stroke="#0f133e"></path><path d="M512 666.7L455.1 611.1L455.1 666.7Z" fill="#0a0e31" stroke="#0a0e31"></path><path d="M512 666.7L512 611.1L455.1 611.1Z" fill="#090a2b" stroke="#090a2b"></path><path d="M398.2 666.7L398.2 722.2L455.1 666.7Z" fill="#121545" stroke="#121545"></path><path d="M455.1 666.7L398.2 722.2L455.1 722.2Z" fill="#141649" stroke="#141649"></path><path d="M455.1 722.2L398.2 722.2L455.1 777.8Z" fill="#0c1138" stroke="#0c1138"></path><path d="M512 777.8L568.9 722.2L512 722.2Z" fill="#0d123b" stroke="#0d123b"></path><path d="M512 722.2L568.9 722.2L512 666.7Z" fill="#16174c" stroke="#16174c"></path><path d="M512 666.7L568.9 666.7L512 611.1Z" fill="#0f133e" stroke="#0f133e"></path><path d="M568.9 722.2L568.9 666.7L512 666.7Z" fill="#0a0c2e" stroke="#0a0c2e"></path><path d="M455.1 611.1L398.2 666.7L455.1 666.7Z" fill="#0c1138" stroke="#0c1138"></path><path d="M512 777.8L568.9 777.8L568.9 722.2Z" fill="#0c1138" stroke="#0c1138"></path><path d="M398.2 722.2L398.2 777.8L455.1 777.8Z" fill="#121545" stroke="#121545"></path><path d="M455.1 611.1L398.2 611.1L398.2 666.7Z" fill="#0a0c2e" stroke="#0a0c2e"></path><path d="M568.9 666.7L568.9 611.1L512 611.1Z" fill="#0a0e31" stroke="#0a0e31"></path><path d="M398.2 777.8L455.1 833.3L455.1 777.8Z" fill="#0a0e31" stroke="#0a0e31"></path><path d="M455.1 777.8L455.1 833.3L512 777.8Z" fill="#0b1035" stroke="#0b1035"></path><path d="M512 777.8L512 833.3L568.9 777.8Z" fill="#0c1138" stroke="#0c1138"></path><path d="M455.1 833.3L512 833.3L512 777.8Z" fill="#141649" stroke="#141649"></path><path d="M512 611.1L455.1 555.6L455.1 611.1Z" fill="#0a0e31" stroke="#0a0e31"></path><path d="M455.1 611.1L455.1 555.6L398.2 611.1Z" fill="#121545" stroke="#121545"></path><path d="M512 555.6L455.1 555.6L512 611.1Z" fill="#0f133e" stroke="#0f133e"></path><path d="M568.9 611.1L512 555.6L512 611.1Z" fill="#141649" stroke="#141649"></path><path d="M568.9 777.8L625.8 722.2L568.9 722.2Z" fill="#101442" stroke="#101442"></path><path d="M568.9 722.2L625.8 722.2L568.9 666.7Z" fill="#0b1035" stroke="#0b1035"></path><path d="M568.9 666.7L625.8 666.7L568.9 611.1Z" fill="#16174c" stroke="#16174c"></path><path d="M625.8 722.2L625.8 666.7L568.9 666.7Z" fill="#16174c" stroke="#16174c"></path><path d="M341.3 666.7L341.3 722.2L398.2 666.7Z" fill="#090a2b" stroke="#090a2b"></path><path d="M398.2 666.7L341.3 722.2L398.2 722.2Z" fill="#121545" stroke="#121545"></path><path d="M398.2 722.2L341.3 722.2L398.2 777.8Z" fill="#0b1035" stroke="#0b1035"></path><path d="M398.2 611.1L341.3 666.7L398.2 666.7Z" fill="#0a0c2e" stroke="#0a0c2e"></path><path d="M512 833.3L568.9 833.3L568.9 777.8Z" fill="#101442" stroke="#101442"></path><path d="M568.9 777.8L625.8 777.8L625.8 722.2Z" fill="#090a2b" stroke="#090a2b"></path><path d="M341.3 777.8L398.2 833.3L398.2 777.8Z" fill="#141649" stroke="#141649"></path><path d="M398.2 777.8L398.2 833.3L455.1 833.3Z" fill="#090a2b" stroke="#090a2b"></path><path d="M625.8 611.1L568.9 555.6L568.9 611.1Z" fill="#0c1138" stroke="#0c1138"></path><path d="M568.9 611.1L568.9 555.6L512 555.6Z" fill="#0b1035" stroke="#0b1035"></path><path d="M455.1 555.6L398.2 555.6L398.2 611.1Z" fill="#121545" stroke="#121545"></path><path d="M398.2 611.1L341.3 611.1L341.3 666.7Z" fill="#0d123b" stroke="#0d123b"></path><path d="M568.9 833.3L625.8 777.8L568.9 777.8Z" fill="#0c1138" stroke="#0c1138"></path><path d="M341.3 722.2L341.3 777.8L398.2 777.8Z" fill="#141649" stroke="#141649"></path><path d="M625.8 666.7L625.8 611.1L568.9 611.1Z" fill="#101442" stroke="#101442"></path><path d="M398.2 555.6L341.3 611.1L398.2 611.1Z" fill="#0a0c2e" stroke="#0a0c2e"></path><path d="M455.1 888.9L512 888.9L455.1 833.3Z" fill="#121545" stroke="#121545"></path><path d="M455.1 833.3L512 888.9L512 833.3Z" fill="#0c1138" stroke="#0c1138"></path><path d="M512 833.3L512 888.9L568.9 833.3Z" fill="#0d123b" stroke="#0d123b"></path><path d="M398.2 833.3L455.1 888.9L455.1 833.3Z" fill="#0a0c2e" stroke="#0a0c2e"></path><path d="M568.9 555.6L512 500L512 555.6Z" fill="#0c1138" stroke="#0c1138"></path><path d="M512 555.6L512 500L455.1 555.6Z" fill="#0a0e31" stroke="#0a0e31"></path><path d="M455.1 555.6L455.1 500L398.2 555.6Z" fill="#0a0c2e" stroke="#0a0c2e"></path><path d="M512 500L455.1 500L455.1 555.6Z" fill="#101442" stroke="#101442"></path><path d="M568.9 833.3L625.8 833.3L625.8 777.8Z" fill="#141649" stroke="#141649"></path><path d="M568.9 888.9L625.8 833.3L568.9 833.3Z" fill="#141649" stroke="#141649"></path><path d="M341.3 777.8L341.3 833.3L398.2 833.3Z" fill="#0a0c2e" stroke="#0a0c2e"></path><path d="M398.2 833.3L398.2 888.9L455.1 888.9Z" fill="#0f133e" stroke="#0f133e"></path><path d="M625.8 611.1L625.8 555.6L568.9 555.6Z" fill="#0b1035" stroke="#0b1035"></path><path d="M568.9 555.6L568.9 500L512 500Z" fill="#0b1035" stroke="#0b1035"></path><path d="M398.2 555.6L341.3 555.6L341.3 611.1Z" fill="#0c1138" stroke="#0c1138"></path><path d="M398.2 500L341.3 555.6L398.2 555.6Z" fill="#0f133e" stroke="#0f133e"></path><path d="M341.3 666.7L284.4 722.2L341.3 722.2Z" fill="#16174c" stroke="#16174c"></path><path d="M341.3 722.2L284.4 722.2L341.3 777.8Z" fill="#101442" stroke="#101442"></path><path d="M341.3 777.8L284.4 777.8L341.3 833.3Z" fill="#0b1035" stroke="#0b1035"></path><path d="M284.4 666.7L284.4 722.2L341.3 666.7Z" fill="#121545" stroke="#121545"></path><path d="M284.4 666.7L341.3 666.7L341.3 611.1Z" fill="#0a0e31" stroke="#0a0e31"></path><path d="M625.8 777.8L682.7 722.2L625.8 722.2Z" fill="#0a0e31" stroke="#0a0e31"></path><path d="M625.8 722.2L682.7 722.2L625.8 666.7Z" fill="#101442" stroke="#101442"></path><path d="M625.8 666.7L682.7 666.7L625.8 611.1Z" fill="#16174c" stroke="#16174c"></path><path d="M625.8 611.1L682.7 611.1L625.8 555.6Z" fill="#0f133e" stroke="#0f133e"></path><path d="M682.7 777.8L682.7 722.2L625.8 777.8Z" fill="#090a2b" stroke="#090a2b"></path><path d="M682.7 722.2L682.7 666.7L625.8 666.7Z" fill="#141649" stroke="#141649"></path><path d="M284.4 611.1L284.4 666.7L341.3 611.1Z" fill="#101442" stroke="#101442"></path><path d="M341.3 833.3L398.2 888.9L398.2 833.3Z" fill="#0b1035" stroke="#0b1035"></path><path d="M512 888.9L568.9 888.9L568.9 833.3Z" fill="#0f133e" stroke="#0f133e"></path><path d="M625.8 555.6L568.9 500L568.9 555.6Z" fill="#090a2b" stroke="#090a2b"></path><path d="M455.1 500L398.2 500L398.2 555.6Z" fill="#121545" stroke="#121545"></path><path d="M682.7 833.3L682.7 777.8L625.8 833.3Z" fill="#090a2b" stroke="#090a2b"></path><path d="M625.8 833.3L682.7 777.8L625.8 777.8Z" fill="#0f133e" stroke="#0f133e"></path><path d="M284.4 722.2L284.4 777.8L341.3 777.8Z" fill="#141649" stroke="#141649"></path><path d="M682.7 666.7L682.7 611.1L625.8 611.1Z" fill="#121545" stroke="#121545"></path><path d="M625.8 555.6L625.8 500L568.9 500Z" fill="#090a2b" stroke="#090a2b"></path><path d="M341.3 555.6L284.4 611.1L341.3 611.1Z" fill="#101442" stroke="#101442"></path><path d="M568.9 888.9L625.8 888.9L625.8 833.3Z" fill="#141649" stroke="#141649"></path><path d="M284.4 833.3L341.3 888.9L341.3 833.3Z" fill="#141649" stroke="#141649"></path><path d="M341.3 833.3L341.3 888.9L398.2 888.9Z" fill="#0a0e31" stroke="#0a0e31"></path><path d="M682.7 555.6L625.8 500L625.8 555.6Z" fill="#0c1138" stroke="#0c1138"></path><path d="M398.2 500L341.3 500L341.3 555.6Z" fill="#0d123b" stroke="#0d123b"></path><path d="M341.3 555.6L284.4 555.6L284.4 611.1Z" fill="#0a0c2e" stroke="#0a0c2e"></path><path d="M284.4 777.8L284.4 833.3L341.3 833.3Z" fill="#0a0c2e" stroke="#0a0c2e"></path><path d="M625.8 888.9L682.7 833.3L625.8 833.3Z" fill="#0d123b" stroke="#0d123b"></path><path d="M682.7 611.1L682.7 555.6L625.8 555.6Z" fill="#121545" stroke="#121545"></path><path d="M341.3 500L284.4 555.6L341.3 555.6Z" fill="#0d123b" stroke="#0d123b"></path><path d="M455.1 888.9L512 944.4L512 888.9Z" fill="#0d123b" stroke="#0d123b"></path><path d="M512 888.9L512 944.4L568.9 888.9Z" fill="#0a0e31" stroke="#0a0e31"></path><path d="M568.9 888.9L568.9 944.4L625.8 888.9Z" fill="#090a2b" stroke="#090a2b"></path><path d="M455.1 944.4L512 944.4L455.1 888.9Z" fill="#0c1138" stroke="#0c1138"></path><path d="M455.1 944.4L455.1 888.9L398.2 888.9Z" fill="#090a2b" stroke="#090a2b"></path><path d="M398.2 944.4L455.1 944.4L398.2 888.9Z" fill="#0d123b" stroke="#0d123b"></path><path d="M512 500L455.1 444.4L455.1 500Z" fill="#0a0c2e" stroke="#0a0c2e"></path><path d="M455.1 500L455.1 444.4L398.2 500Z" fill="#101442" stroke="#101442"></path><path d="M398.2 500L398.2 444.4L341.3 500Z" fill="#0b1035" stroke="#0b1035"></path><path d="M512 444.4L455.1 444.4L512 500Z" fill="#0b1035" stroke="#0b1035"></path><path d="M512 444.4L512 500L568.9 500Z" fill="#0a0e31" stroke="#0a0e31"></path><path d="M568.9 444.4L512 444.4L568.9 500Z" fill="#0a0c2e" stroke="#0a0c2e"></path><path d="M284.4 666.7L227.6 722.2L284.4 722.2Z" fill="#121545" stroke="#121545"></path><path d="M284.4 722.2L227.6 722.2L284.4 777.8Z" fill="#141649" stroke="#141649"></path><path d="M284.4 777.8L227.6 777.8L284.4 833.3Z" fill="#0f133e" stroke="#0f133e"></path><path d="M227.6 666.7L227.6 722.2L284.4 666.7Z" fill="#121545" stroke="#121545"></path><path d="M227.6 666.7L284.4 666.7L284.4 611.1Z" fill="#0f133e" stroke="#0f133e"></path><path d="M682.7 777.8L739.6 722.2L682.7 722.2Z" fill="#121545" stroke="#121545"></path><path d="M682.7 722.2L739.6 722.2L682.7 666.7Z" fill="#0d123b" stroke="#0d123b"></path><path d="M682.7 666.7L739.6 666.7L682.7 611.1Z" fill="#0f133e" stroke="#0f133e"></path><path d="M682.7 611.1L739.6 611.1L682.7 555.6Z" fill="#141649" stroke="#141649"></path><path d="M739.6 777.8L739.6 722.2L682.7 777.8Z" fill="#090a2b" stroke="#090a2b"></path><path d="M227.6 611.1L227.6 666.7L284.4 611.1Z" fill="#16174c" stroke="#16174c"></path><path d="M739.6 722.2L739.6 666.7L682.7 666.7Z" fill="#121545" stroke="#121545"></path><path d="M512 944.4L568.9 944.4L568.9 888.9Z" fill="#0b1035" stroke="#0b1035"></path><path d="M625.8 888.9L682.7 888.9L682.7 833.3Z" fill="#090a2b" stroke="#090a2b"></path><path d="M341.3 888.9L398.2 944.4L398.2 888.9Z" fill="#0c1138" stroke="#0c1138"></path><path d="M455.1 444.4L398.2 444.4L398.2 500Z" fill="#0a0e31" stroke="#0a0e31"></path><path d="M625.8 444.4L568.9 444.4L625.8 500Z" fill="#16174c" stroke="#16174c"></path><path d="M625.8 500L568.9 444.4L568.9 500Z" fill="#141649" stroke="#141649"></path><path d="M739.6 833.3L739.6 777.8L682.7 833.3Z" fill="#0a0e31" stroke="#0a0e31"></path><path d="M682.7 833.3L739.6 777.8L682.7 777.8Z" fill="#0f133e" stroke="#0f133e"></path><path d="M227.6 722.2L227.6 777.8L284.4 777.8Z" fill="#141649" stroke="#141649"></path><path d="M284.4 833.3L284.4 888.9L341.3 888.9Z" fill="#101442" stroke="#101442"></path><path d="M227.6 555.6L227.6 611.1L284.4 555.6Z" fill="#101442" stroke="#101442"></path><path d="M284.4 555.6L227.6 611.1L284.4 611.1Z" fill="#0c1138" stroke="#0c1138"></path><path d="M739.6 666.7L739.6 611.1L682.7 611.1Z" fill="#0c1138" stroke="#0c1138"></path><path d="M682.7 555.6L682.7 500L625.8 500Z" fill="#090a2b" stroke="#090a2b"></path><path d="M227.6 833.3L284.4 888.9L284.4 833.3Z" fill="#121545" stroke="#121545"></path><path d="M341.3 888.9L341.3 944.4L398.2 944.4Z" fill="#101442" stroke="#101442"></path><path d="M625.8 944.4L682.7 888.9L625.8 888.9Z" fill="#16174c" stroke="#16174c"></path><path d="M341.3 444.4L284.4 500L341.3 500Z" fill="#0c1138" stroke="#0c1138"></path><path d="M341.3 500L284.4 500L284.4 555.6Z" fill="#16174c" stroke="#16174c"></path><path d="M739.6 555.6L682.7 500L682.7 555.6Z" fill="#0c1138" stroke="#0c1138"></path><path d="M568.9 944.4L625.8 944.4L625.8 888.9Z" fill="#0a0c2e" stroke="#0a0c2e"></path><path d="M284.4 888.9L341.3 944.4L341.3 888.9Z" fill="#0a0e31" stroke="#0a0e31"></path><path d="M682.7 500L625.8 444.4L625.8 500Z" fill="#090a2b" stroke="#090a2b"></path><path d="M398.2 444.4L341.3 444.4L341.3 500Z" fill="#0b1035" stroke="#0b1035"></path><path d="M227.6 777.8L227.6 833.3L284.4 833.3Z" fill="#141649" stroke="#141649"></path><path d="M284.4 888.9L284.4 944.4L341.3 944.4Z" fill="#0b1035" stroke="#0b1035"></path><path d="M682.7 888.9L739.6 833.3L682.7 833.3Z" fill="#0b1035" stroke="#0b1035"></path><path d="M227.6 500L227.6 555.6L284.4 500Z" fill="#0b1035" stroke="#0b1035"></path><path d="M284.4 500L227.6 555.6L284.4 555.6Z" fill="#090a2b" stroke="#090a2b"></path><path d="M739.6 611.1L739.6 555.6L682.7 555.6Z" fill="#16174c" stroke="#16174c"></path><path d="M398.2 944.4L455.1 1000L455.1 944.4Z" fill="#0d123b" stroke="#0d123b"></path><path d="M455.1 944.4L455.1 1000L512 944.4Z" fill="#0d123b" stroke="#0d123b"></path><path d="M512 944.4L512 1000L568.9 944.4Z" fill="#0f133e" stroke="#0f133e"></path><path d="M568.9 944.4L568.9 1000L625.8 944.4Z" fill="#141649" stroke="#141649"></path><path d="M398.2 1000L455.1 1000L398.2 944.4Z" fill="#0d123b" stroke="#0d123b"></path><path d="M455.1 1000L512 1000L512 944.4Z" fill="#0b1035" stroke="#0b1035"></path><path d="M512 444.4L455.1 388.9L455.1 444.4Z" fill="#141649" stroke="#141649"></path><path d="M455.1 444.4L455.1 388.9L398.2 444.4Z" fill="#090a2b" stroke="#090a2b"></path><path d="M398.2 444.4L398.2 388.9L341.3 444.4Z" fill="#16174c" stroke="#16174c"></path><path d="M512 388.9L455.1 388.9L512 444.4Z" fill="#0f133e" stroke="#0f133e"></path><path d="M512 388.9L512 444.4L568.9 444.4Z" fill="#16174c" stroke="#16174c"></path><path d="M568.9 388.9L512 388.9L568.9 444.4Z" fill="#0f133e" stroke="#0f133e"></path><path d="M739.6 777.8L796.4 722.2L739.6 722.2Z" fill="#0f133e" stroke="#0f133e"></path><path d="M739.6 722.2L796.4 722.2L739.6 666.7Z" fill="#141649" stroke="#141649"></path><path d="M739.6 666.7L796.4 666.7L739.6 611.1Z" fill="#16174c" stroke="#16174c"></path><path d="M739.6 611.1L796.4 611.1L739.6 555.6Z" fill="#0d123b" stroke="#0d123b"></path><path d="M796.4 777.8L796.4 722.2L739.6 777.8Z" fill="#0f133e" stroke="#0f133e"></path><path d="M796.4 722.2L796.4 666.7L739.6 666.7Z" fill="#101442" stroke="#101442"></path><path d="M227.6 611.1L170.7 666.7L227.6 666.7Z" fill="#0a0c2e" stroke="#0a0c2e"></path><path d="M227.6 666.7L170.7 666.7L227.6 722.2Z" fill="#0f133e" stroke="#0f133e"></path><path d="M227.6 722.2L170.7 722.2L227.6 777.8Z" fill="#090a2b" stroke="#090a2b"></path><path d="M227.6 777.8L170.7 777.8L227.6 833.3Z" fill="#0b1035" stroke="#0b1035"></path><path d="M170.7 611.1L170.7 666.7L227.6 611.1Z" fill="#0a0e31" stroke="#0a0e31"></path><path d="M170.7 666.7L170.7 722.2L227.6 722.2Z" fill="#121545" stroke="#121545"></path><path d="M512 1000L568.9 1000L568.9 944.4Z" fill="#121545" stroke="#121545"></path><path d="M625.8 944.4L682.7 944.4L682.7 888.9Z" fill="#101442" stroke="#101442"></path><path d="M682.7 888.9L739.6 888.9L739.6 833.3Z" fill="#121545" stroke="#121545"></path><path d="M341.3 944.4L398.2 1000L398.2 944.4Z" fill="#0f133e" stroke="#0f133e"></path><path d="M455.1 388.9L398.2 388.9L398.2 444.4Z" fill="#0a0e31" stroke="#0a0e31"></path><path d="M625.8 388.9L568.9 388.9L625.8 444.4Z" fill="#16174c" stroke="#16174c"></path><path d="M625.8 444.4L568.9 388.9L568.9 444.4Z" fill="#121545" stroke="#121545"></path><path d="M682.7 444.4L625.8 444.4L682.7 500Z" fill="#0c1138" stroke="#0c1138"></path><path d="M227.6 888.9L284.4 944.4L284.4 888.9Z" fill="#0a0c2e" stroke="#0a0c2e"></path><path d="M341.3 944.4L341.3 1000L398.2 1000Z" fill="#0f133e" stroke="#0f133e"></path><path d="M625.8 1000L682.7 944.4L625.8 944.4Z" fill="#090a2b" stroke="#090a2b"></path><path d="M341.3 388.9L284.4 444.4L341.3 444.4Z" fill="#141649" stroke="#141649"></path><path d="M341.3 444.4L284.4 444.4L284.4 500Z" fill="#16174c" stroke="#16174c"></path><path d="M739.6 500L682.7 444.4L682.7 500Z" fill="#0b1035" stroke="#0b1035"></path><path d="M682.7 944.4L739.6 888.9L682.7 888.9Z" fill="#121545" stroke="#121545"></path><path d="M739.6 833.3L796.4 777.8L739.6 777.8Z" fill="#16174c" stroke="#16174c"></path><path d="M170.7 833.3L227.6 888.9L227.6 833.3Z" fill="#0c1138" stroke="#0c1138"></path><path d="M227.6 833.3L227.6 888.9L284.4 888.9Z" fill="#16174c" stroke="#16174c"></path><path d="M284.4 444.4L227.6 500L284.4 500Z" fill="#121545" stroke="#121545"></path><path d="M227.6 555.6L170.7 611.1L227.6 611.1Z" fill="#0a0c2e" stroke="#0a0c2e"></path><path d="M796.4 555.6L739.6 500L739.6 555.6Z" fill="#16174c" stroke="#16174c"></path><path d="M739.6 555.6L739.6 500L682.7 500Z" fill="#0f133e" stroke="#0f133e"></path><path d="M796.4 833.3L796.4 777.8L739.6 833.3Z" fill="#0c1138" stroke="#0c1138"></path><path d="M796.4 666.7L796.4 611.1L739.6 611.1Z" fill="#0b1035" stroke="#0b1035"></path><path d="M170.7 722.2L170.7 777.8L227.6 777.8Z" fill="#141649" stroke="#141649"></path><path d="M170.7 555.6L170.7 611.1L227.6 555.6Z" fill="#0b1035" stroke="#0b1035"></path><path d="M568.9 1000L625.8 1000L625.8 944.4Z" fill="#121545" stroke="#121545"></path><path d="M284.4 944.4L341.3 1000L341.3 944.4Z" fill="#0f133e" stroke="#0f133e"></path><path d="M284.4 1000L341.3 1000L284.4 944.4Z" fill="#16174c" stroke="#16174c"></path><path d="M682.7 444.4L625.8 388.9L625.8 444.4Z" fill="#0a0e31" stroke="#0a0e31"></path><path d="M398.2 388.9L341.3 388.9L341.3 444.4Z" fill="#090a2b" stroke="#090a2b"></path><path d="M284.4 444.4L227.6 444.4L227.6 500Z" fill="#0c1138" stroke="#0c1138"></path><path d="M739.6 888.9L796.4 833.3L739.6 833.3Z" fill="#0b1035" stroke="#0b1035"></path><path d="M170.7 777.8L170.7 833.3L227.6 833.3Z" fill="#0f133e" stroke="#0f133e"></path><path d="M796.4 611.1L796.4 555.6L739.6 555.6Z" fill="#0d123b" stroke="#0d123b"></path><path d="M227.6 500L170.7 555.6L227.6 555.6Z" fill="#0d123b" stroke="#0d123b"></path><path d="M682.7 944.4L739.6 944.4L739.6 888.9Z" fill="#0d123b" stroke="#0d123b"></path><path d="M739.6 888.9L796.4 888.9L796.4 833.3Z" fill="#101442" stroke="#101442"></path><path d="M682.7 1000L739.6 944.4L682.7 944.4Z" fill="#0f133e" stroke="#0f133e"></path><path d="M170.7 888.9L227.6 944.4L227.6 888.9Z" fill="#0c1138" stroke="#0c1138"></path><path d="M227.6 888.9L227.6 944.4L284.4 944.4Z" fill="#0f133e" stroke="#0f133e"></path><path d="M796.4 500L739.6 444.4L739.6 500Z" fill="#121545" stroke="#121545"></path><path d="M739.6 500L739.6 444.4L682.7 444.4Z" fill="#0a0c2e" stroke="#0a0c2e"></path><path d="M682.7 444.4L682.7 388.9L625.8 388.9Z" fill="#090a2b" stroke="#090a2b"></path><path d="M284.4 388.9L227.6 444.4L284.4 444.4Z" fill="#0d123b" stroke="#0d123b"></path><path d="M227.6 500L170.7 500L170.7 555.6Z" fill="#0d123b" stroke="#0d123b"></path><path d="M455.1 1000L512 1055.6L512 1000Z" fill="#0d123b" stroke="#0d123b"></path><path d="M512 1000L512 1055.6L568.9 1000Z" fill="#0a0e31" stroke="#0a0e31"></path><path d="M568.9 1000L568.9 1055.6L625.8 1000Z" fill="#0c1138" stroke="#0c1138"></path><path d="M625.8 1000L682.7 1000L682.7 944.4Z" fill="#16174c" stroke="#16174c"></path><path d="M455.1 1055.6L512 1055.6L455.1 1000Z" fill="#0a0c2e" stroke="#0a0c2e"></path><path d="M455.1 1055.6L455.1 1000L398.2 1000Z" fill="#101442" stroke="#101442"></path><path d="M398.2 1055.6L398.2 1000L341.3 1000Z" fill="#0a0e31" stroke="#0a0e31"></path><path d="M398.2 1055.6L455.1 1055.6L398.2 1000Z" fill="#16174c" stroke="#16174c"></path><path d="M512 388.9L455.1 333.3L455.1 388.9Z" fill="#0f133e" stroke="#0f133e"></path><path d="M455.1 388.9L455.1 333.3L398.2 388.9Z" fill="#141649" stroke="#141649"></path><path d="M398.2 388.9L398.2 333.3L341.3 388.9Z" fill="#141649" stroke="#141649"></path><path d="M512 333.3L455.1 333.3L512 388.9Z" fill="#0a0e31" stroke="#0a0e31"></path><path d="M512 333.3L512 388.9L568.9 388.9Z" fill="#121545" stroke="#121545"></path><path d="M568.9 333.3L568.9 388.9L625.8 388.9Z" fill="#0a0e31" stroke="#0a0e31"></path><path d="M568.9 333.3L512 333.3L568.9 388.9Z" fill="#0a0c2e" stroke="#0a0c2e"></path><path d="M625.8 1055.6L682.7 1000L625.8 1000Z" fill="#090a2b" stroke="#090a2b"></path><path d="M227.6 944.4L284.4 1000L284.4 944.4Z" fill="#0a0e31" stroke="#0a0e31"></path><path d="M739.6 444.4L682.7 388.9L682.7 444.4Z" fill="#0a0c2e" stroke="#0a0c2e"></path><path d="M341.3 333.3L284.4 388.9L341.3 388.9Z" fill="#0b1035" stroke="#0b1035"></path><path d="M341.3 388.9L284.4 388.9L284.4 444.4Z" fill="#16174c" stroke="#16174c"></path><path d="M739.6 944.4L796.4 888.9L739.6 888.9Z" fill="#0f133e" stroke="#0f133e"></path><path d="M796.4 555.6L796.4 500L739.6 500Z" fill="#0c1138" stroke="#0c1138"></path><path d="M170.7 833.3L170.7 888.9L227.6 888.9Z" fill="#0b1035" stroke="#0b1035"></path><path d="M227.6 444.4L170.7 500L227.6 500Z" fill="#121545" stroke="#121545"></path><path d="M796.4 722.2L853.3 666.7L796.4 666.7Z" fill="#141649" stroke="#141649"></path><path d="M796.4 666.7L853.3 666.7L796.4 611.1Z" fill="#0a0e31" stroke="#0a0e31"></path><path d="M796.4 611.1L853.3 611.1L796.4 555.6Z" fill="#0f133e" stroke="#0f133e"></path><path d="M796.4 555.6L853.3 555.6L796.4 500Z" fill="#0c1138" stroke="#0c1138"></path><path d="M853.3 722.2L853.3 666.7L796.4 722.2Z" fill="#0c1138" stroke="#0c1138"></path><path d="M853.3 722.2L796.4 722.2L796.4 777.8Z" fill="#0b1035" stroke="#0b1035"></path><path d="M853.3 722.2L796.4 777.8L853.3 777.8Z" fill="#16174c" stroke="#16174c"></path><path d="M853.3 777.8L796.4 777.8L796.4 833.3Z" fill="#0d123b" stroke="#0d123b"></path><path d="M170.7 611.1L113.8 666.7L170.7 666.7Z" fill="#121545" stroke="#121545"></path><path d="M170.7 666.7L113.8 666.7L170.7 722.2Z" fill="#0c1138" stroke="#0c1138"></path><path d="M170.7 722.2L113.8 722.2L170.7 777.8Z" fill="#0b1035" stroke="#0b1035"></path><path d="M170.7 777.8L113.8 777.8L170.7 833.3Z" fill="#101442" stroke="#101442"></path><path d="M170.7 833.3L113.8 833.3L170.7 888.9Z" fill="#0a0c2e" stroke="#0a0c2e"></path><path d="M113.8 611.1L113.8 666.7L170.7 611.1Z" fill="#0c1138" stroke="#0c1138"></path><path d="M113.8 611.1L170.7 611.1L170.7 555.6Z" fill="#0a0c2e" stroke="#0a0c2e"></path><path d="M113.8 666.7L113.8 722.2L170.7 722.2Z" fill="#101442" stroke="#101442"></path><path d="M341.3 1055.6L398.2 1055.6L341.3 1000Z" fill="#101442" stroke="#101442"></path><path d="M512 1055.6L568.9 1055.6L568.9 1000Z" fill="#0a0c2e" stroke="#0a0c2e"></path><path d="M455.1 333.3L398.2 333.3L398.2 388.9Z" fill="#0a0c2e" stroke="#0a0c2e"></path><path d="M625.8 333.3L568.9 333.3L625.8 388.9Z" fill="#16174c" stroke="#16174c"></path><path d="M853.3 833.3L853.3 777.8L796.4 833.3Z" fill="#141649" stroke="#141649"></path><path d="M853.3 666.7L853.3 611.1L796.4 611.1Z" fill="#0b1035" stroke="#0b1035"></path><path d="M113.8 722.2L113.8 777.8L170.7 777.8Z" fill="#121545" stroke="#121545"></path><path d="M113.8 555.6L113.8 611.1L170.7 555.6Z" fill="#121545" stroke="#121545"></path><path d="M284.4 1000L341.3 1055.6L341.3 1000Z" fill="#0a0c2e" stroke="#0a0c2e"></path><path d="M284.4 1055.6L341.3 1055.6L284.4 1000Z" fill="#0d123b" stroke="#0d123b"></path><path d="M227.6 1000L284.4 1000L227.6 944.4Z" fill="#0b1035" stroke="#0b1035"></path><path d="M568.9 1055.6L625.8 1055.6L625.8 1000Z" fill="#0a0e31" stroke="#0a0e31"></path><path d="M682.7 1000L739.6 1000L739.6 944.4Z" fill="#0c1138" stroke="#0c1138"></path><path d="M682.7 388.9L625.8 333.3L625.8 388.9Z" fill="#090a2b" stroke="#090a2b"></path><path d="M398.2 333.3L341.3 333.3L341.3 388.9Z" fill="#090a2b" stroke="#090a2b"></path><path d="M284.4 388.9L227.6 388.9L227.6 444.4Z" fill="#121545" stroke="#121545"></path><path d="M113.8 777.8L113.8 833.3L170.7 833.3Z" fill="#16174c" stroke="#16174c"></path><path d="M170.7 944.4L227.6 1000L227.6 944.4Z" fill="#0c1138" stroke="#0c1138"></path><path d="M796.4 888.9L853.3 833.3L796.4 833.3Z" fill="#0f133e" stroke="#0f133e"></path><path d="M853.3 888.9L853.3 833.3L796.4 888.9Z" fill="#121545" stroke="#121545"></path><path d="M853.3 611.1L853.3 555.6L796.4 555.6Z" fill="#0a0c2e" stroke="#0a0c2e"></path><path d="M796.4 444.4L739.6 388.9L739.6 444.4Z" fill="#0c1138" stroke="#0c1138"></path><path d="M170.7 500L113.8 555.6L170.7 555.6Z" fill="#0a0e31" stroke="#0a0e31"></path><path d="M170.7 944.4L227.6 944.4L170.7 888.9Z" fill="#121545" stroke="#121545"></path><path d="M682.7 1055.6L739.6 1000L682.7 1000Z" fill="#0c1138" stroke="#0c1138"></path><path d="M739.6 944.4L796.4 944.4L796.4 888.9Z" fill="#0a0c2e" stroke="#0a0c2e"></path><path d="M739.6 444.4L739.6 388.9L682.7 388.9Z" fill="#141649" stroke="#141649"></path><path d="M682.7 388.9L682.7 333.3L625.8 333.3Z" fill="#0c1138" stroke="#0c1138"></path><path d="M796.4 444.4L739.6 444.4L796.4 500Z" fill="#121545" stroke="#121545"></path><path d="M284.4 333.3L227.6 388.9L284.4 388.9Z" fill="#090a2b" stroke="#090a2b"></path><path d="M227.6 444.4L170.7 444.4L170.7 500Z" fill="#0f133e" stroke="#0f133e"></path><path d="M170.7 500L113.8 500L113.8 555.6Z" fill="#0b1035" stroke="#0b1035"></path><path d="M739.6 1000L796.4 944.4L739.6 944.4Z" fill="#0c1138" stroke="#0c1138"></path><path d="M113.8 888.9L170.7 944.4L170.7 888.9Z" fill="#0c1138" stroke="#0c1138"></path><path d="M853.3 500L796.4 444.4L796.4 500Z" fill="#0a0c2e" stroke="#0a0c2e"></path><path d="M227.6 388.9L170.7 444.4L227.6 444.4Z" fill="#090a2b" stroke="#090a2b"></path><path d="M625.8 1055.6L682.7 1055.6L682.7 1000Z" fill="#141649" stroke="#141649"></path><path d="M227.6 1055.6L284.4 1055.6L227.6 1000Z" fill="#101442" stroke="#101442"></path><path d="M227.6 1000L284.4 1055.6L284.4 1000Z" fill="#16174c" stroke="#16174c"></path><path d="M739.6 388.9L682.7 333.3L682.7 388.9Z" fill="#0d123b" stroke="#0d123b"></path><path d="M341.3 333.3L284.4 333.3L284.4 388.9Z" fill="#090a2b" stroke="#090a2b"></path><path d="M398.2 1055.6L455.1 1111.1L455.1 1055.6Z" fill="#0a0c2e" stroke="#0a0c2e"></path><path d="M455.1 1055.6L455.1 1111.1L512 1055.6Z" fill="#16174c" stroke="#16174c"></path><path d="M512 1055.6L512 1111.1L568.9 1055.6Z" fill="#0d123b" stroke="#0d123b"></path><path d="M568.9 1055.6L568.9 1111.1L625.8 1055.6Z" fill="#0c1138" stroke="#0c1138"></path><path d="M625.8 1055.6L625.8 1111.1L682.7 1055.6Z" fill="#0a0c2e" stroke="#0a0c2e"></path><path d="M398.2 1111.1L455.1 1111.1L398.2 1055.6Z" fill="#16174c" stroke="#16174c"></path><path d="M398.2 1111.1L398.2 1055.6L341.3 1111.1Z" fill="#16174c" stroke="#16174c"></path><path d="M455.1 1111.1L512 1111.1L512 1055.6Z" fill="#0a0e31" stroke="#0a0e31"></path><path d="M568.9 277.8L512 277.8L512 333.3Z" fill="#0b1035" stroke="#0b1035"></path><path d="M512 333.3L455.1 277.8L455.1 333.3Z" fill="#0c1138" stroke="#0c1138"></path><path d="M455.1 333.3L398.2 277.8L398.2 333.3Z" fill="#141649" stroke="#141649"></path><path d="M398.2 333.3L398.2 277.8L341.3 333.3Z" fill="#141649" stroke="#141649"></path><path d="M341.3 333.3L341.3 277.8L284.4 333.3Z" fill="#0a0e31" stroke="#0a0e31"></path><path d="M568.9 277.8L512 333.3L568.9 333.3Z" fill="#0f133e" stroke="#0f133e"></path><path d="M568.9 277.8L568.9 333.3L625.8 333.3Z" fill="#101442" stroke="#101442"></path><path d="M512 277.8L455.1 277.8L512 333.3Z" fill="#0a0c2e" stroke="#0a0c2e"></path><path d="M853.3 944.4L853.3 888.9L796.4 944.4Z" fill="#0f133e" stroke="#0f133e"></path><path d="M796.4 944.4L853.3 888.9L796.4 888.9Z" fill="#0f133e" stroke="#0f133e"></path><path d="M796.4 1000L796.4 944.4L739.6 1000Z" fill="#0d123b" stroke="#0d123b"></path><path d="M113.8 833.3L113.8 888.9L170.7 888.9Z" fill="#121545" stroke="#121545"></path><path d="M170.7 944.4L170.7 1000L227.6 1000Z" fill="#0f133e" stroke="#0f133e"></path><path d="M853.3 555.6L853.3 500L796.4 500Z" fill="#16174c" stroke="#16174c"></path><path d="M796.4 444.4L796.4 388.9L739.6 388.9Z" fill="#0b1035" stroke="#0b1035"></path><path d="M170.7 444.4L113.8 500L170.7 500Z" fill="#0f133e" stroke="#0f133e"></path><path d="M512 1111.1L568.9 1111.1L568.9 1055.6Z" fill="#0d123b" stroke="#0d123b"></path><path d="M341.3 1111.1L398.2 1055.6L341.3 1055.6Z" fill="#141649" stroke="#141649"></path><path d="M625.8 277.8L568.9 277.8L625.8 333.3Z" fill="#101442" stroke="#101442"></path><path d="M455.1 277.8L398.2 277.8L455.1 333.3Z" fill="#0c1138" stroke="#0c1138"></path><path d="M113.8 611.1L56.9 666.7L113.8 666.7Z" fill="#121545" stroke="#121545"></path><path d="M113.8 666.7L56.9 666.7L113.8 722.2Z" fill="#090a2b" stroke="#090a2b"></path><path d="M113.8 722.2L56.9 722.2L113.8 777.8Z" fill="#090a2b" stroke="#090a2b"></path><path d="M113.8 777.8L56.9 777.8L113.8 833.3Z" fill="#101442" stroke="#101442"></path><path d="M113.8 833.3L56.9 833.3L113.8 888.9Z" fill="#0b1035" stroke="#0b1035"></path><path d="M56.9 611.1L56.9 666.7L113.8 611.1Z" fill="#101442" stroke="#101442"></path><path d="M56.9 611.1L113.8 611.1L113.8 555.6Z" fill="#0a0c2e" stroke="#0a0c2e"></path><path d="M853.3 777.8L910.2 722.2L853.3 722.2Z" fill="#0b1035" stroke="#0b1035"></path><path d="M853.3 722.2L910.2 722.2L853.3 666.7Z" fill="#0a0e31" stroke="#0a0e31"></path><path d="M853.3 666.7L910.2 666.7L853.3 611.1Z" fill="#0a0c2e" stroke="#0a0c2e"></path><path d="M853.3 611.1L910.2 611.1L853.3 555.6Z" fill="#141649" stroke="#141649"></path><path d="M853.3 555.6L910.2 555.6L853.3 500Z" fill="#0c1138" stroke="#0c1138"></path><path d="M910.2 777.8L910.2 722.2L853.3 777.8Z" fill="#090a2b" stroke="#090a2b"></path><path d="M910.2 777.8L853.3 777.8L853.3 833.3Z" fill="#0d123b" stroke="#0d123b"></path><path d="M910.2 722.2L910.2 666.7L853.3 666.7Z" fill="#121545" stroke="#121545"></path><path d="M56.9 666.7L56.9 722.2L113.8 722.2Z" fill="#0f133e" stroke="#0f133e"></path><path d="M910.2 833.3L910.2 777.8L853.3 833.3Z" fill="#16174c" stroke="#16174c"></path><path d="M56.9 722.2L56.9 777.8L113.8 777.8Z" fill="#0a0c2e" stroke="#0a0c2e"></path><path d="M910.2 666.7L910.2 611.1L853.3 611.1Z" fill="#121545" stroke="#121545"></path><path d="M56.9 555.6L56.9 611.1L113.8 555.6Z" fill="#0b1035" stroke="#0b1035"></path><path d="M739.6 1055.6L796.4 1000L739.6 1000Z" fill="#121545" stroke="#121545"></path><path d="M113.8 944.4L170.7 1000L170.7 944.4Z" fill="#101442" stroke="#101442"></path><path d="M853.3 444.4L796.4 388.9L796.4 444.4Z" fill="#121545" stroke="#121545"></path><path d="M739.6 388.9L739.6 333.3L682.7 333.3Z" fill="#0a0c2e" stroke="#0a0c2e"></path><path d="M682.7 277.8L625.8 277.8L625.8 333.3Z" fill="#0a0e31" stroke="#0a0e31"></path><path d="M170.7 444.4L113.8 444.4L113.8 500Z" fill="#0d123b" stroke="#0d123b"></path><path d="M227.6 388.9L170.7 388.9L170.7 444.4Z" fill="#0a0c2e" stroke="#0a0c2e"></path><path d="M227.6 333.3L170.7 388.9L227.6 388.9Z" fill="#0d123b" stroke="#0d123b"></path><path d="M227.6 333.3L227.6 388.9L284.4 333.3Z" fill="#16174c" stroke="#16174c"></path><path d="M568.9 1111.1L625.8 1111.1L625.8 1055.6Z" fill="#101442" stroke="#101442"></path><path d="M682.7 1055.6L739.6 1055.6L739.6 1000Z" fill="#0b1035" stroke="#0b1035"></path><path d="M284.4 1111.1L341.3 1111.1L341.3 1055.6Z" fill="#0d123b" stroke="#0d123b"></path><path d="M284.4 1111.1L341.3 1055.6L284.4 1055.6Z" fill="#0f133e" stroke="#0f133e"></path><path d="M682.7 277.8L625.8 333.3L682.7 333.3Z" fill="#101442" stroke="#101442"></path><path d="M398.2 277.8L341.3 277.8L341.3 333.3Z" fill="#0d123b" stroke="#0d123b"></path><path d="M170.7 1000L227.6 1055.6L227.6 1000Z" fill="#101442" stroke="#101442"></path><path d="M682.7 1111.1L739.6 1055.6L682.7 1055.6Z" fill="#0c1138" stroke="#0c1138"></path><path d="M796.4 388.9L739.6 333.3L739.6 388.9Z" fill="#121545" stroke="#121545"></path><path d="M227.6 277.8L227.6 333.3L284.4 333.3Z" fill="#101442" stroke="#101442"></path><path d="M853.3 1000L853.3 944.4L796.4 1000Z" fill="#090a2b" stroke="#090a2b"></path><path d="M796.4 1000L853.3 944.4L796.4 944.4Z" fill="#16174c" stroke="#16174c"></path><path d="M853.3 888.9L910.2 833.3L853.3 833.3Z" fill="#0d123b" stroke="#0d123b"></path><path d="M113.8 888.9L113.8 944.4L170.7 944.4Z" fill="#0c1138" stroke="#0c1138"></path><path d="M170.7 1000L170.7 1055.6L227.6 1055.6Z" fill="#0b1035" stroke="#0b1035"></path><path d="M56.9 888.9L113.8 944.4L113.8 888.9Z" fill="#090a2b" stroke="#090a2b"></path><path d="M853.3 500L853.3 444.4L796.4 444.4Z" fill="#0d123b" stroke="#0d123b"></path><path d="M796.4 388.9L796.4 333.3L739.6 333.3Z" fill="#090a2b" stroke="#090a2b"></path><path d="M910.2 500L853.3 444.4L853.3 500Z" fill="#0f133e" stroke="#0f133e"></path><path d="M170.7 388.9L113.8 444.4L170.7 444.4Z" fill="#0f133e" stroke="#0f133e"></path><path d="M113.8 500L56.9 555.6L113.8 555.6Z" fill="#090a2b" stroke="#090a2b"></path><path d="M910.2 888.9L910.2 833.3L853.3 888.9Z" fill="#141649" stroke="#141649"></path><path d="M56.9 777.8L56.9 833.3L113.8 833.3Z" fill="#0c1138" stroke="#0c1138"></path><path d="M56.9 500L56.9 555.6L113.8 500Z" fill="#0b1035" stroke="#0b1035"></path><path d="M910.2 611.1L910.2 555.6L853.3 555.6Z" fill="#090a2b" stroke="#090a2b"></path><path d="M227.6 1055.6L284.4 1111.1L284.4 1055.6Z" fill="#16174c" stroke="#16174c"></path><path d="M625.8 1111.1L682.7 1111.1L682.7 1055.6Z" fill="#121545" stroke="#121545"></path><path d="M341.3 277.8L284.4 277.8L284.4 333.3Z" fill="#0d123b" stroke="#0d123b"></path><path d="M739.6 277.8L682.7 277.8L682.7 333.3Z" fill="#0d123b" stroke="#0d123b"></path><path d="M853.3 944.4L910.2 888.9L853.3 888.9Z" fill="#0d123b" stroke="#0d123b"></path><path d="M910.2 944.4L910.2 888.9L853.3 944.4Z" fill="#121545" stroke="#121545"></path><path d="M56.9 833.3L56.9 888.9L113.8 888.9Z" fill="#0c1138" stroke="#0c1138"></path><path d="M113.8 1000L170.7 1055.6L170.7 1000Z" fill="#0a0c2e" stroke="#0a0c2e"></path><path d="M113.8 444.4L56.9 500L113.8 500Z" fill="#16174c" stroke="#16174c"></path><path d="M910.2 555.6L910.2 500L853.3 500Z" fill="#16174c" stroke="#16174c"></path><path d="M853.3 388.9L796.4 333.3L796.4 388.9Z" fill="#0a0e31" stroke="#0a0e31"></path><path d="M455.1 1111.1L512 1166.7L512 1111.1Z" fill="#0b1035" stroke="#0b1035"></path><path d="M512 1111.1L512 1166.7L568.9 1111.1Z" fill="#16174c" stroke="#16174c"></path><path d="M568.9 1111.1L568.9 1166.7L625.8 1111.1Z" fill="#0b1035" stroke="#0b1035"></path><path d="M625.8 1111.1L625.8 1166.7L682.7 1111.1Z" fill="#0a0c2e" stroke="#0a0c2e"></path><path d="M455.1 1166.7L512 1166.7L455.1 1111.1Z" fill="#0b1035" stroke="#0b1035"></path><path d="M455.1 1166.7L455.1 1111.1L398.2 1111.1Z" fill="#090a2b" stroke="#090a2b"></path><path d="M455.1 1166.7L398.2 1111.1L398.2 1166.7Z" fill="#16174c" stroke="#16174c"></path><path d="M398.2 1166.7L398.2 1111.1L341.3 1111.1Z" fill="#0d123b" stroke="#0d123b"></path><path d="M568.9 277.8L512 222.2L512 277.8Z" fill="#121545" stroke="#121545"></path><path d="M512 277.8L512 222.2L455.1 277.8Z" fill="#16174c" stroke="#16174c"></path><path d="M455.1 277.8L455.1 222.2L398.2 277.8Z" fill="#141649" stroke="#141649"></path><path d="M398.2 277.8L398.2 222.2L341.3 277.8Z" fill="#0b1035" stroke="#0b1035"></path><path d="M341.3 277.8L341.3 222.2L284.4 277.8Z" fill="#090a2b" stroke="#090a2b"></path><path d="M568.9 222.2L512 222.2L568.9 277.8Z" fill="#141649" stroke="#141649"></path><path d="M568.9 222.2L568.9 277.8L625.8 277.8Z" fill="#0c1138" stroke="#0c1138"></path><path d="M512 222.2L455.1 222.2L455.1 277.8Z" fill="#101442" stroke="#101442"></path><path d="M739.6 1111.1L796.4 1055.6L739.6 1055.6Z" fill="#0a0e31" stroke="#0a0e31"></path><path d="M739.6 1055.6L796.4 1055.6L796.4 1000Z" fill="#0f133e" stroke="#0f133e"></path><path d="M113.8 1000L170.7 1000L113.8 944.4Z" fill="#0d123b" stroke="#0d123b"></path><path d="M227.6 1055.6L227.6 1111.1L284.4 1111.1Z" fill="#101442" stroke="#101442"></path><path d="M853.3 388.9L796.4 388.9L853.3 444.4Z" fill="#0d123b" stroke="#0d123b"></path><path d="M739.6 333.3L739.6 277.8L682.7 333.3Z" fill="#0f133e" stroke="#0f133e"></path><path d="M227.6 277.8L170.7 333.3L227.6 333.3Z" fill="#121545" stroke="#121545"></path><path d="M227.6 333.3L170.7 333.3L170.7 388.9Z" fill="#0c1138" stroke="#0c1138"></path><path d="M170.7 388.9L113.8 388.9L113.8 444.4Z" fill="#0b1035" stroke="#0b1035"></path><path d="M113.8 444.4L56.9 444.4L56.9 500Z" fill="#090a2b" stroke="#090a2b"></path><path d="M796.4 1055.6L853.3 1000L796.4 1000Z" fill="#101442" stroke="#101442"></path><path d="M56.9 944.4L113.8 1000L113.8 944.4Z" fill="#0a0e31" stroke="#0a0e31"></path><path d="M910.2 444.4L853.3 388.9L853.3 444.4Z" fill="#090a2b" stroke="#090a2b"></path><path d="M170.7 333.3L113.8 388.9L170.7 388.9Z" fill="#141649" stroke="#141649"></path><path d="M341.3 1166.7L398.2 1166.7L341.3 1111.1Z" fill="#141649" stroke="#141649"></path><path d="M341.3 1166.7L341.3 1111.1L284.4 1111.1Z" fill="#0d123b" stroke="#0d123b"></path><path d="M512 1166.7L568.9 1166.7L568.9 1111.1Z" fill="#0c1138" stroke="#0c1138"></path><path d="M682.7 1111.1L739.6 1111.1L739.6 1055.6Z" fill="#0a0c2e" stroke="#0a0c2e"></path><path d="M625.8 222.2L568.9 222.2L625.8 277.8Z" fill="#0a0e31" stroke="#0a0e31"></path><path d="M455.1 222.2L398.2 222.2L398.2 277.8Z" fill="#0f133e" stroke="#0f133e"></path><path d="M910.2 666.7L967.1 666.7L910.2 611.1Z" fill="#090a2b" stroke="#090a2b"></path><path d="M910.2 611.1L967.1 611.1L910.2 555.6Z" fill="#090a2b" stroke="#090a2b"></path><path d="M910.2 555.6L967.1 555.6L910.2 500Z" fill="#090a2b" stroke="#090a2b"></path><path d="M910.2 722.2L967.1 666.7L910.2 666.7Z" fill="#16174c" stroke="#16174c"></path><path d="M967.1 722.2L967.1 666.7L910.2 722.2Z" fill="#101442" stroke="#101442"></path><path d="M967.1 722.2L910.2 722.2L910.2 777.8Z" fill="#0b1035" stroke="#0b1035"></path><path d="M967.1 722.2L910.2 777.8L967.1 777.8Z" fill="#090a2b" stroke="#090a2b"></path><path d="M56.9 722.2L0 722.2L56.9 777.8Z" fill="#0c1138" stroke="#0c1138"></path><path d="M56.9 777.8L0 777.8L56.9 833.3Z" fill="#0b1035" stroke="#0b1035"></path><path d="M56.9 833.3L0 833.3L56.9 888.9Z" fill="#0c1138" stroke="#0c1138"></path><path d="M56.9 666.7L0 722.2L56.9 722.2Z" fill="#0f133e" stroke="#0f133e"></path><path d="M0 666.7L0 722.2L56.9 666.7Z" fill="#0d123b" stroke="#0d123b"></path><path d="M0 666.7L56.9 666.7L56.9 611.1Z" fill="#0a0c2e" stroke="#0a0c2e"></path><path d="M0 666.7L56.9 611.1L0 611.1Z" fill="#0a0c2e" stroke="#0a0c2e"></path><path d="M967.1 777.8L910.2 777.8L910.2 833.3Z" fill="#0c1138" stroke="#0c1138"></path><path d="M0 611.1L56.9 611.1L56.9 555.6Z" fill="#0a0c2e" stroke="#0a0c2e"></path><path d="M170.7 1111.1L227.6 1111.1L227.6 1055.6Z" fill="#16174c" stroke="#16174c"></path><path d="M682.7 1166.7L739.6 1111.1L682.7 1111.1Z" fill="#16174c" stroke="#16174c"></path><path d="M284.4 277.8L227.6 277.8L284.4 333.3Z" fill="#0a0c2e" stroke="#0a0c2e"></path><path d="M170.7 333.3L113.8 333.3L113.8 388.9Z" fill="#0c1138" stroke="#0c1138"></path><path d="M284.4 222.2L227.6 277.8L284.4 277.8Z" fill="#0a0e31" stroke="#0a0e31"></path><path d="M796.4 277.8L739.6 277.8L796.4 333.3Z" fill="#0c1138" stroke="#0c1138"></path><path d="M796.4 333.3L739.6 277.8L739.6 333.3Z" fill="#0a0e31" stroke="#0a0e31"></path><path d="M682.7 277.8L625.8 222.2L625.8 277.8Z" fill="#121545" stroke="#121545"></path><path d="M967.1 833.3L967.1 777.8L910.2 833.3Z" fill="#101442" stroke="#101442"></path><path d="M0 722.2L0 777.8L56.9 777.8Z" fill="#090a2b" stroke="#090a2b"></path><path d="M967.1 666.7L967.1 611.1L910.2 611.1Z" fill="#0f133e" stroke="#0f133e"></path><path d="M0 555.6L0 611.1L56.9 555.6Z" fill="#0d123b" stroke="#0d123b"></path><path d="M568.9 1166.7L625.8 1166.7L625.8 1111.1Z" fill="#0a0c2e" stroke="#0a0c2e"></path><path d="M284.4 1166.7L341.3 1166.7L284.4 1111.1Z" fill="#0d123b" stroke="#0d123b"></path><path d="M682.7 222.2L625.8 222.2L682.7 277.8Z" fill="#16174c" stroke="#16174c"></path><path d="M398.2 222.2L341.3 222.2L341.3 277.8Z" fill="#141649" stroke="#141649"></path><path d="M56.9 888.9L56.9 944.4L113.8 944.4Z" fill="#090a2b" stroke="#090a2b"></path><path d="M113.8 1000L113.8 1055.6L170.7 1055.6Z" fill="#0b1035" stroke="#0b1035"></path><path d="M0 888.9L56.9 944.4L56.9 888.9Z" fill="#101442" stroke="#101442"></path><path d="M910.2 1000L910.2 944.4L853.3 1000Z" fill="#0a0c2e" stroke="#0a0c2e"></path><path d="M853.3 1000L910.2 944.4L853.3 944.4Z" fill="#0c1138" stroke="#0c1138"></path><path d="M910.2 888.9L967.1 833.3L910.2 833.3Z" fill="#0c1138" stroke="#0c1138"></path><path d="M113.8 388.9L56.9 444.4L113.8 444.4Z" fill="#101442" stroke="#101442"></path><path d="M56.9 500L0 555.6L56.9 555.6Z" fill="#101442" stroke="#101442"></path><path d="M910.2 500L910.2 444.4L853.3 444.4Z" fill="#0f133e" stroke="#0f133e"></path><path d="M853.3 388.9L853.3 333.3L796.4 333.3Z" fill="#16174c" stroke="#16174c"></path><path d="M967.1 500L910.2 444.4L910.2 500Z" fill="#16174c" stroke="#16174c"></path><path d="M967.1 888.9L967.1 833.3L910.2 888.9Z" fill="#0c1138" stroke="#0c1138"></path><path d="M0 777.8L0 833.3L56.9 833.3Z" fill="#101442" stroke="#101442"></path><path d="M967.1 611.1L967.1 555.6L910.2 555.6Z" fill="#0b1035" stroke="#0b1035"></path><path d="M0 500L0 555.6L56.9 500Z" fill="#0f133e" stroke="#0f133e"></path><path d="M227.6 1111.1L284.4 1166.7L284.4 1111.1Z" fill="#101442" stroke="#101442"></path><path d="M227.6 1166.7L284.4 1166.7L227.6 1111.1Z" fill="#090a2b" stroke="#090a2b"></path><path d="M625.8 1166.7L682.7 1166.7L682.7 1111.1Z" fill="#0f133e" stroke="#0f133e"></path><path d="M796.4 1111.1L853.3 1055.6L796.4 1055.6Z" fill="#101442" stroke="#101442"></path><path d="M739.6 277.8L682.7 222.2L682.7 277.8Z" fill="#101442" stroke="#101442"></path><path d="M341.3 222.2L284.4 222.2L284.4 277.8Z" fill="#0d123b" stroke="#0d123b"></path><path d="M56.9 1000L113.8 1000L56.9 944.4Z" fill="#16174c" stroke="#16174c"></path><path d="M56.9 1000L113.8 1055.6L113.8 1000Z" fill="#0f133e" stroke="#0f133e"></path><path d="M170.7 1055.6L170.7 1111.1L227.6 1055.6Z" fill="#0c1138" stroke="#0c1138"></path><path d="M796.4 1055.6L853.3 1055.6L853.3 1000Z" fill="#0d123b" stroke="#0d123b"></path><path d="M910.2 944.4L967.1 888.9L910.2 888.9Z" fill="#101442" stroke="#101442"></path><path d="M796.4 1111.1L796.4 1055.6L739.6 1111.1Z" fill="#0a0e31" stroke="#0a0e31"></path><path d="M910.2 388.9L853.3 333.3L853.3 388.9Z" fill="#090a2b" stroke="#090a2b"></path><path d="M739.6 277.8L739.6 222.2L682.7 222.2Z" fill="#0a0c2e" stroke="#0a0c2e"></path><path d="M113.8 388.9L56.9 388.9L56.9 444.4Z" fill="#0d123b" stroke="#0d123b"></path><path d="M170.7 277.8L113.8 333.3L170.7 333.3Z" fill="#141649" stroke="#141649"></path><path d="M170.7 277.8L170.7 333.3L227.6 277.8Z" fill="#0d123b" stroke="#0d123b"></path><path d="M739.6 1166.7L796.4 1111.1L739.6 1111.1Z" fill="#0a0e31" stroke="#0a0e31"></path><path d="M113.8 1111.1L170.7 1111.1L170.7 1055.6Z" fill="#0b1035" stroke="#0b1035"></path><path d="M853.3 277.8L796.4 277.8L796.4 333.3Z" fill="#0d123b" stroke="#0d123b"></path><path d="M227.6 222.2L170.7 277.8L227.6 277.8Z" fill="#0a0e31" stroke="#0a0e31"></path><path d="M967.1 944.4L967.1 888.9L910.2 944.4Z" fill="#0d123b" stroke="#0d123b"></path><path d="M0 833.3L0 888.9L56.9 888.9Z" fill="#121545" stroke="#121545"></path><path d="M967.1 555.6L967.1 500L910.2 500Z" fill="#0a0c2e" stroke="#0a0c2e"></path><path d="M910.2 444.4L910.2 388.9L853.3 388.9Z" fill="#0a0e31" stroke="#0a0e31"></path><path d="M56.9 444.4L0 500L56.9 500Z" fill="#16174c" stroke="#16174c"></path><path d="M0 444.4L0 500L56.9 444.4Z" fill="#16174c" stroke="#16174c"></path><path d="M853.3 1055.6L910.2 1000L853.3 1000Z" fill="#0f133e" stroke="#0f133e"></path><path d="M0 944.4L56.9 1000L56.9 944.4Z" fill="#0a0c2e" stroke="#0a0c2e"></path><path d="M56.9 333.3L56.9 388.9L113.8 333.3Z" fill="#141649" stroke="#141649"></path><path d="M113.8 333.3L56.9 388.9L113.8 388.9Z" fill="#16174c" stroke="#16174c"></path><path d="M967.1 444.4L910.2 388.9L910.2 444.4Z" fill="#16174c" stroke="#16174c"></path><path d="M853.3 333.3L853.3 277.8L796.4 333.3Z" fill="#16174c" stroke="#16174c"></path><path d="M398.2 1222.2L455.1 1222.2L398.2 1166.7Z" fill="#0c1138" stroke="#0c1138"></path><path d="M398.2 1166.7L455.1 1222.2L455.1 1166.7Z" fill="#141649" stroke="#141649"></path><path d="M455.1 1166.7L455.1 1222.2L512 1166.7Z" fill="#0f133e" stroke="#0f133e"></path><path d="M512 1166.7L512 1222.2L568.9 1166.7Z" fill="#16174c" stroke="#16174c"></path><path d="M568.9 1166.7L568.9 1222.2L625.8 1166.7Z" fill="#0d123b" stroke="#0d123b"></path><path d="M625.8 1166.7L625.8 1222.2L682.7 1166.7Z" fill="#090a2b" stroke="#090a2b"></path><path d="M398.2 1222.2L398.2 1166.7L341.3 1222.2Z" fill="#0f133e" stroke="#0f133e"></path><path d="M455.1 1222.2L512 1222.2L512 1166.7Z" fill="#0f133e" stroke="#0f133e"></path><path d="M455.1 222.2L455.1 166.7L398.2 222.2Z" fill="#141649" stroke="#141649"></path><path d="M398.2 222.2L398.2 166.7L341.3 222.2Z" fill="#121545" stroke="#121545"></path><path d="M341.3 222.2L341.3 166.7L284.4 222.2Z" fill="#0d123b" stroke="#0d123b"></path><path d="M512 222.2L455.1 166.7L455.1 222.2Z" fill="#090a2b" stroke="#090a2b"></path><path d="M512 166.7L455.1 166.7L512 222.2Z" fill="#090a2b" stroke="#090a2b"></path><path d="M512 166.7L512 222.2L568.9 222.2Z" fill="#0c1138" stroke="#0c1138"></path><path d="M512 166.7L568.9 222.2L568.9 166.7Z" fill="#0d123b" stroke="#0d123b"></path><path d="M568.9 166.7L568.9 222.2L625.8 222.2Z" fill="#121545" stroke="#121545"></path><path d="M341.3 1222.2L398.2 1166.7L341.3 1166.7Z" fill="#0a0e31" stroke="#0a0e31"></path><path d="M512 1222.2L568.9 1222.2L568.9 1166.7Z" fill="#141649" stroke="#141649"></path><path d="M625.8 166.7L568.9 166.7L625.8 222.2Z" fill="#16174c" stroke="#16174c"></path><path d="M455.1 166.7L398.2 166.7L398.2 222.2Z" fill="#101442" stroke="#101442"></path><path d="M284.4 222.2L227.6 222.2L227.6 277.8Z" fill="#101442" stroke="#101442"></path><path d="M682.7 1166.7L739.6 1166.7L739.6 1111.1Z" fill="#090a2b" stroke="#090a2b"></path><path d="M796.4 1111.1L853.3 1111.1L853.3 1055.6Z" fill="#0f133e" stroke="#0f133e"></path><path d="M682.7 1222.2L739.6 1166.7L682.7 1166.7Z" fill="#0d123b" stroke="#0d123b"></path><path d="M170.7 1166.7L227.6 1166.7L170.7 1111.1Z" fill="#0b1035" stroke="#0b1035"></path><path d="M170.7 1111.1L227.6 1166.7L227.6 1111.1Z" fill="#090a2b" stroke="#090a2b"></path><path d="M284.4 1222.2L341.3 1222.2L341.3 1166.7Z" fill="#0a0e31" stroke="#0a0e31"></path><path d="M796.4 222.2L739.6 222.2L796.4 277.8Z" fill="#0b1035" stroke="#0b1035"></path><path d="M796.4 277.8L739.6 222.2L739.6 277.8Z" fill="#0d123b" stroke="#0d123b"></path><path d="M682.7 222.2L625.8 166.7L625.8 222.2Z" fill="#0d123b" stroke="#0d123b"></path><path d="M284.4 166.7L227.6 222.2L284.4 222.2Z" fill="#0a0e31" stroke="#0a0e31"></path><path d="M1024 777.8L1024 722.2L967.1 777.8Z" fill="#141649" stroke="#141649"></path><path d="M967.1 777.8L1024 722.2L967.1 722.2Z" fill="#121545" stroke="#121545"></path><path d="M967.1 722.2L1024 722.2L967.1 666.7Z" fill="#090a2b" stroke="#090a2b"></path><path d="M967.1 666.7L1024 666.7L967.1 611.1Z" fill="#0b1035" stroke="#0b1035"></path><path d="M967.1 611.1L1024 611.1L967.1 555.6Z" fill="#090a2b" stroke="#090a2b"></path><path d="M967.1 555.6L1024 555.6L967.1 500Z" fill="#141649" stroke="#141649"></path><path d="M1024 777.8L967.1 777.8L967.1 833.3Z" fill="#141649" stroke="#141649"></path><path d="M1024 722.2L1024 666.7L967.1 666.7Z" fill="#16174c" stroke="#16174c"></path><path d="M967.1 1000L967.1 944.4L910.2 1000Z" fill="#121545" stroke="#121545"></path><path d="M910.2 1000L967.1 944.4L910.2 944.4Z" fill="#0b1035" stroke="#0b1035"></path><path d="M1024 833.3L1024 777.8L967.1 833.3Z" fill="#121545" stroke="#121545"></path><path d="M56.9 1111.1L113.8 1111.1L113.8 1055.6Z" fill="#101442" stroke="#101442"></path><path d="M0 888.9L0 944.4L56.9 944.4Z" fill="#16174c" stroke="#16174c"></path><path d="M967.1 500L967.1 444.4L910.2 444.4Z" fill="#16174c" stroke="#16174c"></path><path d="M910.2 277.8L853.3 277.8L853.3 333.3Z" fill="#141649" stroke="#141649"></path><path d="M1024 500L967.1 444.4L967.1 500Z" fill="#0a0c2e" stroke="#0a0c2e"></path><path d="M56.9 388.9L0 444.4L56.9 444.4Z" fill="#090a2b" stroke="#090a2b"></path><path d="M568.9 1222.2L625.8 1222.2L625.8 1166.7Z" fill="#0c1138" stroke="#0c1138"></path><path d="M284.4 1222.2L341.3 1166.7L284.4 1166.7Z" fill="#121545" stroke="#121545"></path><path d="M682.7 166.7L625.8 166.7L682.7 222.2Z" fill="#0c1138" stroke="#0c1138"></path><path d="M398.2 166.7L341.3 166.7L341.3 222.2Z" fill="#0d123b" stroke="#0d123b"></path><path d="M1024 833.3L967.1 833.3L967.1 888.9Z" fill="#121545" stroke="#121545"></path><path d="M1024 666.7L1024 611.1L967.1 611.1Z" fill="#0c1138" stroke="#0c1138"></path><path d="M113.8 1055.6L113.8 1111.1L170.7 1055.6Z" fill="#0b1035" stroke="#0b1035"></path><path d="M56.9 1055.6L113.8 1055.6L56.9 1000Z" fill="#0b1035" stroke="#0b1035"></path><path d="M796.4 1166.7L853.3 1111.1L796.4 1111.1Z" fill="#141649" stroke="#141649"></path><path d="M853.3 1055.6L910.2 1055.6L910.2 1000Z" fill="#0d123b" stroke="#0d123b"></path><path d="M910.2 333.3L853.3 333.3L910.2 388.9Z" fill="#0a0e31" stroke="#0a0e31"></path><path d="M170.7 222.2L113.8 277.8L170.7 277.8Z" fill="#16174c" stroke="#16174c"></path><path d="M170.7 277.8L113.8 277.8L113.8 333.3Z" fill="#0a0e31" stroke="#0a0e31"></path><path d="M56.9 388.9L0 388.9L0 444.4Z" fill="#0a0e31" stroke="#0a0e31"></path><path d="M1024 888.9L1024 833.3L967.1 888.9Z" fill="#121545" stroke="#121545"></path><path d="M1024 611.1L1024 555.6L967.1 555.6Z" fill="#0a0e31" stroke="#0a0e31"></path><path d="M0 1000L56.9 1055.6L56.9 1000Z" fill="#090a2b" stroke="#090a2b"></path><path d="M853.3 1111.1L910.2 1055.6L853.3 1055.6Z" fill="#0b1035" stroke="#0b1035"></path><path d="M967.1 944.4L1024 888.9L967.1 888.9Z" fill="#101442" stroke="#101442"></path><path d="M967.1 388.9L910.2 333.3L910.2 388.9Z" fill="#141649" stroke="#141649"></path><path d="M113.8 277.8L56.9 333.3L113.8 333.3Z" fill="#0a0c2e" stroke="#0a0c2e"></path><path d="M227.6 1166.7L284.4 1222.2L284.4 1166.7Z" fill="#121545" stroke="#121545"></path><path d="M227.6 1222.2L284.4 1222.2L227.6 1166.7Z" fill="#101442" stroke="#101442"></path><path d="M625.8 1222.2L682.7 1222.2L682.7 1166.7Z" fill="#090a2b" stroke="#090a2b"></path><path d="M739.6 1166.7L796.4 1166.7L796.4 1111.1Z" fill="#0c1138" stroke="#0c1138"></path><path d="M341.3 166.7L284.4 166.7L284.4 222.2Z" fill="#0d123b" stroke="#0d123b"></path><path d="M227.6 222.2L170.7 222.2L170.7 277.8Z" fill="#090a2b" stroke="#090a2b"></path><path d="M739.6 222.2L682.7 166.7L682.7 222.2Z" fill="#0b1035" stroke="#0b1035"></path><path d="M739.6 166.7L682.7 166.7L739.6 222.2Z" fill="#0c1138" stroke="#0c1138"></path><path d="M739.6 1222.2L796.4 1166.7L739.6 1166.7Z" fill="#0d123b" stroke="#0d123b"></path><path d="M853.3 1111.1L910.2 1111.1L910.2 1055.6Z" fill="#0f133e" stroke="#0f133e"></path><path d="M113.8 1166.7L170.7 1166.7L113.8 1111.1Z" fill="#0f133e" stroke="#0f133e"></path><path d="M113.8 1111.1L170.7 1166.7L170.7 1111.1Z" fill="#090a2b" stroke="#090a2b"></path><path d="M853.3 277.8L796.4 222.2L796.4 277.8Z" fill="#16174c" stroke="#16174c"></path><path d="M227.6 166.7L170.7 222.2L227.6 222.2Z" fill="#0a0e31" stroke="#0a0e31"></path><path d="M0 944.4L0 1000L56.9 1000Z" fill="#141649" stroke="#141649"></path><path d="M910.2 1055.6L967.1 1000L910.2 1000Z" fill="#0f133e" stroke="#0f133e"></path><path d="M1024 444.4L967.1 388.9L967.1 444.4Z" fill="#090a2b" stroke="#090a2b"></path><path d="M967.1 444.4L967.1 388.9L910.2 388.9Z" fill="#0c1138" stroke="#0c1138"></path><path d="M910.2 333.3L910.2 277.8L853.3 333.3Z" fill="#0a0c2e" stroke="#0a0c2e"></path><path d="M0 333.3L0 388.9L56.9 333.3Z" fill="#141649" stroke="#141649"></path><path d="M56.9 333.3L0 388.9L56.9 388.9Z" fill="#101442" stroke="#101442"></path><path d="M1024 944.4L1024 888.9L967.1 944.4Z" fill="#0f133e" stroke="#0f133e"></path><path d="M1024 555.6L1024 500L967.1 500Z" fill="#101442" stroke="#101442"></path><path d="M398.2 1277.8L455.1 1277.8L398.2 1222.2Z" fill="#121545" stroke="#121545"></path><path d="M398.2 1222.2L455.1 1277.8L455.1 1222.2Z" fill="#121545" stroke="#121545"></path><path d="M455.1 1222.2L455.1 1277.8L512 1222.2Z" fill="#141649" stroke="#141649"></path><path d="M512 1222.2L512 1277.8L568.9 1222.2Z" fill="#0b1035" stroke="#0b1035"></path><path d="M568.9 1222.2L568.9 1277.8L625.8 1222.2Z" fill="#0f133e" stroke="#0f133e"></path><path d="M625.8 1222.2L625.8 1277.8L682.7 1222.2Z" fill="#0b1035" stroke="#0b1035"></path><path d="M398.2 1277.8L398.2 1222.2L341.3 1222.2Z" fill="#101442" stroke="#101442"></path><path d="M455.1 1277.8L512 1277.8L512 1222.2Z" fill="#0b1035" stroke="#0b1035"></path><path d="M455.1 166.7L455.1 111.1L398.2 166.7Z" fill="#16174c" stroke="#16174c"></path><path d="M398.2 166.7L398.2 111.1L341.3 166.7Z" fill="#121545" stroke="#121545"></path><path d="M341.3 166.7L341.3 111.1L284.4 166.7Z" fill="#16174c" stroke="#16174c"></path><path d="M512 166.7L455.1 111.1L455.1 166.7Z" fill="#0a0e31" stroke="#0a0e31"></path><path d="M512 111.1L455.1 111.1L512 166.7Z" fill="#0a0e31" stroke="#0a0e31"></path><path d="M512 111.1L512 166.7L568.9 166.7Z" fill="#101442" stroke="#101442"></path><path d="M512 111.1L568.9 166.7L568.9 111.1Z" fill="#101442" stroke="#101442"></path><path d="M568.9 111.1L568.9 166.7L625.8 111.1Z" fill="#101442" stroke="#101442"></path><path d="M170.7 1222.2L227.6 1222.2L227.6 1166.7Z" fill="#101442" stroke="#101442"></path><path d="M341.3 1277.8L398.2 1277.8L341.3 1222.2Z" fill="#101442" stroke="#101442"></path><path d="M682.7 1277.8L739.6 1222.2L682.7 1222.2Z" fill="#0f133e" stroke="#0f133e"></path><path d="M682.7 1222.2L739.6 1222.2L739.6 1166.7Z" fill="#090a2b" stroke="#090a2b"></path><path d="M796.4 222.2L739.6 166.7L739.6 222.2Z" fill="#0f133e" stroke="#0f133e"></path><path d="M625.8 111.1L568.9 166.7L625.8 166.7Z" fill="#0a0c2e" stroke="#0a0c2e"></path><path d="M796.4 166.7L739.6 166.7L796.4 222.2Z" fill="#0d123b" stroke="#0d123b"></path><path d="M284.4 111.1L227.6 166.7L284.4 166.7Z" fill="#121545" stroke="#121545"></path><path d="M284.4 166.7L227.6 166.7L227.6 222.2Z" fill="#0b1035" stroke="#0b1035"></path><path d="M341.3 1277.8L341.3 1222.2L284.4 1222.2Z" fill="#0b1035" stroke="#0b1035"></path><path d="M512 1277.8L568.9 1277.8L568.9 1222.2Z" fill="#0c1138" stroke="#0c1138"></path><path d="M625.8 111.1L625.8 166.7L682.7 166.7Z" fill="#0a0c2e" stroke="#0a0c2e"></path><path d="M455.1 111.1L398.2 111.1L398.2 166.7Z" fill="#090a2b" stroke="#090a2b"></path><path d="M967.1 1000L1024 944.4L967.1 944.4Z" fill="#0f133e" stroke="#0f133e"></path><path d="M1024 1000L1024 944.4L967.1 1000Z" fill="#141649" stroke="#141649"></path><path d="M1024 500L1024 444.4L967.1 444.4Z" fill="#0d123b" stroke="#0d123b"></path><path d="M853.3 1166.7L910.2 1111.1L853.3 1111.1Z" fill="#0f133e" stroke="#0f133e"></path><path d="M910.2 1055.6L967.1 1055.6L967.1 1000Z" fill="#090a2b" stroke="#090a2b"></path><path d="M853.3 1166.7L853.3 1111.1L796.4 1166.7Z" fill="#0b1035" stroke="#0b1035"></path><path d="M0 1111.1L56.9 1111.1L56.9 1055.6Z" fill="#121545" stroke="#121545"></path><path d="M56.9 1055.6L56.9 1111.1L113.8 1055.6Z" fill="#0f133e" stroke="#0f133e"></path><path d="M170.7 1166.7L170.7 1222.2L227.6 1166.7Z" fill="#101442" stroke="#101442"></path><path d="M113.8 277.8L56.9 277.8L56.9 333.3Z" fill="#0a0c2e" stroke="#0a0c2e"></path><path d="M113.8 222.2L56.9 277.8L113.8 277.8Z" fill="#141649" stroke="#141649"></path><path d="M113.8 222.2L113.8 277.8L170.7 222.2Z" fill="#101442" stroke="#101442"></path><path d="M967.1 333.3L910.2 333.3L967.1 388.9Z" fill="#0d123b" stroke="#0d123b"></path><path d="M967.1 277.8L910.2 277.8L910.2 333.3Z" fill="#090a2b" stroke="#090a2b"></path><path d="M853.3 277.8L853.3 222.2L796.4 222.2Z" fill="#0d123b" stroke="#0d123b"></path><path d="M796.4 1222.2L853.3 1166.7L796.4 1166.7Z" fill="#0a0e31" stroke="#0a0e31"></path><path d="M56.9 1111.1L113.8 1166.7L113.8 1111.1Z" fill="#0a0e31" stroke="#0a0e31"></path><path d="M170.7 166.7L113.8 222.2L170.7 222.2Z" fill="#0f133e" stroke="#0f133e"></path><path d="M910.2 277.8L853.3 222.2L853.3 277.8Z" fill="#0d123b" stroke="#0d123b"></path><path d="M568.9 1277.8L625.8 1277.8L625.8 1222.2Z" fill="#101442" stroke="#101442"></path><path d="M739.6 1222.2L796.4 1222.2L796.4 1166.7Z" fill="#0a0e31" stroke="#0a0e31"></path><path d="M284.4 1277.8L284.4 1222.2L227.6 1222.2Z" fill="#0b1035" stroke="#0b1035"></path><path d="M284.4 1277.8L341.3 1277.8L284.4 1222.2Z" fill="#0a0c2e" stroke="#0a0c2e"></path><path d="M682.7 111.1L625.8 111.1L682.7 166.7Z" fill="#090a2b" stroke="#090a2b"></path><path d="M398.2 111.1L341.3 111.1L341.3 166.7Z" fill="#101442" stroke="#101442"></path><path d="M967.1 1111.1L967.1 1055.6L910.2 1111.1Z" fill="#101442" stroke="#101442"></path><path d="M910.2 1111.1L967.1 1055.6L910.2 1055.6Z" fill="#16174c" stroke="#16174c"></path><path d="M0 1000L0 1055.6L56.9 1055.6Z" fill="#141649" stroke="#141649"></path><path d="M56.9 1111.1L56.9 1166.7L113.8 1166.7Z" fill="#101442" stroke="#101442"></path><path d="M56.9 277.8L0 333.3L56.9 333.3Z" fill="#16174c" stroke="#16174c"></path><path d="M1024 388.9L967.1 333.3L967.1 388.9Z" fill="#141649" stroke="#141649"></path><path d="M739.6 1277.8L796.4 1222.2L739.6 1222.2Z" fill="#101442" stroke="#101442"></path><path d="M113.8 1222.2L170.7 1222.2L170.7 1166.7Z" fill="#141649" stroke="#141649"></path><path d="M853.3 222.2L796.4 166.7L796.4 222.2Z" fill="#0b1035" stroke="#0b1035"></path><path d="M739.6 166.7L682.7 111.1L682.7 166.7Z" fill="#16174c" stroke="#16174c"></path><path d="M227.6 166.7L170.7 166.7L170.7 222.2Z" fill="#090a2b" stroke="#090a2b"></path><path d="M227.6 111.1L170.7 166.7L227.6 166.7Z" fill="#16174c" stroke="#16174c"></path><path d="M625.8 1277.8L682.7 1277.8L682.7 1222.2Z" fill="#141649" stroke="#141649"></path><path d="M227.6 1277.8L284.4 1277.8L227.6 1222.2Z" fill="#0a0c2e" stroke="#0a0c2e"></path><path d="M739.6 111.1L682.7 111.1L739.6 166.7Z" fill="#090a2b" stroke="#090a2b"></path><path d="M341.3 111.1L284.4 111.1L284.4 166.7Z" fill="#0a0c2e" stroke="#0a0c2e"></path><path d="M967.1 1055.6L1024 1000L967.1 1000Z" fill="#0f133e" stroke="#0f133e"></path><path d="M1024 444.4L1024 388.9L967.1 388.9Z" fill="#0d123b" stroke="#0d123b"></path><path d="M967.1 277.8L910.2 222.2L910.2 277.8Z" fill="#101442" stroke="#101442"></path><path d="M113.8 1166.7L113.8 1222.2L170.7 1166.7Z" fill="#141649" stroke="#141649"></path><path d="M170.7 1222.2L227.6 1277.8L227.6 1222.2Z" fill="#0d123b" stroke="#0d123b"></path><path d="M0 1111.1L56.9 1166.7L56.9 1111.1Z" fill="#16174c" stroke="#16174c"></path><path d="M853.3 1222.2L853.3 1166.7L796.4 1222.2Z" fill="#0a0c2e" stroke="#0a0c2e"></path><path d="M853.3 1222.2L910.2 1166.7L853.3 1166.7Z" fill="#141649" stroke="#141649"></path><path d="M853.3 1166.7L910.2 1166.7L910.2 1111.1Z" fill="#090a2b" stroke="#090a2b"></path><path d="M967.1 1055.6L1024 1055.6L1024 1000Z" fill="#16174c" stroke="#16174c"></path><path d="M853.3 222.2L853.3 166.7L796.4 166.7Z" fill="#0a0e31" stroke="#0a0e31"></path><path d="M796.4 111.1L739.6 111.1L739.6 166.7Z" fill="#0b1035" stroke="#0b1035"></path><path d="M910.2 277.8L910.2 222.2L853.3 222.2Z" fill="#121545" stroke="#121545"></path><path d="M967.1 277.8L910.2 333.3L967.1 333.3Z" fill="#090a2b" stroke="#090a2b"></path><path d="M113.8 166.7L56.9 222.2L113.8 222.2Z" fill="#0d123b" stroke="#0d123b"></path><path d="M113.8 222.2L56.9 222.2L56.9 277.8Z" fill="#141649" stroke="#141649"></path><path d="M56.9 277.8L0 277.8L0 333.3Z" fill="#090a2b" stroke="#090a2b"></path><path d="M682.7 1277.8L739.6 1277.8L739.6 1222.2Z" fill="#0f133e" stroke="#0f133e"></path><path d="M170.7 1277.8L227.6 1277.8L170.7 1222.2Z" fill="#0b1035" stroke="#0b1035"></path><path d="M796.4 111.1L739.6 166.7L796.4 166.7Z" fill="#0a0c2e" stroke="#0a0c2e"></path><path d="M284.4 111.1L227.6 111.1L227.6 166.7Z" fill="#121545" stroke="#121545"></path><path d="M170.7 166.7L113.8 166.7L113.8 222.2Z" fill="#0c1138" stroke="#0c1138"></path><path d="M910.2 1166.7L967.1 1111.1L910.2 1111.1Z" fill="#101442" stroke="#101442"></path><path d="M0 1055.6L0 1111.1L56.9 1055.6Z" fill="#0a0c2e" stroke="#0a0c2e"></path><path d="M1024 277.8L967.1 277.8L967.1 333.3Z" fill="#0d123b" stroke="#0d123b"></path><path d="M56.9 222.2L0 277.8L56.9 277.8Z" fill="#141649" stroke="#141649"></path><path d="M398.2 1333.3L455.1 1333.3L398.2 1277.8Z" fill="#121545" stroke="#121545"></path><path d="M398.2 1277.8L455.1 1333.3L455.1 1277.8Z" fill="#0a0e31" stroke="#0a0e31"></path><path d="M455.1 1277.8L455.1 1333.3L512 1277.8Z" fill="#0c1138" stroke="#0c1138"></path><path d="M512 1277.8L512 1333.3L568.9 1277.8Z" fill="#0a0e31" stroke="#0a0e31"></path><path d="M568.9 1277.8L568.9 1333.3L625.8 1277.8Z" fill="#101442" stroke="#101442"></path><path d="M625.8 1277.8L625.8 1333.3L682.7 1277.8Z" fill="#0d123b" stroke="#0d123b"></path><path d="M682.7 1277.8L682.7 1333.3L739.6 1277.8Z" fill="#121545" stroke="#121545"></path><path d="M398.2 1333.3L398.2 1277.8L341.3 1277.8Z" fill="#0c1138" stroke="#0c1138"></path><path d="M398.2 1333.3L341.3 1277.8L341.3 1333.3Z" fill="#0d123b" stroke="#0d123b"></path><path d="M455.1 1333.3L512 1333.3L512 1277.8Z" fill="#16174c" stroke="#16174c"></path><path d="M568.9 55.6L512 55.6L568.9 111.1Z" fill="#0f133e" stroke="#0f133e"></path><path d="M568.9 111.1L512 55.6L512 111.1Z" fill="#0c1138" stroke="#0c1138"></path><path d="M512 111.1L512 55.6L455.1 111.1Z" fill="#0b1035" stroke="#0b1035"></path><path d="M455.1 111.1L455.1 55.6L398.2 111.1Z" fill="#0c1138" stroke="#0c1138"></path><path d="M398.2 111.1L398.2 55.6L341.3 111.1Z" fill="#090a2b" stroke="#090a2b"></path><path d="M341.3 111.1L341.3 55.6L284.4 111.1Z" fill="#16174c" stroke="#16174c"></path><path d="M284.4 111.1L284.4 55.6L227.6 111.1Z" fill="#090a2b" stroke="#090a2b"></path><path d="M568.9 55.6L568.9 111.1L625.8 111.1Z" fill="#090a2b" stroke="#090a2b"></path><path d="M568.9 55.6L625.8 111.1L625.8 55.6Z" fill="#0b1035" stroke="#0b1035"></path><path d="M512 55.6L455.1 55.6L455.1 111.1Z" fill="#141649" stroke="#141649"></path><path d="M56.9 1222.2L113.8 1222.2L113.8 1166.7Z" fill="#16174c" stroke="#16174c"></path><path d="M796.4 1277.8L853.3 1222.2L796.4 1222.2Z" fill="#121545" stroke="#121545"></path><path d="M910.2 222.2L853.3 166.7L853.3 222.2Z" fill="#0a0c2e" stroke="#0a0c2e"></path><path d="M170.7 111.1L113.8 166.7L170.7 166.7Z" fill="#141649" stroke="#141649"></path><path d="M341.3 1333.3L341.3 1277.8L284.4 1277.8Z" fill="#0f133e" stroke="#0f133e"></path><path d="M512 1333.3L568.9 1333.3L568.9 1277.8Z" fill="#0a0e31" stroke="#0a0e31"></path><path d="M455.1 55.6L398.2 55.6L398.2 111.1Z" fill="#16174c" stroke="#16174c"></path><path d="M625.8 55.6L625.8 111.1L682.7 111.1Z" fill="#0a0e31" stroke="#0a0e31"></path><path d="M1024 1111.1L1024 1055.6L967.1 1111.1Z" fill="#0d123b" stroke="#0d123b"></path><path d="M967.1 1111.1L1024 1055.6L967.1 1055.6Z" fill="#0a0e31" stroke="#0a0e31"></path><path d="M1024 388.9L1024 333.3L967.1 333.3Z" fill="#0f133e" stroke="#0f133e"></path><path d="M284.4 1333.3L341.3 1333.3L284.4 1277.8Z" fill="#0a0e31" stroke="#0a0e31"></path><path d="M568.9 1333.3L625.8 1333.3L625.8 1277.8Z" fill="#0a0e31" stroke="#0a0e31"></path><path d="M398.2 55.6L341.3 55.6L341.3 111.1Z" fill="#101442" stroke="#101442"></path><path d="M682.7 55.6L625.8 55.6L682.7 111.1Z" fill="#0a0c2e" stroke="#0a0c2e"></path><path d="M910.2 1222.2L967.1 1166.7L910.2 1166.7Z" fill="#0b1035" stroke="#0b1035"></path><path d="M739.6 1277.8L796.4 1277.8L796.4 1222.2Z" fill="#141649" stroke="#141649"></path><path d="M739.6 1333.3L796.4 1277.8L739.6 1277.8Z" fill="#121545" stroke="#121545"></path><path d="M113.8 1277.8L170.7 1277.8L113.8 1222.2Z" fill="#0d123b" stroke="#0d123b"></path><path d="M113.8 1222.2L170.7 1277.8L170.7 1222.2Z" fill="#16174c" stroke="#16174c"></path><path d="M227.6 1277.8L284.4 1333.3L284.4 1277.8Z" fill="#121545" stroke="#121545"></path><path d="M853.3 166.7L796.4 111.1L796.4 166.7Z" fill="#0f133e" stroke="#0f133e"></path><path d="M739.6 111.1L682.7 55.6L682.7 111.1Z" fill="#0b1035" stroke="#0b1035"></path><path d="M227.6 111.1L170.7 111.1L170.7 166.7Z" fill="#0b1035" stroke="#0b1035"></path><path d="M227.6 55.6L170.7 111.1L227.6 111.1Z" fill="#0d123b" stroke="#0d123b"></path><path d="M227.6 1333.3L284.4 1333.3L227.6 1277.8Z" fill="#0b1035" stroke="#0b1035"></path><path d="M625.8 1333.3L682.7 1333.3L682.7 1277.8Z" fill="#0a0c2e" stroke="#0a0c2e"></path><path d="M341.3 55.6L284.4 55.6L284.4 111.1Z" fill="#121545" stroke="#121545"></path><path d="M739.6 55.6L682.7 55.6L739.6 111.1Z" fill="#0c1138" stroke="#0c1138"></path><path d="M0 1111.1L0 1166.7L56.9 1166.7Z" fill="#0a0c2e" stroke="#0a0c2e"></path><path d="M56.9 1166.7L56.9 1222.2L113.8 1166.7Z" fill="#0c1138" stroke="#0c1138"></path><path d="M910.2 1166.7L967.1 1166.7L967.1 1111.1Z" fill="#0b1035" stroke="#0b1035"></path><path d="M910.2 1222.2L910.2 1166.7L853.3 1222.2Z" fill="#101442" stroke="#101442"></path><path d="M56.9 222.2L0 222.2L0 277.8Z" fill="#0c1138" stroke="#0c1138"></path><path d="M56.9 166.7L0 222.2L56.9 222.2Z" fill="#0f133e" stroke="#0f133e"></path><path d="M56.9 166.7L56.9 222.2L113.8 166.7Z" fill="#0d123b" stroke="#0d123b"></path><path d="M1024 277.8L967.1 222.2L967.1 277.8Z" fill="#0d123b" stroke="#0d123b"></path><path d="M967.1 277.8L967.1 222.2L910.2 222.2Z" fill="#0f133e" stroke="#0f133e"></path><path d="M910.2 222.2L910.2 166.7L853.3 166.7Z" fill="#0a0c2e" stroke="#0a0c2e"></path><path d="M853.3 166.7L853.3 111.1L796.4 111.1Z" fill="#101442" stroke="#101442"></path><path d="M853.3 1277.8L853.3 1222.2L796.4 1277.8Z" fill="#121545" stroke="#121545"></path><path d="M853.3 1277.8L910.2 1222.2L853.3 1222.2Z" fill="#101442" stroke="#101442"></path><path d="M0 1222.2L56.9 1222.2L56.9 1166.7Z" fill="#0f133e" stroke="#0f133e"></path><path d="M113.8 111.1L56.9 166.7L113.8 166.7Z" fill="#0c1138" stroke="#0c1138"></path><path d="M967.1 222.2L910.2 166.7L910.2 222.2Z" fill="#090a2b" stroke="#090a2b"></path><path d="M796.4 111.1L739.6 55.6L739.6 111.1Z" fill="#0d123b" stroke="#0d123b"></path><path d="M967.1 1166.7L1024 1111.1L967.1 1111.1Z" fill="#0a0e31" stroke="#0a0e31"></path><path d="M1024 333.3L1024 277.8L967.1 333.3Z" fill="#121545" stroke="#121545"></path><path d="M170.7 1277.8L227.6 1333.3L227.6 1277.8Z" fill="#101442" stroke="#101442"></path><path d="M170.7 1333.3L227.6 1333.3L170.7 1277.8Z" fill="#0d123b" stroke="#0d123b"></path><path d="M682.7 1333.3L739.6 1333.3L739.6 1277.8Z" fill="#16174c" stroke="#16174c"></path><path d="M796.4 55.6L739.6 55.6L796.4 111.1Z" fill="#0f133e" stroke="#0f133e"></path><path d="M284.4 55.6L227.6 55.6L227.6 111.1Z" fill="#0d123b" stroke="#0d123b"></path><path d="M170.7 111.1L113.8 111.1L113.8 166.7Z" fill="#0d123b" stroke="#0d123b"></path><path d="M796.4 1333.3L853.3 1277.8L796.4 1277.8Z" fill="#0c1138" stroke="#0c1138"></path><path d="M910.2 1222.2L967.1 1222.2L967.1 1166.7Z" fill="#0d123b" stroke="#0d123b"></path><path d="M56.9 1277.8L113.8 1277.8L56.9 1222.2Z" fill="#090a2b" stroke="#090a2b"></path><path d="M56.9 1222.2L113.8 1277.8L113.8 1222.2Z" fill="#0a0c2e" stroke="#0a0c2e"></path><path d="M910.2 166.7L853.3 111.1L853.3 166.7Z" fill="#0a0e31" stroke="#0a0e31"></path><path d="M170.7 55.6L113.8 111.1L170.7 111.1Z" fill="#0a0c2e" stroke="#0a0c2e"></path><path d="M398.2 1388.9L455.1 1388.9L398.2 1333.3Z" fill="#16174c" stroke="#16174c"></path><path d="M398.2 1333.3L455.1 1388.9L455.1 1333.3Z" fill="#0f133e" stroke="#0f133e"></path><path d="M455.1 1333.3L455.1 1388.9L512 1333.3Z" fill="#0d123b" stroke="#0d123b"></path><path d="M512 1333.3L512 1388.9L568.9 1333.3Z" fill="#0d123b" stroke="#0d123b"></path><path d="M568.9 1333.3L568.9 1388.9L625.8 1333.3Z" fill="#0a0c2e" stroke="#0a0c2e"></path><path d="M625.8 1333.3L625.8 1388.9L682.7 1333.3Z" fill="#0d123b" stroke="#0d123b"></path><path d="M682.7 1333.3L682.7 1388.9L739.6 1333.3Z" fill="#0b1035" stroke="#0b1035"></path><path d="M398.2 1388.9L398.2 1333.3L341.3 1388.9Z" fill="#0c1138" stroke="#0c1138"></path><path d="M398.2 1333.3L341.3 1333.3L341.3 1388.9Z" fill="#090a2b" stroke="#090a2b"></path><path d="M455.1 1388.9L512 1388.9L512 1333.3Z" fill="#0c1138" stroke="#0c1138"></path><path d="M455.1 55.6L455.1 0L398.2 55.6Z" fill="#0d123b" stroke="#0d123b"></path><path d="M398.2 55.6L398.2 0L341.3 55.6Z" fill="#0a0e31" stroke="#0a0e31"></path><path d="M341.3 55.6L341.3 0L284.4 55.6Z" fill="#0d123b" stroke="#0d123b"></path><path d="M284.4 55.6L284.4 0L227.6 55.6Z" fill="#0b1035" stroke="#0b1035"></path><path d="M512 55.6L455.1 0L455.1 55.6Z" fill="#0b1035" stroke="#0b1035"></path><path d="M512 0L455.1 0L512 55.6Z" fill="#0d123b" stroke="#0d123b"></path><path d="M512 0L512 55.6L568.9 55.6Z" fill="#0d123b" stroke="#0d123b"></path><path d="M512 0L568.9 55.6L568.9 0Z" fill="#0b1035" stroke="#0b1035"></path><path d="M568.9 55.6L625.8 55.6L568.9 0Z" fill="#0f133e" stroke="#0f133e"></path><path d="M568.9 0L625.8 55.6L625.8 0Z" fill="#16174c" stroke="#16174c"></path><path d="M341.3 1388.9L341.3 1333.3L284.4 1388.9Z" fill="#090a2b" stroke="#090a2b"></path><path d="M512 1388.9L568.9 1388.9L568.9 1333.3Z" fill="#0d123b" stroke="#0d123b"></path><path d="M455.1 0L398.2 0L398.2 55.6Z" fill="#141649" stroke="#141649"></path><path d="M625.8 0L625.8 55.6L682.7 55.6Z" fill="#090a2b" stroke="#090a2b"></path><path d="M284.4 1388.9L341.3 1333.3L284.4 1333.3Z" fill="#0a0e31" stroke="#0a0e31"></path><path d="M568.9 1388.9L625.8 1388.9L625.8 1333.3Z" fill="#0b1035" stroke="#0b1035"></path><path d="M682.7 0L625.8 0L682.7 55.6Z" fill="#0c1138" stroke="#0c1138"></path><path d="M398.2 0L341.3 0L341.3 55.6Z" fill="#121545" stroke="#121545"></path><path d="M739.6 1388.9L796.4 1333.3L739.6 1333.3Z" fill="#0c1138" stroke="#0c1138"></path><path d="M739.6 1333.3L796.4 1333.3L796.4 1277.8Z" fill="#141649" stroke="#141649"></path><path d="M910.2 1277.8L967.1 1222.2L910.2 1222.2Z" fill="#0f133e" stroke="#0f133e"></path><path d="M113.8 1277.8L170.7 1333.3L170.7 1277.8Z" fill="#141649" stroke="#141649"></path><path d="M227.6 1333.3L284.4 1388.9L284.4 1333.3Z" fill="#141649" stroke="#141649"></path><path d="M113.8 1333.3L170.7 1333.3L113.8 1277.8Z" fill="#0d123b" stroke="#0d123b"></path><path d="M853.3 111.1L796.4 55.6L796.4 111.1Z" fill="#0f133e" stroke="#0f133e"></path><path d="M739.6 55.6L682.7 0L682.7 55.6Z" fill="#0b1035" stroke="#0b1035"></path><path d="M227.6 0L170.7 55.6L227.6 55.6Z" fill="#0c1138" stroke="#0c1138"></path><path d="M227.6 55.6L170.7 55.6L170.7 111.1Z" fill="#090a2b" stroke="#090a2b"></path><path d="M910.2 1277.8L910.2 1222.2L853.3 1277.8Z" fill="#0c1138" stroke="#0c1138"></path><path d="M967.1 1166.7L1024 1166.7L1024 1111.1Z" fill="#101442" stroke="#101442"></path><path d="M0 1166.7L0 1222.2L56.9 1166.7Z" fill="#0b1035" stroke="#0b1035"></path><path d="M910.2 166.7L910.2 111.1L853.3 111.1Z" fill="#101442" stroke="#101442"></path><path d="M853.3 111.1L853.3 55.6L796.4 55.6Z" fill="#0f133e" stroke="#0f133e"></path><path d="M967.1 222.2L967.1 166.7L910.2 166.7Z" fill="#101442" stroke="#101442"></path><path d="M1024 222.2L967.1 166.7L967.1 222.2Z" fill="#0d123b" stroke="#0d123b"></path><path d="M56.9 111.1L56.9 166.7L113.8 111.1Z" fill="#121545" stroke="#121545"></path><path d="M56.9 111.1L0 166.7L56.9 166.7Z" fill="#090a2b" stroke="#090a2b"></path><path d="M56.9 166.7L0 166.7L0 222.2Z" fill="#0d123b" stroke="#0d123b"></path><path d="M967.1 1222.2L1024 1166.7L967.1 1166.7Z" fill="#16174c" stroke="#16174c"></path><path d="M1024 277.8L1024 222.2L967.1 222.2Z" fill="#16174c" stroke="#16174c"></path><path d="M625.8 1388.9L682.7 1388.9L682.7 1333.3Z" fill="#0c1138" stroke="#0c1138"></path><path d="M227.6 1388.9L284.4 1388.9L227.6 1333.3Z" fill="#090a2b" stroke="#090a2b"></path><path d="M341.3 0L284.4 0L284.4 55.6Z" fill="#0b1035" stroke="#0b1035"></path><path d="M739.6 0L682.7 0L739.6 55.6Z" fill="#0a0e31" stroke="#0a0e31"></path><path d="M853.3 1333.3L910.2 1277.8L853.3 1277.8Z" fill="#0f133e" stroke="#0f133e"></path><path d="M967.1 1222.2L1024 1222.2L1024 1166.7Z" fill="#0a0e31" stroke="#0a0e31"></path><path d="M0 1222.2L56.9 1277.8L56.9 1222.2Z" fill="#0d123b" stroke="#0d123b"></path><path d="M113.8 55.6L56.9 111.1L113.8 111.1Z" fill="#16174c" stroke="#16174c"></path><path d="M967.1 166.7L910.2 111.1L910.2 166.7Z" fill="#16174c" stroke="#16174c"></path><path d="M796.4 55.6L739.6 0L739.6 55.6Z" fill="#101442" stroke="#101442"></path><path d="M796.4 1333.3L853.3 1333.3L853.3 1277.8Z" fill="#0a0e31" stroke="#0a0e31"></path><path d="M967.1 1277.8L1024 1222.2L967.1 1222.2Z" fill="#101442" stroke="#101442"></path><path d="M796.4 1388.9L853.3 1333.3L796.4 1333.3Z" fill="#121545" stroke="#121545"></path><path d="M56.9 1277.8L113.8 1333.3L113.8 1277.8Z" fill="#16174c" stroke="#16174c"></path><path d="M170.7 1388.9L227.6 1388.9L227.6 1333.3Z" fill="#0f133e" stroke="#0f133e"></path><path d="M910.2 111.1L853.3 55.6L853.3 111.1Z" fill="#0b1035" stroke="#0b1035"></path><path d="M170.7 55.6L113.8 55.6L113.8 111.1Z" fill="#0a0e31" stroke="#0a0e31"></path><path d="M170.7 0L113.8 55.6L170.7 55.6Z" fill="#101442" stroke="#101442"></path><path d="M170.7 1388.9L227.6 1333.3L170.7 1333.3Z" fill="#141649" stroke="#141649"></path><path d="M682.7 1388.9L739.6 1388.9L739.6 1333.3Z" fill="#0c1138" stroke="#0c1138"></path><path d="M796.4 0L739.6 0L796.4 55.6Z" fill="#16174c" stroke="#16174c"></path><path d="M284.4 0L227.6 0L227.6 55.6Z" fill="#0d123b" stroke="#0d123b"></path><path d="M398.2 1444.4L455.1 1444.4L398.2 1388.9Z" fill="#121545" stroke="#121545"></path><path d="M398.2 1388.9L455.1 1444.4L455.1 1388.9Z" fill="#0f133e" stroke="#0f133e"></path><path d="M455.1 1388.9L455.1 1444.4L512 1388.9Z" fill="#101442" stroke="#101442"></path><path d="M512 1388.9L512 1444.4L568.9 1388.9Z" fill="#101442" stroke="#101442"></path><path d="M568.9 1388.9L568.9 1444.4L625.8 1388.9Z" fill="#090a2b" stroke="#090a2b"></path><path d="M625.8 1388.9L625.8 1444.4L682.7 1388.9Z" fill="#0d123b" stroke="#0d123b"></path><path d="M682.7 1388.9L682.7 1444.4L739.6 1388.9Z" fill="#16174c" stroke="#16174c"></path><path d="M398.2 1444.4L398.2 1388.9L341.3 1388.9Z" fill="#0c1138" stroke="#0c1138"></path><path d="M398.2 1444.4L341.3 1388.9L341.3 1444.4Z" fill="#0b1035" stroke="#0b1035"></path><path d="M455.1 1444.4L512 1444.4L512 1388.9Z" fill="#0f133e" stroke="#0f133e"></path><path d="M341.3 1444.4L341.3 1388.9L284.4 1388.9Z" fill="#16174c" stroke="#16174c"></path><path d="M512 1444.4L568.9 1444.4L568.9 1388.9Z" fill="#16174c" stroke="#16174c"></path><path d="M967.1 1277.8L967.1 1222.2L910.2 1277.8Z" fill="#0a0e31" stroke="#0a0e31"></path><path d="M1024 222.2L1024 166.7L967.1 166.7Z" fill="#0a0c2e" stroke="#0a0c2e"></path><path d="M967.1 166.7L967.1 111.1L910.2 111.1Z" fill="#0a0c2e" stroke="#0a0c2e"></path><path d="M910.2 111.1L910.2 55.6L853.3 55.6Z" fill="#090a2b" stroke="#090a2b"></path><path d="M910.2 1333.3L967.1 1277.8L910.2 1277.8Z" fill="#0a0c2e" stroke="#0a0c2e"></path><path d="M56.9 1277.8L56.9 1333.3L113.8 1333.3Z" fill="#141649" stroke="#141649"></path><path d="M0 1222.2L0 1277.8L56.9 1277.8Z" fill="#0d123b" stroke="#0d123b"></path><path d="M56.9 55.6L0 111.1L56.9 111.1Z" fill="#0a0c2e" stroke="#0a0c2e"></path><path d="M56.9 111.1L0 111.1L0 166.7Z" fill="#0a0e31" stroke="#0a0e31"></path><path d="M1024 166.7L967.1 111.1L967.1 166.7Z" fill="#0d123b" stroke="#0d123b"></path><path d="M853.3 55.6L796.4 0L796.4 55.6Z" fill="#0a0c2e" stroke="#0a0c2e"></path><path d="M739.6 1444.4L796.4 1388.9L739.6 1388.9Z" fill="#121545" stroke="#121545"></path><path d="M739.6 1388.9L796.4 1388.9L796.4 1333.3Z" fill="#121545" stroke="#121545"></path><path d="M853.3 1333.3L910.2 1333.3L910.2 1277.8Z" fill="#16174c" stroke="#16174c"></path><path d="M113.8 1388.9L170.7 1388.9L170.7 1333.3Z" fill="#121545" stroke="#121545"></path><path d="M284.4 1444.4L341.3 1444.4L284.4 1388.9Z" fill="#090a2b" stroke="#090a2b"></path><path d="M113.8 1388.9L170.7 1333.3L113.8 1333.3Z" fill="#090a2b" stroke="#090a2b"></path><path d="M853.3 0L796.4 0L853.3 55.6Z" fill="#121545" stroke="#121545"></path><path d="M227.6 0L170.7 0L170.7 55.6Z" fill="#0b1035" stroke="#0b1035"></path><path d="M113.8 55.6L56.9 55.6L56.9 111.1Z" fill="#0a0e31" stroke="#0a0e31"></path><path d="M568.9 1444.4L625.8 1444.4L625.8 1388.9Z" fill="#0a0c2e" stroke="#0a0c2e"></path><path d="M284.4 1444.4L284.4 1388.9L227.6 1388.9Z" fill="#090a2b" stroke="#090a2b"></path><path d="M853.3 1388.9L910.2 1333.3L853.3 1333.3Z" fill="#0a0c2e" stroke="#0a0c2e"></path><path d="M0 1277.8L56.9 1333.3L56.9 1277.8Z" fill="#121545" stroke="#121545"></path><path d="M967.1 111.1L910.2 55.6L910.2 111.1Z" fill="#0c1138" stroke="#0c1138"></path><path d="M113.8 0L56.9 55.6L113.8 55.6Z" fill="#0a0c2e" stroke="#0a0c2e"></path><path d="M625.8 1444.4L682.7 1444.4L682.7 1388.9Z" fill="#0f133e" stroke="#0f133e"></path><path d="M796.4 1388.9L853.3 1388.9L853.3 1333.3Z" fill="#0b1035" stroke="#0b1035"></path><path d="M227.6 1444.4L227.6 1388.9L170.7 1388.9Z" fill="#16174c" stroke="#16174c"></path><path d="M227.6 1444.4L284.4 1444.4L227.6 1388.9Z" fill="#16174c" stroke="#16174c"></path><path d="M796.4 1444.4L853.3 1388.9L796.4 1388.9Z" fill="#101442" stroke="#101442"></path><path d="M56.9 1388.9L113.8 1388.9L113.8 1333.3Z" fill="#0f133e" stroke="#0f133e"></path><path d="M910.2 55.6L853.3 0L853.3 55.6Z" fill="#121545" stroke="#121545"></path><path d="M170.7 0L113.8 0L113.8 55.6Z" fill="#0a0e31" stroke="#0a0e31"></path><path d="M170.7 1444.4L227.6 1444.4L170.7 1388.9Z" fill="#090a2b" stroke="#090a2b"></path><path d="M682.7 1444.4L739.6 1444.4L739.6 1388.9Z" fill="#090a2b" stroke="#090a2b"></path><path d="M967.1 1333.3L967.1 1277.8L910.2 1333.3Z" fill="#0b1035" stroke="#0b1035"></path><path d="M967.1 1333.3L1024 1277.8L967.1 1277.8Z" fill="#0a0c2e" stroke="#0a0c2e"></path><path d="M967.1 1277.8L1024 1277.8L1024 1222.2Z" fill="#0b1035" stroke="#0b1035"></path><path d="M967.1 111.1L967.1 55.6L910.2 55.6Z" fill="#101442" stroke="#101442"></path><path d="M910.2 55.6L910.2 0L853.3 0Z" fill="#0d123b" stroke="#0d123b"></path><path d="M1024 166.7L1024 111.1L967.1 111.1Z" fill="#16174c" stroke="#16174c"></path><path d="M910.2 1388.9L910.2 1333.3L853.3 1388.9Z" fill="#141649" stroke="#141649"></path><path d="M910.2 1388.9L967.1 1333.3L910.2 1333.3Z" fill="#090a2b" stroke="#090a2b"></path><path d="M56.9 1333.3L56.9 1388.9L113.8 1333.3Z" fill="#090a2b" stroke="#090a2b"></path><path d="M113.8 1388.9L170.7 1444.4L170.7 1388.9Z" fill="#101442" stroke="#101442"></path><path d="M0 1277.8L0 1333.3L56.9 1333.3Z" fill="#16174c" stroke="#16174c"></path><path d="M56.9 0L0 55.6L56.9 55.6Z" fill="#141649" stroke="#141649"></path><path d="M56.9 55.6L0 55.6L0 111.1Z" fill="#141649" stroke="#141649"></path><path d="M1024 111.1L967.1 55.6L967.1 111.1Z" fill="#0a0c2e" stroke="#0a0c2e"></path><path d="M568.9 1444.4L568.9 1500L625.8 1444.4Z" fill="#141649" stroke="#141649"></path><path d="M625.8 1444.4L625.8 1500L682.7 1444.4Z" fill="#121545" stroke="#121545"></path><path d="M682.7 1444.4L682.7 1500L739.6 1444.4Z" fill="#0c1138" stroke="#0c1138"></path><path d="M512 1444.4L512 1500L568.9 1444.4Z" fill="#121545" stroke="#121545"></path><path d="M455.1 1444.4L512 1500L512 1444.4Z" fill="#0a0e31" stroke="#0a0e31"></path><path d="M455.1 1500L512 1500L455.1 1444.4Z" fill="#0b1035" stroke="#0b1035"></path><path d="M455.1 1500L455.1 1444.4L398.2 1444.4Z" fill="#0b1035" stroke="#0b1035"></path><path d="M455.1 1500L398.2 1444.4L398.2 1500Z" fill="#0a0c2e" stroke="#0a0c2e"></path><path d="M398.2 1444.4L341.3 1500L398.2 1500Z" fill="#101442" stroke="#101442"></path><path d="M398.2 1444.4L341.3 1444.4L341.3 1500Z" fill="#0f133e" stroke="#0f133e"></path><path d="M341.3 1500L341.3 1444.4L284.4 1500Z" fill="#121545" stroke="#121545"></path><path d="M512 1500L568.9 1500L568.9 1444.4Z" fill="#16174c" stroke="#16174c"></path><path d="M739.6 1500L796.4 1444.4L739.6 1444.4Z" fill="#0a0e31" stroke="#0a0e31"></path><path d="M739.6 1444.4L796.4 1444.4L796.4 1388.9Z" fill="#0b1035" stroke="#0b1035"></path><path d="M113.8 1444.4L170.7 1444.4L113.8 1388.9Z" fill="#0b1035" stroke="#0b1035"></path><path d="M284.4 1500L341.3 1444.4L284.4 1444.4Z" fill="#090a2b" stroke="#090a2b"></path><path d="M0 1388.9L56.9 1388.9L56.9 1333.3Z" fill="#101442" stroke="#101442"></path><path d="M853.3 1444.4L910.2 1388.9L853.3 1388.9Z" fill="#121545" stroke="#121545"></path><path d="M113.8 0L56.9 0L56.9 55.6Z" fill="#121545" stroke="#121545"></path><path d="M967.1 55.6L910.2 0L910.2 55.6Z" fill="#0a0c2e" stroke="#0a0c2e"></path><path d="M284.4 1500L284.4 1444.4L227.6 1444.4Z" fill="#121545" stroke="#121545"></path><path d="M568.9 1500L625.8 1500L625.8 1444.4Z" fill="#141649" stroke="#141649"></path><path d="M227.6 1500L284.4 1500L227.6 1444.4Z" fill="#141649" stroke="#141649"></path><path d="M625.8 1500L682.7 1500L682.7 1444.4Z" fill="#16174c" stroke="#16174c"></path><path d="M796.4 1500L853.3 1444.4L796.4 1444.4Z" fill="#0b1035" stroke="#0b1035"></path><path d="M796.4 1444.4L853.3 1444.4L853.3 1388.9Z" fill="#0c1138" stroke="#0c1138"></path><path d="M967.1 1388.9L1024 1333.3L967.1 1333.3Z" fill="#16174c" stroke="#16174c"></path><path d="M56.9 1388.9L113.8 1444.4L113.8 1388.9Z" fill="#101442" stroke="#101442"></path><path d="M170.7 1500L227.6 1500L227.6 1444.4Z" fill="#0f133e" stroke="#0f133e"></path><path d="M56.9 1444.4L113.8 1444.4L56.9 1388.9Z" fill="#0f133e" stroke="#0f133e"></path><path d="M967.1 1388.9L967.1 1333.3L910.2 1388.9Z" fill="#16174c" stroke="#16174c"></path><path d="M967.1 1333.3L1024 1333.3L1024 1277.8Z" fill="#0a0c2e" stroke="#0a0c2e"></path><path d="M1024 111.1L1024 55.6L967.1 55.6Z" fill="#121545" stroke="#121545"></path><path d="M967.1 55.6L967.1 0L910.2 0Z" fill="#0a0c2e" stroke="#0a0c2e"></path><path d="M682.7 1500L739.6 1500L739.6 1444.4Z" fill="#16174c" stroke="#16174c"></path><path d="M170.7 1500L227.6 1444.4L170.7 1444.4Z" fill="#0a0e31" stroke="#0a0e31"></path><path d="M0 1333.3L0 1388.9L56.9 1333.3Z" fill="#090a2b" stroke="#090a2b"></path><path d="M910.2 1444.4L967.1 1388.9L910.2 1388.9Z" fill="#090a2b" stroke="#090a2b"></path><path d="M56.9 0L0 0L0 55.6Z" fill="#101442" stroke="#101442"></path><path d="M1024 55.6L967.1 0L967.1 55.6Z" fill="#121545" stroke="#121545"></path><path d="M853.3 1444.4L910.2 1444.4L910.2 1388.9Z" fill="#0a0c2e" stroke="#0a0c2e"></path><path d="M967.1 1388.9L1024 1388.9L1024 1333.3Z" fill="#101442" stroke="#101442"></path><path d="M853.3 1500L910.2 1444.4L853.3 1444.4Z" fill="#121545" stroke="#121545"></path><path d="M0 1388.9L56.9 1444.4L56.9 1388.9Z" fill="#0d123b" stroke="#0d123b"></path><path d="M113.8 1500L170.7 1500L170.7 1444.4Z" fill="#0a0e31" stroke="#0a0e31"></path><path d="M739.6 1500L796.4 1500L796.4 1444.4Z" fill="#0f133e" stroke="#0f133e"></path><path d="M113.8 1500L170.7 1444.4L113.8 1444.4Z" fill="#0a0e31" stroke="#0a0e31"></path><path d="M967.1 1444.4L1024 1388.9L967.1 1388.9Z" fill="#0b1035" stroke="#0b1035"></path><path d="M1024 55.6L1024 0L967.1 0Z" fill="#090a2b" stroke="#090a2b"></path><path d="M56.9 1500L113.8 1500L113.8 1444.4Z" fill="#0b1035" stroke="#0b1035"></path><path d="M796.4 1500L853.3 1500L853.3 1444.4Z" fill="#16174c" stroke="#16174c"></path><path d="M910.2 1444.4L967.1 1444.4L967.1 1388.9Z" fill="#101442" stroke="#101442"></path><path d="M910.2 1500L967.1 1444.4L910.2 1444.4Z" fill="#101442" stroke="#101442"></path><path d="M0 1388.9L0 1444.4L56.9 1444.4Z" fill="#121545" stroke="#121545"></path><path d="M56.9 1444.4L56.9 1500L113.8 1444.4Z" fill="#121545" stroke="#121545"></path><path d="M0 1500L56.9 1500L56.9 1444.4Z" fill="#121545" stroke="#121545"></path><path d="M853.3 1500L910.2 1500L910.2 1444.4Z" fill="#141649" stroke="#141649"></path><path d="M967.1 1500L1024 1444.4L967.1 1444.4Z" fill="#0b1035" stroke="#0b1035"></path><path d="M967.1 1444.4L1024 1444.4L1024 1388.9Z" fill="#0d123b" stroke="#0d123b"></path><path d="M0 1444.4L0 1500L56.9 1444.4Z" fill="#101442" stroke="#101442"></path><path d="M910.2 1500L967.1 1500L967.1 1444.4Z" fill="#0d123b" stroke="#0d123b"></path><path d="M967.1 1500L1024 1500L1024 1444.4Z" fill="#0b1035" stroke="#0b1035"></path></g></svg>