<svg id="visual" viewBox="0 0 600 900" width="600" height="900" xmlns="http://www.w3.org/2000/svg" xmlns:xlink="http://www.w3.org/1999/xlink" version="1.1"><g stroke-width="1" stroke-linejoin="bevel"><path d="M300 466.7L300 433.3L266.7 433.3Z" fill="#141649" stroke="#141649"></path><path d="M266.7 433.3L266.7 466.7L300 466.7Z" fill="#090a2b" stroke="#090a2b"></path><path d="M333.3 466.7L333.3 433.3L300 433.3Z" fill="#101442" stroke="#101442"></path><path d="M333.3 433.3L300 400L300 433.3Z" fill="#101442" stroke="#101442"></path><path d="M300 433.3L266.7 400L266.7 433.3Z" fill="#090a2b" stroke="#090a2b"></path><path d="M300 466.7L333.3 466.7L300 433.3Z" fill="#0b1035" stroke="#0b1035"></path><path d="M300 400L266.7 400L300 433.3Z" fill="#0b1035" stroke="#0b1035"></path><path d="M266.7 400L233.3 433.3L266.7 433.3Z" fill="#121545" stroke="#121545"></path><path d="M266.7 433.3L233.3 433.3L266.7 466.7Z" fill="#16174c" stroke="#16174c"></path><path d="M233.3 433.3L233.3 466.7L266.7 466.7Z" fill="#090a2b" stroke="#090a2b"></path><path d="M266.7 500L300 466.7L266.7 466.7Z" fill="#0a0c2e" stroke="#0a0c2e"></path><path d="M266.7 500L300 500L300 466.7Z" fill="#16174c" stroke="#16174c"></path><path d="M300 466.7L300 500L333.3 466.7Z" fill="#0a0c2e" stroke="#0a0c2e"></path><path d="M233.3 466.7L266.7 500L266.7 466.7Z" fill="#101442" stroke="#101442"></path><path d="M333.3 433.3L333.3 400L300 400Z" fill="#16174c" stroke="#16174c"></path><path d="M266.7 400L233.3 400L233.3 433.3Z" fill="#0f133e" stroke="#0f133e"></path><path d="M300 500L333.3 500L333.3 466.7Z" fill="#0c1138" stroke="#0c1138"></path><path d="M233.3 466.7L233.3 500L266.7 500Z" fill="#101442" stroke="#101442"></path><path d="M366.7 466.7L366.7 433.3L333.3 466.7Z" fill="#090a2b" stroke="#090a2b"></path><path d="M333.3 466.7L366.7 433.3L333.3 433.3Z" fill="#0a0e31" stroke="#0a0e31"></path><path d="M333.3 433.3L366.7 400L333.3 400Z" fill="#0d123b" stroke="#0d123b"></path><path d="M333.3 366.7L300 366.7L300 400Z" fill="#090a2b" stroke="#090a2b"></path><path d="M300 400L300 366.7L266.7 400Z" fill="#101442" stroke="#101442"></path><path d="M266.7 400L266.7 366.7L233.3 400Z" fill="#0f133e" stroke="#0f133e"></path><path d="M366.7 500L366.7 466.7L333.3 466.7Z" fill="#0f133e" stroke="#0f133e"></path><path d="M300 366.7L266.7 366.7L266.7 400Z" fill="#101442" stroke="#101442"></path><path d="M266.7 533.3L300 533.3L266.7 500Z" fill="#090a2b" stroke="#090a2b"></path><path d="M266.7 500L300 533.3L300 500Z" fill="#16174c" stroke="#16174c"></path><path d="M300 500L333.3 533.3L333.3 500Z" fill="#16174c" stroke="#16174c"></path><path d="M233.3 400L200 433.3L233.3 433.3Z" fill="#090a2b" stroke="#090a2b"></path><path d="M233.3 433.3L200 433.3L233.3 466.7Z" fill="#101442" stroke="#101442"></path><path d="M233.3 466.7L200 466.7L233.3 500Z" fill="#121545" stroke="#121545"></path><path d="M233.3 500L266.7 533.3L266.7 500Z" fill="#101442" stroke="#101442"></path><path d="M200 433.3L200 466.7L233.3 466.7Z" fill="#0b1035" stroke="#0b1035"></path><path d="M366.7 433.3L366.7 400L333.3 433.3Z" fill="#0f133e" stroke="#0f133e"></path><path d="M333.3 400L333.3 366.7L300 400Z" fill="#0a0e31" stroke="#0a0e31"></path><path d="M366.7 400L333.3 366.7L333.3 400Z" fill="#090a2b" stroke="#090a2b"></path><path d="M266.7 366.7L233.3 366.7L233.3 400Z" fill="#0a0c2e" stroke="#0a0c2e"></path><path d="M233.3 400L200 400L200 433.3Z" fill="#0a0c2e" stroke="#0a0c2e"></path><path d="M333.3 533.3L366.7 500L333.3 500Z" fill="#0d123b" stroke="#0d123b"></path><path d="M333.3 500L366.7 500L333.3 466.7Z" fill="#0a0c2e" stroke="#0a0c2e"></path><path d="M233.3 366.7L200 400L233.3 400Z" fill="#101442" stroke="#101442"></path><path d="M300 533.3L333.3 533.3L300 500Z" fill="#0a0c2e" stroke="#0a0c2e"></path><path d="M200 500L233.3 533.3L233.3 500Z" fill="#101442" stroke="#101442"></path><path d="M233.3 500L233.3 533.3L266.7 533.3Z" fill="#0c1138" stroke="#0c1138"></path><path d="M200 466.7L200 500L233.3 500Z" fill="#0b1035" stroke="#0b1035"></path><path d="M333.3 333.3L300 333.3L300 366.7Z" fill="#16174c" stroke="#16174c"></path><path d="M300 366.7L300 333.3L266.7 366.7Z" fill="#121545" stroke="#121545"></path><path d="M266.7 366.7L266.7 333.3L233.3 366.7Z" fill="#101442" stroke="#101442"></path><path d="M366.7 466.7L400 433.3L366.7 433.3Z" fill="#0b1035" stroke="#0b1035"></path><path d="M366.7 433.3L400 400L366.7 400Z" fill="#0c1138" stroke="#0c1138"></path><path d="M400 466.7L400 433.3L366.7 466.7Z" fill="#090a2b" stroke="#090a2b"></path><path d="M400 500L400 466.7L366.7 466.7Z" fill="#0a0e31" stroke="#0a0e31"></path><path d="M300 333.3L266.7 333.3L266.7 366.7Z" fill="#0d123b" stroke="#0d123b"></path><path d="M400 400L366.7 366.7L366.7 400Z" fill="#0a0c2e" stroke="#0a0c2e"></path><path d="M366.7 400L366.7 366.7L333.3 366.7Z" fill="#141649" stroke="#141649"></path><path d="M333.3 366.7L333.3 333.3L300 366.7Z" fill="#121545" stroke="#121545"></path><path d="M333.3 533.3L366.7 533.3L366.7 500Z" fill="#0a0e31" stroke="#0a0e31"></path><path d="M366.7 500L400 500L366.7 466.7Z" fill="#0a0e31" stroke="#0a0e31"></path><path d="M233.3 366.7L200 366.7L200 400Z" fill="#0a0e31" stroke="#0a0e31"></path><path d="M233.3 333.3L200 366.7L233.3 366.7Z" fill="#0a0c2e" stroke="#0a0c2e"></path><path d="M166.7 400L166.7 433.3L200 433.3Z" fill="#0b1035" stroke="#0b1035"></path><path d="M200 433.3L166.7 433.3L200 466.7Z" fill="#121545" stroke="#121545"></path><path d="M200 466.7L166.7 500L200 500Z" fill="#0d123b" stroke="#0d123b"></path><path d="M166.7 400L200 433.3L200 400Z" fill="#0d123b" stroke="#0d123b"></path><path d="M166.7 433.3L166.7 466.7L200 466.7Z" fill="#101442" stroke="#101442"></path><path d="M166.7 500L200 533.3L200 500Z" fill="#0f133e" stroke="#0f133e"></path><path d="M200 500L200 533.3L233.3 533.3Z" fill="#090a2b" stroke="#090a2b"></path><path d="M266.7 566.7L300 566.7L300 533.3Z" fill="#090a2b" stroke="#090a2b"></path><path d="M300 533.3L300 566.7L333.3 533.3Z" fill="#0f133e" stroke="#0f133e"></path><path d="M333.3 533.3L366.7 566.7L366.7 533.3Z" fill="#0d123b" stroke="#0d123b"></path><path d="M266.7 566.7L300 533.3L266.7 533.3Z" fill="#0a0c2e" stroke="#0a0c2e"></path><path d="M266.7 566.7L266.7 533.3L233.3 533.3Z" fill="#121545" stroke="#121545"></path><path d="M233.3 566.7L266.7 566.7L233.3 533.3Z" fill="#0b1035" stroke="#0b1035"></path><path d="M400 433.3L400 400L366.7 433.3Z" fill="#0c1138" stroke="#0c1138"></path><path d="M366.7 366.7L333.3 333.3L333.3 366.7Z" fill="#090a2b" stroke="#090a2b"></path><path d="M266.7 333.3L233.3 333.3L233.3 366.7Z" fill="#121545" stroke="#121545"></path><path d="M366.7 533.3L400 500L366.7 500Z" fill="#121545" stroke="#121545"></path><path d="M200 366.7L166.7 400L200 400Z" fill="#16174c" stroke="#16174c"></path><path d="M166.7 466.7L166.7 500L200 466.7Z" fill="#141649" stroke="#141649"></path><path d="M300 566.7L333.3 566.7L333.3 533.3Z" fill="#0a0e31" stroke="#0a0e31"></path><path d="M366.7 533.3L400 533.3L400 500Z" fill="#101442" stroke="#101442"></path><path d="M200 566.7L233.3 566.7L200 533.3Z" fill="#0d123b" stroke="#0d123b"></path><path d="M200 533.3L233.3 566.7L233.3 533.3Z" fill="#0a0e31" stroke="#0a0e31"></path><path d="M400 366.7L366.7 333.3L366.7 366.7Z" fill="#0f133e" stroke="#0f133e"></path><path d="M366.7 366.7L366.7 333.3L333.3 333.3Z" fill="#0b1035" stroke="#0b1035"></path><path d="M400 400L400 366.7L366.7 366.7Z" fill="#0c1138" stroke="#0c1138"></path><path d="M233.3 333.3L200 333.3L200 366.7Z" fill="#0c1138" stroke="#0c1138"></path><path d="M200 366.7L166.7 366.7L166.7 400Z" fill="#0b1035" stroke="#0b1035"></path><path d="M400 566.7L400 533.3L366.7 533.3Z" fill="#0f133e" stroke="#0f133e"></path><path d="M200 333.3L166.7 366.7L200 366.7Z" fill="#141649" stroke="#141649"></path><path d="M166.7 500L166.7 533.3L200 533.3Z" fill="#0c1138" stroke="#0c1138"></path><path d="M333.3 566.7L366.7 566.7L333.3 533.3Z" fill="#121545" stroke="#121545"></path><path d="M166.7 566.7L200 566.7L200 533.3Z" fill="#141649" stroke="#141649"></path><path d="M233.3 566.7L266.7 600L266.7 566.7Z" fill="#090a2b" stroke="#090a2b"></path><path d="M266.7 566.7L266.7 600L300 566.7Z" fill="#090a2b" stroke="#090a2b"></path><path d="M300 566.7L300 600L333.3 566.7Z" fill="#0a0c2e" stroke="#0a0c2e"></path><path d="M333.3 566.7L333.3 600L366.7 566.7Z" fill="#090a2b" stroke="#090a2b"></path><path d="M233.3 600L266.7 600L233.3 566.7Z" fill="#101442" stroke="#101442"></path><path d="M266.7 600L300 600L300 566.7Z" fill="#0a0c2e" stroke="#0a0c2e"></path><path d="M300 300L266.7 300L266.7 333.3Z" fill="#141649" stroke="#141649"></path><path d="M266.7 333.3L266.7 300L233.3 333.3Z" fill="#0c1138" stroke="#0c1138"></path><path d="M233.3 333.3L233.3 300L200 333.3Z" fill="#0f133e" stroke="#0f133e"></path><path d="M300 300L266.7 333.3L300 333.3Z" fill="#090a2b" stroke="#090a2b"></path><path d="M300 300L300 333.3L333.3 333.3Z" fill="#16174c" stroke="#16174c"></path><path d="M333.3 300L300 300L333.3 333.3Z" fill="#101442" stroke="#101442"></path><path d="M400 500L433.3 466.7L400 466.7Z" fill="#141649" stroke="#141649"></path><path d="M400 466.7L433.3 433.3L400 433.3Z" fill="#0a0e31" stroke="#0a0e31"></path><path d="M400 433.3L433.3 433.3L400 400Z" fill="#0a0e31" stroke="#0a0e31"></path><path d="M400 400L433.3 366.7L400 366.7Z" fill="#16174c" stroke="#16174c"></path><path d="M433.3 500L433.3 466.7L400 500Z" fill="#0d123b" stroke="#0d123b"></path><path d="M433.3 466.7L433.3 433.3L400 466.7Z" fill="#0a0c2e" stroke="#0a0c2e"></path><path d="M166.7 433.3L133.3 466.7L166.7 466.7Z" fill="#0c1138" stroke="#0c1138"></path><path d="M166.7 466.7L133.3 466.7L166.7 500Z" fill="#121545" stroke="#121545"></path><path d="M166.7 500L133.3 500L166.7 533.3Z" fill="#101442" stroke="#101442"></path><path d="M133.3 433.3L133.3 466.7L166.7 433.3Z" fill="#0b1035" stroke="#0b1035"></path><path d="M133.3 433.3L166.7 433.3L166.7 400Z" fill="#0a0c2e" stroke="#0a0c2e"></path><path d="M133.3 400L133.3 433.3L166.7 400Z" fill="#0b1035" stroke="#0b1035"></path><path d="M300 600L333.3 600L333.3 566.7Z" fill="#121545" stroke="#121545"></path><path d="M433.3 433.3L433.3 400L400 400Z" fill="#101442" stroke="#101442"></path><path d="M366.7 300L333.3 333.3L366.7 333.3Z" fill="#0f133e" stroke="#0f133e"></path><path d="M400 333.3L366.7 333.3L400 366.7Z" fill="#121545" stroke="#121545"></path><path d="M366.7 300L333.3 300L333.3 333.3Z" fill="#0b1035" stroke="#0b1035"></path><path d="M200 566.7L233.3 600L233.3 566.7Z" fill="#0a0e31" stroke="#0a0e31"></path><path d="M266.7 300L233.3 300L233.3 333.3Z" fill="#0b1035" stroke="#0b1035"></path><path d="M200 333.3L166.7 333.3L166.7 366.7Z" fill="#0c1138" stroke="#0c1138"></path><path d="M133.3 366.7L133.3 400L166.7 366.7Z" fill="#090a2b" stroke="#090a2b"></path><path d="M166.7 366.7L133.3 400L166.7 400Z" fill="#0a0c2e" stroke="#0a0c2e"></path><path d="M433.3 533.3L400 500L400 533.3Z" fill="#121545" stroke="#121545"></path><path d="M433.3 533.3L433.3 500L400 500Z" fill="#121545" stroke="#121545"></path><path d="M133.3 466.7L133.3 500L166.7 500Z" fill="#0b1035" stroke="#0b1035"></path><path d="M166.7 533.3L166.7 566.7L200 533.3Z" fill="#141649" stroke="#141649"></path><path d="M433.3 333.3L400 333.3L400 366.7Z" fill="#101442" stroke="#101442"></path><path d="M166.7 300L166.7 333.3L200 333.3Z" fill="#16174c" stroke="#16174c"></path><path d="M366.7 600L400 566.7L366.7 566.7Z" fill="#141649" stroke="#141649"></path><path d="M366.7 566.7L400 566.7L366.7 533.3Z" fill="#0d123b" stroke="#0d123b"></path><path d="M133.3 533.3L166.7 566.7L166.7 533.3Z" fill="#090a2b" stroke="#090a2b"></path><path d="M200 566.7L200 600L233.3 600Z" fill="#0a0e31" stroke="#0a0e31"></path><path d="M433.3 400L433.3 366.7L400 400Z" fill="#0a0e31" stroke="#0a0e31"></path><path d="M333.3 600L366.7 600L366.7 566.7Z" fill="#141649" stroke="#141649"></path><path d="M400 300L366.7 333.3L400 333.3Z" fill="#0a0c2e" stroke="#0a0c2e"></path><path d="M400 300L366.7 300L366.7 333.3Z" fill="#090a2b" stroke="#090a2b"></path><path d="M166.7 333.3L133.3 366.7L166.7 366.7Z" fill="#0f133e" stroke="#0f133e"></path><path d="M400 566.7L433.3 533.3L400 533.3Z" fill="#090a2b" stroke="#090a2b"></path><path d="M233.3 300L200 300L200 333.3Z" fill="#101442" stroke="#101442"></path><path d="M166.7 333.3L133.3 333.3L133.3 366.7Z" fill="#0f133e" stroke="#0f133e"></path><path d="M166.7 566.7L200 600L200 566.7Z" fill="#101442" stroke="#101442"></path><path d="M133.3 500L133.3 533.3L166.7 533.3Z" fill="#0a0c2e" stroke="#0a0c2e"></path><path d="M333.3 266.7L300 266.7L300 300Z" fill="#090a2b" stroke="#090a2b"></path><path d="M300 300L300 266.7L266.7 300Z" fill="#0d123b" stroke="#0d123b"></path><path d="M266.7 300L266.7 266.7L233.3 300Z" fill="#0f133e" stroke="#0f133e"></path><path d="M233.3 300L233.3 266.7L200 300Z" fill="#0c1138" stroke="#0c1138"></path><path d="M333.3 266.7L300 300L333.3 300Z" fill="#0f133e" stroke="#0f133e"></path><path d="M433.3 466.7L466.7 433.3L433.3 433.3Z" fill="#0c1138" stroke="#0c1138"></path><path d="M433.3 433.3L466.7 400L433.3 400Z" fill="#090a2b" stroke="#090a2b"></path><path d="M433.3 400L466.7 400L433.3 366.7Z" fill="#141649" stroke="#141649"></path><path d="M466.7 466.7L466.7 433.3L433.3 466.7Z" fill="#0f133e" stroke="#0f133e"></path><path d="M466.7 466.7L433.3 466.7L466.7 500Z" fill="#101442" stroke="#101442"></path><path d="M466.7 500L433.3 466.7L433.3 500Z" fill="#141649" stroke="#141649"></path><path d="M300 266.7L266.7 266.7L266.7 300Z" fill="#121545" stroke="#121545"></path><path d="M133.3 400L100 433.3L133.3 433.3Z" fill="#16174c" stroke="#16174c"></path><path d="M133.3 433.3L100 433.3L133.3 466.7Z" fill="#0c1138" stroke="#0c1138"></path><path d="M133.3 466.7L100 466.7L133.3 500Z" fill="#141649" stroke="#141649"></path><path d="M133.3 500L100 500L133.3 533.3Z" fill="#0f133e" stroke="#0f133e"></path><path d="M100 400L100 433.3L133.3 400Z" fill="#121545" stroke="#121545"></path><path d="M266.7 633.3L300 633.3L300 600Z" fill="#0a0e31" stroke="#0a0e31"></path><path d="M300 600L300 633.3L333.3 600Z" fill="#0f133e" stroke="#0f133e"></path><path d="M333.3 600L366.7 633.3L366.7 600Z" fill="#0a0c2e" stroke="#0a0c2e"></path><path d="M266.7 633.3L300 600L266.7 600Z" fill="#101442" stroke="#101442"></path><path d="M266.7 633.3L266.7 600L233.3 600Z" fill="#141649" stroke="#141649"></path><path d="M100 433.3L100 466.7L133.3 466.7Z" fill="#141649" stroke="#141649"></path><path d="M233.3 633.3L266.7 633.3L233.3 600Z" fill="#0a0e31" stroke="#0a0e31"></path><path d="M266.7 266.7L233.3 266.7L233.3 300Z" fill="#090a2b" stroke="#090a2b"></path><path d="M466.7 366.7L433.3 333.3L433.3 366.7Z" fill="#101442" stroke="#101442"></path><path d="M433.3 366.7L433.3 333.3L400 366.7Z" fill="#121545" stroke="#121545"></path><path d="M433.3 333.3L400 300L400 333.3Z" fill="#0d123b" stroke="#0d123b"></path><path d="M366.7 300L333.3 266.7L333.3 300Z" fill="#0a0e31" stroke="#0a0e31"></path><path d="M366.7 600L400 600L400 566.7Z" fill="#090a2b" stroke="#090a2b"></path><path d="M400 566.7L433.3 566.7L433.3 533.3Z" fill="#121545" stroke="#121545"></path><path d="M400 633.3L400 600L366.7 600Z" fill="#0a0e31" stroke="#0a0e31"></path><path d="M466.7 433.3L466.7 400L433.3 433.3Z" fill="#101442" stroke="#101442"></path><path d="M366.7 266.7L333.3 266.7L366.7 300Z" fill="#0d123b" stroke="#0d123b"></path><path d="M166.7 300L133.3 333.3L166.7 333.3Z" fill="#090a2b" stroke="#090a2b"></path><path d="M133.3 366.7L100 400L133.3 400Z" fill="#0d123b" stroke="#0d123b"></path><path d="M166.7 300L200 333.3L200 300Z" fill="#0c1138" stroke="#0c1138"></path><path d="M466.7 533.3L466.7 500L433.3 533.3Z" fill="#0b1035" stroke="#0b1035"></path><path d="M433.3 533.3L466.7 500L433.3 500Z" fill="#0a0e31" stroke="#0a0e31"></path><path d="M166.7 566.7L166.7 600L200 600Z" fill="#090a2b" stroke="#090a2b"></path><path d="M200 600L233.3 633.3L233.3 600Z" fill="#101442" stroke="#101442"></path><path d="M133.3 566.7L166.7 600L166.7 566.7Z" fill="#0a0c2e" stroke="#0a0c2e"></path><path d="M200 266.7L166.7 300L200 300Z" fill="#0a0c2e" stroke="#0a0c2e"></path><path d="M300 633.3L333.3 633.3L333.3 600Z" fill="#0f133e" stroke="#0f133e"></path><path d="M100 366.7L100 400L133.3 366.7Z" fill="#141649" stroke="#141649"></path><path d="M200 633.3L233.3 633.3L200 600Z" fill="#0b1035" stroke="#0b1035"></path><path d="M100 466.7L100 500L133.3 500Z" fill="#101442" stroke="#101442"></path><path d="M133.3 533.3L133.3 566.7L166.7 566.7Z" fill="#121545" stroke="#121545"></path><path d="M400 600L433.3 566.7L400 566.7Z" fill="#121545" stroke="#121545"></path><path d="M100 533.3L133.3 566.7L133.3 533.3Z" fill="#121545" stroke="#121545"></path><path d="M466.7 400L466.7 366.7L433.3 366.7Z" fill="#0b1035" stroke="#0b1035"></path><path d="M400 300L366.7 266.7L366.7 300Z" fill="#16174c" stroke="#16174c"></path><path d="M233.3 266.7L200 266.7L200 300Z" fill="#0c1138" stroke="#0c1138"></path><path d="M466.7 566.7L466.7 533.3L433.3 533.3Z" fill="#0a0e31" stroke="#0a0e31"></path><path d="M333.3 633.3L366.7 633.3L333.3 600Z" fill="#101442" stroke="#101442"></path><path d="M400 600L433.3 600L433.3 566.7Z" fill="#121545" stroke="#121545"></path><path d="M133.3 333.3L100 366.7L133.3 366.7Z" fill="#0a0c2e" stroke="#0a0c2e"></path><path d="M100 333.3L100 366.7L133.3 333.3Z" fill="#0a0e31" stroke="#0a0e31"></path><path d="M100 500L100 533.3L133.3 533.3Z" fill="#0a0c2e" stroke="#0a0c2e"></path><path d="M166.7 633.3L200 633.3L200 600Z" fill="#0b1035" stroke="#0b1035"></path><path d="M166.7 633.3L200 600L166.7 600Z" fill="#0a0c2e" stroke="#0a0c2e"></path><path d="M466.7 300L433.3 300L433.3 333.3Z" fill="#090a2b" stroke="#090a2b"></path><path d="M433.3 333.3L433.3 300L400 300Z" fill="#0b1035" stroke="#0b1035"></path><path d="M400 300L400 266.7L366.7 266.7Z" fill="#16174c" stroke="#16174c"></path><path d="M400 633.3L433.3 600L400 600Z" fill="#141649" stroke="#141649"></path><path d="M433.3 566.7L466.7 566.7L433.3 533.3Z" fill="#0c1138" stroke="#0c1138"></path><path d="M166.7 266.7L133.3 300L166.7 300Z" fill="#0a0e31" stroke="#0a0e31"></path><path d="M166.7 300L133.3 300L133.3 333.3Z" fill="#0c1138" stroke="#0c1138"></path><path d="M100 566.7L133.3 600L133.3 566.7Z" fill="#16174c" stroke="#16174c"></path><path d="M133.3 566.7L133.3 600L166.7 600Z" fill="#141649" stroke="#141649"></path><path d="M433.3 266.7L400 266.7L400 300Z" fill="#090a2b" stroke="#090a2b"></path><path d="M466.7 366.7L466.7 333.3L433.3 333.3Z" fill="#0b1035" stroke="#0b1035"></path><path d="M333.3 266.7L300 233.3L300 266.7Z" fill="#0d123b" stroke="#0d123b"></path><path d="M300 266.7L300 233.3L266.7 266.7Z" fill="#121545" stroke="#121545"></path><path d="M266.7 266.7L233.3 233.3L233.3 266.7Z" fill="#0f133e" stroke="#0f133e"></path><path d="M233.3 266.7L200 233.3L200 266.7Z" fill="#101442" stroke="#101442"></path><path d="M333.3 233.3L300 233.3L333.3 266.7Z" fill="#0a0c2e" stroke="#0a0c2e"></path><path d="M333.3 233.3L333.3 266.7L366.7 266.7Z" fill="#0b1035" stroke="#0b1035"></path><path d="M200 233.3L166.7 266.7L200 266.7Z" fill="#0b1035" stroke="#0b1035"></path><path d="M200 266.7L166.7 266.7L166.7 300Z" fill="#0b1035" stroke="#0b1035"></path><path d="M300 233.3L266.7 233.3L266.7 266.7Z" fill="#0f133e" stroke="#0f133e"></path><path d="M133.3 300L100 333.3L133.3 333.3Z" fill="#0c1138" stroke="#0c1138"></path><path d="M100 400L66.7 433.3L100 433.3Z" fill="#0d123b" stroke="#0d123b"></path><path d="M100 433.3L66.7 433.3L100 466.7Z" fill="#141649" stroke="#141649"></path><path d="M100 466.7L66.7 466.7L100 500Z" fill="#0a0e31" stroke="#0a0e31"></path><path d="M100 500L66.7 500L100 533.3Z" fill="#0b1035" stroke="#0b1035"></path><path d="M66.7 400L66.7 433.3L100 400Z" fill="#0b1035" stroke="#0b1035"></path><path d="M66.7 400L100 400L100 366.7Z" fill="#101442" stroke="#101442"></path><path d="M500 466.7L500 433.3L466.7 433.3Z" fill="#0a0e31" stroke="#0a0e31"></path><path d="M466.7 433.3L500 433.3L466.7 400Z" fill="#0a0e31" stroke="#0a0e31"></path><path d="M466.7 400L500 366.7L466.7 366.7Z" fill="#0c1138" stroke="#0c1138"></path><path d="M466.7 366.7L500 333.3L466.7 333.3Z" fill="#090a2b" stroke="#090a2b"></path><path d="M500 466.7L466.7 433.3L466.7 466.7Z" fill="#0a0c2e" stroke="#0a0c2e"></path><path d="M500 466.7L466.7 466.7L466.7 500Z" fill="#16174c" stroke="#16174c"></path><path d="M366.7 633.3L400 633.3L366.7 600Z" fill="#0b1035" stroke="#0b1035"></path><path d="M66.7 433.3L66.7 466.7L100 466.7Z" fill="#090a2b" stroke="#090a2b"></path><path d="M466.7 600L466.7 566.7L433.3 600Z" fill="#101442" stroke="#101442"></path><path d="M433.3 600L466.7 566.7L433.3 566.7Z" fill="#121545" stroke="#121545"></path><path d="M500 500L500 466.7L466.7 500Z" fill="#0a0c2e" stroke="#0a0c2e"></path><path d="M500 500L466.7 500L500 533.3Z" fill="#0f133e" stroke="#0f133e"></path><path d="M133.3 600L166.7 633.3L166.7 600Z" fill="#0c1138" stroke="#0c1138"></path><path d="M266.7 666.7L300 666.7L300 633.3Z" fill="#141649" stroke="#141649"></path><path d="M300 633.3L300 666.7L333.3 633.3Z" fill="#0f133e" stroke="#0f133e"></path><path d="M333.3 633.3L366.7 666.7L366.7 633.3Z" fill="#101442" stroke="#101442"></path><path d="M366.7 633.3L400 666.7L400 633.3Z" fill="#0c1138" stroke="#0c1138"></path><path d="M266.7 666.7L300 633.3L266.7 633.3Z" fill="#0c1138" stroke="#0c1138"></path><path d="M266.7 666.7L266.7 633.3L233.3 633.3Z" fill="#0d123b" stroke="#0d123b"></path><path d="M266.7 666.7L233.3 633.3L233.3 666.7Z" fill="#141649" stroke="#141649"></path><path d="M233.3 666.7L233.3 633.3L200 633.3Z" fill="#0d123b" stroke="#0d123b"></path><path d="M100 533.3L100 566.7L133.3 566.7Z" fill="#0f133e" stroke="#0f133e"></path><path d="M133.3 600L133.3 633.3L166.7 633.3Z" fill="#0c1138" stroke="#0c1138"></path><path d="M66.7 533.3L100 566.7L100 533.3Z" fill="#0c1138" stroke="#0c1138"></path><path d="M266.7 233.3L233.3 233.3L266.7 266.7Z" fill="#0b1035" stroke="#0b1035"></path><path d="M366.7 233.3L333.3 233.3L366.7 266.7Z" fill="#0a0c2e" stroke="#0a0c2e"></path><path d="M500 433.3L500 400L466.7 400Z" fill="#141649" stroke="#141649"></path><path d="M66.7 366.7L66.7 400L100 366.7Z" fill="#141649" stroke="#141649"></path><path d="M500 533.3L466.7 500L466.7 533.3Z" fill="#0d123b" stroke="#0d123b"></path><path d="M66.7 466.7L66.7 500L100 500Z" fill="#0d123b" stroke="#0d123b"></path><path d="M300 666.7L333.3 666.7L333.3 633.3Z" fill="#0b1035" stroke="#0b1035"></path><path d="M200 666.7L233.3 666.7L200 633.3Z" fill="#16174c" stroke="#16174c"></path><path d="M400 266.7L366.7 233.3L366.7 266.7Z" fill="#121545" stroke="#121545"></path><path d="M400 233.3L366.7 233.3L400 266.7Z" fill="#16174c" stroke="#16174c"></path><path d="M100 333.3L66.7 366.7L100 366.7Z" fill="#0c1138" stroke="#0c1138"></path><path d="M66.7 333.3L66.7 366.7L100 333.3Z" fill="#090a2b" stroke="#090a2b"></path><path d="M500 400L500 366.7L466.7 400Z" fill="#0a0e31" stroke="#0a0e31"></path><path d="M466.7 333.3L466.7 300L433.3 333.3Z" fill="#0c1138" stroke="#0c1138"></path><path d="M233.3 233.3L200 233.3L233.3 266.7Z" fill="#0b1035" stroke="#0b1035"></path><path d="M166.7 266.7L133.3 266.7L133.3 300Z" fill="#090a2b" stroke="#090a2b"></path><path d="M66.7 500L66.7 533.3L100 533.3Z" fill="#0c1138" stroke="#0c1138"></path><path d="M466.7 566.7L500 533.3L466.7 533.3Z" fill="#121545" stroke="#121545"></path><path d="M333.3 666.7L366.7 666.7L333.3 633.3Z" fill="#0c1138" stroke="#0c1138"></path><path d="M466.7 633.3L466.7 600L433.3 600Z" fill="#141649" stroke="#141649"></path><path d="M166.7 666.7L200 666.7L200 633.3Z" fill="#090a2b" stroke="#090a2b"></path><path d="M166.7 666.7L200 633.3L166.7 633.3Z" fill="#0d123b" stroke="#0d123b"></path><path d="M433.3 633.3L433.3 600L400 633.3Z" fill="#0b1035" stroke="#0b1035"></path><path d="M466.7 566.7L500 566.7L500 533.3Z" fill="#0f133e" stroke="#0f133e"></path><path d="M500 333.3L466.7 300L466.7 333.3Z" fill="#16174c" stroke="#16174c"></path><path d="M433.3 300L433.3 266.7L400 300Z" fill="#090a2b" stroke="#090a2b"></path><path d="M466.7 300L433.3 266.7L433.3 300Z" fill="#121545" stroke="#121545"></path><path d="M133.3 233.3L133.3 266.7L166.7 266.7Z" fill="#0c1138" stroke="#0c1138"></path><path d="M133.3 300L100 300L100 333.3Z" fill="#090a2b" stroke="#090a2b"></path><path d="M66.7 566.7L100 600L100 566.7Z" fill="#16174c" stroke="#16174c"></path><path d="M100 566.7L100 600L133.3 600Z" fill="#0a0c2e" stroke="#0a0c2e"></path><path d="M400 666.7L433.3 633.3L400 633.3Z" fill="#141649" stroke="#141649"></path><path d="M133.3 266.7L100 300L133.3 300Z" fill="#0f133e" stroke="#0f133e"></path><path d="M100 600L133.3 633.3L133.3 600Z" fill="#0d123b" stroke="#0d123b"></path><path d="M433.3 266.7L400 233.3L400 266.7Z" fill="#101442" stroke="#101442"></path><path d="M100 300L66.7 333.3L100 333.3Z" fill="#0d123b" stroke="#0d123b"></path><path d="M500 366.7L500 333.3L466.7 366.7Z" fill="#16174c" stroke="#16174c"></path><path d="M200 233.3L166.7 233.3L166.7 266.7Z" fill="#0d123b" stroke="#0d123b"></path><path d="M133.3 266.7L100 266.7L100 300Z" fill="#141649" stroke="#141649"></path><path d="M366.7 666.7L400 666.7L366.7 633.3Z" fill="#16174c" stroke="#16174c"></path><path d="M500 600L500 566.7L466.7 600Z" fill="#090a2b" stroke="#090a2b"></path><path d="M466.7 600L500 566.7L466.7 566.7Z" fill="#0c1138" stroke="#0c1138"></path><path d="M466.7 633.3L433.3 600L433.3 633.3Z" fill="#141649" stroke="#141649"></path><path d="M66.7 533.3L66.7 566.7L100 566.7Z" fill="#141649" stroke="#141649"></path><path d="M100 600L100 633.3L133.3 633.3Z" fill="#0d123b" stroke="#0d123b"></path><path d="M133.3 666.7L166.7 666.7L133.3 633.3Z" fill="#0f133e" stroke="#0f133e"></path><path d="M133.3 633.3L166.7 666.7L166.7 633.3Z" fill="#16174c" stroke="#16174c"></path><path d="M333.3 233.3L300 200L300 233.3Z" fill="#121545" stroke="#121545"></path><path d="M300 233.3L300 200L266.7 233.3Z" fill="#0f133e" stroke="#0f133e"></path><path d="M266.7 233.3L233.3 200L233.3 233.3Z" fill="#0a0c2e" stroke="#0a0c2e"></path><path d="M233.3 233.3L200 200L200 233.3Z" fill="#0b1035" stroke="#0b1035"></path><path d="M200 233.3L200 200L166.7 233.3Z" fill="#0a0c2e" stroke="#0a0c2e"></path><path d="M333.3 200L300 200L333.3 233.3Z" fill="#0a0e31" stroke="#0a0e31"></path><path d="M333.3 200L333.3 233.3L366.7 233.3Z" fill="#0c1138" stroke="#0c1138"></path><path d="M500 466.7L533.3 433.3L500 433.3Z" fill="#121545" stroke="#121545"></path><path d="M500 433.3L533.3 400L500 400Z" fill="#0f133e" stroke="#0f133e"></path><path d="M500 400L533.3 400L500 366.7Z" fill="#16174c" stroke="#16174c"></path><path d="M500 366.7L533.3 366.7L500 333.3Z" fill="#0a0c2e" stroke="#0a0c2e"></path><path d="M533.3 466.7L533.3 433.3L500 466.7Z" fill="#16174c" stroke="#16174c"></path><path d="M533.3 466.7L500 466.7L533.3 500Z" fill="#0a0e31" stroke="#0a0e31"></path><path d="M500 466.7L500 500L533.3 500Z" fill="#16174c" stroke="#16174c"></path><path d="M266.7 666.7L300 700L300 666.7Z" fill="#0b1035" stroke="#0b1035"></path><path d="M300 666.7L300 700L333.3 666.7Z" fill="#0b1035" stroke="#0b1035"></path><path d="M333.3 666.7L333.3 700L366.7 666.7Z" fill="#0b1035" stroke="#0b1035"></path><path d="M366.7 666.7L366.7 700L400 666.7Z" fill="#0a0c2e" stroke="#0a0c2e"></path><path d="M266.7 700L300 700L266.7 666.7Z" fill="#090a2b" stroke="#090a2b"></path><path d="M266.7 700L266.7 666.7L233.3 666.7Z" fill="#141649" stroke="#141649"></path><path d="M266.7 700L233.3 666.7L233.3 700Z" fill="#16174c" stroke="#16174c"></path><path d="M533.3 500L500 500L500 533.3Z" fill="#0c1138" stroke="#0c1138"></path><path d="M233.3 700L233.3 666.7L200 666.7Z" fill="#141649" stroke="#141649"></path><path d="M300 200L266.7 200L266.7 233.3Z" fill="#0a0e31" stroke="#0a0e31"></path><path d="M66.7 400L33.3 433.3L66.7 433.3Z" fill="#0f133e" stroke="#0f133e"></path><path d="M66.7 433.3L33.3 433.3L66.7 466.7Z" fill="#090a2b" stroke="#090a2b"></path><path d="M66.7 466.7L33.3 466.7L66.7 500Z" fill="#16174c" stroke="#16174c"></path><path d="M66.7 500L33.3 500L66.7 533.3Z" fill="#141649" stroke="#141649"></path><path d="M66.7 533.3L33.3 533.3L66.7 566.7Z" fill="#0a0c2e" stroke="#0a0c2e"></path><path d="M33.3 400L33.3 433.3L66.7 400Z" fill="#141649" stroke="#141649"></path><path d="M33.3 400L66.7 400L66.7 366.7Z" fill="#141649" stroke="#141649"></path><path d="M33.3 433.3L33.3 466.7L66.7 466.7Z" fill="#0c1138" stroke="#0c1138"></path><path d="M266.7 200L233.3 200L266.7 233.3Z" fill="#0a0e31" stroke="#0a0e31"></path><path d="M533.3 433.3L533.3 400L500 433.3Z" fill="#0c1138" stroke="#0c1138"></path><path d="M366.7 200L333.3 200L366.7 233.3Z" fill="#0c1138" stroke="#0c1138"></path><path d="M200 700L233.3 700L200 666.7Z" fill="#0f133e" stroke="#0f133e"></path><path d="M300 700L333.3 700L333.3 666.7Z" fill="#0a0c2e" stroke="#0a0c2e"></path><path d="M533.3 533.3L533.3 500L500 533.3Z" fill="#0d123b" stroke="#0d123b"></path><path d="M33.3 366.7L33.3 400L66.7 366.7Z" fill="#0d123b" stroke="#0d123b"></path><path d="M33.3 466.7L33.3 500L66.7 500Z" fill="#090a2b" stroke="#090a2b"></path><path d="M500 266.7L466.7 266.7L466.7 300Z" fill="#0a0e31" stroke="#0a0e31"></path><path d="M466.7 300L466.7 266.7L433.3 266.7Z" fill="#121545" stroke="#121545"></path><path d="M433.3 266.7L433.3 233.3L400 233.3Z" fill="#0a0c2e" stroke="#0a0c2e"></path><path d="M400 233.3L366.7 200L366.7 233.3Z" fill="#0a0e31" stroke="#0a0e31"></path><path d="M100 300L66.7 300L66.7 333.3Z" fill="#0c1138" stroke="#0c1138"></path><path d="M66.7 333.3L33.3 366.7L66.7 366.7Z" fill="#0a0c2e" stroke="#0a0c2e"></path><path d="M100 233.3L100 266.7L133.3 266.7Z" fill="#0a0e31" stroke="#0a0e31"></path><path d="M466.7 666.7L466.7 633.3L433.3 633.3Z" fill="#0a0c2e" stroke="#0a0c2e"></path><path d="M66.7 600L100 633.3L100 600Z" fill="#16174c" stroke="#16174c"></path><path d="M333.3 700L366.7 700L366.7 666.7Z" fill="#0b1035" stroke="#0b1035"></path><path d="M400 666.7L433.3 666.7L433.3 633.3Z" fill="#101442" stroke="#101442"></path><path d="M133.3 200L133.3 233.3L166.7 233.3Z" fill="#0a0e31" stroke="#0a0e31"></path><path d="M166.7 233.3L133.3 233.3L166.7 266.7Z" fill="#0a0c2e" stroke="#0a0c2e"></path><path d="M400 200L366.7 200L400 233.3Z" fill="#121545" stroke="#121545"></path><path d="M466.7 266.7L433.3 233.3L433.3 266.7Z" fill="#16174c" stroke="#16174c"></path><path d="M533.3 400L533.3 366.7L500 366.7Z" fill="#0b1035" stroke="#0b1035"></path><path d="M500 333.3L500 300L466.7 300Z" fill="#121545" stroke="#121545"></path><path d="M33.3 333.3L33.3 366.7L66.7 333.3Z" fill="#16174c" stroke="#16174c"></path><path d="M100 266.7L66.7 300L100 300Z" fill="#141649" stroke="#141649"></path><path d="M166.7 666.7L200 700L200 666.7Z" fill="#0d123b" stroke="#0d123b"></path><path d="M166.7 700L200 700L166.7 666.7Z" fill="#16174c" stroke="#16174c"></path><path d="M533.3 566.7L533.3 533.3L500 533.3Z" fill="#141649" stroke="#141649"></path><path d="M533.3 566.7L500 533.3L500 566.7Z" fill="#101442" stroke="#101442"></path><path d="M233.3 200L200 200L233.3 233.3Z" fill="#0a0c2e" stroke="#0a0c2e"></path><path d="M66.7 566.7L66.7 600L100 600Z" fill="#0d123b" stroke="#0d123b"></path><path d="M33.3 600L66.7 600L66.7 566.7Z" fill="#0d123b" stroke="#0d123b"></path><path d="M466.7 633.3L500 600L466.7 600Z" fill="#0a0c2e" stroke="#0a0c2e"></path><path d="M533.3 300L500 300L500 333.3Z" fill="#0d123b" stroke="#0d123b"></path><path d="M466.7 266.7L466.7 233.3L433.3 233.3Z" fill="#101442" stroke="#101442"></path><path d="M400 700L433.3 666.7L400 666.7Z" fill="#0f133e" stroke="#0f133e"></path><path d="M533.3 600L533.3 566.7L500 600Z" fill="#0a0c2e" stroke="#0a0c2e"></path><path d="M33.3 500L33.3 533.3L66.7 533.3Z" fill="#16174c" stroke="#16174c"></path><path d="M100 633.3L133.3 666.7L133.3 633.3Z" fill="#101442" stroke="#101442"></path><path d="M366.7 700L400 700L400 666.7Z" fill="#121545" stroke="#121545"></path><path d="M433.3 233.3L400 200L400 233.3Z" fill="#141649" stroke="#141649"></path><path d="M533.3 366.7L533.3 333.3L500 333.3Z" fill="#16174c" stroke="#16174c"></path><path d="M133.3 666.7L166.7 700L166.7 666.7Z" fill="#090a2b" stroke="#090a2b"></path><path d="M200 200L166.7 200L166.7 233.3Z" fill="#0a0c2e" stroke="#0a0c2e"></path><path d="M500 600L533.3 566.7L500 566.7Z" fill="#0d123b" stroke="#0d123b"></path><path d="M500 633.3L500 600L466.7 633.3Z" fill="#0d123b" stroke="#0d123b"></path><path d="M66.7 300L33.3 333.3L66.7 333.3Z" fill="#101442" stroke="#101442"></path><path d="M33.3 533.3L33.3 566.7L66.7 566.7Z" fill="#121545" stroke="#121545"></path><path d="M66.7 600L66.7 633.3L100 633.3Z" fill="#16174c" stroke="#16174c"></path><path d="M100 633.3L100 666.7L133.3 666.7Z" fill="#0a0c2e" stroke="#0a0c2e"></path><path d="M500 266.7L466.7 233.3L466.7 266.7Z" fill="#0d123b" stroke="#0d123b"></path><path d="M433.3 233.3L433.3 200L400 200Z" fill="#090a2b" stroke="#090a2b"></path><path d="M500 266.7L466.7 300L500 300Z" fill="#0b1035" stroke="#0b1035"></path><path d="M333.3 166.7L300 166.7L300 200Z" fill="#0a0c2e" stroke="#0a0c2e"></path><path d="M300 200L300 166.7L266.7 200Z" fill="#16174c" stroke="#16174c"></path><path d="M266.7 200L266.7 166.7L233.3 200Z" fill="#141649" stroke="#141649"></path><path d="M233.3 200L233.3 166.7L200 200Z" fill="#0d123b" stroke="#0d123b"></path><path d="M200 200L200 166.7L166.7 200Z" fill="#101442" stroke="#101442"></path><path d="M333.3 166.7L300 200L333.3 200Z" fill="#090a2b" stroke="#090a2b"></path><path d="M333.3 166.7L333.3 200L366.7 200Z" fill="#0a0e31" stroke="#0a0e31"></path><path d="M300 166.7L266.7 166.7L266.7 200Z" fill="#090a2b" stroke="#090a2b"></path><path d="M533.3 300L500 266.7L500 300Z" fill="#0f133e" stroke="#0f133e"></path><path d="M100 200L100 233.3L133.3 233.3Z" fill="#0c1138" stroke="#0c1138"></path><path d="M133.3 233.3L100 233.3L133.3 266.7Z" fill="#0a0c2e" stroke="#0a0c2e"></path><path d="M100 266.7L66.7 266.7L66.7 300Z" fill="#141649" stroke="#141649"></path><path d="M66.7 300L33.3 300L33.3 333.3Z" fill="#101442" stroke="#101442"></path><path d="M100 233.3L66.7 266.7L100 266.7Z" fill="#090a2b" stroke="#090a2b"></path><path d="M233.3 700L266.7 733.3L266.7 700Z" fill="#090a2b" stroke="#090a2b"></path><path d="M266.7 700L300 733.3L300 700Z" fill="#0f133e" stroke="#0f133e"></path><path d="M300 700L300 733.3L333.3 700Z" fill="#0a0c2e" stroke="#0a0c2e"></path><path d="M333.3 700L366.7 733.3L366.7 700Z" fill="#0a0e31" stroke="#0a0e31"></path><path d="M366.7 700L400 733.3L400 700Z" fill="#0a0e31" stroke="#0a0e31"></path><path d="M233.3 733.3L266.7 733.3L233.3 700Z" fill="#0a0e31" stroke="#0a0e31"></path><path d="M233.3 733.3L233.3 700L200 700Z" fill="#16174c" stroke="#16174c"></path><path d="M0 400L0 433.3L33.3 400Z" fill="#0b1035" stroke="#0b1035"></path><path d="M33.3 400L0 433.3L33.3 433.3Z" fill="#141649" stroke="#141649"></path><path d="M33.3 433.3L0 433.3L33.3 466.7Z" fill="#101442" stroke="#101442"></path><path d="M33.3 466.7L0 466.7L33.3 500Z" fill="#0c1138" stroke="#0c1138"></path><path d="M33.3 500L0 500L33.3 533.3Z" fill="#121545" stroke="#121545"></path><path d="M33.3 533.3L0 533.3L33.3 566.7Z" fill="#0a0c2e" stroke="#0a0c2e"></path><path d="M0 400L33.3 400L33.3 366.7Z" fill="#0f133e" stroke="#0f133e"></path><path d="M266.7 733.3L300 733.3L266.7 700Z" fill="#101442" stroke="#101442"></path><path d="M533.3 433.3L566.7 433.3L533.3 400Z" fill="#0c1138" stroke="#0c1138"></path><path d="M533.3 400L566.7 366.7L533.3 366.7Z" fill="#090a2b" stroke="#090a2b"></path><path d="M533.3 366.7L566.7 333.3L533.3 333.3Z" fill="#101442" stroke="#101442"></path><path d="M566.7 466.7L566.7 433.3L533.3 433.3Z" fill="#0a0e31" stroke="#0a0e31"></path><path d="M566.7 466.7L533.3 433.3L533.3 466.7Z" fill="#141649" stroke="#141649"></path><path d="M566.7 466.7L533.3 466.7L533.3 500Z" fill="#101442" stroke="#101442"></path><path d="M566.7 466.7L533.3 500L566.7 500Z" fill="#141649" stroke="#141649"></path><path d="M466.7 666.7L433.3 633.3L433.3 666.7Z" fill="#0b1035" stroke="#0b1035"></path><path d="M466.7 666.7L500 633.3L466.7 633.3Z" fill="#101442" stroke="#101442"></path><path d="M566.7 500L533.3 500L566.7 533.3Z" fill="#090a2b" stroke="#090a2b"></path><path d="M433.3 700L466.7 666.7L433.3 666.7Z" fill="#0f133e" stroke="#0f133e"></path><path d="M0 433.3L0 466.7L33.3 466.7Z" fill="#0b1035" stroke="#0b1035"></path><path d="M33.3 600L66.7 633.3L66.7 600Z" fill="#0c1138" stroke="#0c1138"></path><path d="M133.3 666.7L133.3 700L166.7 700Z" fill="#141649" stroke="#141649"></path><path d="M66.7 633.3L100 666.7L100 633.3Z" fill="#101442" stroke="#101442"></path><path d="M266.7 166.7L233.3 166.7L233.3 200Z" fill="#121545" stroke="#121545"></path><path d="M366.7 166.7L333.3 166.7L366.7 200Z" fill="#0f133e" stroke="#0f133e"></path><path d="M566.7 533.3L533.3 500L533.3 533.3Z" fill="#141649" stroke="#141649"></path><path d="M566.7 533.3L533.3 533.3L533.3 566.7Z" fill="#0a0c2e" stroke="#0a0c2e"></path><path d="M0 366.7L0 400L33.3 366.7Z" fill="#0d123b" stroke="#0d123b"></path><path d="M0 366.7L33.3 366.7L33.3 333.3Z" fill="#0f133e" stroke="#0f133e"></path><path d="M0 466.7L0 500L33.3 500Z" fill="#090a2b" stroke="#090a2b"></path><path d="M566.7 433.3L566.7 400L533.3 400Z" fill="#0a0c2e" stroke="#0a0c2e"></path><path d="M533.3 333.3L533.3 300L500 333.3Z" fill="#0b1035" stroke="#0b1035"></path><path d="M200 733.3L233.3 733.3L200 700Z" fill="#141649" stroke="#141649"></path><path d="M200 733.3L200 700L166.7 733.3Z" fill="#101442" stroke="#101442"></path><path d="M300 733.3L333.3 733.3L333.3 700Z" fill="#16174c" stroke="#16174c"></path><path d="M400 700L433.3 700L433.3 666.7Z" fill="#0a0e31" stroke="#0a0e31"></path><path d="M166.7 200L133.3 200L166.7 233.3Z" fill="#141649" stroke="#141649"></path><path d="M166.7 166.7L133.3 200L166.7 200Z" fill="#0f133e" stroke="#0f133e"></path><path d="M566.7 333.3L533.3 300L533.3 333.3Z" fill="#101442" stroke="#101442"></path><path d="M400 733.3L433.3 700L400 700Z" fill="#0a0c2e" stroke="#0a0c2e"></path><path d="M100 666.7L133.3 700L133.3 666.7Z" fill="#0d123b" stroke="#0d123b"></path><path d="M466.7 200L433.3 200L466.7 233.3Z" fill="#16174c" stroke="#16174c"></path><path d="M466.7 233.3L433.3 200L433.3 233.3Z" fill="#0b1035" stroke="#0b1035"></path><path d="M400 200L366.7 166.7L366.7 200Z" fill="#0a0e31" stroke="#0a0e31"></path><path d="M533.3 633.3L533.3 600L500 600Z" fill="#0f133e" stroke="#0f133e"></path><path d="M33.3 266.7L33.3 300L66.7 266.7Z" fill="#16174c" stroke="#16174c"></path><path d="M66.7 266.7L33.3 300L66.7 300Z" fill="#090a2b" stroke="#090a2b"></path><path d="M33.3 566.7L33.3 600L66.7 566.7Z" fill="#0a0e31" stroke="#0a0e31"></path><path d="M0 600L33.3 600L33.3 566.7Z" fill="#0d123b" stroke="#0d123b"></path><path d="M400 166.7L366.7 166.7L400 200Z" fill="#0a0e31" stroke="#0a0e31"></path><path d="M233.3 166.7L200 166.7L200 200Z" fill="#0f133e" stroke="#0f133e"></path><path d="M333.3 733.3L366.7 733.3L333.3 700Z" fill="#121545" stroke="#121545"></path><path d="M566.7 400L566.7 366.7L533.3 400Z" fill="#0a0c2e" stroke="#0a0c2e"></path><path d="M0 333.3L0 366.7L33.3 333.3Z" fill="#0c1138" stroke="#0c1138"></path><path d="M566.7 566.7L566.7 533.3L533.3 566.7Z" fill="#0b1035" stroke="#0b1035"></path><path d="M166.7 733.3L200 700L166.7 700Z" fill="#16174c" stroke="#16174c"></path><path d="M0 500L0 533.3L33.3 533.3Z" fill="#0a0e31" stroke="#0a0e31"></path><path d="M200 166.7L166.7 166.7L166.7 200Z" fill="#0d123b" stroke="#0d123b"></path><path d="M433.3 166.7L400 166.7L400 200Z" fill="#0c1138" stroke="#0c1138"></path><path d="M100 200L66.7 233.3L100 233.3Z" fill="#141649" stroke="#141649"></path><path d="M100 233.3L66.7 233.3L66.7 266.7Z" fill="#101442" stroke="#101442"></path><path d="M100 200L133.3 233.3L133.3 200Z" fill="#121545" stroke="#121545"></path><path d="M533.3 266.7L500 233.3L500 266.7Z" fill="#090a2b" stroke="#090a2b"></path><path d="M500 266.7L500 233.3L466.7 233.3Z" fill="#141649" stroke="#141649"></path><path d="M433.3 200L433.3 166.7L400 200Z" fill="#141649" stroke="#141649"></path><path d="M533.3 266.7L500 266.7L533.3 300Z" fill="#141649" stroke="#141649"></path><path d="M33.3 300L0 333.3L33.3 333.3Z" fill="#0a0c2e" stroke="#0a0c2e"></path><path d="M0 300L0 333.3L33.3 300Z" fill="#101442" stroke="#101442"></path><path d="M366.7 733.3L400 733.3L366.7 700Z" fill="#141649" stroke="#141649"></path><path d="M466.7 700L500 666.7L466.7 666.7Z" fill="#16174c" stroke="#16174c"></path><path d="M133.3 700L166.7 733.3L166.7 700Z" fill="#0d123b" stroke="#0d123b"></path><path d="M133.3 733.3L166.7 733.3L133.3 700Z" fill="#0d123b" stroke="#0d123b"></path><path d="M566.7 366.7L566.7 333.3L533.3 366.7Z" fill="#0a0e31" stroke="#0a0e31"></path><path d="M0 533.3L0 566.7L33.3 566.7Z" fill="#0f133e" stroke="#0f133e"></path><path d="M33.3 633.3L66.7 666.7L66.7 633.3Z" fill="#121545" stroke="#121545"></path><path d="M66.7 633.3L66.7 666.7L100 666.7Z" fill="#0a0e31" stroke="#0a0e31"></path><path d="M533.3 600L566.7 566.7L533.3 566.7Z" fill="#0b1035" stroke="#0b1035"></path><path d="M566.7 600L566.7 566.7L533.3 600Z" fill="#0a0e31" stroke="#0a0e31"></path><path d="M533.3 633.3L500 600L500 633.3Z" fill="#090a2b" stroke="#090a2b"></path><path d="M466.7 700L466.7 666.7L433.3 700Z" fill="#0a0c2e" stroke="#0a0c2e"></path><path d="M466.7 666.7L500 666.7L500 633.3Z" fill="#101442" stroke="#101442"></path><path d="M33.3 633.3L66.7 633.3L33.3 600Z" fill="#0f133e" stroke="#0f133e"></path><path d="M100 666.7L100 700L133.3 700Z" fill="#0a0c2e" stroke="#0a0c2e"></path><path d="M566.7 266.7L533.3 266.7L533.3 300Z" fill="#141649" stroke="#141649"></path><path d="M466.7 733.3L466.7 700L433.3 700Z" fill="#0d123b" stroke="#0d123b"></path><path d="M500 233.3L466.7 200L466.7 233.3Z" fill="#16174c" stroke="#16174c"></path><path d="M66.7 666.7L100 700L100 666.7Z" fill="#0c1138" stroke="#0c1138"></path><path d="M533.3 666.7L533.3 633.3L500 633.3Z" fill="#0f133e" stroke="#0f133e"></path><path d="M66.7 233.3L33.3 266.7L66.7 266.7Z" fill="#16174c" stroke="#16174c"></path><path d="M133.3 166.7L100 200L133.3 200Z" fill="#101442" stroke="#101442"></path><path d="M0 600L33.3 633.3L33.3 600Z" fill="#0b1035" stroke="#0b1035"></path><path d="M600 500L600 466.7L566.7 500Z" fill="#101442" stroke="#101442"></path><path d="M566.7 500L600 466.7L566.7 466.7Z" fill="#121545" stroke="#121545"></path><path d="M566.7 466.7L600 466.7L566.7 433.3Z" fill="#101442" stroke="#101442"></path><path d="M566.7 433.3L600 433.3L566.7 400Z" fill="#0d123b" stroke="#0d123b"></path><path d="M566.7 400L600 400L566.7 366.7Z" fill="#141649" stroke="#141649"></path><path d="M566.7 366.7L600 366.7L566.7 333.3Z" fill="#090a2b" stroke="#090a2b"></path><path d="M600 500L566.7 500L566.7 533.3Z" fill="#0c1138" stroke="#0c1138"></path><path d="M600 466.7L600 433.3L566.7 433.3Z" fill="#0c1138" stroke="#0c1138"></path><path d="M333.3 133.3L300 133.3L333.3 166.7Z" fill="#121545" stroke="#121545"></path><path d="M333.3 166.7L300 133.3L300 166.7Z" fill="#0b1035" stroke="#0b1035"></path><path d="M300 166.7L300 133.3L266.7 166.7Z" fill="#16174c" stroke="#16174c"></path><path d="M266.7 166.7L233.3 133.3L233.3 166.7Z" fill="#0a0e31" stroke="#0a0e31"></path><path d="M233.3 166.7L200 133.3L200 166.7Z" fill="#16174c" stroke="#16174c"></path><path d="M200 166.7L200 133.3L166.7 166.7Z" fill="#0a0c2e" stroke="#0a0c2e"></path><path d="M333.3 133.3L333.3 166.7L366.7 166.7Z" fill="#0a0c2e" stroke="#0a0c2e"></path><path d="M300 133.3L266.7 133.3L266.7 166.7Z" fill="#0c1138" stroke="#0c1138"></path><path d="M300 733.3L300 766.7L333.3 733.3Z" fill="#0a0e31" stroke="#0a0e31"></path><path d="M333.3 733.3L366.7 766.7L366.7 733.3Z" fill="#101442" stroke="#101442"></path><path d="M366.7 733.3L400 766.7L400 733.3Z" fill="#0c1138" stroke="#0c1138"></path><path d="M266.7 766.7L300 766.7L300 733.3Z" fill="#0a0c2e" stroke="#0a0c2e"></path><path d="M266.7 766.7L300 733.3L266.7 733.3Z" fill="#090a2b" stroke="#090a2b"></path><path d="M266.7 766.7L266.7 733.3L233.3 733.3Z" fill="#16174c" stroke="#16174c"></path><path d="M266.7 766.7L233.3 733.3L233.3 766.7Z" fill="#16174c" stroke="#16174c"></path><path d="M233.3 766.7L233.3 733.3L200 733.3Z" fill="#0a0e31" stroke="#0a0e31"></path><path d="M600 433.3L600 400L566.7 400Z" fill="#121545" stroke="#121545"></path><path d="M366.7 133.3L333.3 133.3L366.7 166.7Z" fill="#101442" stroke="#101442"></path><path d="M366.7 133.3L366.7 166.7L400 166.7Z" fill="#090a2b" stroke="#090a2b"></path><path d="M600 533.3L600 500L566.7 533.3Z" fill="#090a2b" stroke="#090a2b"></path><path d="M266.7 133.3L233.3 133.3L266.7 166.7Z" fill="#0a0e31" stroke="#0a0e31"></path><path d="M166.7 166.7L133.3 166.7L133.3 200Z" fill="#0a0c2e" stroke="#0a0c2e"></path><path d="M466.7 166.7L433.3 166.7L466.7 200Z" fill="#0a0e31" stroke="#0a0e31"></path><path d="M466.7 200L433.3 166.7L433.3 200Z" fill="#0b1035" stroke="#0b1035"></path><path d="M133.3 133.3L133.3 166.7L166.7 166.7Z" fill="#090a2b" stroke="#090a2b"></path><path d="M566.7 633.3L566.7 600L533.3 633.3Z" fill="#141649" stroke="#141649"></path><path d="M533.3 633.3L566.7 600L533.3 600Z" fill="#0a0e31" stroke="#0a0e31"></path><path d="M566.7 566.7L600 533.3L566.7 533.3Z" fill="#0c1138" stroke="#0c1138"></path><path d="M533.3 266.7L533.3 233.3L500 233.3Z" fill="#0f133e" stroke="#0f133e"></path><path d="M566.7 333.3L566.7 300L533.3 300Z" fill="#090a2b" stroke="#090a2b"></path><path d="M600 333.3L566.7 300L566.7 333.3Z" fill="#121545" stroke="#121545"></path><path d="M0 266.7L0 300L33.3 266.7Z" fill="#090a2b" stroke="#090a2b"></path><path d="M33.3 266.7L0 300L33.3 300Z" fill="#121545" stroke="#121545"></path><path d="M466.7 700L500 700L500 666.7Z" fill="#0c1138" stroke="#0c1138"></path><path d="M400 733.3L433.3 733.3L433.3 700Z" fill="#141649" stroke="#141649"></path><path d="M400 766.7L433.3 733.3L400 733.3Z" fill="#0c1138" stroke="#0c1138"></path><path d="M0 566.7L0 600L33.3 566.7Z" fill="#0f133e" stroke="#0f133e"></path><path d="M100 733.3L133.3 733.3L100 700Z" fill="#0c1138" stroke="#0c1138"></path><path d="M100 700L133.3 733.3L133.3 700Z" fill="#0f133e" stroke="#0f133e"></path><path d="M200 766.7L233.3 766.7L200 733.3Z" fill="#0c1138" stroke="#0c1138"></path><path d="M200 766.7L200 733.3L166.7 766.7Z" fill="#090a2b" stroke="#090a2b"></path><path d="M300 766.7L333.3 766.7L333.3 733.3Z" fill="#16174c" stroke="#16174c"></path><path d="M400 133.3L366.7 133.3L400 166.7Z" fill="#141649" stroke="#141649"></path><path d="M600 400L600 366.7L566.7 366.7Z" fill="#0b1035" stroke="#0b1035"></path><path d="M233.3 133.3L200 133.3L233.3 166.7Z" fill="#101442" stroke="#101442"></path><path d="M600 566.7L600 533.3L566.7 566.7Z" fill="#16174c" stroke="#16174c"></path><path d="M333.3 766.7L366.7 766.7L333.3 733.3Z" fill="#16174c" stroke="#16174c"></path><path d="M166.7 766.7L200 733.3L166.7 733.3Z" fill="#0d123b" stroke="#0d123b"></path><path d="M566.7 266.7L533.3 233.3L533.3 266.7Z" fill="#0a0e31" stroke="#0a0e31"></path><path d="M500 233.3L500 200L466.7 200Z" fill="#0f133e" stroke="#0f133e"></path><path d="M466.7 733.3L500 700L466.7 700Z" fill="#101442" stroke="#101442"></path><path d="M500 666.7L533.3 666.7L500 633.3Z" fill="#0a0c2e" stroke="#0a0c2e"></path><path d="M533.3 233.3L500 200L500 233.3Z" fill="#101442" stroke="#101442"></path><path d="M433.3 166.7L400 133.3L400 166.7Z" fill="#101442" stroke="#101442"></path><path d="M100 200L66.7 200L66.7 233.3Z" fill="#0a0c2e" stroke="#0a0c2e"></path><path d="M66.7 233.3L33.3 233.3L33.3 266.7Z" fill="#090a2b" stroke="#090a2b"></path><path d="M100 166.7L66.7 200L100 200Z" fill="#0a0e31" stroke="#0a0e31"></path><path d="M100 166.7L100 200L133.3 166.7Z" fill="#0b1035" stroke="#0b1035"></path><path d="M66.7 200L33.3 233.3L66.7 233.3Z" fill="#0a0e31" stroke="#0a0e31"></path><path d="M66.7 666.7L66.7 700L100 700Z" fill="#0b1035" stroke="#0b1035"></path><path d="M33.3 700L66.7 700L66.7 666.7Z" fill="#121545" stroke="#121545"></path><path d="M33.3 666.7L66.7 666.7L33.3 633.3Z" fill="#16174c" stroke="#16174c"></path><path d="M500 700L533.3 666.7L500 666.7Z" fill="#090a2b" stroke="#090a2b"></path><path d="M0 633.3L33.3 666.7L33.3 633.3Z" fill="#0c1138" stroke="#0c1138"></path><path d="M433.3 133.3L400 133.3L433.3 166.7Z" fill="#0a0e31" stroke="#0a0e31"></path><path d="M600 366.7L600 333.3L566.7 333.3Z" fill="#0a0e31" stroke="#0a0e31"></path><path d="M566.7 300L566.7 266.7L533.3 300Z" fill="#0a0e31" stroke="#0a0e31"></path><path d="M200 133.3L166.7 133.3L166.7 166.7Z" fill="#0d123b" stroke="#0d123b"></path><path d="M566.7 600L600 566.7L566.7 566.7Z" fill="#121545" stroke="#121545"></path><path d="M600 600L600 566.7L566.7 600Z" fill="#0a0e31" stroke="#0a0e31"></path><path d="M500 166.7L466.7 166.7L466.7 200Z" fill="#0c1138" stroke="#0c1138"></path><path d="M100 133.3L100 166.7L133.3 166.7Z" fill="#0a0e31" stroke="#0a0e31"></path><path d="M600 300L566.7 266.7L566.7 300Z" fill="#0a0c2e" stroke="#0a0c2e"></path><path d="M533.3 233.3L533.3 200L500 200Z" fill="#121545" stroke="#121545"></path><path d="M433.3 733.3L466.7 733.3L433.3 700Z" fill="#121545" stroke="#121545"></path><path d="M500 700L533.3 700L533.3 666.7Z" fill="#0a0e31" stroke="#0a0e31"></path><path d="M466.7 766.7L466.7 733.3L433.3 733.3Z" fill="#0f133e" stroke="#0f133e"></path><path d="M33.3 233.3L0 266.7L33.3 266.7Z" fill="#16174c" stroke="#16174c"></path><path d="M0 600L0 633.3L33.3 633.3Z" fill="#0d123b" stroke="#0d123b"></path><path d="M533.3 666.7L566.7 633.3L533.3 633.3Z" fill="#16174c" stroke="#16174c"></path><path d="M66.7 733.3L100 733.3L66.7 700Z" fill="#16174c" stroke="#16174c"></path><path d="M66.7 700L100 733.3L100 700Z" fill="#090a2b" stroke="#090a2b"></path><path d="M133.3 733.3L166.7 766.7L166.7 733.3Z" fill="#0b1035" stroke="#0b1035"></path><path d="M133.3 766.7L166.7 766.7L133.3 733.3Z" fill="#090a2b" stroke="#090a2b"></path><path d="M366.7 766.7L400 766.7L366.7 733.3Z" fill="#0d123b" stroke="#0d123b"></path><path d="M166.7 133.3L133.3 133.3L166.7 166.7Z" fill="#0d123b" stroke="#0d123b"></path><path d="M566.7 633.3L600 600L566.7 600Z" fill="#0f133e" stroke="#0f133e"></path><path d="M600 333.3L600 300L566.7 300Z" fill="#101442" stroke="#101442"></path><path d="M466.7 166.7L433.3 133.3L433.3 166.7Z" fill="#121545" stroke="#121545"></path><path d="M466.7 133.3L433.3 133.3L466.7 166.7Z" fill="#121545" stroke="#121545"></path><path d="M233.3 800L266.7 800L233.3 766.7Z" fill="#16174c" stroke="#16174c"></path><path d="M233.3 766.7L266.7 800L266.7 766.7Z" fill="#141649" stroke="#141649"></path><path d="M266.7 766.7L266.7 800L300 766.7Z" fill="#0d123b" stroke="#0d123b"></path><path d="M300 766.7L300 800L333.3 766.7Z" fill="#141649" stroke="#141649"></path><path d="M333.3 766.7L333.3 800L366.7 766.7Z" fill="#0a0c2e" stroke="#0a0c2e"></path><path d="M366.7 766.7L366.7 800L400 766.7Z" fill="#0c1138" stroke="#0c1138"></path><path d="M233.3 800L233.3 766.7L200 766.7Z" fill="#0f133e" stroke="#0f133e"></path><path d="M266.7 133.3L233.3 100L233.3 133.3Z" fill="#141649" stroke="#141649"></path><path d="M233.3 133.3L200 100L200 133.3Z" fill="#0a0e31" stroke="#0a0e31"></path><path d="M200 133.3L200 100L166.7 133.3Z" fill="#090a2b" stroke="#090a2b"></path><path d="M166.7 133.3L133.3 100L133.3 133.3Z" fill="#0a0c2e" stroke="#0a0c2e"></path><path d="M300 133.3L266.7 100L266.7 133.3Z" fill="#0b1035" stroke="#0b1035"></path><path d="M300 100L266.7 100L300 133.3Z" fill="#141649" stroke="#141649"></path><path d="M300 100L300 133.3L333.3 133.3Z" fill="#0d123b" stroke="#0d123b"></path><path d="M300 100L333.3 133.3L333.3 100Z" fill="#090a2b" stroke="#090a2b"></path><path d="M333.3 133.3L366.7 133.3L333.3 100Z" fill="#0c1138" stroke="#0c1138"></path><path d="M333.3 100L366.7 133.3L366.7 100Z" fill="#0c1138" stroke="#0c1138"></path><path d="M266.7 800L300 800L300 766.7Z" fill="#16174c" stroke="#16174c"></path><path d="M400 800L433.3 766.7L400 766.7Z" fill="#0a0e31" stroke="#0a0e31"></path><path d="M400 766.7L433.3 766.7L433.3 733.3Z" fill="#090a2b" stroke="#090a2b"></path><path d="M533.3 733.3L533.3 700L500 700Z" fill="#0f133e" stroke="#0f133e"></path><path d="M100 733.3L133.3 766.7L133.3 733.3Z" fill="#0a0e31" stroke="#0a0e31"></path><path d="M200 800L233.3 800L200 766.7Z" fill="#090a2b" stroke="#090a2b"></path><path d="M100 766.7L133.3 766.7L100 733.3Z" fill="#0a0e31" stroke="#0a0e31"></path><path d="M300 800L333.3 800L333.3 766.7Z" fill="#141649" stroke="#141649"></path><path d="M266.7 100L233.3 100L266.7 133.3Z" fill="#141649" stroke="#141649"></path><path d="M366.7 100L366.7 133.3L400 133.3Z" fill="#101442" stroke="#101442"></path><path d="M500 733.3L500 700L466.7 733.3Z" fill="#16174c" stroke="#16174c"></path><path d="M533.3 666.7L566.7 666.7L566.7 633.3Z" fill="#16174c" stroke="#16174c"></path><path d="M566.7 633.3L600 633.3L600 600Z" fill="#141649" stroke="#141649"></path><path d="M200 800L200 766.7L166.7 766.7Z" fill="#16174c" stroke="#16174c"></path><path d="M566.7 233.3L533.3 233.3L566.7 266.7Z" fill="#0a0c2e" stroke="#0a0c2e"></path><path d="M566.7 233.3L533.3 200L533.3 233.3Z" fill="#0a0c2e" stroke="#0a0c2e"></path><path d="M500 200L500 166.7L466.7 200Z" fill="#0d123b" stroke="#0d123b"></path><path d="M0 700L33.3 700L33.3 666.7Z" fill="#0b1035" stroke="#0b1035"></path><path d="M33.3 666.7L33.3 700L66.7 666.7Z" fill="#0f133e" stroke="#0f133e"></path><path d="M66.7 200L33.3 200L33.3 233.3Z" fill="#16174c" stroke="#16174c"></path><path d="M33.3 233.3L0 233.3L0 266.7Z" fill="#0d123b" stroke="#0d123b"></path><path d="M66.7 166.7L33.3 200L66.7 200Z" fill="#0d123b" stroke="#0d123b"></path><path d="M66.7 166.7L66.7 200L100 166.7Z" fill="#101442" stroke="#101442"></path><path d="M533.3 200L500 166.7L500 200Z" fill="#101442" stroke="#101442"></path><path d="M100 133.3L66.7 166.7L100 166.7Z" fill="#101442" stroke="#101442"></path><path d="M33.3 200L0 233.3L33.3 233.3Z" fill="#141649" stroke="#141649"></path><path d="M600 266.7L566.7 233.3L566.7 266.7Z" fill="#141649" stroke="#141649"></path><path d="M533.3 200L533.3 166.7L500 166.7Z" fill="#16174c" stroke="#16174c"></path><path d="M33.3 700L66.7 733.3L66.7 700Z" fill="#121545" stroke="#121545"></path><path d="M466.7 766.7L500 733.3L466.7 733.3Z" fill="#0d123b" stroke="#0d123b"></path><path d="M0 633.3L0 666.7L33.3 666.7Z" fill="#141649" stroke="#141649"></path><path d="M33.3 700L33.3 733.3L66.7 733.3Z" fill="#090a2b" stroke="#090a2b"></path><path d="M566.7 700L566.7 666.7L533.3 700Z" fill="#101442" stroke="#101442"></path><path d="M533.3 700L566.7 666.7L533.3 666.7Z" fill="#0f133e" stroke="#0f133e"></path><path d="M400 100L366.7 100L400 133.3Z" fill="#090a2b" stroke="#090a2b"></path><path d="M333.3 800L366.7 800L366.7 766.7Z" fill="#0a0e31" stroke="#0a0e31"></path><path d="M166.7 800L200 800L166.7 766.7Z" fill="#0f133e" stroke="#0f133e"></path><path d="M233.3 100L200 100L233.3 133.3Z" fill="#0d123b" stroke="#0d123b"></path><path d="M500 166.7L466.7 133.3L466.7 166.7Z" fill="#0d123b" stroke="#0d123b"></path><path d="M433.3 133.3L400 100L400 133.3Z" fill="#0d123b" stroke="#0d123b"></path><path d="M600 300L600 266.7L566.7 266.7Z" fill="#0d123b" stroke="#0d123b"></path><path d="M566.7 666.7L600 633.3L566.7 633.3Z" fill="#0f133e" stroke="#0f133e"></path><path d="M133.3 133.3L100 133.3L133.3 166.7Z" fill="#101442" stroke="#101442"></path><path d="M66.7 166.7L33.3 166.7L33.3 200Z" fill="#141649" stroke="#141649"></path><path d="M100 100L100 133.3L133.3 133.3Z" fill="#0b1035" stroke="#0b1035"></path><path d="M433.3 766.7L466.7 766.7L433.3 733.3Z" fill="#0a0e31" stroke="#0a0e31"></path><path d="M500 733.3L533.3 733.3L500 700Z" fill="#0a0e31" stroke="#0a0e31"></path><path d="M433.3 800L466.7 766.7L433.3 766.7Z" fill="#0d123b" stroke="#0d123b"></path><path d="M66.7 766.7L100 766.7L66.7 733.3Z" fill="#0b1035" stroke="#0b1035"></path><path d="M66.7 733.3L100 766.7L100 733.3Z" fill="#141649" stroke="#141649"></path><path d="M133.3 766.7L166.7 800L166.7 766.7Z" fill="#141649" stroke="#141649"></path><path d="M366.7 800L400 800L400 766.7Z" fill="#090a2b" stroke="#090a2b"></path><path d="M433.3 100L400 100L433.3 133.3Z" fill="#0a0e31" stroke="#0a0e31"></path><path d="M200 100L166.7 100L166.7 133.3Z" fill="#141649" stroke="#141649"></path><path d="M133.3 800L166.7 800L133.3 766.7Z" fill="#0d123b" stroke="#0d123b"></path><path d="M500 166.7L500 133.3L466.7 133.3Z" fill="#0b1035" stroke="#0b1035"></path><path d="M566.7 166.7L533.3 166.7L533.3 200Z" fill="#141649" stroke="#141649"></path><path d="M566.7 200L533.3 200L566.7 233.3Z" fill="#0f133e" stroke="#0f133e"></path><path d="M66.7 133.3L33.3 166.7L66.7 166.7Z" fill="#101442" stroke="#101442"></path><path d="M33.3 200L0 200L0 233.3Z" fill="#101442" stroke="#101442"></path><path d="M0 666.7L0 700L33.3 666.7Z" fill="#101442" stroke="#101442"></path><path d="M33.3 166.7L0 200L33.3 200Z" fill="#0c1138" stroke="#0c1138"></path><path d="M0 700L33.3 733.3L33.3 700Z" fill="#141649" stroke="#141649"></path><path d="M533.3 766.7L533.3 733.3L500 733.3Z" fill="#0f133e" stroke="#0f133e"></path><path d="M566.7 666.7L600 666.7L600 633.3Z" fill="#0c1138" stroke="#0c1138"></path><path d="M533.3 733.3L566.7 700L533.3 700Z" fill="#0b1035" stroke="#0b1035"></path><path d="M600 233.3L566.7 200L566.7 233.3Z" fill="#090a2b" stroke="#090a2b"></path><path d="M466.7 133.3L433.3 100L433.3 133.3Z" fill="#16174c" stroke="#16174c"></path><path d="M466.7 100L433.3 100L466.7 133.3Z" fill="#16174c" stroke="#16174c"></path><path d="M100 766.7L133.3 800L133.3 766.7Z" fill="#0c1138" stroke="#0c1138"></path><path d="M100 800L133.3 800L100 766.7Z" fill="#0b1035" stroke="#0b1035"></path><path d="M166.7 100L133.3 100L166.7 133.3Z" fill="#0c1138" stroke="#0c1138"></path><path d="M100 133.3L66.7 133.3L66.7 166.7Z" fill="#121545" stroke="#121545"></path><path d="M400 800L433.3 800L433.3 766.7Z" fill="#0a0c2e" stroke="#0a0c2e"></path><path d="M466.7 766.7L500 766.7L500 733.3Z" fill="#141649" stroke="#141649"></path><path d="M100 100L66.7 133.3L100 133.3Z" fill="#0b1035" stroke="#0b1035"></path><path d="M33.3 166.7L0 166.7L0 200Z" fill="#16174c" stroke="#16174c"></path><path d="M600 266.7L600 233.3L566.7 233.3Z" fill="#0d123b" stroke="#0d123b"></path><path d="M533.3 133.3L500 133.3L533.3 166.7Z" fill="#0f133e" stroke="#0f133e"></path><path d="M533.3 166.7L500 133.3L500 166.7Z" fill="#0a0e31" stroke="#0a0e31"></path><path d="M333.3 66.7L300 66.7L333.3 100Z" fill="#0d123b" stroke="#0d123b"></path><path d="M333.3 100L300 66.7L300 100Z" fill="#0c1138" stroke="#0c1138"></path><path d="M300 100L300 66.7L266.7 100Z" fill="#090a2b" stroke="#090a2b"></path><path d="M266.7 100L266.7 66.7L233.3 100Z" fill="#121545" stroke="#121545"></path><path d="M233.3 100L233.3 66.7L200 100Z" fill="#0b1035" stroke="#0b1035"></path><path d="M200 100L200 66.7L166.7 100Z" fill="#141649" stroke="#141649"></path><path d="M166.7 100L166.7 66.7L133.3 100Z" fill="#0c1138" stroke="#0c1138"></path><path d="M333.3 66.7L333.3 100L366.7 100Z" fill="#0b1035" stroke="#0b1035"></path><path d="M333.3 66.7L366.7 100L366.7 66.7Z" fill="#0f133e" stroke="#0f133e"></path><path d="M566.7 700L600 666.7L566.7 666.7Z" fill="#090a2b" stroke="#090a2b"></path><path d="M300 66.7L266.7 66.7L266.7 100Z" fill="#090a2b" stroke="#090a2b"></path><path d="M233.3 833.3L266.7 833.3L233.3 800Z" fill="#0b1035" stroke="#0b1035"></path><path d="M233.3 800L266.7 833.3L266.7 800Z" fill="#16174c" stroke="#16174c"></path><path d="M266.7 800L300 833.3L300 800Z" fill="#0d123b" stroke="#0d123b"></path><path d="M300 800L300 833.3L333.3 800Z" fill="#0b1035" stroke="#0b1035"></path><path d="M333.3 800L366.7 833.3L366.7 800Z" fill="#0a0e31" stroke="#0a0e31"></path><path d="M366.7 800L400 833.3L400 800Z" fill="#121545" stroke="#121545"></path><path d="M400 800L400 833.3L433.3 800Z" fill="#0c1138" stroke="#0c1138"></path><path d="M233.3 833.3L233.3 800L200 800Z" fill="#0b1035" stroke="#0b1035"></path><path d="M233.3 833.3L200 800L200 833.3Z" fill="#0d123b" stroke="#0d123b"></path><path d="M266.7 833.3L300 833.3L266.7 800Z" fill="#0c1138" stroke="#0c1138"></path><path d="M33.3 733.3L66.7 766.7L66.7 733.3Z" fill="#0c1138" stroke="#0c1138"></path><path d="M466.7 800L500 766.7L466.7 766.7Z" fill="#0a0e31" stroke="#0a0e31"></path><path d="M533.3 733.3L566.7 733.3L566.7 700Z" fill="#0a0c2e" stroke="#0a0c2e"></path><path d="M566.7 700L600 700L600 666.7Z" fill="#101442" stroke="#101442"></path><path d="M266.7 66.7L233.3 66.7L233.3 100Z" fill="#0c1138" stroke="#0c1138"></path><path d="M366.7 66.7L366.7 100L400 100Z" fill="#0f133e" stroke="#0f133e"></path><path d="M200 833.3L200 800L166.7 833.3Z" fill="#0f133e" stroke="#0f133e"></path><path d="M300 833.3L333.3 833.3L333.3 800Z" fill="#0d123b" stroke="#0d123b"></path><path d="M233.3 66.7L200 66.7L200 100Z" fill="#16174c" stroke="#16174c"></path><path d="M400 66.7L366.7 66.7L400 100Z" fill="#121545" stroke="#121545"></path><path d="M333.3 833.3L366.7 833.3L333.3 800Z" fill="#0a0c2e" stroke="#0a0c2e"></path><path d="M433.3 800L466.7 800L466.7 766.7Z" fill="#121545" stroke="#121545"></path><path d="M166.7 833.3L166.7 800L133.3 800Z" fill="#0c1138" stroke="#0c1138"></path><path d="M166.7 833.3L200 800L166.7 800Z" fill="#090a2b" stroke="#090a2b"></path><path d="M500 133.3L466.7 100L466.7 133.3Z" fill="#0a0c2e" stroke="#0a0c2e"></path><path d="M433.3 100L400 66.7L400 100Z" fill="#121545" stroke="#121545"></path><path d="M466.7 833.3L466.7 800L433.3 800Z" fill="#0f133e" stroke="#0f133e"></path><path d="M66.7 766.7L100 800L100 766.7Z" fill="#0f133e" stroke="#0f133e"></path><path d="M133.3 100L100 100L133.3 133.3Z" fill="#101442" stroke="#101442"></path><path d="M133.3 66.7L100 100L133.3 100Z" fill="#0a0e31" stroke="#0a0e31"></path><path d="M433.3 66.7L400 66.7L433.3 100Z" fill="#0f133e" stroke="#0f133e"></path><path d="M366.7 833.3L400 833.3L366.7 800Z" fill="#0a0c2e" stroke="#0a0c2e"></path><path d="M33.3 133.3L33.3 166.7L66.7 133.3Z" fill="#0a0e31" stroke="#0a0e31"></path><path d="M33.3 133.3L0 166.7L33.3 166.7Z" fill="#0f133e" stroke="#0f133e"></path><path d="M600 200L566.7 166.7L566.7 200Z" fill="#090a2b" stroke="#090a2b"></path><path d="M566.7 200L566.7 166.7L533.3 200Z" fill="#16174c" stroke="#16174c"></path><path d="M500 133.3L500 100L466.7 100Z" fill="#0b1035" stroke="#0b1035"></path><path d="M200 66.7L166.7 66.7L166.7 100Z" fill="#0a0c2e" stroke="#0a0c2e"></path><path d="M0 700L0 733.3L33.3 733.3Z" fill="#0a0e31" stroke="#0a0e31"></path><path d="M33.3 733.3L33.3 766.7L66.7 766.7Z" fill="#141649" stroke="#141649"></path><path d="M66.7 766.7L66.7 800L100 800Z" fill="#16174c" stroke="#16174c"></path><path d="M533.3 766.7L500 733.3L500 766.7Z" fill="#0d123b" stroke="#0d123b"></path><path d="M533.3 766.7L566.7 733.3L533.3 733.3Z" fill="#0d123b" stroke="#0d123b"></path><path d="M133.3 833.3L166.7 833.3L133.3 800Z" fill="#141649" stroke="#141649"></path><path d="M566.7 733.3L600 700L566.7 700Z" fill="#121545" stroke="#121545"></path><path d="M66.7 100L33.3 133.3L66.7 133.3Z" fill="#0c1138" stroke="#0c1138"></path><path d="M566.7 166.7L533.3 133.3L533.3 166.7Z" fill="#090a2b" stroke="#090a2b"></path><path d="M600 233.3L600 200L566.7 200Z" fill="#0c1138" stroke="#0c1138"></path><path d="M500 800L533.3 766.7L500 766.7Z" fill="#141649" stroke="#141649"></path><path d="M500 800L500 766.7L466.7 800Z" fill="#0a0e31" stroke="#0a0e31"></path><path d="M0 733.3L33.3 766.7L33.3 733.3Z" fill="#0c1138" stroke="#0c1138"></path><path d="M100 800L133.3 833.3L133.3 800Z" fill="#090a2b" stroke="#090a2b"></path><path d="M166.7 66.7L133.3 66.7L133.3 100Z" fill="#090a2b" stroke="#090a2b"></path><path d="M100 100L66.7 100L66.7 133.3Z" fill="#141649" stroke="#141649"></path><path d="M466.7 833.3L500 800L466.7 800Z" fill="#0a0e31" stroke="#0a0e31"></path><path d="M466.7 100L433.3 66.7L433.3 100Z" fill="#0f133e" stroke="#0f133e"></path><path d="M466.7 66.7L433.3 66.7L466.7 100Z" fill="#0c1138" stroke="#0c1138"></path><path d="M100 66.7L66.7 100L100 100Z" fill="#16174c" stroke="#16174c"></path><path d="M33.3 800L66.7 800L66.7 766.7Z" fill="#0a0c2e" stroke="#0a0c2e"></path><path d="M533.3 100L500 100L533.3 133.3Z" fill="#0b1035" stroke="#0b1035"></path><path d="M533.3 133.3L500 100L500 133.3Z" fill="#16174c" stroke="#16174c"></path><path d="M100 833.3L133.3 833.3L100 800Z" fill="#090a2b" stroke="#090a2b"></path><path d="M400 833.3L433.3 833.3L433.3 800Z" fill="#0a0e31" stroke="#0a0e31"></path><path d="M333.3 33.3L300 33.3L333.3 66.7Z" fill="#0d123b" stroke="#0d123b"></path><path d="M333.3 66.7L300 33.3L300 66.7Z" fill="#141649" stroke="#141649"></path><path d="M300 66.7L300 33.3L266.7 66.7Z" fill="#0a0c2e" stroke="#0a0c2e"></path><path d="M266.7 66.7L266.7 33.3L233.3 66.7Z" fill="#0d123b" stroke="#0d123b"></path><path d="M233.3 66.7L233.3 33.3L200 66.7Z" fill="#121545" stroke="#121545"></path><path d="M200 66.7L200 33.3L166.7 66.7Z" fill="#141649" stroke="#141649"></path><path d="M166.7 66.7L166.7 33.3L133.3 66.7Z" fill="#0d123b" stroke="#0d123b"></path><path d="M333.3 33.3L333.3 66.7L366.7 66.7Z" fill="#0b1035" stroke="#0b1035"></path><path d="M333.3 33.3L366.7 66.7L366.7 33.3Z" fill="#141649" stroke="#141649"></path><path d="M300 33.3L266.7 33.3L266.7 66.7Z" fill="#0f133e" stroke="#0f133e"></path><path d="M233.3 866.7L266.7 866.7L233.3 833.3Z" fill="#0d123b" stroke="#0d123b"></path><path d="M233.3 833.3L266.7 866.7L266.7 833.3Z" fill="#101442" stroke="#101442"></path><path d="M266.7 833.3L300 866.7L300 833.3Z" fill="#121545" stroke="#121545"></path><path d="M300 833.3L300 866.7L333.3 833.3Z" fill="#101442" stroke="#101442"></path><path d="M333.3 833.3L366.7 866.7L366.7 833.3Z" fill="#0a0e31" stroke="#0a0e31"></path><path d="M366.7 833.3L400 866.7L400 833.3Z" fill="#0b1035" stroke="#0b1035"></path><path d="M400 833.3L400 866.7L433.3 833.3Z" fill="#0a0e31" stroke="#0a0e31"></path><path d="M233.3 866.7L233.3 833.3L200 833.3Z" fill="#0b1035" stroke="#0b1035"></path><path d="M233.3 866.7L200 833.3L200 866.7Z" fill="#16174c" stroke="#16174c"></path><path d="M266.7 866.7L300 866.7L266.7 833.3Z" fill="#090a2b" stroke="#090a2b"></path><path d="M366.7 33.3L366.7 66.7L400 66.7Z" fill="#141649" stroke="#141649"></path><path d="M266.7 33.3L233.3 33.3L233.3 66.7Z" fill="#0d123b" stroke="#0d123b"></path><path d="M200 866.7L200 833.3L166.7 866.7Z" fill="#0d123b" stroke="#0d123b"></path><path d="M300 866.7L333.3 866.7L333.3 833.3Z" fill="#0c1138" stroke="#0c1138"></path><path d="M600 200L600 166.7L566.7 166.7Z" fill="#101442" stroke="#101442"></path><path d="M566.7 166.7L566.7 133.3L533.3 133.3Z" fill="#0a0c2e" stroke="#0a0c2e"></path><path d="M500 100L466.7 66.7L466.7 100Z" fill="#121545" stroke="#121545"></path><path d="M400 33.3L366.7 33.3L400 66.7Z" fill="#0f133e" stroke="#0f133e"></path><path d="M500 66.7L466.7 66.7L500 100Z" fill="#090a2b" stroke="#090a2b"></path><path d="M600 166.7L566.7 133.3L566.7 166.7Z" fill="#121545" stroke="#121545"></path><path d="M466.7 866.7L466.7 833.3L433.3 833.3Z" fill="#141649" stroke="#141649"></path><path d="M433.3 833.3L466.7 833.3L433.3 800Z" fill="#0d123b" stroke="#0d123b"></path><path d="M566.7 766.7L566.7 733.3L533.3 766.7Z" fill="#0a0c2e" stroke="#0a0c2e"></path><path d="M133.3 33.3L100 66.7L133.3 66.7Z" fill="#0d123b" stroke="#0d123b"></path><path d="M133.3 66.7L100 66.7L100 100Z" fill="#101442" stroke="#101442"></path><path d="M33.3 100L33.3 133.3L66.7 100Z" fill="#0f133e" stroke="#0f133e"></path><path d="M33.3 100L0 133.3L33.3 133.3Z" fill="#121545" stroke="#121545"></path><path d="M33.3 133.3L0 133.3L0 166.7Z" fill="#141649" stroke="#141649"></path><path d="M233.3 33.3L200 33.3L200 66.7Z" fill="#0c1138" stroke="#0c1138"></path><path d="M566.7 733.3L600 733.3L600 700Z" fill="#0a0e31" stroke="#0a0e31"></path><path d="M566.7 766.7L600 733.3L566.7 733.3Z" fill="#141649" stroke="#141649"></path><path d="M566.7 766.7L533.3 766.7L533.3 800Z" fill="#0f133e" stroke="#0f133e"></path><path d="M400 33.3L400 66.7L433.3 66.7Z" fill="#0a0e31" stroke="#0a0e31"></path><path d="M66.7 800L100 833.3L100 800Z" fill="#0c1138" stroke="#0c1138"></path><path d="M166.7 866.7L200 833.3L166.7 833.3Z" fill="#0b1035" stroke="#0b1035"></path><path d="M66.7 833.3L100 833.3L66.7 800Z" fill="#0d123b" stroke="#0d123b"></path><path d="M0 733.3L0 766.7L33.3 766.7Z" fill="#0a0c2e" stroke="#0a0c2e"></path><path d="M33.3 766.7L33.3 800L66.7 766.7Z" fill="#141649" stroke="#141649"></path><path d="M166.7 866.7L166.7 833.3L133.3 833.3Z" fill="#121545" stroke="#121545"></path><path d="M333.3 866.7L366.7 866.7L333.3 833.3Z" fill="#101442" stroke="#101442"></path><path d="M533.3 800L533.3 766.7L500 800Z" fill="#0c1138" stroke="#0c1138"></path><path d="M533.3 833.3L533.3 800L500 800Z" fill="#0c1138" stroke="#0c1138"></path><path d="M0 800L33.3 800L33.3 766.7Z" fill="#16174c" stroke="#16174c"></path><path d="M66.7 66.7L33.3 100L66.7 100Z" fill="#0b1035" stroke="#0b1035"></path><path d="M566.7 133.3L533.3 100L533.3 133.3Z" fill="#16174c" stroke="#16174c"></path><path d="M433.3 33.3L400 33.3L433.3 66.7Z" fill="#0c1138" stroke="#0c1138"></path><path d="M200 33.3L166.7 33.3L166.7 66.7Z" fill="#0c1138" stroke="#0c1138"></path><path d="M366.7 866.7L400 866.7L366.7 833.3Z" fill="#0a0e31" stroke="#0a0e31"></path><path d="M133.3 866.7L166.7 866.7L133.3 833.3Z" fill="#0b1035" stroke="#0b1035"></path><path d="M533.3 66.7L500 66.7L533.3 100Z" fill="#0d123b" stroke="#0d123b"></path><path d="M533.3 100L500 66.7L500 100Z" fill="#121545" stroke="#121545"></path><path d="M466.7 66.7L433.3 33.3L433.3 66.7Z" fill="#0f133e" stroke="#0f133e"></path><path d="M100 66.7L66.7 66.7L66.7 100Z" fill="#141649" stroke="#141649"></path><path d="M100 33.3L66.7 66.7L100 66.7Z" fill="#0c1138" stroke="#0c1138"></path><path d="M33.3 833.3L66.7 833.3L33.3 800Z" fill="#0a0c2e" stroke="#0a0c2e"></path><path d="M33.3 800L66.7 833.3L66.7 800Z" fill="#0a0c2e" stroke="#0a0c2e"></path><path d="M100 833.3L133.3 866.7L133.3 833.3Z" fill="#090a2b" stroke="#090a2b"></path><path d="M466.7 833.3L500 833.3L500 800Z" fill="#121545" stroke="#121545"></path><path d="M566.7 800L600 766.7L566.7 766.7Z" fill="#0d123b" stroke="#0d123b"></path><path d="M466.7 866.7L500 833.3L466.7 833.3Z" fill="#0a0e31" stroke="#0a0e31"></path><path d="M466.7 33.3L433.3 33.3L466.7 66.7Z" fill="#0a0e31" stroke="#0a0e31"></path><path d="M166.7 33.3L133.3 33.3L133.3 66.7Z" fill="#0c1138" stroke="#0c1138"></path><path d="M100 866.7L133.3 866.7L100 833.3Z" fill="#0a0e31" stroke="#0a0e31"></path><path d="M400 866.7L433.3 866.7L433.3 833.3Z" fill="#0b1035" stroke="#0b1035"></path><path d="M600 166.7L600 133.3L566.7 133.3Z" fill="#090a2b" stroke="#090a2b"></path><path d="M566.7 133.3L566.7 100L533.3 100Z" fill="#0f133e" stroke="#0f133e"></path><path d="M566.7 800L566.7 766.7L533.3 800Z" fill="#16174c" stroke="#16174c"></path><path d="M566.7 766.7L600 766.7L600 733.3Z" fill="#0f133e" stroke="#0f133e"></path><path d="M333.3 0L333.3 33.3L366.7 33.3Z" fill="#090a2b" stroke="#090a2b"></path><path d="M333.3 0L300 0L333.3 33.3Z" fill="#0a0e31" stroke="#0a0e31"></path><path d="M333.3 33.3L300 0L300 33.3Z" fill="#0b1035" stroke="#0b1035"></path><path d="M300 33.3L300 0L266.7 33.3Z" fill="#090a2b" stroke="#090a2b"></path><path d="M266.7 33.3L266.7 0L233.3 33.3Z" fill="#101442" stroke="#101442"></path><path d="M233.3 33.3L233.3 0L200 33.3Z" fill="#0a0c2e" stroke="#0a0c2e"></path><path d="M200 33.3L200 0L166.7 33.3Z" fill="#0c1138" stroke="#0c1138"></path><path d="M166.7 33.3L166.7 0L133.3 33.3Z" fill="#0f133e" stroke="#0f133e"></path><path d="M333.3 0L366.7 33.3L366.7 0Z" fill="#0d123b" stroke="#0d123b"></path><path d="M300 0L266.7 0L266.7 33.3Z" fill="#101442" stroke="#101442"></path><path d="M533.3 833.3L566.7 800L533.3 800Z" fill="#101442" stroke="#101442"></path><path d="M0 766.7L0 800L33.3 766.7Z" fill="#0d123b" stroke="#0d123b"></path><path d="M600 133.3L566.7 100L566.7 133.3Z" fill="#101442" stroke="#101442"></path><path d="M33.3 66.7L0 100L33.3 100Z" fill="#0d123b" stroke="#0d123b"></path><path d="M33.3 100L0 100L0 133.3Z" fill="#101442" stroke="#101442"></path><path d="M333.3 866.7L366.7 900L366.7 866.7Z" fill="#0f133e" stroke="#0f133e"></path><path d="M366.7 866.7L400 900L400 866.7Z" fill="#16174c" stroke="#16174c"></path><path d="M400 866.7L400 900L433.3 866.7Z" fill="#141649" stroke="#141649"></path><path d="M300 866.7L300 900L333.3 866.7Z" fill="#0a0c2e" stroke="#0a0c2e"></path><path d="M266.7 900L300 900L300 866.7Z" fill="#0c1138" stroke="#0c1138"></path><path d="M266.7 900L300 866.7L266.7 866.7Z" fill="#121545" stroke="#121545"></path><path d="M266.7 900L266.7 866.7L233.3 866.7Z" fill="#090a2b" stroke="#090a2b"></path><path d="M266.7 900L233.3 866.7L233.3 900Z" fill="#0a0c2e" stroke="#0a0c2e"></path><path d="M233.3 866.7L200 866.7L233.3 900Z" fill="#141649" stroke="#141649"></path><path d="M233.3 900L200 866.7L200 900Z" fill="#0c1138" stroke="#0c1138"></path><path d="M266.7 0L233.3 0L233.3 33.3Z" fill="#121545" stroke="#121545"></path><path d="M366.7 0L366.7 33.3L400 33.3Z" fill="#0f133e" stroke="#0f133e"></path><path d="M300 900L333.3 900L333.3 866.7Z" fill="#0f133e" stroke="#0f133e"></path><path d="M200 900L200 866.7L166.7 900Z" fill="#121545" stroke="#121545"></path><path d="M500 66.7L466.7 33.3L466.7 66.7Z" fill="#101442" stroke="#101442"></path><path d="M400 0L366.7 0L400 33.3Z" fill="#090a2b" stroke="#090a2b"></path><path d="M500 33.3L466.7 33.3L500 66.7Z" fill="#0d123b" stroke="#0d123b"></path><path d="M133.3 0L100 33.3L133.3 33.3Z" fill="#0c1138" stroke="#0c1138"></path><path d="M133.3 33.3L100 33.3L100 66.7Z" fill="#0c1138" stroke="#0c1138"></path><path d="M66.7 66.7L33.3 66.7L33.3 100Z" fill="#0c1138" stroke="#0c1138"></path><path d="M466.7 900L466.7 866.7L433.3 866.7Z" fill="#090a2b" stroke="#090a2b"></path><path d="M433.3 866.7L466.7 866.7L433.3 833.3Z" fill="#16174c" stroke="#16174c"></path><path d="M500 833.3L533.3 833.3L500 800Z" fill="#0c1138" stroke="#0c1138"></path><path d="M66.7 833.3L100 866.7L100 833.3Z" fill="#0f133e" stroke="#0f133e"></path><path d="M166.7 900L200 866.7L166.7 866.7Z" fill="#090a2b" stroke="#090a2b"></path><path d="M66.7 866.7L100 866.7L66.7 833.3Z" fill="#0c1138" stroke="#0c1138"></path><path d="M400 0L400 33.3L433.3 33.3Z" fill="#0a0c2e" stroke="#0a0c2e"></path><path d="M566.7 100L533.3 66.7L533.3 100Z" fill="#101442" stroke="#101442"></path><path d="M233.3 0L200 0L200 33.3Z" fill="#0f133e" stroke="#0f133e"></path><path d="M66.7 33.3L33.3 66.7L66.7 66.7Z" fill="#141649" stroke="#141649"></path><path d="M533.3 866.7L533.3 833.3L500 833.3Z" fill="#141649" stroke="#141649"></path><path d="M0 800L33.3 833.3L33.3 800Z" fill="#0b1035" stroke="#0b1035"></path><path d="M166.7 900L166.7 866.7L133.3 866.7Z" fill="#0b1035" stroke="#0b1035"></path><path d="M333.3 900L366.7 900L333.3 866.7Z" fill="#0a0e31" stroke="#0a0e31"></path><path d="M433.3 0L400 0L433.3 33.3Z" fill="#0a0e31" stroke="#0a0e31"></path><path d="M200 0L166.7 0L166.7 33.3Z" fill="#0c1138" stroke="#0c1138"></path><path d="M366.7 900L400 900L366.7 866.7Z" fill="#121545" stroke="#121545"></path><path d="M133.3 900L166.7 900L133.3 866.7Z" fill="#101442" stroke="#101442"></path><path d="M100 33.3L66.7 33.3L66.7 66.7Z" fill="#141649" stroke="#141649"></path><path d="M100 0L66.7 33.3L100 33.3Z" fill="#101442" stroke="#101442"></path><path d="M533.3 33.3L500 33.3L533.3 66.7Z" fill="#141649" stroke="#141649"></path><path d="M533.3 66.7L500 33.3L500 66.7Z" fill="#090a2b" stroke="#090a2b"></path><path d="M466.7 33.3L433.3 0L433.3 33.3Z" fill="#0f133e" stroke="#0f133e"></path><path d="M466.7 866.7L500 866.7L500 833.3Z" fill="#101442" stroke="#101442"></path><path d="M566.7 833.3L600 800L566.7 800Z" fill="#141649" stroke="#141649"></path><path d="M566.7 800L600 800L600 766.7Z" fill="#141649" stroke="#141649"></path><path d="M466.7 900L500 866.7L466.7 866.7Z" fill="#090a2b" stroke="#090a2b"></path><path d="M33.3 833.3L66.7 866.7L66.7 833.3Z" fill="#121545" stroke="#121545"></path><path d="M100 866.7L133.3 900L133.3 866.7Z" fill="#090a2b" stroke="#090a2b"></path><path d="M600 133.3L600 100L566.7 100Z" fill="#090a2b" stroke="#090a2b"></path><path d="M566.7 100L566.7 66.7L533.3 66.7Z" fill="#0c1138" stroke="#0c1138"></path><path d="M566.7 833.3L566.7 800L533.3 833.3Z" fill="#101442" stroke="#101442"></path><path d="M166.7 0L133.3 0L133.3 33.3Z" fill="#141649" stroke="#141649"></path><path d="M466.7 0L433.3 0L466.7 33.3Z" fill="#141649" stroke="#141649"></path><path d="M400 900L433.3 900L433.3 866.7Z" fill="#0f133e" stroke="#0f133e"></path><path d="M100 900L133.3 900L100 866.7Z" fill="#16174c" stroke="#16174c"></path><path d="M600 100L566.7 66.7L566.7 100Z" fill="#141649" stroke="#141649"></path><path d="M33.3 33.3L0 66.7L33.3 66.7Z" fill="#0b1035" stroke="#0b1035"></path><path d="M33.3 66.7L0 66.7L0 100Z" fill="#0f133e" stroke="#0f133e"></path><path d="M33.3 833.3L33.3 866.7L66.7 866.7Z" fill="#0f133e" stroke="#0f133e"></path><path d="M0 800L0 833.3L33.3 833.3Z" fill="#0a0e31" stroke="#0a0e31"></path><path d="M533.3 866.7L566.7 833.3L533.3 833.3Z" fill="#0a0c2e" stroke="#0a0c2e"></path><path d="M500 33.3L466.7 0L466.7 33.3Z" fill="#16174c" stroke="#16174c"></path><path d="M500 0L466.7 0L500 33.3Z" fill="#0a0e31" stroke="#0a0e31"></path><path d="M66.7 0L33.3 33.3L66.7 33.3Z" fill="#0f133e" stroke="#0f133e"></path><path d="M66.7 33.3L33.3 33.3L33.3 66.7Z" fill="#101442" stroke="#101442"></path><path d="M566.7 66.7L533.3 33.3L533.3 66.7Z" fill="#141649" stroke="#141649"></path><path d="M133.3 0L100 0L100 33.3Z" fill="#16174c" stroke="#16174c"></path><path d="M0 833.3L33.3 866.7L33.3 833.3Z" fill="#0a0c2e" stroke="#0a0c2e"></path><path d="M66.7 866.7L100 900L100 866.7Z" fill="#090a2b" stroke="#090a2b"></path><path d="M533.3 900L533.3 866.7L500 866.7Z" fill="#121545" stroke="#121545"></path><path d="M500 866.7L533.3 866.7L500 833.3Z" fill="#090a2b" stroke="#090a2b"></path><path d="M433.3 900L466.7 900L433.3 866.7Z" fill="#0b1035" stroke="#0b1035"></path><path d="M66.7 900L100 900L66.7 866.7Z" fill="#101442" stroke="#101442"></path><path d="M600 100L600 66.7L566.7 66.7Z" fill="#121545" stroke="#121545"></path><path d="M566.7 66.7L566.7 33.3L533.3 33.3Z" fill="#0b1035" stroke="#0b1035"></path><path d="M566.7 866.7L600 833.3L566.7 833.3Z" fill="#16174c" stroke="#16174c"></path><path d="M566.7 833.3L600 833.3L600 800Z" fill="#101442" stroke="#101442"></path><path d="M100 0L66.7 0L66.7 33.3Z" fill="#0a0e31" stroke="#0a0e31"></path><path d="M533.3 33.3L500 0L500 33.3Z" fill="#0d123b" stroke="#0d123b"></path><path d="M533.3 0L500 0L533.3 33.3Z" fill="#090a2b" stroke="#090a2b"></path><path d="M466.7 900L500 900L500 866.7Z" fill="#101442" stroke="#101442"></path><path d="M533.3 866.7L566.7 866.7L566.7 833.3Z" fill="#0f133e" stroke="#0f133e"></path><path d="M33.3 866.7L66.7 900L66.7 866.7Z" fill="#0a0c2e" stroke="#0a0c2e"></path><path d="M33.3 0L0 33.3L33.3 33.3Z" fill="#0a0c2e" stroke="#0a0c2e"></path><path d="M33.3 33.3L0 33.3L0 66.7Z" fill="#121545" stroke="#121545"></path><path d="M600 33.3L566.7 33.3L566.7 66.7Z" fill="#141649" stroke="#141649"></path><path d="M533.3 900L566.7 866.7L533.3 866.7Z" fill="#0d123b" stroke="#0d123b"></path><path d="M0 833.3L0 866.7L33.3 866.7Z" fill="#0f133e" stroke="#0f133e"></path><path d="M33.3 866.7L33.3 900L66.7 900Z" fill="#0f133e" stroke="#0f133e"></path><path d="M66.7 0L33.3 0L33.3 33.3Z" fill="#121545" stroke="#121545"></path><path d="M566.7 33.3L533.3 0L533.3 33.3Z" fill="#121545" stroke="#121545"></path><path d="M0 866.7L33.3 900L33.3 866.7Z" fill="#16174c" stroke="#16174c"></path><path d="M500 900L533.3 900L500 866.7Z" fill="#0a0e31" stroke="#0a0e31"></path><path d="M600 66.7L600 33.3L566.7 66.7Z" fill="#0f133e" stroke="#0f133e"></path><path d="M566.7 33.3L566.7 0L533.3 0Z" fill="#121545" stroke="#121545"></path><path d="M566.7 900L600 866.7L566.7 866.7Z" fill="#090a2b" stroke="#090a2b"></path><path d="M566.7 866.7L600 866.7L600 833.3Z" fill="#141649" stroke="#141649"></path><path d="M33.3 0L0 0L0 33.3Z" fill="#090a2b" stroke="#090a2b"></path><path d="M600 0L566.7 0L566.7 33.3Z" fill="#121545" stroke="#121545"></path><path d="M0 866.7L0 900L33.3 900Z" fill="#0a0e31" stroke="#0a0e31"></path><path d="M533.3 900L566.7 900L566.7 866.7Z" fill="#0c1138" stroke="#0c1138"></path><path d="M600 33.3L600 0L566.7 33.3Z" fill="#16174c" stroke="#16174c"></path><path d="M566.7 900L600 900L600 866.7Z" fill="#0f133e" stroke="#0f133e"></path></g></svg>