<?xml version="1.0" encoding="UTF-8" standalone="no"?><!DOCTYPE svg PUBLIC "-//W3C//DTD SVG 1.1//EN" "http://www.w3.org/Graphics/SVG/1.1/DTD/svg11.dtd"><svg width="100%" height="100%" viewBox="0 0 540 512" version="1.1" xmlns="http://www.w3.org/2000/svg" xmlns:xlink="http://www.w3.org/1999/xlink" xml:space="preserve" xmlns:serif="http://www.serif.com/" style="fill-rule:evenodd;clip-rule:evenodd;stroke-linejoin:round;stroke-miterlimit:2;"><rect id="Artboard1" x="0" y="0" width="539.108" height="512" style="fill:none;"/><clipPath id="_clip1"><rect x="0" y="0" width="539.108" height="512"/></clipPath><g clip-path="url(#_clip1)"><rect x="-1.68" y="-14.431" width="550.461" height="549.603" style="fill:#968123;"/><path d="M45.554,96c0,-17.67 14.33,-32 32,-32l384,0c17.7,0 32,14.33 32,32c0,17.7 -14.3,32 -32,32l-384,0c-17.67,0 -32,-14.3 -32,-32Zm0,160c0,-17.7 14.33,-32 32,-32l384,0c17.7,0 32,14.3 32,32c0,17.7 -14.3,32 -32,32l-384,0c-17.67,0 -32,-14.3 -32,-32Zm416,192l-384,0c-17.67,0 -32,-14.3 -32,-32c0,-17.7 14.33,-32 32,-32l384,0c17.7,0 32,14.3 32,32c0,17.7 -14.3,32 -32,32Z" style="fill:#fff;fill-rule:nonzero;"/></g></svg>